<?xml version="1.0" encoding="UTF-8" standalone="no"?>
<!-- Created with Inkscape (http://www.inkscape.org/) -->

<svg
   width="77.440025"
   height="295.20114"
   viewBox="0 0 77.440034 295.20114"
   version="1.1"
   id="svg1"
   xml:space="preserve"
   sodipodi:docname="sidebarSearch.svg"
   inkscape:version="1.3 (0e150ed6c4, 2023-07-21)"
   xmlns:inkscape="http://www.inkscape.org/namespaces/inkscape"
   xmlns:sodipodi="http://sodipodi.sourceforge.net/DTD/sodipodi-0.dtd"
   xmlns="http://www.w3.org/2000/svg"
   xmlns:svg="http://www.w3.org/2000/svg"
   xmlns:rdf="http://www.w3.org/1999/02/22-rdf-syntax-ns#"
   xmlns:cc="http://creativecommons.org/ns#"
   xmlns:dc="http://purl.org/dc/elements/1.1/"><title
     id="title1">Search text</title><sodipodi:namedview
     id="namedview1"
     pagecolor="#505050"
     bordercolor="#ffffff"
     borderopacity="1"
     inkscape:showpageshadow="0"
     inkscape:pageopacity="0"
     inkscape:pagecheckerboard="1"
     inkscape:deskcolor="#505050"
     inkscape:document-units="px"
     showgrid="true"
     inkscape:zoom="1"
     inkscape:cx="63"
     inkscape:cy="202"
     inkscape:window-width="1287"
     inkscape:window-height="747"
     inkscape:window-x="-4"
     inkscape:window-y="-4"
     inkscape:window-maximized="1"
     inkscape:current-layer="layer1"><inkscape:grid
       id="grid2"
       units="px"
       originx="0.21470224"
       originy="-13.532987"
       spacingx="1.0000001"
       spacingy="1.0000001"
       empcolor="#0099e5"
       empopacity="0.30196078"
       color="#0099e5"
       opacity="0.14901961"
       empspacing="5"
       dotted="false"
       gridanglex="30"
       gridanglez="30"
       visible="true" /></sodipodi:namedview><defs
     id="defs1"><filter
       inkscape:collect="always"
       style="color-interpolation-filters:sRGB"
       id="filter1"
       x="-0.0075075212"
       y="-0.029880256"
       width="1.015015"
       height="1.0597605"><feGaussianBlur
         inkscape:collect="always"
         stdDeviation="0.90976849"
         id="feGaussianBlur1" /></filter></defs><g
     inkscape:label="Text"
     inkscape:groupmode="layer"
     id="layer1"
     transform="rotate(-90,35.378917,53.863046)"
     style="opacity:1"><path
       d="m -162.05684,21.500909 0.3125,18.125056 h -2.44792 q -5.20835,-16.302134 -18.38547,-16.302134 -7.29169,0 -11.35421,4.062513 -4.01043,4.010429 -4.01043,8.333359 0,4.010429 3.33335,6.822938 3.38543,2.812509 12.2917,4.375014 8.90628,1.510421 13.54171,3.750011 4.68752,2.187507 7.86461,7.343773 3.22918,5.156266 3.22918,11.822954 0,10.260449 -6.71877,17.083387 -6.66669,6.822938 -16.56256,6.822938 -8.07294,0 -16.0938,-5.989603 l -4.89584,4.375014 h -1.82293 V 72.594818 h 2.23959 q 3.07293,9.218779 8.59378,13.85421 5.52085,4.635431 12.08337,4.635431 6.51044,0 11.92712,-4.270846 5.46877,-4.322931 5.46877,-10.885451 0,-5.520851 -3.8021,-9.270862 -3.75001,-3.802096 -12.23962,-5.20835 -8.43752,-1.458338 -12.96879,-3.333344 -4.53126,-1.927089 -7.76044,-6.614604 -3.22918,-4.739598 -3.22918,-10.468782 0,-7.916692 5.62502,-14.114628 5.62502,-6.250019 15.26047,-6.250019 8.07294,0 15.05213,5.104182 1.92709,-1.822922 3.33334,-4.270846 z m 51.82308,47.031396 h -26.35425 q -0.36458,15.416715 1.71876,19.010477 2.08334,3.541677 7.44794,3.541677 11.0417,0 14.94796,-12.81254 h 2.23959 q -1.71875,7.760441 -6.51044,11.458369 -4.79168,3.697929 -10.67711,3.697929 -8.38545,0 -14.58338,-6.197936 -6.19794,-6.25002 -6.19794,-15.677133 0,-9.166695 6.04169,-15.416715 6.09377,-6.250019 14.11463,-6.250019 6.97918,0 12.18753,4.947932 5.26044,4.947932 5.62502,13.697959 z m -26.35425,-2.343757 h 15.1563 q 0.41667,-3.697928 0.41667,-5.625017 0,-8.33336 -7.55211,-8.33336 -3.75001,0 -5.88543,2.031257 -2.13543,1.979172 -2.13543,5.416683 z m 61.406445,2.552091 v -5.312516 q 0,-6.510437 -1.093753,-8.541693 -1.04167,-2.031257 -5.729185,-2.031257 -8.437526,0 -8.437526,3.229177 0,0.937503 0.677085,2.08334 0.729169,1.093753 0.729169,2.604175 0,2.135423 -1.406254,3.28126 -1.406255,1.093753 -3.177094,1.093753 -2.291673,0 -3.541677,-1.406254 -1.250004,-1.458338 -1.250004,-3.385427 0,-4.16668 4.843765,-6.979189 4.895849,-2.864592 13.593792,-2.864592 6.979189,0 10.208366,1.614588 3.229176,1.614589 3.958345,4.010429 0.781253,2.395841 0.781253,6.770855 v 19.166726 q 0,4.218764 0.572918,5.260434 0.625002,1.041669 1.875006,1.041669 1.875006,0 3.645845,-2.552091 h 1.250004 q -1.354171,7.604191 -8.854195,7.604191 -7.239606,0 -8.64586,-8.33336 -6.093769,8.33336 -14.270878,8.33336 -5.416683,0 -8.64586,-2.916676 -3.229177,-2.968759 -3.229177,-7.239606 0,-13.281292 26.145915,-14.531296 z m 0,8.020859 V 71.13648 q -9.635447,0.364585 -12.708373,2.916676 -3.072926,2.500008 -3.072926,7.291689 0,3.489595 1.822922,5.416684 1.875006,1.927089 4.270847,1.927089 3.072926,0 5.52085,-2.031256 2.500008,-2.08334 3.333344,-4.16668 0.833336,-2.083339 0.833336,-5.729184 z m 31.198016,12.708373 V 53.84476 h -8.437526 v -2.656259 h 8.541693 q 6.562521,0 10.000031,-0.677085 v 9.843781 h 0.208334 q 3.645845,-9.843781 10.781284,-9.843781 3.12501,0 5.000016,1.927089 1.927089,1.875006 1.927089,4.583348 0,2.500008 -1.562505,4.062513 -1.510421,1.510421 -3.958346,1.510421 -4.47918,0 -4.47918,-4.479181 l 0.208334,-2.23959 q 0,-1.19792 -1.093754,-1.19792 -1.718755,0 -4.375013,4.635431 -2.656259,4.635431 -2.656259,14.166711 v 15.989633 h 8.645861 v 2.656258 H -52.421075 V 89.469871 Z M 25.964583,77.959418 h 2.239591 q -1.562505,7.552107 -6.145853,11.510453 -4.583347,3.958346 -11.041701,3.958346 -8.8021108,0 -14.8958798,-6.510437 -6.093769,-6.562521 -6.093769,-15.052131 0,-8.750027 6.2500195,-15.364631 6.2500195,-6.614604 15.5208823,-6.614604 6.614604,0 10.781283,3.385427 4.16668,3.333344 4.16668,7.500024 0,2.083339 -1.458338,3.750011 -1.406254,1.666672 -3.697928,1.666672 -2.239591,0 -3.750012,-1.406254 -1.458338,-1.406255 -1.458338,-3.697928 0,-1.614589 1.250004,-3.177094 1.302087,-1.562505 1.302087,-2.135423 0,-1.406254 -1.927089,-2.447924 -1.927089,-1.093754 -5.000016,-1.093754 -5.4166831,0 -8.0729414,2.916676 -2.6041748,2.916676 -2.6041748,12.343789 0,9.427112 0.4687515,13.958376 0.5208349,4.479181 2.6562583,7.083356 2.1354233,2.552091 7.0312724,2.552091 10.312532,0 14.479211,-13.125041 z M 42.37089,89.469871 V 24.938419 h -8.125025 v -2.656258 h 7.812524 q 7.031272,0 10.468783,-0.781252 v 38.854288 h 0.208334 q 5.208349,-9.843781 14.583379,-9.843781 3.802095,0 7.395856,1.979173 3.593761,1.927089 4.583348,5.572934 1.04167,3.645844 1.04167,11.666703 v 19.739645 h 6.718771 v 2.656258 H 63.516789 V 89.469871 H 70.23556 V 68.740639 q 0,-8.437526 -0.468751,-11.979204 -0.468752,-3.593761 -4.687515,-3.593761 -4.531264,0 -7.656274,3.906262 -3.072926,3.854179 -4.010429,7.916692 -0.885419,4.010429 -0.885419,13.177124 v 11.302119 h 6.718771 v 2.656258 H 35.027117 v -2.656258 z"
       id="text3"
       style="font-size:106.667px;font-family:'Bodoni MT';-inkscape-font-specification:'Bodoni MT';stroke-width:0;stroke-linejoin:bevel;paint-order:stroke fill markers;filter:url(#filter1)"
       inkscape:label="Shadow"
       aria-label="Search" /><path
       d="m -163.50621,23.459023 0.3125,18.125057 h -2.44792 q -5.20835,-16.302134 -18.38548,-16.302134 -7.29168,0 -11.3542,4.062512 -4.01043,4.010429 -4.01043,8.33336 0,4.010429 3.33335,6.822938 3.38542,2.812508 12.2917,4.375013 8.90628,1.510422 13.54171,3.750012 4.68752,2.187507 7.86461,7.343773 3.22918,5.156266 3.22918,11.822953 0,10.260449 -6.71878,17.083387 -6.66668,6.822938 -16.56255,6.822938 -8.07294,0 -16.0938,-5.989602 l -4.89585,4.375014 h -1.82292 V 74.552933 h 2.23959 q 3.07293,9.218779 8.59378,13.85421 5.52085,4.635431 12.08337,4.635431 6.51044,0 11.92712,-4.270847 5.46877,-4.32293 5.46877,-10.88545 0,-5.520851 -3.8021,-9.270863 -3.75001,-3.802095 -12.23962,-5.208349 -8.43753,-1.458338 -12.96879,-3.333344 -4.53126,-1.927089 -7.76044,-6.614604 -3.22918,-4.739598 -3.22918,-10.468783 0,-7.916691 5.62502,-14.114627 5.62502,-6.25002 15.26046,-6.25002 8.07295,0 15.05214,5.104183 1.92708,-1.822922 3.33334,-4.270847 z m 51.82308,47.031397 h -26.35425 q -0.36458,15.416715 1.71876,19.010476 2.08334,3.541678 7.44794,3.541678 11.0417,0 14.94796,-12.81254 h 2.23959 q -1.71876,7.760441 -6.51044,11.458369 -4.79168,3.697928 -10.67711,3.697928 -8.38545,0 -14.58338,-6.197936 -6.19794,-6.250019 -6.19794,-15.677132 0,-9.166695 6.04169,-15.416715 6.09377,-6.250019 14.11462,-6.250019 6.97919,0 12.18754,4.947932 5.26043,4.947932 5.62502,13.697959 z m -26.35425,-2.343757 h 15.1563 q 0.41667,-3.697928 0.41667,-5.625018 0,-8.333359 -7.55211,-8.333359 -3.75001,0 -5.88544,2.031256 -2.13542,1.979173 -2.13542,5.416684 z m 61.406444,2.552091 v -5.312517 q 0,-6.510437 -1.093754,-8.541693 -1.04167,-2.031256 -5.729184,-2.031256 -8.437527,0 -8.437527,3.229177 0,0.937502 0.677086,2.083339 0.729169,1.093754 0.729169,2.604175 0,2.135424 -1.406255,3.28126 -1.406254,1.093754 -3.177093,1.093754 -2.291674,0 -3.541678,-1.406255 -1.250003,-1.458337 -1.250003,-3.385427 0,-4.166679 4.843765,-6.979188 4.895848,-2.864593 13.593792,-2.864593 6.979189,0 10.208365,1.614589 3.229177,1.614588 3.958346,4.010429 0.781252,2.395841 0.781252,6.770855 v 19.166726 q 0,4.218763 0.572919,5.260433 0.625002,1.04167 1.875006,1.04167 1.875006,0 3.645844,-2.552091 h 1.250004 q -1.354171,7.60419 -8.854194,7.60419 -7.239606,0 -8.64586,-8.333359 -6.093769,8.333359 -14.270878,8.333359 -5.416684,0 -8.645861,-2.916676 -3.229175,-2.968759 -3.229175,-7.239606 0,-13.281291 26.145914,-14.531295 z m 0,8.020858 v -5.625017 q -9.635447,0.364584 -12.708373,2.916676 -3.072927,2.500007 -3.072927,7.291689 0,3.489594 1.822923,5.416684 1.875006,1.927089 4.270846,1.927089 3.072927,0 5.520851,-2.031256 2.500008,-2.08334 3.333344,-4.16668 0.833336,-2.08334 0.833336,-5.729185 z M -45.43292,91.427985 V 55.802874 h -8.437527 v -2.656258 h 8.541694 q 6.56252,0 10.000031,-0.677086 v 9.843781 h 0.208334 q 3.645845,-9.843781 10.781284,-9.843781 3.125009,0 5.000015,1.92709 1.92709,1.875006 1.92709,4.583347 0,2.500008 -1.562505,4.062513 -1.510422,1.510422 -3.958346,1.510422 -4.479181,0 -4.479181,-4.479181 l 0.208334,-2.23959 q 0,-1.197921 -1.093753,-1.197921 -1.718755,0 -4.375014,4.635431 -2.656258,4.635431 -2.656258,14.166711 v 15.989633 h 8.64586 v 2.656259 H -53.870447 V 91.427985 Z M 24.515212,79.917533 h 2.23959 q -1.562504,7.552107 -6.145852,11.510452 -4.583348,3.958346 -11.0417013,3.958346 -8.80211079,0 -14.8958798,-6.510437 -6.0937689,-6.56252 -6.0937689,-15.05213 0,-8.750028 6.2500194,-15.364631 6.2500195,-6.614604 15.5208816,-6.614604 6.614604,0 10.781284,3.385427 4.16668,3.333343 4.16668,7.500023 0,2.08334 -1.458338,3.750012 -1.406255,1.666672 -3.697929,1.666672 -2.23959,0 -3.750011,-1.406255 -1.458338,-1.406254 -1.458338,-3.697928 0,-1.614588 1.250004,-3.177093 1.302087,-1.562505 1.302087,-2.135423 0,-1.406255 -1.927089,-2.447925 -1.92709,-1.093753 -5.000016,-1.093753 -5.4166834,0 -8.0729417,2.916676 -2.60417482,2.916675 -2.60417482,12.343788 0,9.427113 0.46875146,13.958377 0.52083496,4.479181 2.65625826,7.083356 2.1354234,2.552091 7.0312718,2.552091 10.312532,0 14.479212,-13.125041 z M 40.921519,91.427985 V 26.896534 h -8.125026 v -2.656258 h 7.812525 q 7.031272,0 10.468782,-0.781253 v 38.854288 h 0.208334 q 5.20835,-9.843781 14.583379,-9.843781 3.802095,0 7.395857,1.979173 3.593761,1.92709 4.583347,5.572934 1.04167,3.645845 1.04167,11.666703 v 19.739645 h 6.718771 v 2.656259 h -23.54174 v -2.656259 h 6.718771 V 70.698754 q 0,-8.437526 -0.468751,-11.979204 -0.468752,-3.593761 -4.687515,-3.593761 -4.531264,0 -7.656274,3.906262 -3.072926,3.854179 -4.010429,7.916691 -0.88542,4.01043 -0.88542,13.177125 v 11.302118 h 6.718771 v 2.656259 H 33.577746 v -2.656259 z"
       id="text4"
       style="font-size:106.667px;font-family:'Bodoni MT';-inkscape-font-specification:'Bodoni MT';fill:#8a3434;stroke-width:0;stroke-linejoin:bevel;paint-order:stroke fill markers;fill-opacity:1"
       inkscape:label="Search"
       aria-label="Search" /></g><metadata
     id="metadata1"><rdf:RDF><cc:Work
         rdf:about=""><dc:title>Search text</dc:title></cc:Work></rdf:RDF></metadata></svg>
