<?xml version="1.0" encoding="UTF-8"?>
<svg width="110" height="27" version="1.1" viewBox="0 0 110 27" xmlns="http://www.w3.org/2000/svg"><title>real</title><defs><linearGradient id="a" x1="40" x2="960" y1="40" y2="960" gradientTransform="matrix(.02 0 0 .02 4 3)" gradientUnits="userSpaceOnUse"><stop stop-color="#0080ff" offset="0"/><stop stop-color="#024" offset="1"/></linearGradient></defs><rect width="110" height="27" ry="0" fill="#2f3136"/><path d="m36.098 8.13c0-0.935-0.51-1.377-1.785-1.8445-0.731-0.2805-0.8925-0.425-0.8925-0.7225 0-0.272 0.2125-0.459 0.6545-0.459 0.4505 0 1.003 0.17 1.53 0.476l0.221-1.224c-0.51-0.2465-1.003-0.391-1.768-0.391-1.122 0-2.006 0.6035-2.006 1.734 0 0.969 0.51 1.3515 1.683 1.802 0.8245 0.3145 0.9945 0.4675 0.9945 0.799 0 0.3485-0.289 0.527-0.7055 0.527-0.5865 0-1.258-0.221-1.8615-0.544l-0.2125 1.241c0.595 0.272 1.258 0.442 2.0485 0.442 1.1645 0 2.0995-0.561 2.0995-1.836zm5.78 1.5895-2.1505-2.975 2.074-2.7115h-1.615l-1.8445 2.5075v-2.5075h-1.4535v5.865h1.4535v-2.7285l1.972 2.788zm4.488-0.153-0.187-1.19c-0.442 0.2465-0.8585 0.408-1.3345 0.408-0.884 0-1.5385-0.646-1.5385-1.819 0-1.1475 0.578-1.819 1.462-1.819 0.51 0 0.952 0.204 1.309 0.476l0.204-1.309c-0.425-0.238-0.9605-0.3825-1.6235-0.3825-1.666 0-2.805 1.224-2.805 3.043 0 1.836 1.071 3.026 2.8475 3.026 0.646 0 1.19-0.17 1.666-0.4335zm3.434-2.6095-0.2125-1.309c-0.612 0.0425-0.9605 0.4335-1.2155 0.9095l-0.136-0.8245h-1.122v4.165h1.2835v-2.312c0.3145-0.34 0.782-0.5865 1.4025-0.629zm4.25 0.8585c0-1.3345-0.85-2.1675-2.006-2.1675-1.1475 0-1.9975 0.8415-1.9975 2.176s0.8415 2.159 1.989 2.159c1.156 0 2.0145-0.833 2.0145-2.1675zm-1.241 0.0085c0 0.6715-0.272 1.122-0.765 1.122-0.4845 0-0.7565-0.459-0.7565-1.1305 0-0.68 0.2635-1.1135 0.7565-1.1135s0.765 0.4505 0.765 1.122z" fill="#f0f0f0" style="paint-order:stroke fill markers" aria-label="SKCro"/><path d="m34.066 17.43-0.0935-0.527c-0.663 0.017-1.1305 0.459-1.428 0.9095l-0.1275-0.8245h-0.4165v4.0205h0.561v-2.5245c0.272-0.5355 0.8415-1.0115 1.5045-1.054zm3.8165 1.4875c0-1.1135-0.527-2.0145-1.6235-2.0145-0.986 0-1.734 0.799-1.734 2.091 0 1.3855 0.7565 2.0995 1.8105 2.0995 0.6205 0 1.139-0.2295 1.5385-0.5695l-0.085-0.51c-0.4165 0.357-0.884 0.595-1.4195 0.595-0.8075 0-1.2665-0.5865-1.2835-1.5725h2.7965v-0.119zm-0.578-0.323h-2.193c0.1105-0.7735 0.5185-1.241 1.1475-1.241 0.646 0 0.986 0.5185 1.0455 1.241zm4.522 2.414v-2.8645c0-0.8245-0.459-1.241-1.3515-1.241-0.5695 0-1.0285 0.1445-1.496 0.3485l0.0765 0.5015c0.442-0.2125 0.9095-0.357 1.3855-0.357 0.51 0 0.833 0.2295 0.833 0.7735v0.2635c-1.819 0.1785-2.584 0.6205-2.584 1.564 0 0.714 0.5015 1.0965 1.1985 1.0965 0.578 0 1.0455-0.272 1.4195-0.6205l0.0935 0.5355zm-0.5525-0.9945c-0.391 0.3655-0.867 0.6035-1.3005 0.6035-0.425 0-0.7225-0.221-0.7225-0.6545 0-0.544 0.442-0.9265 2.023-1.088zm2.4395 0.9945v-6.103l-0.5525 0.102v6.001z" fill="#f0f0f0" aria-label="real"/><path d="m61.186 5.5535-0.0615-0.3813h-3.1242v0.3813h1.3776v3.8622h0.4182v-3.8622zm2.3124 2.4108c0-0.96555-0.5658-1.519-1.3222-1.519-0.73185 0-1.3038 0.5535-1.3038 1.519 0 0.9594 0.55965 1.5129 1.3038 1.5129s1.3222-0.5535 1.3222-1.5129zm-0.4182 0c0 0.6888-0.31365 1.1685-0.90405 1.1685-0.57195 0-0.89175-0.49815-0.89175-1.1685 0-0.6888 0.31365-1.1746 0.89175-1.1746 0.58425 0 0.90405 0.5043 0.90405 1.1746zm3.5055 1.4514v-4.4157l-0.4059 0.0738v1.5375c-0.20295-0.09225-0.46125-0.1476-0.75645-0.1476-0.70725 0-1.3284 0.5166-1.3284 1.5806 0 0.97785 0.53505 1.433 1.1746 1.433 0.42435 0 0.7134-0.2214 0.9348-0.48585l0.0738 0.42435zm-0.4059-0.8241c-0.2583 0.31365-0.5289 0.52275-0.8733 0.52275-0.46125 0-0.7995-0.3813-0.7995-1.0886 0-0.81795 0.4059-1.2116 0.92865-1.2116 0.30135 0 0.5166 0.05535 0.74415 0.1722zm3.4379 0.8241v-2.0726c0-0.59655-0.3321-0.8979-0.97785-0.8979-0.41205 0-0.74415 0.10455-1.0824 0.25215l0.05535 0.36285c0.3198-0.15375 0.65805-0.2583 1.0024-0.2583 0.369 0 0.6027 0.16605 0.6027 0.55965v0.19065c-1.3161 0.12915-1.8696 0.44895-1.8696 1.1316 0 0.5166 0.36285 0.79335 0.86715 0.79335 0.4182 0 0.75645-0.1968 1.027-0.44895l0.06765 0.38745zm-0.39975-0.71955c-0.2829 0.26445-0.6273 0.43665-0.94095 0.43665-0.3075 0-0.52275-0.1599-0.52275-0.47355 0-0.3936 0.3198-0.67035 1.4637-0.7872zm3.5608-2.1894h-0.4182l-0.861 2.4416-0.90405-2.4785-0.3936 0.0738 1.1008 2.8905-0.1353 0.35055c-0.1107 0.2829-0.25215 0.38745-0.492 0.38745-0.09225 0-0.17835-0.0123-0.23985-0.0246l0.05535 0.3567c0.04305 0.0061 0.0984 0.01845 0.1599 0.01845 0.4305 0 0.6888-0.17835 0.8979-0.74415zm4.1328 2.909v-2.0726c0-0.59655-0.3321-0.8979-0.97785-0.8979-0.41205 0-0.74415 0.10455-1.0824 0.25215l0.05535 0.36285c0.3198-0.15375 0.65805-0.2583 1.0024-0.2583 0.369 0 0.6027 0.16605 0.6027 0.55965v0.19065c-1.3161 0.12915-1.8696 0.44895-1.8696 1.1316 0 0.5166 0.36285 0.79335 0.86715 0.79335 0.4182 0 0.75645-0.1968 1.027-0.44895l0.06765 0.38745zm-0.39975-0.71955c-0.2829 0.26445-0.6273 0.43665-0.94095 0.43665-0.3075 0-0.52275-0.1599-0.52275-0.47355 0-0.3936 0.3198-0.67035 1.4637-0.7872zm2.6261 0.71955-0.0615-0.33825c-0.06765 0.0123-0.17835 0.03075-0.2706 0.03075-0.31365 0-0.4305-0.12915-0.4305-0.42435v-1.8327h0.7257l-0.05535-0.3444h-0.67035v-1.0762l-0.39975 0.06765v1.0086h-0.44895v0.3444h0.44895v1.9004c0 0.53505 0.30135 0.7134 0.75645 0.7134 0.1722 0 0.3198-0.0246 0.4059-0.0492zm4.3173-1.968c-0.16605 0.91635-0.8487 1.4576-1.8388 1.679l0.0615 0.37515c1.3346-0.32595 2.2202-1.1562 2.2202-2.5584 0-1.1008-0.59655-1.765-1.4576-1.765-0.8118 0-1.3592 0.58425-1.3592 1.3592 0 0.7872 0.49815 1.2792 1.2669 1.2792 0.41205 0 0.7749-0.1353 1.107-0.369zm0.04305-0.39975c-0.3198 0.25215-0.69495 0.4059-1.0824 0.4059-0.60885 0-0.9225-0.37515-0.9225-0.9348 0-0.5904 0.36285-0.984 0.94095-0.984 0.6273 0 1.064 0.5658 1.064 1.4268v0.0861zm1.7159 0.05535v-0.59655h-0.4797v0.59655zm0 2.3124v-0.6027h-0.4797v0.6027zm3.3087-1.1255c0-0.58425-0.33825-0.9225-0.8733-1.0762 0.43665-0.1476 0.79335-0.4428 0.79335-0.984 0-0.5658-0.39975-1.0516-1.2423-1.0516-0.49815 0-0.86715 0.15375-1.187 0.3813l0.05535 0.38745c0.31365-0.23985 0.6765-0.39975 1.1132-0.39975 0.5535 0 0.8364 0.2952 0.8364 0.7011 0 0.48585-0.369 0.79335-1.0824 0.79335h-0.2829l0.05535 0.36285h0.1845c0.8364 0 1.2054 0.35055 1.2054 0.89175 0 0.5043-0.37515 0.83025-0.96555 0.83025-0.4428 0-0.7626-0.11685-1.1193-0.36285l-0.06765 0.4059c0.2952 0.19065 0.7134 0.32595 1.1624 0.32595 0.8364 0 1.4145-0.49815 1.4145-1.2054zm2.2817-1.187c-0.75645-0.27675-0.9963-0.47355-0.9963-0.8856 0-0.3567 0.28905-0.6888 0.8487-0.6888 0.52275 0 0.8487 0.28905 0.8487 0.6888 0 0.3567-0.2706 0.67035-0.7011 0.8856zm-0.31365 0.2583c0.8733 0.31365 1.1439 0.52275 1.1439 0.99015 0 0.48585-0.43665 0.79335-0.97785 0.79335-0.5904 0-1.0086-0.3075-1.0086-0.7995 0-0.42435 0.3321-0.7626 0.84255-0.984zm-0.36285-0.14145c-0.5412 0.26445-0.89175 0.6396-0.89175 1.15 0 0.62115 0.5289 1.1255 1.4084 1.1255 0.81795 0 1.4022-0.4797 1.4022-1.1378 0-0.57195-0.3321-0.87945-0.87945-1.1193 0.41205-0.2337 0.74415-0.55965 0.74415-1.0394 0-0.57195-0.48585-1.0209-1.2423-1.0209-0.7503 0-1.273 0.4551-1.273 1.0455 0 0.5043 0.30135 0.79335 0.73185 0.9963zm6.6666-0.85485c0-0.7626-0.53505-1.1931-1.3899-1.1931h-1.0516v4.2435h0.42435v-1.7897h0.5289c0.86715 0 1.4883-0.42435 1.4883-1.2608zm-0.4305 0.0123c0 0.5904-0.3936 0.8733-1.0394 0.8733h-0.54735v-1.7036h0.59655c0.64575 0 0.99015 0.2829 0.99015 0.83025zm5.7564 3.0381-0.33825-4.2435h-0.5166l-1.4637 3.7023-1.4576-3.7023h-0.52275l-0.33825 4.2435h0.3936l0.27675-3.6224 1.476 3.647h0.3321l1.4698-3.647 0.27675 3.6224z" fill="#8e959e" aria-label="Today at 9:38 PM"/><rect x="4" y="3" width="20" height="20" ry="10" fill="url(#a)"/></svg>