<?xml version="1.0" encoding="UTF-8"?>
<svg width="573" height="105.5" version="1.1" viewBox="0 0 573 105.5" xmlns="http://www.w3.org/2000/svg"><g fill-rule="evenodd"><rect width="573" height="105.5" ry="0" fill="#313338"/><circle cx="28.5" cy="28.5" r="22.5" fill="#f0f0f0" style="paint-order:stroke fill markers"/><g stroke-width="0"><path d="m75.228 10.344-0.324-2.088c-0.306-0.036-0.666-0.09-1.098-0.09-2.034 0-3.348 0.792-3.348 2.916v1.098h-1.224v2.214h1.224v6.606h2.718v-6.606h1.926l-0.324-2.214h-1.602v-0.828c0-0.72 0.342-1.08 1.08-1.08 0.378 0 0.702 0.036 0.972 0.072zm3.816-0.774c0-0.9-0.666-1.476-1.548-1.476-0.864 0-1.548 0.576-1.548 1.476 0 0.882 0.684 1.458 1.548 1.458 0.882 0 1.548-0.576 1.548-1.458zm-0.18 11.43v-8.82h-2.736v8.82zm7.614-6.228-0.45-2.772c-1.296 0.09-2.034 0.918-2.574 1.926l-0.288-1.746h-2.376v8.82h2.718v-4.896c0.666-0.72 1.656-1.242 2.97-1.332zm7.902 3.51c0-1.638-0.828-2.232-3.168-2.862-1.242-0.342-1.494-0.54-1.494-0.9 0-0.342 0.288-0.576 0.936-0.576 0.846 0 1.944 0.306 2.898 0.828l0.342-2.07c-0.918-0.414-2.07-0.648-3.258-0.648-2.16 0-3.384 1.098-3.384 2.736 0 1.656 0.936 2.25 3.15 2.826 1.242 0.306 1.494 0.504 1.494 0.954 0 0.414-0.36 0.666-1.116 0.666-1.008 0-2.286-0.396-3.33-1.044l-0.324 2.07c0.918 0.486 2.232 0.882 3.636 0.882 2.34 0 3.618-1.008 3.618-2.862zm6.642 2.664-0.342-2.232c-0.198 0.054-0.414 0.09-0.648 0.09-0.738 0-1.08-0.324-1.08-1.044v-3.366h2.016l-0.342-2.214h-1.674v-3.042l-2.7 0.414v2.628h-1.17v2.214h1.17v3.798c0 2.25 1.314 2.934 3.204 2.934 0.72 0 1.134-0.054 1.566-0.18zm9.126 0.054v-6.264c0-1.71-0.864-2.736-2.502-2.736-1.116 0-1.962 0.612-2.754 1.386l-0.198-1.206h-2.394v8.82h2.718v-5.796c0.486-0.486 0.972-0.792 1.494-0.792 0.648 0 0.9 0.432 0.9 1.062v5.526zm9.144 0v-5.904c0-2.25-1.206-3.06-3.636-3.06-1.44 0-2.574 0.27-3.582 0.684l0.324 2.052c0.936-0.414 1.854-0.666 2.844-0.666 0.9 0 1.332 0.342 1.332 1.116v0.162c-3.456 0.306-5.04 1.278-5.04 3.348 0 1.602 0.99 2.448 2.394 2.448 1.206 0 2.052-0.522 2.772-1.278l0.18 1.098zm-2.718-2.43c-0.486 0.432-0.99 0.666-1.512 0.666-0.504 0-0.846-0.306-0.846-0.864 0-0.774 0.504-1.386 2.358-1.674zm17.298 2.43v-6.264c0-1.71-0.864-2.736-2.502-2.736-1.098 0-1.962 0.594-2.754 1.386-0.324-0.792-0.99-1.386-2.196-1.386-1.134 0-1.944 0.576-2.736 1.386l-0.198-1.206h-2.394v8.82h2.718v-5.814c0.486-0.468 0.936-0.774 1.44-0.774 0.63 0 0.864 0.432 0.864 1.062v5.526h2.718v-5.814c0.486-0.468 0.954-0.774 1.44-0.774 0.63 0 0.864 0.432 0.864 1.062v5.526zm9.45-4.428c0-2.556-1.206-4.572-3.906-4.572-2.394 0-4.158 1.746-4.158 4.626 0 3.15 1.89 4.554 4.536 4.554 1.386 0 2.556-0.378 3.51-0.99l-0.27-1.908c-0.972 0.558-1.926 0.918-2.898 0.918-1.188 0-2.016-0.54-2.16-1.926h5.292c0.036-0.144 0.054-0.432 0.054-0.702zm-2.592-0.792h-2.772c0.09-1.35 0.63-2.016 1.386-2.016 0.828 0 1.296 0.684 1.386 2.016zm15.66 5.22v-6.264c0-1.71-0.864-2.736-2.502-2.736-1.08 0-1.89 0.558-2.628 1.278v-5.274l-2.718 0.432v12.564h2.718v-5.796c0.486-0.486 0.972-0.792 1.494-0.792 0.648 0 0.9 0.432 0.9 1.062v5.526zm9.144 0v-5.904c0-2.25-1.206-3.06-3.636-3.06-1.44 0-2.574 0.27-3.582 0.684l0.324 2.052c0.936-0.414 1.854-0.666 2.844-0.666 0.9 0 1.332 0.342 1.332 1.116v0.162c-3.456 0.306-5.04 1.278-5.04 3.348 0 1.602 0.99 2.448 2.394 2.448 1.206 0 2.052-0.522 2.772-1.278l0.18 1.098zm-2.718-2.43c-0.486 0.432-0.99 0.666-1.512 0.666-0.504 0-0.846-0.306-0.846-0.864 0-0.774 0.504-1.386 2.358-1.674zm7.488-9c0-0.9-0.666-1.476-1.548-1.476-0.864 0-1.548 0.576-1.548 1.476 0 0.882 0.684 1.458 1.548 1.458 0.882 0 1.548-0.576 1.548-1.458zm-0.18 11.43v-8.82h-2.736v8.82zm4.716 0v-12.996l-2.736 0.432v12.564zm9.558-4.428c0-2.556-1.206-4.572-3.906-4.572-2.394 0-4.158 1.746-4.158 4.626 0 3.15 1.89 4.554 4.536 4.554 1.386 0 2.556-0.378 3.51-0.99l-0.27-1.908c-0.972 0.558-1.926 0.918-2.898 0.918-1.188 0-2.016-0.54-2.16-1.926h5.292c0.036-0.144 0.054-0.432 0.054-0.702zm-2.592-0.792h-2.772c0.09-1.35 0.63-2.016 1.386-2.016 0.828 0 1.296 0.684 1.386 2.016zm11.682 0.792c0-2.556-1.206-4.572-3.906-4.572-2.394 0-4.158 1.746-4.158 4.626 0 3.15 1.89 4.554 4.536 4.554 1.386 0 2.556-0.378 3.51-0.99l-0.27-1.908c-0.972 0.558-1.926 0.918-2.898 0.918-1.188 0-2.016-0.54-2.16-1.926h5.292c0.036-0.144 0.054-0.432 0.054-0.702zm-2.592-0.792h-2.772c0.09-1.35 0.63-2.016 1.386-2.016 0.828 0 1.296 0.684 1.386 2.016zm13.104-5.436-0.324-2.088c-0.306-0.036-0.666-0.09-1.098-0.09-2.034 0-3.348 0.792-3.348 2.916v1.098h-1.224v2.214h1.224v6.606h2.718v-6.606h1.926l-0.324-2.214h-1.602v-0.828c0-0.72 0.342-1.08 1.08-1.08 0.378 0 0.702 0.036 0.972 0.072zm3.816-0.774c0-0.9-0.666-1.476-1.548-1.476-0.864 0-1.548 0.576-1.548 1.476 0 0.882 0.684 1.458 1.548 1.458 0.882 0 1.548-0.576 1.548-1.458zm-0.18 11.43v-8.82h-2.736v8.82zm7.614-6.228-0.45-2.772c-1.296 0.09-2.034 0.918-2.574 1.926l-0.288-1.746h-2.376v8.82h2.718v-4.896c0.666-0.72 1.656-1.242 2.97-1.332zm7.902 3.51c0-1.638-0.828-2.232-3.168-2.862-1.242-0.342-1.494-0.54-1.494-0.9 0-0.342 0.288-0.576 0.936-0.576 0.846 0 1.944 0.306 2.898 0.828l0.342-2.07c-0.918-0.414-2.07-0.648-3.258-0.648-2.16 0-3.384 1.098-3.384 2.736 0 1.656 0.936 2.25 3.15 2.826 1.242 0.306 1.494 0.504 1.494 0.954 0 0.414-0.36 0.666-1.116 0.666-1.008 0-2.286-0.396-3.33-1.044l-0.324 2.07c0.918 0.486 2.232 0.882 3.636 0.882 2.34 0 3.618-1.008 3.618-2.862zm6.642 2.664-0.342-2.232c-0.198 0.054-0.414 0.09-0.648 0.09-0.738 0-1.08-0.324-1.08-1.044v-3.366h2.016l-0.342-2.214h-1.674v-3.042l-2.7 0.414v2.628h-1.17v2.214h1.17v3.798c0 2.25 1.314 2.934 3.204 2.934 0.72 0 1.134-0.054 1.566-0.18zm9.126 0.054v-6.264c0-1.71-0.864-2.736-2.502-2.736-1.116 0-1.962 0.612-2.754 1.386l-0.198-1.206h-2.394v8.82h2.718v-5.796c0.486-0.486 0.972-0.792 1.494-0.792 0.648 0 0.9 0.432 0.9 1.062v5.526zm9.144 0v-5.904c0-2.25-1.206-3.06-3.636-3.06-1.44 0-2.574 0.27-3.582 0.684l0.324 2.052c0.936-0.414 1.854-0.666 2.844-0.666 0.9 0 1.332 0.342 1.332 1.116v0.162c-3.456 0.306-5.04 1.278-5.04 3.348 0 1.602 0.99 2.448 2.394 2.448 1.206 0 2.052-0.522 2.772-1.278l0.18 1.098zm-2.718-2.43c-0.486 0.432-0.99 0.666-1.512 0.666-0.504 0-0.846-0.306-0.846-0.864 0-0.774 0.504-1.386 2.358-1.674zm17.298 2.43v-6.264c0-1.71-0.864-2.736-2.502-2.736-1.098 0-1.962 0.594-2.754 1.386-0.324-0.792-0.99-1.386-2.196-1.386-1.134 0-1.944 0.576-2.736 1.386l-0.198-1.206h-2.394v8.82h2.718v-5.814c0.486-0.468 0.936-0.774 1.44-0.774 0.63 0 0.864 0.432 0.864 1.062v5.526h2.718v-5.814c0.486-0.468 0.954-0.774 1.44-0.774 0.63 0 0.864 0.432 0.864 1.062v5.526zm9.45-4.428c0-2.556-1.206-4.572-3.906-4.572-2.394 0-4.158 1.746-4.158 4.626 0 3.15 1.89 4.554 4.536 4.554 1.386 0 2.556-0.378 3.51-0.99l-0.27-1.908c-0.972 0.558-1.926 0.918-2.898 0.918-1.188 0-2.016-0.54-2.16-1.926h5.292c0.036-0.144 0.054-0.432 0.054-0.702zm-2.592-0.792h-2.772c0.09-1.35 0.63-2.016 1.386-2.016 0.828 0 1.296 0.684 1.386 2.016zm14.454 4.59-0.324-2.214c-0.756 0.486-1.368 0.684-2.016 0.684-1.098 0-1.98-0.738-1.98-2.25 0-1.476 0.792-2.214 1.89-2.214 0.72 0 1.296 0.198 1.998 0.648l0.36-2.322c-0.72-0.414-1.566-0.666-2.628-0.666-2.394 0-4.374 1.512-4.374 4.626 0 2.844 1.728 4.5 4.266 4.5 1.044 0 1.926-0.252 2.808-0.792zm4.446-10.8c0-0.9-0.666-1.476-1.548-1.476-0.864 0-1.548 0.576-1.548 1.476 0 0.882 0.684 1.458 1.548 1.458 0.882 0 1.548-0.576 1.548-1.458zm-0.18 11.43v-8.82h-2.736v8.82zm9.774 0v-6.264c0-1.71-0.864-2.736-2.502-2.736-1.116 0-1.962 0.612-2.754 1.386l-0.198-1.206h-2.394v8.82h2.718v-5.796c0.486-0.486 0.972-0.792 1.494-0.792 0.648 0 0.9 0.432 0.9 1.062v5.526zm9.738 0v-12.996l-2.718 0.432v3.978c-0.504-0.18-1.062-0.288-1.872-0.288-1.944 0-3.726 1.35-3.726 4.716 0 2.97 1.386 4.338 3.186 4.338 1.134 0 1.944-0.666 2.538-1.332l0.18 1.152zm-2.718-3.132c-0.468 0.522-0.936 0.9-1.512 0.9-0.774 0-1.35-0.612-1.35-2.124 0-1.692 0.684-2.394 1.584-2.394 0.576 0 0.882 0.072 1.278 0.252zm12.69-5.688h-2.628l-1.62 5.436-1.71-5.562-2.916 0.342 3.204 8.622-0.108 0.27c-0.288 0.612-0.828 0.846-1.44 0.846-0.522 0-0.792-0.054-1.08-0.144l0.342 2.178c0.252 0.054 0.486 0.108 1.026 0.108 1.926 0 3.006-0.792 3.798-3.096z" fill="#2fcc71" style="paint-order:stroke fill markers" aria-label="firstname hailee firstname cindy"/><path d="m78.539 33.076-1.1875 0.2168v12.707h1.1875v-6.1562c0.936-0.918 1.8559-1.4766 2.7559-1.4766 1.08 0 1.584 0.66763 1.584 1.7656v5.8672h1.1875v-6.1016c0-1.62-0.84706-2.5918-2.5391-2.5918-1.152 0-2.1063 0.61077-2.9883 1.3848zm96.787 0-1.1875 0.2168v4.5c-0.594-0.27-1.3508-0.43359-2.2148-0.43359-2.07 0-3.8887 1.513-3.8887 4.627 0 2.862 1.5674 4.1934 3.4394 4.1934 1.242 0 2.0883-0.64788 2.7363-1.4219l0.21484 1.2422h0.90039zm37.17 0-1.1875 0.2168v4.5c-0.594-0.27-1.3508-0.43359-2.2148-0.43359-2.07 0-3.8887 1.513-3.8887 4.627 0 2.862 1.5674 4.1934 3.4394 4.1934 1.242 0 2.0883-0.64788 2.7363-1.4219l0.21484 1.2422h0.90039zm22.59 0-1.1875 0.2168v4.5c-0.594-0.27-1.3508-0.43359-2.2148-0.43359-2.07 0-3.8867 1.513-3.8867 4.627 0 2.862 1.5655 4.1934 3.4375 4.1934 1.242 0 2.0883-0.64788 2.7363-1.4219l0.21485 1.2422h0.90039zm-19.098 0.64844c-0.468 0-0.86523 0.39528-0.86523 0.86328 0 0.468 0.39723 0.86328 0.86523 0.86328s0.8457-0.39528 0.8457-0.86328c0-0.468-0.3777-0.86328-0.8457-0.86328zm-145.73 0.10742 0.35938 3.3652 0.68555 0.14453 0.37695-3.5098zm3.0059 0 0.39648 3.3652 0.66602 0.14453 0.37695-3.5098zm164.47 0 0.35938 3.3652 0.68359 0.14453 0.37891-3.5098zm3.0059 0 0.39649 3.3652 0.66601 0.14453 0.37695-3.5098zm-150.82 3.4746c-2.088 0-3.6719 1.6917-3.6719 4.4277 0 2.934 1.602 4.4453 3.834 4.4453 1.314 0 2.4118-0.48508 3.2578-1.2051l-0.17969-1.0801c-0.882 0.756-1.8719 1.2598-3.0059 1.2598-1.71 0-2.6828-1.2421-2.7188-3.3301h5.9219v-0.25195c0-2.358-1.1155-4.2656-3.4375-4.2656zm22.338 0c-1.134 0-2.0879 0.5943-3.0059 1.4043l-0.19727-1.2246h-0.91797v8.5137h1.1875v-6.1914c0.918-0.9 1.8172-1.4414 2.6992-1.4414 1.098 0 1.5488 0.66763 1.5488 1.7656v5.8672h1.1699v-6.1738c0.936-0.918 1.8172-1.459 2.6992-1.459 1.098 0 1.5488 0.66763 1.5488 1.7656v5.8672h1.1875v-6.1016c0-1.62-0.79238-2.5918-2.4844-2.5918-1.17 0-2.1597 0.62861-3.0957 1.4746-0.306-0.936-1.0258-1.4746-2.3398-1.4746zm25.938 0c-1.656 0-3.1504 1.0965-3.1504 2.8965 0 1.17 0.6304 2.0711 1.5664 2.5391-0.54 0.342-0.8457 0.68477-0.8457 1.1348 0 0.324 0.19886 0.62886 0.63086 0.88086-1.278 0.666-1.9453 1.4036-1.9453 2.2676 0 1.476 1.6927 2.2148 3.8887 2.2148s4.0508-0.91864 4.0508-2.5566c0-1.26-1.026-1.8182-2.916-2.1602l-0.63086-0.125c-1.566-0.288-1.9082-0.41386-1.9082-0.75586 0-0.198 0.19859-0.41528 0.55859-0.61328 0.234 0.054 0.48629 0.07227 0.73829 0.07227 1.692 0 3.1855-1.0984 3.1855-2.8984 0-0.576-0.16122-1.0797-0.44922-1.5117l1.709-0.17969-0.19727-1.1699-2.125 0.68359c-0.576-0.468-1.3142-0.71875-2.1602-0.71875zm10.441 0c-1.404 0.036-2.3954 0.97178-3.0254 1.9258l-0.26953-1.7461h-0.88281v8.5137h1.1894v-5.3457c0.576-1.134 1.7816-2.1424 3.1856-2.2324zm4.9316 0c-1.206 0-2.178 0.30628-3.168 0.73828l0.16211 1.0605c0.936-0.45 1.9256-0.75586 2.9336-0.75586 1.08 0 1.7637 0.48667 1.7637 1.6387v0.55859c-3.852 0.378-5.4727 1.3125-5.4727 3.3105 0 1.512 1.0631 2.3223 2.5391 2.3223 1.224 0 2.2139-0.57645 3.0058-1.3145l0.19727 1.1348h0.90039v-6.0664c0-1.746-0.97133-2.627-2.8613-2.627zm9.7383 0c-1.152 0-2.1245 0.61145-3.0605 1.4395l-0.19727-1.2598h-0.91992v8.5137h1.1894v-6.1562c0.936-0.918 1.8539-1.4766 2.7539-1.4766 1.08 0 1.584 0.66763 1.584 1.7656v5.8672h1.1875v-6.084c0-1.638-0.84511-2.6094-2.5371-2.6094zm18.918 0c-1.134 0-2.0879 0.5943-3.0059 1.4043l-0.19922-1.2246h-0.91796v8.5137h1.1875v-6.1914c0.918-0.9 1.8192-1.4414 2.7012-1.4414 1.098 0 1.5469 0.66763 1.5469 1.7656v5.8672h1.1699v-6.1738c0.936-0.918 1.8192-1.459 2.7012-1.459 1.098 0 1.5469 0.66763 1.5469 1.7656v5.8672h1.1894v-6.1016c0-1.62-0.79237-2.5918-2.4844-2.5918-1.17 0-2.1597 0.62861-3.0957 1.4746-0.306-0.936-1.0258-1.4746-2.3398-1.4746zm13.859 0c-1.206 0-2.178 0.30628-3.168 0.73828l0.16211 1.0605c0.936-0.45 1.9256-0.75586 2.9336-0.75586 1.08 0 1.7637 0.48667 1.7637 1.6387v0.55859c-3.852 0.378-5.4707 1.3125-5.4707 3.3105 0 1.512 1.0611 2.3223 2.5371 2.3223 1.224 0 2.2139-0.57645 3.0059-1.3145l0.19727 1.1348h0.90039v-6.0664c0-1.746-0.97133-2.627-2.8613-2.627zm26.531 0c-2.088 0-3.6719 1.6917-3.6719 4.4277 0 2.934 1.602 4.4453 3.834 4.4453 1.314 0 2.4118-0.48508 3.2578-1.2051l-0.17969-1.0801c-0.882 0.756-1.8719 1.2598-3.0059 1.2598-1.71 0-2.6808-1.2421-2.7168-3.3301h5.9219v-0.25195c0-2.358-1.1174-4.2656-3.4394-4.2656zm-126.86 0.07227-1.1523 0.21484 3.2227 8.4609-0.39648 1.0254c-0.324 0.828-0.73745 1.1348-1.4395 1.1348-0.27 0-0.52312-0.03627-0.70312-0.07227l0.16211 1.043c0.126 0.018 0.28875 0.05469 0.46875 0.05469 1.26 0 2.015-0.52174 2.627-2.1777l3.6016-9.5762h-1.2246l-2.5195 7.1465zm27.287 0-1.1504 0.21484 3.2207 8.4609-0.39649 1.0254c-0.324 0.828-0.73745 1.1348-1.4394 1.1348-0.27 0-0.52117-0.03627-0.70117-0.07227l0.16211 1.043c0.126 0.018 0.2868 0.05469 0.4668 0.05469 1.26 0 2.0169-0.52174 2.6289-2.1777l3.5996-9.5762h-1.2246l-2.5195 7.1465zm92.359 0.10742v8.5137h1.1699v-8.5137zm-77.203 0.70117c1.224 0 2.0527 0.88163 2.0527 2.0156 0 1.152-0.77363 2.0176-2.0156 2.0176-1.242 0-2.0156-0.88247-2.0156-1.9805 0-1.17 0.77252-2.0527 1.9785-2.0527zm-48.275 0.07227c1.368 0 2.0888 1.0989 2.2148 2.6289h-4.6445c0.234-1.638 1.0977-2.6289 2.4297-2.6289zm132.7 0c1.368 0 2.0888 1.0989 2.2148 2.6289h-4.6445c0.234-1.638 1.0977-2.6289 2.4297-2.6289zm-50.65 0.12695c0.882 0 1.5117 0.16191 2.1777 0.50391v4.6973c-0.756 0.918-1.5486 1.5293-2.5566 1.5293-1.35 0-2.3398-1.1155-2.3398-3.1855 0-2.394 1.1888-3.5449 2.7188-3.5449zm37.17 0c0.882 0 1.5117 0.16191 2.1777 0.50391v4.6973c-0.756 0.918-1.5486 1.5293-2.5566 1.5293-1.35 0-2.3398-1.1155-2.3398-3.1855 0-2.394 1.1888-3.5449 2.7188-3.5449zm22.59 0c0.882 0 1.5117 0.16191 2.1777 0.50391v4.6973c-0.756 0.918-1.5486 1.5293-2.5566 1.5293-1.35 0-2.3398-1.1155-2.3398-3.1855 0-2.394 1.1888-3.5449 2.7188-3.5449zm-76.465 3.0957v2.4121c-0.828 0.774-1.8359 1.2773-2.7539 1.2773-0.9 0-1.5293-0.46872-1.5293-1.3867 0-1.152 0.9352-1.9607 4.2832-2.3027zm42.516 0v2.4121c-0.82799 0.774-1.8359 1.2773-2.7539 1.2773-0.9 0-1.5293-0.46872-1.5293-1.3867 0-1.152 0.93521-1.9607 4.2832-2.3027zm-60.426 3.6719c0.306 0.072 0.59339 0.12484 1.0254 0.21484l0.82813 0.14453c1.512 0.288 2.0527 0.64845 2.0527 1.3145 0 0.846-1.1158 1.5117-2.8438 1.5117-1.674 0-2.791-0.50472-2.791-1.3867 0-0.684 0.55851-1.2588 1.7285-1.7988zm136.93 13.049-2.7363 0.43359v12.562h2.7363zm132.52 0-2.7168 0.43359v12.562h2.7168v-5.7949c0.486-0.486 0.97214-0.79297 1.4941-0.79297 0.648 0 0.90039 0.4325 0.90039 1.0625v5.5254h2.7363v-6.2637c0-1.71-0.86396-2.7363-2.502-2.7363-1.08 0-1.8909 0.5593-2.6289 1.2793zm22.5 0-2.7168 0.43359v12.562h2.7168v-5.7949c0.486-0.486 0.97214-0.79297 1.4941-0.79297 0.648 0 0.90039 0.4325 0.90039 1.0625v5.5254h2.7363v-6.2637c0-1.71-0.86396-2.7363-2.502-2.7363-1.08 0-1.8909 0.5593-2.6289 1.2793zm-296.87 0.0918c-0.864 0-1.5488 0.57461-1.5488 1.4746 0 0.882 0.68483 1.459 1.5488 1.459 0.882 0 1.5488-0.57699 1.5488-1.459 0-0.9-0.66683-1.4746-1.5488-1.4746zm16.83 0c-0.864 0-1.5488 0.57461-1.5488 1.4746 0 0.882 0.68483 1.459 1.5488 1.459 0.882 0 1.5469-0.57699 1.5469-1.459 0-0.9-0.66488-1.4746-1.5469-1.4746zm23.383 0c-0.864 0-1.5488 0.57461-1.5488 1.4746 0 0.882 0.68483 1.459 1.5488 1.459 0.882 0 1.5469-0.57699 1.5469-1.459 0-0.9-0.66488-1.4746-1.5469-1.4746zm11.25 0c-0.864 0-1.5488 0.57461-1.5488 1.4746 0 0.882 0.68483 1.459 1.5488 1.459 0.882 0 1.5469-0.57699 1.5469-1.459 0-0.9-0.66488-1.4746-1.5469-1.4746zm126.04 0c-0.864 0-1.5488 0.57461-1.5488 1.4746 0 0.882 0.68483 1.459 1.5488 1.459 0.882 0 1.5488-0.57699 1.5488-1.459 0-0.9-0.66683-1.4746-1.5488-1.4746zm105.25 0c-0.864 0-1.5488 0.57461-1.5488 1.4746 0 0.882 0.68482 1.459 1.5488 1.459 0.882 0 1.5469-0.57699 1.5469-1.459 0-0.9-0.66488-1.4746-1.5469-1.4746zm61.398 0c-0.864 0-1.5488 0.57461-1.5488 1.4746 0 0.882 0.68483 1.459 1.5488 1.459 0.882 0 1.5469-0.57699 1.5469-1.459 0-0.9-0.66488-1.4746-1.5469-1.4746zm-370.66 0.26953c-3.528 0-5.9395 2.5914-5.9395 6.4434 0 3.888 2.2673 6.4082 6.0293 6.4082 1.368 0 2.5194-0.35997 3.5274-0.91797l-0.39649-2.5195c-0.936 0.522-1.8162 0.86328-2.8242 0.86328-1.872 0-3.2598-1.3676-3.2598-3.8516 0-2.43 1.2257-3.8516 3.0977-3.8516 1.08 0 2.0155 0.43181 2.7715 1.0078l0.43164-2.7734c-0.9-0.504-2.0335-0.80859-3.4375-0.80859zm-22.447 0.07227c-2.376 0-4.248 1.2779-4.248 3.6719 0 2.052 1.0805 2.8605 3.5645 3.8145 1.746 0.666 2.1074 0.99136 2.1074 1.6934 0 0.738-0.61214 1.1152-1.4941 1.1152-1.242 0-2.6654-0.46834-3.9434-1.1523l-0.44922 2.6289c1.26 0.576 2.6639 0.93555 4.3379 0.93555 2.466 0 4.4453-1.1887 4.4453-3.8887 0-1.98-1.0793-2.9143-3.7793-3.9043-1.548-0.594-1.8906-0.90125-1.8906-1.5312 0-0.576 0.45072-0.9707 1.3867-0.9707 0.954 0 2.1242 0.35981 3.2402 1.0078l0.4668-2.5918c-1.08-0.522-2.1241-0.82812-3.7441-0.82812zm5.9941 0.14258v12.42h3.0781v-5.7773l4.1758 5.9043 3.3125-0.50391-4.5527-6.3008 4.3906-5.7422h-3.4199l-3.9062 5.3105v-5.3105zm208.15 0v2.6113h3.4375v9.8086h3.0977v-9.8086h3.7246l-0.43165-2.6113zm27 0v2.6113h3.4375v9.8086h3.0977v-9.8086h3.7246l-0.43165-2.6113zm30.061 0v2.6113h3.4375v9.8086h3.0957v-9.8086h3.7266l-0.43164-2.6113zm-284.81 0.25195 0.7207 5.0234 1.7461 0.37695 0.79102-5.4004zm4.4102 0 0.73828 5.0234 1.7285 0.37695 0.79102-5.4004zm104.85 0.30664-2.6992 0.41406v2.6289h-1.1699v2.2129h1.1699v3.7988c0 2.25 1.3131 2.9336 3.2031 2.9336 0.71999 0 1.1344-0.05369 1.5664-0.17969l-0.3418-2.2324c-0.198 0.054-0.41443 0.08984-0.64843 0.08984-0.738 0-1.0801-0.32297-1.0801-1.043v-3.3672h2.0156l-0.34179-2.2129h-1.6738zm66.061 0-2.6992 0.41406v2.6289h-1.1699v2.2129h1.1699v3.7988c0 2.25 1.3131 2.9336 3.2031 2.9336 0.72 0 1.1344-0.05369 1.5664-0.17969l-0.3418-2.2324c-0.198 0.054-0.41444 0.08984-0.64844 0.08984-0.738 0-1.0801-0.32297-1.0801-1.043v-3.3672h2.0156l-0.3418-2.2129h-1.6738zm-128.83 2.8613c-1.296 0.09-2.0342 0.91974-2.5742 1.9277l-0.2871-1.7461h-2.377v8.8184h2.7188v-4.8945c0.666-0.72 1.6548-1.242 2.9688-1.332zm5.2031 0c-2.43 0-4.2305 1.7834-4.2305 4.6094s1.7809 4.5723 4.2109 4.5723c2.448 0 4.2656-1.7658 4.2656-4.5918 0-2.826-1.7981-4.5898-4.2461-4.5898zm36.342 0c-1.116 0-1.9619 0.61272-2.7539 1.3867l-0.19922-1.2051h-2.3945v8.8184h2.7188v-5.7949c0.486-0.486 0.97214-0.79297 1.4941-0.79297 0.648 0 0.90039 0.4325 0.90039 1.0625v5.5254h2.7363v-6.2637c0-1.71-0.86396-2.7363-2.502-2.7363zm34.631 0c-1.116 0-1.9619 0.61272-2.7539 1.3867l-0.19727-1.2051h-2.3945v8.8184h2.7188v-5.7949c0.486-0.486 0.97214-0.79297 1.4941-0.79297 0.648 0 0.89844 0.4325 0.89844 1.0625v5.5254h2.7363v-6.2637c0-1.71-0.86396-2.7363-2.502-2.7363zm30.348 0c-2.43 0-4.2285 1.7834-4.2285 4.6094s1.7809 4.5723 4.2109 4.5723c2.448 0 4.2656-1.7658 4.2656-4.5918 0-2.826-1.8-4.5898-4.248-4.5898zm29.377 0c-2.43 0-4.2305 1.7834-4.2305 4.6094s1.7829 4.5723 4.2129 4.5723c2.448 0 4.2656-1.7658 4.2656-4.5918 0-2.826-1.8-4.5898-4.248-4.5898zm14.562 0c-1.134 0-1.9271 0.66756-2.5391 1.3516l-0.17969-1.1699h-2.3945v12.168l2.7188-0.41406v-3.1504c0.504 0.162 1.0615 0.30469 1.8535 0.30469 1.944 0 3.709-1.3844 3.709-4.7324 0-2.988-1.35-4.3574-3.168-4.3574zm101.03 0c-2.43 0-4.2305 1.7834-4.2305 4.6094s1.7829 4.5723 4.2129 4.5723c2.448 0 4.2656-1.7658 4.2656-4.5918 0-2.826-1.8-4.5898-4.248-4.5898zm9.4141 0c-2.394 0-4.1582 1.747-4.1582 4.627 0 3.15 1.8911 4.5547 4.5371 4.5547 1.386 0 2.5558-0.37824 3.5098-0.99023l-0.27148-1.9082c-0.972 0.558-1.9245 0.91797-2.8965 0.91797-1.188 0-2.0162-0.53978-2.1602-1.9258h5.291c0.036-0.144 0.0547-0.43312 0.0547-0.70312 0-2.556-1.2062-4.5723-3.9062-4.5723zm67.986 0c-1.296 0.09-2.0342 0.91974-2.5742 1.9277l-0.28906-1.7461h-2.375v8.8184h2.7188v-4.8945c0.666-0.72 1.6548-1.242 2.9688-1.332zm5.1289 0c-2.394 0-4.1582 1.747-4.1582 4.627 0 3.15 1.8911 4.5547 4.5371 4.5547 1.386 0 2.5558-0.37824 3.5098-0.99023l-0.26953-1.9082c-0.972 0.558-1.9264 0.91797-2.8984 0.91797-1.188 0-2.0162-0.53978-2.1602-1.9258h5.293c0.036-0.144 0.0527-0.43312 0.0527-0.70312 0-2.556-1.2062-4.5723-3.9062-4.5723zm34.723 0c-1.296 0.09-2.0342 0.91974-2.5742 1.9277l-0.28711-1.7461h-2.377v8.8184h2.7188v-4.8945c0.666-0.72 1.6548-1.242 2.9688-1.332zm5.1309 0c-2.394 0-4.1582 1.747-4.1582 4.627 0 3.15 1.8892 4.5547 4.5352 4.5547 1.386 0 2.5558-0.37824 3.5098-0.99023l-0.26953-1.9082c-0.972 0.558-1.9264 0.91797-2.8984 0.91797-1.188 0-2.0162-0.53978-2.1602-1.9258h5.293c0.036-0.144 0.0527-0.43312 0.0527-0.70312 0-2.556-1.2043-4.5723-3.9043-4.5723zm35.711 0c-1.116 0-1.9619 0.61272-2.7539 1.3867l-0.19726-1.2051h-2.3945v8.8184h2.7188v-5.7949c0.486-0.486 0.97215-0.79297 1.4942-0.79297 0.64799 0 0.89843 0.4325 0.89843 1.0625v5.5254h2.7363v-6.2637c0-1.71-0.86395-2.7363-2.502-2.7363zm8.0469 0c-2.394 0-4.1582 1.747-4.1582 4.627 0 3.15 1.8892 4.5547 4.5352 4.5547 1.386 0 2.5558-0.37824 3.5098-0.99023l-0.26953-1.9082c-0.972 0.558-1.9264 0.91797-2.8984 0.91797-1.188 0-2.0162-0.53978-2.1602-1.9258h5.293c0.036-0.144 0.0547-0.43312 0.0547-0.70312 0-2.556-1.2062-4.5723-3.9062-4.5723zm21.725 0c-2.394 0-4.1562 1.747-4.1562 4.627 0 3.15 1.8892 4.5547 4.5352 4.5547 1.386 0 2.5558-0.37824 3.5098-0.99023l-0.26953-1.9082c-0.972 0.558-1.9264 0.91797-2.8984 0.91797-1.188 0-2.0162-0.53978-2.1602-1.9258h5.293c0.036-0.144 0.0527-0.43312 0.0527-0.70312 0-2.556-1.2062-4.5723-3.9062-4.5723zm10.604 0c-1.296 0.09-2.0342 0.91974-2.5742 1.9277l-0.28906-1.7461h-2.375v8.8184h2.7168v-4.8945c0.666-0.72 1.6567-1.242 2.9707-1.332zm-366.05 0.03711c-2.124 0-3.707 1.2049-3.707 3.1309 0 1.134 0.59341 2.0526 1.6914 2.5566-0.86399 0.486-1.3144 1.026-1.3144 1.584 0 0.342 0.18033 0.70266 0.48633 0.97266-0.972 0.54-1.4394 1.1147-1.4394 1.8887 0 1.35 1.764 2.1074 4.248 2.1074 2.826 0 4.9316-1.242 4.9316-3.168 0-1.332-1.0622-1.8903-2.8262-2.0703l-1.6211-0.10742c-1.188-0.144-1.4024-0.21675-1.4024-0.46875 0-0.126 0.0709-0.25248 0.21485-0.39648 0.27 0.036 0.54012 0.05469 0.82812 0.05469 1.998 0 3.6543-1.135 3.6543-3.043 0-0.324-0.0541-0.62955-0.16211-0.93555 0.018 0 1.5488-0.03516 1.5488-0.03516l-0.3418-2.0176-2.0898 0.79297c-0.666-0.522-1.5832-0.8457-2.6992-0.8457zm79.633 0c-1.44 0-2.574 0.26959-3.582 0.68359l0.32422 2.0527c0.936-0.414 1.8538-0.66602 2.8438-0.66602 0.9 0 1.332 0.34124 1.332 1.1152v0.16211c-3.456 0.306-5.041 1.2777-5.041 3.3477 0 1.602 0.99054 2.4492 2.3945 2.4492 1.206 0 2.0515-0.5233 2.7715-1.2793l0.17969 1.0977h2.4121v-5.9023c0-2.25-1.2048-3.0605-3.6348-3.0605zm37.26 0c-2.394 0-4.375 1.511-4.375 4.625 0 2.844 1.7276 4.5 4.2656 4.5 1.044 0 1.9266-0.25102 2.8086-0.79102l-0.32422-2.2148c-0.756 0.486-1.3676 0.68359-2.0156 0.68359-1.098 0-1.9805-0.738-1.9805-2.25 0-1.476 0.79263-2.2129 1.8906-2.2129 0.72 0 1.296 0.19844 1.998 0.64844l0.35937-2.3223c-0.72-0.414-1.565-0.66602-2.627-0.66602zm20.682 0c-1.44 0-2.574 0.26959-3.582 0.68359l0.32422 2.0527c0.93599-0.414 1.8538-0.66602 2.8438-0.66602 0.89999 0 1.332 0.34124 1.332 1.1152v0.16211c-3.456 0.306-5.041 1.2777-5.041 3.3477 0 1.602 0.99053 2.4492 2.3945 2.4492 1.206 0 2.0515-0.5233 2.7715-1.2793l0.18164 1.0977h2.4121v-5.9023c0-2.25-1.2067-3.0605-3.6367-3.0605zm9.377 0c-2.394 0-4.373 1.511-4.373 4.625 0 2.844 1.7276 4.5 4.2656 4.5 1.044 0 1.9266-0.25102 2.8086-0.79102l-0.32422-2.2148c-0.75599 0.486-1.3676 0.68359-2.0156 0.68359-1.098 0-1.9805-0.738-1.9805-2.25 0-1.476 0.79263-2.2129 1.8906-2.2129 0.71999 0 1.296 0.19844 1.998 0.64844l0.35938-2.3223c-0.72-0.414-1.5669-0.66602-2.6289-0.66602zm75.188 0c-2.394 0-4.375 1.511-4.375 4.625 0 2.844 1.7276 4.5 4.2656 4.5 1.044 0 1.9266-0.25102 2.8086-0.79102l-0.32422-2.2148c-0.756 0.486-1.3676 0.68359-2.0156 0.68359-1.098 0-1.9805-0.738-1.9805-2.25 0-1.476 0.79262-2.2129 1.8906-2.2129 0.72 0 1.296 0.19844 1.998 0.64844l0.35937-2.3223c-0.71999-0.414-1.565-0.66602-2.627-0.66602zm88.992 0c-1.44 0-2.574 0.26959-3.582 0.68359l0.32422 2.0527c0.936-0.414 1.8538-0.66602 2.8438-0.66602 0.9 0 1.332 0.34124 1.332 1.1152v0.16211c-3.456 0.306-5.041 1.2777-5.041 3.3477 0 1.602 0.99053 2.4492 2.3945 2.4492 1.206 0 2.0515-0.5233 2.7715-1.2793l0.17969 1.0977h2.4121v-5.9023c0-2.25-1.2048-3.0605-3.6348-3.0605zm-372.53 0.01758c-2.16 0-3.3828 1.0983-3.3828 2.7363 0 1.656 0.93444 2.2502 3.1484 2.8262 1.242 0.306 1.4941 0.50313 1.4941 0.95312 0 0.414-0.35924 0.66602-1.1152 0.66602-1.008 0-2.2861-0.39497-3.3301-1.043l-0.32422 2.0703c0.918 0.486 2.2327 0.88086 3.6367 0.88086 2.34 0 3.6172-1.0073 3.6172-2.8613 0-1.638-0.82797-2.2333-3.168-2.8633-1.242-0.342-1.4941-0.53844-1.4941-0.89844 0-0.342 0.2895-0.57617 0.9375-0.57617 0.846 0 1.9425 0.30613 2.8965 0.82812l0.34179-2.0703c-0.91799-0.414-2.0698-0.64844-3.2578-0.64844zm25.381 0-2.916 0.3418 3.0058 8.6406h2.7188l3.0762-8.8555h-2.6445l-1.6016 5.4531zm48.113 0-2.916 0.3418 3.2051 8.623-0.10937 0.26953c-0.288 0.612-0.82745 0.8457-1.4394 0.8457-0.522 0-0.79208-0.05453-1.0801-0.14453l0.3418 2.1777c0.252 0.054 0.48734 0.10937 1.0273 0.10937 1.926 0 3.0049-0.7917 3.7969-3.0957l3.1328-9h-2.6289l-1.6191 5.4355zm74.934 0-2.916 0.3418 3.2051 8.623-0.10742 0.26953c-0.288 0.612-0.82941 0.8457-1.4414 0.8457-0.522 0-0.79208-0.05453-1.0801-0.14453l0.3418 2.1777c0.252 0.054 0.48734 0.10937 1.0273 0.10937 1.926 0 3.0049-0.7917 3.7969-3.0957l3.1328-9h-2.6289l-1.6191 5.4355zm105.82 0-2.8066 0.3418 2.4121 8.6035h2.6094l1.2773-5.0391 1.2969 5.0391h2.5918l2.4648-8.8184h-2.5195l-1.1699 5.1289-1.2598-5.1289h-2.4473l-1.2422 5.1465zm105.62 0c-2.16 0-3.3848 1.0983-3.3848 2.7363 0 1.656 0.93639 2.2502 3.1504 2.8262 1.242 0.306 1.4941 0.50313 1.4941 0.95312 0 0.414-0.36119 0.66602-1.1172 0.66602-1.008 0-2.2841-0.39497-3.3281-1.043l-0.32422 2.0703c0.918 0.486 2.2308 0.88086 3.6348 0.88086 2.34 0 3.6191-1.0073 3.6191-2.8613 0-1.638-0.82797-2.2333-3.168-2.8633-1.242-0.342-1.4941-0.53844-1.4941-0.89844 0-0.342 0.28755-0.57617 0.93555-0.57617 0.846 0 1.9444 0.30613 2.8984 0.82812l0.34179-2.0703c-0.91799-0.414-2.0698-0.64844-3.2578-0.64844zm42.516 0-2.8086 0.3418 2.4121 8.6035h2.6113l1.2773-5.0391 1.2949 5.0391h2.5938l2.4648-8.8184h-2.5195l-1.1699 5.1289-1.2598-5.1289h-2.4492l-1.2422 5.1465zm-81.449 0.01758c-2.7 0-4.4648 1.4955-4.4648 4.7715 0 2.97 1.3676 4.3379 3.1856 4.3379 1.044 0 1.7834-0.57677 2.3594-1.1348v4.3027l2.7168-0.41406v-11.232c-1.044-0.378-2.3749-0.63086-3.7969-0.63086zm-328.75 0.10938v8.8184h2.7344v-8.8184zm16.83 0v8.8184h2.7344v-8.8184zm23.381 0v8.8184h2.7363v-8.8184zm11.25 0v8.8184h2.7363v-8.8184zm45.99 0v6.2812c0 1.71 0.86395 2.7188 2.502 2.7188 1.098 0 1.9439-0.59472 2.7539-1.3867l0.19726 1.2051h2.3945v-8.8184h-2.7168v5.8125c-0.486 0.486-0.97214 0.79297-1.4941 0.79297-0.648 0-0.91797-0.45008-0.91797-1.0801v-5.5254zm80.047 0v8.8184h2.7344v-8.8184zm105.24 0v8.8184h2.7363v-8.8184zm51.625 0v6.2812c0 1.71 0.86396 2.7188 2.502 2.7188 1.098 0 1.9439-0.59472 2.7539-1.3867l0.19727 1.2051h2.3945v-8.8184h-2.7168v5.8125c-0.486 0.486-0.97214 0.79297-1.4941 0.79297-0.648 0-0.91797-0.45008-0.91797-1.0801v-5.5254zm9.7734 0v8.8184h2.7363v-8.8184zm-274.91 1.457c0.81 0 1.2969 0.61145 1.2969 1.4395 0 0.846-0.46887 1.459-1.2969 1.459-0.792 0-1.2598-0.5763-1.2598-1.4043 0-0.846 0.46777-1.4941 1.2598-1.4941zm176.9 0.12695c0.828 0 1.2967 0.68363 1.3867 2.0156h-2.7734c0.09-1.35 0.63072-2.0156 1.3867-2.0156zm73.117 0c0.828 0 1.2948 0.68363 1.3848 2.0156h-2.7715c0.09-1.35 0.63072-2.0156 1.3867-2.0156zm39.852 0c0.828 0 1.2948 0.68363 1.3848 2.0156h-2.7715c0.09-1.35 0.63072-2.0156 1.3867-2.0156zm43.758 0c0.828 0 1.2948 0.68363 1.3848 2.0156h-2.7715c0.09-1.35 0.63072-2.0156 1.3867-2.0156zm21.727 0c0.828 0 1.2948 0.68363 1.3848 2.0156h-2.7715c0.09-1.35 0.63072-2.0156 1.3867-2.0156zm-434.09 0.4668c1.044 0 1.6191 0.95495 1.6191 2.377 0 1.422-0.57514 2.375-1.6191 2.375-1.026 0-1.6035-0.97253-1.6035-2.3945 0-1.44 0.55952-2.3574 1.6035-2.3574zm101.32 0c1.044 0 1.6211 0.95495 1.6211 2.377 0 1.422-0.5771 2.375-1.6211 2.375-1.026 0-1.6016-0.97253-1.6016-2.3945 0-1.44 0.55756-2.3574 1.6016-2.3574zm29.377 0c1.044 0 1.6192 0.95495 1.6192 2.377 0 1.422-0.57515 2.375-1.6192 2.375-1.026 0-1.6016-0.97253-1.6016-2.3945 0-1.44 0.55757-2.3574 1.6016-2.3574zm115.6 0c1.044 0 1.6191 0.95495 1.6191 2.377 0 1.422-0.57514 2.375-1.6191 2.375-1.026 0-1.6016-0.97253-1.6016-2.3945 0-1.44 0.55756-2.3574 1.6016-2.3574zm92.033 0.03711c0.414 0 0.64977 0.03611 1.0098 0.16211v3.4902c-0.468 0.486-0.93614 0.84766-1.4941 0.84766-0.774 0-1.3145-0.613-1.3145-2.125 0-1.728 0.73683-2.375 1.7988-2.375zm-193.95 0.16211c0.774 0 1.332 0.62947 1.332 2.1055 0 1.71-0.68356 2.4121-1.6016 2.4121-0.558 0-0.86419-0.08953-1.2422-0.26953v-3.3496c0.45-0.54 0.91772-0.89844 1.5117-0.89844zm14.887 2.2676v1.8711c-0.486 0.432-0.98972 0.66602-1.5117 0.66602-0.504 0-0.84765-0.30528-0.84765-0.86328 0-0.774 0.50537-1.3858 2.3594-1.6738zm57.941 0v1.8711c-0.486 0.432-0.98972 0.66602-1.5117 0.66602-0.504 0-0.84571-0.30528-0.84571-0.86328 0-0.774 0.50343-1.3858 2.3574-1.6738zm173.56 0v1.8711c-0.486 0.432-0.99167 0.66602-1.5137 0.66602-0.504 0-0.84571-0.30528-0.84571-0.86328 0-0.774 0.50538-1.3858 2.3594-1.6738zm-129.44 1.2051-0.79101 5.3828 1.6191 0.37695 2.25-5.7598zm-184.18 2.9336c0.432 0.072 0.73872 0.12764 1.3867 0.18164l1.3144 0.10742c0.954 0.108 1.2774 0.28717 1.2774 0.70117 0 0.576-0.81042 1.0449-2.2324 1.0449-1.584 0-2.2676-0.43292-2.2676-1.0449 0-0.306 0.16148-0.63024 0.52148-0.99024zm-94.355 12.457c-0.86399 0-1.5488 0.57656-1.5488 1.4766 0 0.882 0.68483 1.457 1.5488 1.457 0.882 0 1.5488-0.57503 1.5488-1.457 0-0.9-0.66683-1.4766-1.5488-1.4766zm39.564 0.07227c-2.034 0-3.3477 0.79202-3.3477 2.916v1.0977h-1.2246v2.2148h1.2246v6.6055h2.7168v-6.6055h1.9258l-0.32422-2.2148h-1.6016v-0.82812c0-0.72 0.34208-1.0801 1.0801-1.0801 0.378 0 0.70265 0.03627 0.97265 0.07227l-0.32422-2.0879c-0.306-0.036-0.66565-0.08984-1.0976-0.08984zm26.225 0.26953c-2.376 0-4.2461 1.2779-4.2461 3.6719 0 2.052 1.0785 2.8624 3.5625 3.8164 1.746 0.666 2.1074 0.98941 2.1074 1.6914 0 0.738-0.61215 1.1172-1.4942 1.1172-1.242 0-2.6654-0.46834-3.9434-1.1523l-0.44922 2.627c1.26 0.576 2.6639 0.9375 4.3379 0.9375 2.466 0 4.4453-1.1887 4.4453-3.8887 0-1.98-1.0793-2.9163-3.7793-3.9062-1.548-0.594-1.8906-0.8993-1.8906-1.5293 0-0.576 0.45072-0.97266 1.3867-0.97266 0.954 0 2.1242 0.35981 3.2402 1.0078l0.4668-2.5918c-1.08-0.522-2.1241-0.82812-3.7441-0.82812zm-19.457 0.14453-0.9004 12.42h2.6816l0.54101-8.2617 2.3574 8.2793h2.8809l2.3574-8.2793 0.53907 8.2617h3.1328l-0.90039-12.42h-3.8691l-2.4297 8.5488-2.4121-8.5488zm25.451 0v12.42h2.8633v-7.4336l4.8965 7.4336h2.6621v-12.42h-2.8613v6.9473l-4.5723-6.9473zm16.992 0-0.89844 12.42h2.6816l0.53906-8.2617 2.3574 8.2793h2.8809l2.3574-8.2793 0.54102 8.2617h3.1309l-0.89844-12.42h-3.8711l-2.4297 8.5488-2.4121-8.5488zm88.488 0.25195 0.7207 5.0215 1.7461 0.37891 0.79102-5.4004zm4.4102 0 0.73828 5.0215 1.7285 0.37891 0.79101-5.4004zm-203.51 3.1679c-2.394 0-4.1582 1.745-4.1582 4.625 0 3.15 1.8911 4.5547 4.5371 4.5547 1.386 0 2.5558-0.37824 3.5098-0.99023l-0.27148-1.9082c-0.972 0.558-1.9245 0.91797-2.8965 0.91797-1.188 0-2.0162-0.53978-2.1602-1.9258h5.291c0.036-0.144 0.05469-0.43117 0.05469-0.70117 0-2.556-1.2063-4.5723-3.9062-4.5723zm10.602 0c-1.296 0.09-2.0342 0.91778-2.5742 1.9258l-0.28711-1.7461h-2.377v8.8203h2.7188v-4.8965c0.666-0.72 1.6567-1.242 2.9707-1.332zm18.324 0c-2.43 0-4.2305 1.7814-4.2305 4.6074 0 2.826 1.7829 4.5723 4.2129 4.5723 2.448 0 4.2656-1.7638 4.2656-4.5898 0-2.826-1.8-4.5898-4.248-4.5898zm11.035 0c-1.116 0-1.9639 0.61077-2.7559 1.3848l-0.19727-1.2051h-2.3945v8.8203h2.7188v-5.7969c0.486-0.486 0.97214-0.79102 1.4941-0.79102 0.648 0 0.90039 0.43055 0.90039 1.0605v5.5273h2.7363v-6.2637c0-1.71-0.86395-2.7363-2.502-2.7363zm11.879 0c-2.43 0-4.2305 1.7814-4.2305 4.6074 0 2.826 1.7829 4.5723 4.2129 4.5723 2.448 0 4.2656-1.7638 4.2656-4.5898 0-2.826-1.8-4.5898-4.248-4.5898zm77.797 0c-2.394 0-4.1582 1.745-4.1582 4.625 0 3.15 1.8892 4.5547 4.5352 4.5547 1.386 0 2.5558-0.37824 3.5098-0.99023l-0.26953-1.9082c-0.972 0.558-1.9264 0.91797-2.8984 0.91797-1.188 0-2.0162-0.53978-2.1602-1.9258h5.293c0.036-0.144 0.0547-0.43117 0.0547-0.70117 0-2.556-1.2062-4.5723-3.9062-4.5723zm25.721 0c-2.394 0-4.1582 1.745-4.1582 4.625 0 3.15 1.8911 4.5547 4.5371 4.5547 1.386 0 2.5558-0.37824 3.5098-0.99023l-0.26953-1.9082c-0.972 0.558-1.9264 0.91797-2.8984 0.91797-1.188 0-2.0162-0.53978-2.1602-1.9258h5.293c0.036-0.144 0.0527-0.43117 0.0527-0.70117 0-2.556-1.2062-4.5723-3.9062-4.5723zm10.711 0c-1.116 0-1.9619 0.61077-2.7539 1.3848l-0.19922-1.2051h-2.3926v8.8203h2.7168v-5.7969c0.486-0.486 0.97214-0.79102 1.4941-0.79102 0.648 0 0.90039 0.43055 0.90039 1.0605v5.5273h2.7363v-6.2637c0-1.71-0.86395-2.7363-2.502-2.7363zm17.441 0c-2.394 0-4.1582 1.745-4.1582 4.625 0 3.15 1.8911 4.5547 4.5371 4.5547 1.386 0 2.5558-0.37824 3.5098-0.99023l-0.26953-1.9082c-0.972 0.558-1.9264 0.91797-2.8984 0.91797-1.188 0-2.0162-0.53978-2.1602-1.9258h5.291c0.036-0.144 0.0547-0.43117 0.0547-0.70117 0-2.556-1.2063-4.5723-3.9062-4.5723zm10.602 0c-1.296 0.09-2.0342 0.91778-2.5742 1.9258l-0.28711-1.7461h-2.375v8.8203h2.7168v-4.8965c0.666-0.72 1.6567-1.242 2.9707-1.332zm-20.303 0.03516c-2.124 0-3.709 1.2068-3.709 3.1328 0 1.134 0.59536 2.0507 1.6934 2.5547-0.864 0.486-1.3144 1.026-1.3144 1.584 0 0.342 0.18032 0.70266 0.48632 0.97266-0.972 0.54-1.4414 1.1166-1.4414 1.8906 0 1.35 1.764 2.1055 4.248 2.1055 2.826 0 4.9316-1.242 4.9316-3.168 0-1.332-1.0602-1.8903-2.8242-2.0703l-1.6211-0.10742c-1.188-0.144-1.4043-0.21675-1.4043-0.46875 0-0.126 0.0728-0.25053 0.21679-0.39453 0.27 0.036 0.54013 0.05273 0.82813 0.05273 1.998 0 3.6543-1.133 3.6543-3.041 0-0.324-0.0541-0.62955-0.16211-0.93555 0.018 0 1.5469-0.03711 1.5469-0.03711l-0.3418-2.0156-2.0879 0.79102c-0.666-0.522-1.5832-0.8457-2.6992-0.8457zm-184.21 0.01758-2.916 0.34375 3.0059 8.6387h2.7188l3.0781-8.8555h-2.6465l-1.6016 5.4531zm25.615 0c-2.16 0-3.3848 1.0983-3.3848 2.7363 0 1.656 0.93639 2.2502 3.1504 2.8262 1.242 0.306 1.4941 0.50508 1.4941 0.95508 0 0.414-0.36119 0.66602-1.1172 0.66602-1.008 0-2.2861-0.39692-3.3301-1.0449l-0.32422 2.0703c0.918 0.486 2.2327 0.88281 3.6367 0.88281 2.34 0 3.6172-1.0093 3.6172-2.8633 0-1.638-0.82797-2.2313-3.168-2.8613-1.242-0.342-1.4922-0.54039-1.4922-0.90039 0-0.342 0.28755-0.57617 0.93555-0.57617 0.846 0 1.9444 0.30613 2.8984 0.82812l0.3418-2.0703c-0.918-0.414-2.0698-0.64844-3.2578-0.64844zm122.94 0c-2.16 0-3.3848 1.0983-3.3848 2.7363 0 1.656 0.9364 2.2502 3.1504 2.8262 1.242 0.306 1.4941 0.50508 1.4941 0.95508 0 0.414-0.35924 0.66602-1.1152 0.66602-1.008 0-2.2861-0.39692-3.3301-1.0449l-0.32422 2.0703c0.918 0.486 2.2308 0.88281 3.6348 0.88281 2.34 0 3.6191-1.0093 3.6191-2.8633 0-1.638-0.82797-2.2313-3.168-2.8613-1.242-0.342-1.4941-0.54039-1.4941-0.90039 0-0.342 0.28755-0.57617 0.93555-0.57617 0.846 0 1.9444 0.30613 2.8984 0.82812l0.34179-2.0703c-0.918-0.414-2.0698-0.64844-3.2578-0.64844zm8.2793 0c-2.16 0-3.3828 1.0983-3.3828 2.7363 0 1.656 0.93443 2.2502 3.1484 2.8262 1.242 0.306 1.4941 0.50508 1.4941 0.95508 0 0.414-0.35923 0.66602-1.1152 0.66602-1.008 0-2.2861-0.39692-3.3301-1.0449l-0.32422 2.0703c0.918 0.486 2.2327 0.88281 3.6367 0.88281 2.34 0 3.6172-1.0093 3.6172-2.8633 0-1.638-0.82797-2.2313-3.168-2.8613-1.242-0.342-1.4941-0.54039-1.4941-0.90039 0-0.342 0.28755-0.57617 0.93555-0.57617 0.84599 0 1.9444 0.30613 2.8984 0.82812l0.3418-2.0703c-0.918-0.414-2.0698-0.64844-3.2578-0.64844zm-125.96 0.12695v8.8203h2.7344v-8.8203zm153.36 1.457c0.81 0 1.2949 0.61341 1.2949 1.4414 0 0.846-0.46692 1.457-1.2949 1.457-0.792 0-1.2598-0.5763-1.2598-1.4043 0-0.846 0.46776-1.4941 1.2598-1.4941zm-173.9 0.12695c0.828 0 1.2967 0.68363 1.3867 2.0156h-2.7734c0.09-1.35 0.63072-2.0156 1.3867-2.0156zm129.64 0c0.828 0 1.2948 0.68363 1.3848 2.0156h-2.7715c0.09-1.35 0.63072-2.0156 1.3867-2.0156zm25.721 0c0.828 0 1.2967 0.68363 1.3867 2.0156h-2.7715c0.09-1.35 0.62877-2.0156 1.3848-2.0156zm28.152 0c0.828 0 1.2967 0.68363 1.3867 2.0156h-2.7715c0.09-1.35 0.62877-2.0156 1.3848-2.0156zm-154.51 0.46875c1.044 0 1.6211 0.953 1.6211 2.375 0 1.422-0.5771 2.377-1.6211 2.377-1.026 0-1.6016-0.97253-1.6016-2.3945 0-1.44 0.55756-2.3574 1.6016-2.3574zm22.914 0c1.044 0 1.6211 0.953 1.6211 2.375 0 1.422-0.5771 2.377-1.6211 2.377-1.026 0-1.6016-0.97253-1.6016-2.3945 0-1.44 0.55756-2.3574 1.6016-2.3574zm142.65 3.6719v3.0957h2.916v-3.0957zm-22.248 2.9336c0.432 0.072 0.73872 0.12569 1.3867 0.17969l1.3125 0.10742c0.954 0.108 1.2793 0.28912 1.2793 0.70312 0 0.576-0.81042 1.043-2.2324 1.043-1.584 0-2.2676-0.43097-2.2676-1.043 0-0.306 0.16149-0.63024 0.52149-0.99024z" fill="#f0f0f0" style="paint-order:stroke fill markers"/><path d="m335.25 12.26-0.14-0.868h-7.112v0.868h3.136v8.792h0.952v-8.792zm5.264 5.488c0-2.198-1.288-3.458-3.01-3.458-1.666 0-2.968 1.26-2.968 3.458 0 2.184 1.274 3.444 2.968 3.444s3.01-1.26 3.01-3.444zm-0.952 0c0 1.568-0.714 2.66-2.058 2.66-1.302 0-2.03-1.134-2.03-2.66 0-1.568 0.714-2.674 2.03-2.674 1.33 0 2.058 1.148 2.058 2.674zm7.98 3.304v-10.052l-0.924 0.168v3.5c-0.462-0.21-1.05-0.336-1.722-0.336-1.61 0-3.024 1.176-3.024 3.598 0 2.226 1.218 3.262 2.674 3.262 0.966 0 1.624-0.504 2.128-1.106l0.168 0.966zm-0.924-1.876c-0.588 0.714-1.204 1.19-1.988 1.19-1.05 0-1.82-0.868-1.82-2.478 0-1.862 0.924-2.758 2.114-2.758 0.686 0 1.176 0.126 1.694 0.392zm7.826 1.876v-4.718c0-1.358-0.756-2.044-2.226-2.044-0.938 0-1.694 0.238-2.464 0.574l0.126 0.826c0.728-0.35 1.498-0.588 2.282-0.588 0.84 0 1.372 0.378 1.372 1.274v0.434c-2.996 0.294-4.256 1.022-4.256 2.576 0 1.176 0.826 1.806 1.974 1.806 0.952 0 1.722-0.448 2.338-1.022l0.154 0.882zm-0.91-1.638c-0.644 0.602-1.428 0.994-2.142 0.994-0.7 0-1.19-0.364-1.19-1.078 0-0.896 0.728-1.526 3.332-1.792zm8.106-4.984h-0.952l-1.96 5.558-2.058-5.642-0.896 0.168 2.506 6.58-0.308 0.798c-0.252 0.644-0.574 0.882-1.12 0.882-0.21 0-0.406-0.028-0.546-0.056l0.126 0.812c0.098 0.014 0.224 0.042 0.364 0.042 0.98 0 1.568-0.406 2.044-1.694zm9.408 6.622v-4.718c0-1.358-0.756-2.044-2.226-2.044-0.938 0-1.694 0.238-2.464 0.574l0.126 0.826c0.728-0.35 1.498-0.588 2.282-0.588 0.84 0 1.372 0.378 1.372 1.274v0.434c-2.996 0.294-4.256 1.022-4.256 2.576 0 1.176 0.826 1.806 1.974 1.806 0.952 0 1.722-0.448 2.338-1.022l0.154 0.882zm-0.91-1.638c-0.644 0.602-1.428 0.994-2.142 0.994-0.7 0-1.19-0.364-1.19-1.078 0-0.896 0.728-1.526 3.332-1.792zm5.978 1.638-0.14-0.77c-0.154 0.028-0.406 0.07-0.616 0.07-0.714 0-0.98-0.294-0.98-0.966v-4.172h1.652l-0.126-0.784h-1.526v-2.45l-0.91 0.154v2.296h-1.022v0.784h1.022v4.326c0 1.218 0.686 1.624 1.722 1.624 0.392 0 0.728-0.056 0.924-0.112zm7.224 0v-9.506h-0.756l-2.324 1.064 0.126 0.756 2.03-0.812v8.498zm4.97 0v-9.506h-0.756l-2.324 1.064 0.126 0.756 2.03-0.812v8.498zm3.626-5.264v-1.358h-1.092v1.358zm0 5.264v-1.372h-1.092v1.372zm4.522 0v-9.506h-0.756l-2.324 1.064 0.126 0.756 2.03-0.812v8.498zm8.176-8.764v-0.7h-6.048l0.126 0.84h4.872l-3.766 8.512 0.896 0.21zm10.766 1.82c0-1.736-1.218-2.716-3.164-2.716h-2.394v9.66h0.966v-4.074h1.204c1.974 0 3.388-0.966 3.388-2.87zm-0.98 0.028c0 1.344-0.896 1.988-2.366 1.988h-1.246v-3.878h1.358c1.47 0 2.254 0.644 2.254 1.89zm13.104 6.916-0.77-9.66h-1.176l-3.332 8.428-3.318-8.428h-1.19l-0.77 9.66h0.896l0.63-8.246 3.36 8.302h0.756l3.346-8.302 0.63 8.246z" fill="#8e959e" aria-label="Today at 11:17 PM"/></g></g><path d="m33 8c-2.4973 0-3 3-3 3v2.9727c0 1.0541-1 1.0273-1 1.0273s-7.0169 0.37759-8.75 1.4316c-1.1341 0.68974-2.2735 2.1083-2.25 3.1621l0.5 22.406s1 5 8.5 5c7.5011-1e-6 8.5-5 8.5-5l0.5-31s-0.49982-3-3-3zm-10.5 13h9c0.831 0 1.5 0.669 1.5 1.5v4c0 0.831-0.669 1.5-1.5 1.5h-9c-0.831 0-1.5-0.669-1.5-1.5v-4c0-0.831 0.669-1.5 1.5-1.5zm-0.56445 11.371h1.1289c0.31247 0 0.56445 0.25198 0.56445 0.56445v1.1289c0 0.31247-0.25198 0.56445-0.56445 0.56445h-1.1289c-0.31247 0-0.56445-0.25198-0.56445-0.56445v-1.1289c0-0.31247 0.25198-0.56445 0.56445-0.56445zm4.5 0h1.1289c0.31247 0 0.56445 0.25198 0.56445 0.56445v1.1289c0 0.31247-0.25198 0.56445-0.56445 0.56445h-1.1289c-0.31247 0-0.56445-0.25198-0.56445-0.56445v-1.1289c0-0.31247 0.25198-0.56445 0.56445-0.56445zm4.5 0h1.1289c0.31247 0 0.56445 0.25198 0.56445 0.56445v1.1289c0 0.31247-0.25198 0.56445-0.56445 0.56445h-1.1289c-0.31247 0-0.56445-0.25198-0.56445-0.56445v-1.1289c0-0.31247 0.25198-0.56445 0.56445-0.56445zm-9 4.5h1.1289c0.31247 0 0.56445 0.25198 0.56445 0.56445v1.1289c0 0.31247-0.25198 0.56445-0.56445 0.56445h-1.1289c-0.31247 0-0.56445-0.25198-0.56445-0.56445v-1.1289c0-0.31247 0.25198-0.56445 0.56445-0.56445zm4.5 0h1.1289c0.31247 0 0.56445 0.25198 0.56445 0.56445v1.1289c0 0.31247-0.25198 0.56445-0.56445 0.56445h-1.1289c-0.31247 0-0.56445-0.25198-0.56445-0.56445v-1.1289c0-0.31247 0.25198-0.56445 0.56445-0.56445zm4.5 0h1.1289c0.31247 0 0.56445 0.25198 0.56445 0.56445v1.1289c0 0.31247-0.25198 0.56445-0.56445 0.56445h-1.1289c-0.31247 0-0.56445-0.25198-0.56445-0.56445v-1.1289c0-0.31247 0.25198-0.56445 0.56445-0.56445zm-4.5 4.5h1.1289c0.31247 0 0.56445 0.25198 0.56445 0.56445v1.1289c0 0.31247-0.25198 0.56445-0.56445 0.56445h-1.1289c-0.31247 0-0.56445-0.25198-0.56445-0.56445v-1.1289c0-0.31247 0.25198-0.56445 0.56445-0.56445z" fill="#1c5ea8"/><path d="m33 9c-1.5031 0-2 2-2 2v4c0 1-1 1-1 1s-7.4595 2e-6 -9 1c-1.0081 0.65437-2.0238 2.0003-2 3l0.5 21s0.50001 5 7.5 5 7.5-5 7.5-5l0.5-30s-0.49689-2-2-2zm-11 11h10c1.108 0 2 0.892 2 2v5c0 1.108-0.892 2-2 2h-10c-1.108 0-2-0.892-2-2v-5c0-1.108 0.892-2 2-2zm-0.5 11.5h2c0.554 0 1 0.446 1 1v2c0 0.554-0.446 1-1 1h-2c-0.554 0-1-0.446-1-1v-2c0-0.554 0.446-1 1-1zm4.5 0h2c0.554 0 1 0.446 1 1v2c0 0.554-0.446 1-1 1h-2c-0.554 0-1-0.446-1-1v-2c0-0.554 0.446-1 1-1zm4.5 0h2c0.554 0 1 0.446 1 1v2c0 0.554-0.446 1-1 1h-2c-0.554 0-1-0.446-1-1v-2c0-0.554 0.446-1 1-1zm-9 4.5h2c0.554 0 1 0.446 1 1v2c0 0.554-0.446 1-1 1h-2c-0.554 0-1-0.446-1-1v-2c0-0.554 0.446-1 1-1zm4.5 0h2c0.554 0 1 0.446 1 1v2c0 0.554-0.446 1-1 1h-2c-0.554 0-1-0.446-1-1v-2c0-0.554 0.446-1 1-1zm4.5 0h2c0.554 0 1 0.446 1 1v2c0 0.554-0.446 1-1 1h-2c-0.554 0-1-0.446-1-1v-2c0-0.554 0.446-1 1-1zm-4.5 4.5h2c0.554 0 1 0.446 1 1v2c0 0.554-0.446 1-1 1h-2c-0.554 0-1-0.446-1-1v-2c0-0.554 0.446-1 1-1z" fill="#0fc8ff"/></svg>
