<?xml version="1.0" encoding="UTF-8"?>
<svg width="147.63" height="44.383" version="1.1" viewBox="0 0 147.63 44.383" xmlns="http://www.w3.org/2000/svg"><g fill="#de4243"><path d="m20.616 7.9555h5.138v11.575h19.188c0.063-1.114 0-2.104 0-2.6 0-13.556-4.085-15.97-21.416-15.97-19.25 0-22.098 3.59-22.098 18.012 0 21.603 0.929 24.45 22.098 24.45 18.879 0 21.169-3.342 21.416-18.755h-19.188v11.946h-5.138z"/><path d="m96.373 42.525h18.445v-34.044h4.952v17.703l7.18 16.341h19.25l-9.16-17.765c2.724-2.538 3.59-4.581 3.59-8.914 0-11.327-3.404-13.989-13.494-13.989h-30.763z"/><path d="m44.691 42.525h19.621l7.242-17.146v-16.836h4.891v33.982h18.197v-40.667h-32.928z"/></g></svg>
