<?xml version="1.0" encoding="UTF-8" standalone="no"?>
<!-- Created with Inkscape (http://www.inkscape.org/) -->

<svg
   width="1840"
   height="205"
   viewBox="0 0 1840 205"
   version="1.1"
   id="svg1"
   xml:space="preserve"
   inkscape:version="1.3 (0e150ed6c4, 2023-07-21)"
   sodipodi:docname="Philips.svg"
   xmlns:inkscape="http://www.inkscape.org/namespaces/inkscape"
   xmlns:sodipodi="http://sodipodi.sourceforge.net/DTD/sodipodi-0.dtd"
   xmlns="http://www.w3.org/2000/svg"
   xmlns:svg="http://www.w3.org/2000/svg"
   xmlns:rdf="http://www.w3.org/1999/02/22-rdf-syntax-ns#"
   xmlns:cc="http://creativecommons.org/ns#"
   xmlns:dc="http://purl.org/dc/elements/1.1/"><title
     id="title1">Philips-Magnavox Logo</title><sodipodi:namedview
     id="namedview1"
     pagecolor="#505050"
     bordercolor="#ffffff"
     borderopacity="1"
     inkscape:showpageshadow="0"
     inkscape:pageopacity="0"
     inkscape:pagecheckerboard="1"
     inkscape:deskcolor="#505050"
     inkscape:document-units="px"
     showgrid="true"
     inkscape:zoom="0.36283863"
     inkscape:cx="890.2029"
     inkscape:cy="237.01997"
     inkscape:window-width="1287"
     inkscape:window-height="747"
     inkscape:window-x="-4"
     inkscape:window-y="-4"
     inkscape:window-maximized="1"
     inkscape:current-layer="layer2"><inkscape:grid
       id="grid1"
       units="px"
       originx="0"
       originy="0"
       spacingx="1"
       spacingy="1"
       empcolor="#0099e5"
       empopacity="0.30196078"
       color="#0099e5"
       opacity="0.14901961"
       empspacing="1"
       dotted="false"
       gridanglex="30"
       gridanglez="30"
       visible="true" /></sodipodi:namedview><defs
     id="defs1" /><g
     inkscape:groupmode="layer"
     id="layer2"
     inkscape:label="Layer 2"
     style="fill:none;stroke:#ffb900;stroke-width:5;stroke-dasharray:none;stroke-opacity:1"
     transform="translate(2.5,2.5)"><rect
       style="opacity:1;fill:none;fill-opacity:1;stroke:#ffb900;stroke-width:10;stroke-linecap:square;stroke-dasharray:none;stroke-opacity:1"
       id="rect1"
       width="1830"
       height="195"
       x="2.5"
       y="2.5"
       sodipodi:insensitive="true"
       inkscape:label="Outline" /><path
       d="m 159.642,74.270997 q 0,27.832003 -16.856,39.004003 -12.152,7.84 -35.084,7.84 h -8.232001 v 50.96 h -37.436 V 27.818997 H 107.702 q 23.324,0 35.28,7.84 16.66,10.976 16.66,38.612 z m -36.26,0 q 0,-9.604 -3.92,-14.112 -3.92,-4.704 -13.72,-4.704 h -6.272001 v 37.436 H 105.742 q 9.8,0 13.72,-4.508 3.92,-4.508 3.92,-14.112 z M 284.57818,172.075 h -37.632 v -61.936 h -27.636 v 61.936 h -37.436 V 27.818997 h 37.436 v 55.664 h 27.636 v -55.664 h 37.632 z m 64.76419,0 h -37.436 V 27.818997 h 37.436 z m 102.78816,0 h -75.46 V 27.818997 h 37.436 V 142.283 h 38.024 z m 59.4721,0 h -37.436 V 27.818997 h 37.436 z M 636.53879,74.270997 q 0,27.832003 -16.856,39.004003 -12.152,7.84 -35.084,7.84 h -8.232 v 50.96 h -37.436 V 27.818997 h 45.668 q 23.324,0 35.28,7.84 16.66,10.976 16.66,38.612 z m -36.26,0 q 0,-9.604 -3.92,-14.112 -3.92,-4.704 -13.72,-4.704 h -6.272 v 37.436 h 6.272 q 9.8,0 13.72,-4.508 3.92,-4.508 3.92,-14.112 z M 744.61894,127.191 q 0,20.188 -14.504,34.104 -14.308,13.72 -35.476,13.72 -22.736,0 -37.044,-8.428 v -34.104 q 17.64,11.956 32.928,11.956 17.052,0 17.052,-13.524 0,-6.86 -13.328,-14.896 -19.992,-11.76 -24.892,-16.268003 -13.328,-12.348 -13.328,-29.988 0,-19.992 12.936,-32.34 13.132,-12.544 34.104,-12.544 7.448,0 17.64,2.548 10.192,2.548 16.072,6.076 v 33.32 q -4.312,-4.508 -13.132,-8.232 -8.82,-3.92 -15.288,-3.92 -15.484,0 -15.484,10.584 0,7.448 13.328,15.092 20.188,11.564 25.088,16.072 13.328,12.152003 13.328,30.772003 z"
       id="text1"
       style="font-size:196px;font-family:SwankGothicW90-Condensed;-inkscape-font-specification:SwankGothicW90-Condensed;letter-spacing:14px;word-spacing:0px;stroke-linecap:square;stroke-linejoin:round"
       aria-label="PHILIPS"
       inkscape:label="Philips" /><path
       d="m 812.49498,166.56 h 31.494 l -1.086,-100.274002 0.362,-0.362 28.598,100.636002 h 22.625 l 28.598,-100.636002 0.362,0.362 -1.086,100.274002 h 31.494 V 32.619998 h -44.164 l -26.245,88.147002 h -0.362 l -26.607,-88.147002 h -43.983 z m 230.43622,-19.367 6.516,19.367 h 37.105 l -53.214,-133.940002 h -26.969 L 952.61215,166.56 h 36.743 l 7.059,-19.367 z m -23.349,-72.943002 h 0.362 0.181 l 13.756,45.793002 h -28.055 z m 115.6817,16.109 V 117.69 h 40.001 c -3.62,13.032 -15.023,21.539 -32.037,21.539 -16.833,0 -36.743,-12.127 -36.743,-40.182002 0,-26.426 19.729,-38.915 36.562,-38.915 14.48,0 24.254,7.964 29.503,17.376 h 38.372 c -7.421,-25.883 -34.933,-47.422 -66.97,-47.422 -39.458,0 -71.676,28.96 -71.676,68.961 0,38.553002 30.589,70.228002 71.133,70.228002 37.105,0 71.495,-26.969 71.495,-71.857002 0,-2.715 0,-4.706 -0.181,-7.059 z m 82.378,76.201002 h 32.761 l -0.905,-81.269002 0.362,-0.181 51.042,81.450002 h 29.684 V 32.619998 h -32.761 l 1.448,83.803002 -0.362,0.362 -51.766,-84.165002 h -29.503 z m 202.2001,-19.367 6.516,19.367 h 37.105 L 1410.249,32.619998 H 1383.28 L 1329.523,166.56 h 36.743 l 7.059,-19.367 z m -23.349,-72.943002 h 0.362 0.181 l 13.756,45.793002 h -28.055 z m 38.0331,-41.63 44.707,133.940002 h 35.295 l 44.888,-133.940002 h -35.295 l -27.15,93.939002 h -0.362 l -26.969,-93.939002 z m 116.225,40.001 c -3.982,9.774 -5.249,19.729 -5.249,28.598002 0,34.39 28.236,67.875 70.409,67.875 41.63,0 70.952,-32.218 70.952,-69.504002 0,-37.286 -29.503,-69.504 -70.771,-69.504 -37.467,0 -58.282,25.159 -65.341,42.535 z m 28.96,26.607 c 0,-18.824 12.851,-39.096 36.562,-39.096 24.616,0 36.381,22.263 36.381,39.639 0,17.195002 -11.765,39.277002 -36.019,39.277002 -22.987,0 -36.924,-19.186 -36.924,-39.820002 z m 184.4618,-66.608 -22.263,38.191 -22.987,-38.191 h -38.734 l 41.449,62.626 -46.879,71.314002 h 38.191 l 27.512,-47.422 28.96,47.422 h 38.734 l -46.336,-70.590002 40.906,-63.35 z"
       id="text2"
       style="font-weight:bold;font-size:181px;font-family:'ITC Avant Garde Gothic';-inkscape-font-specification:'ITC Avant Garde Gothic Bold';letter-spacing:-15px;word-spacing:0px;fill:#ffba00;stroke:none;stroke-linecap:square;stroke-linejoin:round"
       aria-label="MAGNAVOX"
       inkscape:label="Magnavox" /></g><metadata
     id="metadata1"><rdf:RDF><cc:Work
         rdf:about=""><dc:title>Philips-Magnavox Logo</dc:title></cc:Work></rdf:RDF></metadata></svg>
