<?xml version="1.0" encoding="UTF-8"?>
<!DOCTYPE svg PUBLIC "-//W3C//DTD SVG 1.1//EN" "http://www.w3.org/Graphics/SVG/1.1/DTD/svg11.dtd">
<svg xmlns="http://www.w3.org/2000/svg" width="147.628" height="44.383" viewBox="0 0 147.628 44.383"><g fill="#DE4243"><path d="M95.972 42.833h19.621l7.242-17.146V8.851h4.891v33.982h18.197V2.166h-32.928zM1.927 42.833h18.445V8.789h4.952v17.703l7.18 16.341h19.25l-9.16-17.765c2.724-2.538 3.59-4.581 3.59-8.914 0-11.327-3.404-13.989-13.494-13.989H1.927v40.668zM72.35 8.344h5.138v11.575h19.188c.063-1.114 0-2.104 0-2.6 0-13.556-4.085-15.97-21.416-15.97-19.25 0-22.098 3.59-22.098 18.012 0 21.603.929 24.45 22.098 24.45 18.879 0 21.169-3.342 21.416-18.755H77.488v11.946H72.35V8.344z"/></g></svg>