<?xml version="1.0" encoding="UTF-8"?>
<svg width="700" height="700" enable-background="new -310.122 -310.122 706 706" version="1.1" viewBox="-310.12 -310.12 700 700" xmlns="http://www.w3.org/2000/svg"><g fill="#f0f0f0"><polygon transform="translate(-3.0017,-2.9902)" points="328.01 120.91 328.01 119.11 340.18 119.11 340.18 120.91 335.13 120.91 335.13 134.13 333.06 134.13 333.06 120.91"/><path d="m338.98 116.12h2.91l4.314 12.687 4.271-12.687h2.879v15.013h-1.921v-8.857c0-0.314 7e-3 -0.812 0.021-1.523 7e-3 -0.697 0.021-1.463 0.021-2.281l-4.284 12.662h-2.01l-4.314-12.662v0.465c0 0.368 0.015 0.93 0.015 1.681 0.043 0.751 0.054 1.298 0.054 1.659v8.857h-1.954v-15.013h-2e-3z"/><path d="m-277.07 2.4118c0 29.437 21.568 44.036 45.594 57.614l21.425 12.183c11.678 6.574 16.882 14 16.882 24.086 0 13.335-9.847 21.626-25.699 21.626-29.227 0-38.015-24.291-42.779-48.044l-0.731-3.698h-14.311v66.893h11.113l1.374-1.56c2.573-2.882 2.573-2.882 5.058-2.882 4.294-0.144 9.824 1.148 16.222 2.646 8.023 1.874 17.119 3.999 26.651 3.999 24.168 0 58.216-16.218 58.216-52.279 0-25.148-15.065-36.416-33.261-47.561-0.01-0.011-39.967-23.688-39.967-23.688-9.167-5.457-13.624-12.745-13.624-22.276 0-7.801 6.231-19.404 23.464-19.404 12.791 0 28.521 4.743 36.516 41.813l0.79 3.641h14.015l-1.746-59.867h-11.224l-1.334 2.32c-0.608 1.08-1.621 1.744-2.651 1.744-0.579-0.027-3.74-1.044-5.629-1.653-7.147-2.292-17.87-5.735-28.737-5.735-32.235 3e-3 -55.627 21.059-55.627 50.082z"/><path d="m177.08 36.046c0-47.332 22.203-64.134 41.223-64.134 20.944 0 33.456 17.574 33.456 34.568v82.103c-2.554 10.587-14.424 18.263-28.284 18.263-21.405-4e-3 -46.395-18.553-46.395-70.8zm108.13-166.3-1.198 0.425v-3e-3c-6.634 2.369-32.773 10.936-53.878 16.133l-3.508 0.873v14.647l5.084-0.531c11.834-1.22 16.325 0.326 18.009 1.838 1.938 1.755 2.044 5.307 2.044 10.943v49.3c-10.834-7.683-21.318-11.035-34.561-11.035-21.028 0-41.931 10.556-57.317 28.956-15.139 18.093-23.813 42.359-23.813 66.583 0 84.96 64.53 87.407 71.885 87.407 17.986 0 32.682-5.591 43.805-16.512v13.113l5.302 3.963 59.728-21.136v-14.156l-4.962 0.387c-11.607 0.901-16.065-0.779-17.757-2.332-1.725-1.603-2.041-4.399-2.041-9.342v-217.14l-6.372-2.546z"/><path d="m-266 150.62h-15.978v2.239c6.722 0 6.875 1.717 6.875 8.87v28.493c0 7.325-0.908 8.892-5.138 8.892h-1.737v2.311h16.728v-2.311h-1.793c-4.176 0-5.085-1.566-5.085-8.892v-28.271l32.47 40.439h2.084v-40.661c0-7.312 0.897-8.87 5.141-8.87h1.723v-2.239h-17.164v2.239c7.231 0 7.322 1.334 7.322 8.87v20.674z"/><path d="m-155.1 150.62h-42.963v2.296c6.699 0 6.857 1.66 6.857 8.889v28.421c0 7.401-0.895 8.896-5.154 8.896h-1.703v2.31h42.959l3.663-15.888h-2.31c-3.817 8.878-9.411 13.209-19.264 13.209-5.141 0-6.036-0.983-6.036-6.567v-15.079c8.355 0 10.142 4.105 10.893 11.567h2.303v-25.811h-2.3c-0.89 7.219-2.838 10.888-10.893 11.046v-17.162c0-2.689 0.74-3.08 6.266-3.08 5.536 0 8.128 0.602 10.813 2.622 3.066 2.242 3.736 3.728 4.561 9.622h2.304v-15.291z"/><path d="m-111.7 150.62v15.749h2.025c1.331-9.4 5.077-12.395 14.161-12.702v36.556c0 7.476 0 8.892-7.319 8.892v2.311h26.785v-2.311c-7.227 0-7.293-1.416-7.293-8.892v-36.556c9.464 0.158 12.75 3.513 14.165 12.702h2.026v-15.749z"/><path d="m-1.0767 184.57-7.543-22.837c-0.67-1.933-1.492-3.807-1.492-5.896 0-2.088 1.037-2.976 3.656-2.976h1.429v-2.239h-22.398v2.239c3.586 1.409 4.19 2.239 6.49 8.871l14.105 40.664h1.856l14.413-35.575 12.388 35.575h2.091l13.889-40.664c1.195-3.427 2.534-8.346 6.862-8.871v-2.239h-14.55v2.239h2.37c2.689 0 3.655 0.888 3.655 3.055 0 1.267-0.07 1.566-1.497 5.816l-7.678 22.841-7.238-22.841c-1.185-3.57-1.355-4.486-1.355-5.741 0-2.239 1.066-3.13 3.683-3.13h1.102v-2.236h-24.032v2.236c5.819 0 7.007 4.922 8.726 9.472z"/><path d="m285.99 175.7v-13.959c0-7.312 0.894-8.871 5.149-8.871h1.729v-2.239h-25.899v2.239c6.717 0 6.859 1.717 6.859 8.871v28.585c0 7.305-0.89 8.871-5.143 8.871h-1.717v2.238h25.899v-2.238h-1.729c-4.256 0-5.149-1.566-5.149-8.871v-10.902l1.803-1.78 9.854 12.683c1.474 1.867 4.782 5.064 4.782 7.454 0 0.98-0.841 1.417-2.775 1.417h-3.374v2.238h25.611v-2.238c-3.359-1.338-3.971-1.854-9.615-8.871l-16.728-20.595 7.386-7.619c5.161-5.3 8.901-8.721 16.5-9.027v-2.454h-21.347v2.239h4.929c1.86 0 2.475 0.301 2.475 1.191 0 0.895-1.134 2.689-2.761 4.385l-3.291 3.287z"/><path d="m110.64 152.48c8.198 0 13.284 9.027 13.284 23.656 0 15.056-4.699 23.433-13.284 23.433-8.592 0-13.284-8.377-13.284-23.433 0-14.629 5.068-23.656 13.284-23.656zm0-2.822c-15.138 0-26.479 11.188-26.479 26.261 0 15.151 11.341 26.479 26.479 26.479 15.147 0 26.482-11.335 26.482-26.479 8e-3 -15.08-11.253-26.261-26.482-26.261z"/><path d="m196.32 157.1c0-2.679 1.12-3.648 4.196-3.648 5.88 0 8.483 3.291 8.483 10.517 0 9.256-3.791 11.335-12.68 11.424v-18.293zm13.789 19.329c6.581-1.646 11.582-5.45 11.582-12.687 0-5.823-3.885-9.772-9.122-11.79-3.337-1.187-4.471-1.337-12.683-1.337h-22.584v2.3c6.71 0 6.839 1.73 6.839 8.885v28.421c0 7.325-0.865 8.896-5.144 8.896h-1.695v2.31h25.896v-2.31h-1.75c-4.238 0-5.132-1.495-5.132-8.896v-12.375h1.566l15.369 23.581h15.441v-2.31c-2.973-0.752-3.956-1.728-8.928-8.896z"/></g><g fill="#e13a3e"><path d="m42.787-98.542c0-17.782 14.406-32.202 32.199-32.202 17.779 0 32.188 14.42 32.188 32.202s-14.409 32.195-32.188 32.195c-17.793 0-32.199-14.41-32.199-32.195z"/><path d="m48.74 3.4288s9.362 21.318 27.806 21.318c18.46 0 27.126-21.318 27.126-21.318s-15.031 3.872-27.126 3.872c-12.09 0-27.806-3.872-27.806-3.872z"/><path d="m23.537 90.246s17.943 37.925 53.339 37.925 52.001-37.925 52.001-37.925-25.597 13.235-52.001 13.235c-25.638 0-53.339-13.235-53.339-13.235z"/><path d="m41.59 47.284s11.797 25.803 35.06 25.803c23.254 0 34.173-25.803 34.173-25.803s-18.929 6.328-34.173 6.328c-15.259 1e-3 -35.06-6.328-35.06-6.328z"/><path d="m55.614-38.602s7.025 15.969 20.848 15.969c13.839 0 20.343-15.969 20.343-15.969s-12.222 3.262-21.305 3.262c-9.069-3e-3 -19.886-3.262-19.886-3.262z"/><path d="m294-139.13c19.444 27.257 19.361 65.284 3.435 107.36 4.446 8.032 7.146 18.237 8.105 30.594 52.293-71.774 71.257-137.95 43.365-177.1-49.149-68.903-224.95-30.451-392.61 89.082-35.788 25.516-45.947 35.877-60.591 50.512 17.563-12.437 37.344-26.269 65.07-46.032 137.33-97.923 284.89-122.21 333.23-54.415z"/><path d="m-211.18 223.93c-3.029-3.309-5.267-7.407-6.982-11.993h-52.676c0.796 16.253 4.854 31.776 12.603 42.661 41.781 58.589 156.84 54.346 335.91-54.071 0 0-215.35 104.08-288.85 23.403z"/></g><path d="m17.565 116.89c-16.285-2.88-18.382-3.262-18.382-26.876v-74.3c0-42.055-16.857-63.381-50.067-63.381-18.764 0-35.876 8-49.715 22.983v-102.31l-6.08-3.642-0.58 0.25-1.566 0.634c-7.798 3.19-38.064 12.233-51.964 16.098l-3.373 0.933v14.577l5.125-0.577c3.069-0.342 5.448-0.342 8.729-0.342 3.43 0 5.869 0.723 7.257 2.136 2.321 2.359 2.25 7.028 2.199 10.782 0 0.02-0.027 1.674-0.027 1.674v173.74c0 23.606-1.463 25.667-19.523 27.577l-4.127 0.433v14.314h85.689v-14.672l-0.758-0.075c-16.551-1.767-21-2.246-21-27.209v-87.589c2.074-2.571 17.305-20.529 36.033-20.529 16.239 0 23.485 11.002 23.485 35.682v72.818c0 22.927-3.956 25.553-20.867 26.808l-0.351 0.033v14.732h83.669v-14.028z" fill="#f0f0f0"/></svg>
