<?xml version="1.0" encoding="UTF-8" standalone="no"?>
<!-- Created with Inkscape (http://www.inkscape.org/) -->

<svg
   width="74.801781"
   height="196.36465"
   viewBox="0 0 74.80179 196.36465"
   version="1.1"
   id="svg1"
   xml:space="preserve"
   sodipodi:docname="Mail.svg"
   inkscape:version="1.3 (0e150ed6c4, 2023-07-21)"
   xmlns:inkscape="http://www.inkscape.org/namespaces/inkscape"
   xmlns:sodipodi="http://sodipodi.sourceforge.net/DTD/sodipodi-0.dtd"
   xmlns="http://www.w3.org/2000/svg"
   xmlns:svg="http://www.w3.org/2000/svg"
   xmlns:rdf="http://www.w3.org/1999/02/22-rdf-syntax-ns#"
   xmlns:cc="http://creativecommons.org/ns#"
   xmlns:dc="http://purl.org/dc/elements/1.1/"><title
     id="title1">Mail text</title><sodipodi:namedview
     id="namedview1"
     pagecolor="#505050"
     bordercolor="#ffffff"
     borderopacity="1"
     inkscape:showpageshadow="0"
     inkscape:pageopacity="0"
     inkscape:pagecheckerboard="1"
     inkscape:deskcolor="#505050"
     inkscape:document-units="px"
     showgrid="true"
     inkscape:zoom="4"
     inkscape:cx="30.375"
     inkscape:cy="47.75"
     inkscape:window-width="1287"
     inkscape:window-height="747"
     inkscape:window-x="-4"
     inkscape:window-y="-4"
     inkscape:window-maximized="1"
     inkscape:current-layer="layer1"><inkscape:grid
       id="grid2"
       units="px"
       originx="-0.54655929"
       originy="-56.12877"
       spacingx="0.26458333"
       spacingy="0.26458333"
       empcolor="#0099e5"
       empopacity="0.30196078"
       color="#0099e5"
       opacity="0.14901961"
       empspacing="5"
       dotted="false"
       gridanglex="30"
       gridanglez="30"
       visible="true" /></sodipodi:namedview><defs
     id="defs1"><filter
       inkscape:collect="always"
       style="color-interpolation-filters:sRGB"
       id="filter1"
       x="-0.0074279514"
       y="-0.019981781"
       width="1.0148559"
       height="1.0399636"><feGaussianBlur
         inkscape:collect="always"
         stdDeviation="0.59884823"
         id="feGaussianBlur1" /></filter></defs><g
     inkscape:label="Text"
     inkscape:groupmode="layer"
     id="layer1"
     transform="rotate(-90,-14.703463,5.684833)"
     style="opacity:1"><path
       d="m -203.94605,22.606784 h 25.05217 l 14.94796,49.375154 h 0.20833 l 15.05213,-49.375154 h 24.42716 v 2.656258 h -10.36461 v 64.531452 h 10.36461 v 2.656258 h -32.86468 v -2.656258 h 10.67711 V 24.065122 h -0.20833 l -20.78131,68.38563 h -2.39585 l -20.78131,-68.38563 h -0.20833 v 65.729372 h 10.67711 v 2.656258 h -23.80216 v -2.656258 h 10.46879 V 25.263042 h -10.46879 z m 116.771199,46.458479 v -5.312517 q 0,-6.510437 -1.093753,-8.541693 -1.04167,-2.031257 -5.729185,-2.031257 -8.437531,0 -8.437531,3.229177 0,0.937503 0.67709,2.08334 0.72917,1.093753 0.72917,2.604175 0,2.135423 -1.40626,3.28126 -1.40625,1.093753 -3.17709,1.093753 -2.29167,0 -3.54168,-1.406254 -1.25,-1.458338 -1.25,-3.385427 0,-4.16668 4.84376,-6.979189 4.89585,-2.864592 13.593797,-2.864592 6.979189,0 10.208366,1.614588 3.229176,1.614589 3.958345,4.01043 0.781253,2.39584 0.781253,6.770854 v 19.166727 q 0,4.218763 0.572918,5.260433 0.625002,1.04167 1.875006,1.04167 1.875006,0 3.645845,-2.552092 h 1.250004 q -1.354171,7.604191 -8.854195,7.604191 -7.239606,0 -8.64586,-8.33336 -6.093769,8.33336 -14.270879,8.33336 -5.41668,0 -8.64586,-2.916676 -3.22918,-2.968759 -3.22918,-7.239606 0,-13.281292 26.145919,-14.531295 z m 0,8.020858 v -5.625018 q -9.635447,0.364585 -12.708373,2.916676 -3.072926,2.500008 -3.072926,7.29169 0,3.489594 1.82292,5.416683 1.875008,1.92709 4.270849,1.92709 3.072926,0 5.52085,-2.031257 2.500008,-2.08334 3.333344,-4.16668 0.833336,-2.083339 0.833336,-5.729184 z M -56.65392,30.679726 q 0,-2.291674 1.666671,-3.958346 1.718756,-1.666672 4.01043,-1.666672 2.291673,0 3.958345,1.666672 1.718756,1.614589 1.718756,3.958346 0,2.447924 -1.666672,4.062513 -1.666672,1.614588 -4.010429,1.614588 -2.343758,0 -4.01043,-1.614588 -1.666671,-1.666672 -1.666671,-4.062513 z m 10.468782,20.052146 v 39.062622 h 6.822938 v 2.656258 h -24.218825 v -2.656258 h 7.291689 V 54.169383 h -7.291689 v -2.656259 h 7.395856 q 5.312517,0 10.000031,-0.781252 z m 18.229225,39.062622 V 25.263042 h -7.44794 v -2.656258 h 7.135439 q 7.187523,0 10.468783,-0.781252 v 67.968962 h 7.343773 v 2.656258 h -24.947995 v -2.656258 z"
       id="text3"
       style="font-size:106.667px;font-family:'Bodoni MT';-inkscape-font-specification:'Bodoni MT';stroke-width:0;stroke-linejoin:bevel;paint-order:stroke fill markers;filter:url(#filter1)"
       inkscape:label="Shadow"
       aria-label="Mail" /><path
       d="m -204.86722,24.034839 h 25.05216 l 14.94797,49.375154 h 0.20833 l 15.05213,-49.375154 h 24.42716 v 2.656258 h -10.36462 v 64.531452 h 10.36462 v 2.656258 h -32.86469 v -2.656258 h 10.67712 V 25.493177 h -0.20833 l -20.78132,68.38563 h -2.39584 l -20.78131,-68.38563 h -0.20834 v 65.729372 h 10.67712 v 2.656258 h -23.80216 v -2.656258 h 10.46878 V 26.691097 h -10.46878 z m 116.771196,46.458478 v -5.312516 q 0,-6.510437 -1.093754,-8.541694 -1.041669,-2.031256 -5.729184,-2.031256 -8.437528,0 -8.437528,3.229177 0,0.937503 0.67709,2.08334 0.72917,1.093753 0.72917,2.604174 0,2.135424 -1.40626,3.281261 -1.40625,1.093753 -3.17709,1.093753 -2.29168,0 -3.54168,-1.406254 -1.25,-1.458338 -1.25,-3.385427 0,-4.16668 4.84376,-6.979189 4.89585,-2.864592 13.593794,-2.864592 6.979189,0 10.208365,1.614588 3.229177,1.614589 3.958346,4.010429 0.781253,2.395841 0.781253,6.770855 v 19.166726 q 0,4.218764 0.572918,5.260433 0.625002,1.04167 1.875006,1.04167 1.875006,0 3.645845,-2.552091 h 1.250003 q -1.35417,7.60419 -8.854194,7.60419 -7.239606,0 -8.64586,-8.333359 -6.093769,8.333359 -14.270876,8.333359 -5.41669,0 -8.64586,-2.916675 -3.22918,-2.96876 -3.22918,-7.239606 0,-13.281292 26.145916,-14.531296 z m 0,8.020859 v -5.625018 q -9.635447,0.364585 -12.708376,2.916676 -3.07292,2.500008 -3.07292,7.291689 0,3.489595 1.82292,5.416684 1.875,1.927089 4.270846,1.927089 3.072926,0 5.52085,-2.031256 2.500008,-2.08334 3.333344,-4.16668 0.833336,-2.08334 0.833336,-5.729184 z m 30.52093,-46.406395 q 0,-2.291674 1.666672,-3.958346 1.718756,-1.666672 4.01043,-1.666672 2.291673,0 3.958345,1.666672 1.718756,1.614588 1.718756,3.958346 0,2.447924 -1.666672,4.062512 -1.666672,1.614589 -4.010429,1.614589 -2.343758,0 -4.01043,-1.614589 -1.666672,-1.666671 -1.666672,-4.062512 z m 10.468783,20.052146 v 39.062622 h 6.822938 v 2.656258 h -24.218825 v -2.656258 h 7.291689 V 55.597438 h -7.291689 v -2.656259 h 7.395856 q 5.312517,0 10.000031,-0.781252 z m 18.229225,39.062622 V 26.691097 h -7.44794 v -2.656258 h 7.135439 q 7.187523,0 10.468783,-0.781253 v 67.968963 h 7.343773 v 2.656258 h -24.947995 v -2.656258 z"
       id="text4"
       style="font-size:106.667px;font-family:'Bodoni MT';-inkscape-font-specification:'Bodoni MT';fill:#515b84;stroke-width:0;stroke-linejoin:bevel;paint-order:stroke fill markers"
       inkscape:label="Mail"
       aria-label="Mail" /></g><metadata
     id="metadata1"><rdf:RDF><cc:Work
         rdf:about=""><dc:title>Mail text</dc:title><dc:date>10/20/2023</dc:date><dc:creator><cc:Agent><dc:title>SKCro</dc:title></cc:Agent></dc:creator><dc:rights><cc:Agent><dc:title>WebTV Networks</dc:title></cc:Agent></dc:rights></cc:Work></rdf:RDF></metadata></svg>
