<?xml version="1.0" encoding="UTF-8"?>
<svg width="80.644" height="87.635" version="1.1" viewBox="0 0 80.644 87.635" xmlns="http://www.w3.org/2000/svg"><title>Warning Triangle</title><defs><filter id="a" x="-.011472" y="-.012579" width="1.0229" height="1.0252" color-interpolation-filters="sRGB"><feGaussianBlur stdDeviation="0.40729294"/></filter></defs><g transform="rotate(-90 -65.232 -52.31)" stroke-width="0"><path d="m-160.66 13.9h0.36459l41.771 77.24v0.46875h-84.323l-0.41666-0.46875h-0.46876q41.406-75.521 43.073-77.24zm-0.46875 9.7917-34.583 62.552v0.88542h69.636v-0.46875q-33.542-61.511-35.052-62.969zm0.46875 11.563q4.0104 0 4.0104 3.5417-2.7083 31.927-4.0104 31.927-1.1979 0-4.0104-32.396 1.3021-3.0729 4.0104-3.0729zm-0.0521 39.323q0.98959 0 1.9271 0.52084 0.98959 0.52084 1.5104 1.4583 0.57292 0.9375 0.57292 2.0313 0 1.0417-0.52083 1.9792-0.52084 0.9375-1.5104 1.4583-0.98958 0.52084-1.9792 0.52084-1.0417 0-1.9792-0.52084t-1.5104-1.4583q-0.52084-0.9375-0.52084-1.9792 0-1.0938 0.52084-2.0313 0.57292-0.9375 1.5104-1.4583t1.9792-0.52084z" filter="url(#a)" style="paint-order:stroke fill markers" aria-label="Warning ⚠"/><path d="m-162.11 15.858h0.36459l41.771 77.24v0.46875h-84.323l-0.41667-0.46875h-0.46875q41.406-75.521 43.073-77.24zm-0.46875 9.7917-34.583 62.552v0.88542h69.636v-0.46875q-33.542-61.511-35.052-62.969zm0.46875 11.563q4.0104 0 4.0104 3.5417-2.7083 31.927-4.0104 31.927-1.1979 0-4.0104-32.396 1.3021-3.0729 4.0104-3.0729zm-0.0521 39.323q0.98959 0 1.9271 0.52084 0.98959 0.52084 1.5104 1.4583 0.57292 0.9375 0.57292 2.0313 0 1.0417-0.52084 1.9792-0.52083 0.9375-1.5104 1.4583-0.98958 0.52084-1.9792 0.52084-1.0417 0-1.9792-0.52084-0.93751-0.52084-1.5104-1.4583-0.52084-0.9375-0.52084-1.9792 0-1.0938 0.52084-2.0313 0.57291-0.9375 1.5104-1.4583 0.9375-0.52084 1.9792-0.52084z" fill="#515b84" style="paint-order:stroke fill markers" aria-label="⚠"/></g></svg>
