<?xml version="1.0" encoding="UTF-8" standalone="no"?>
<!-- Created with Inkscape (http://www.inkscape.org/) -->

<svg
   width="80.644188"
   height="87.635475"
   viewBox="0 0 80.644195 87.635474"
   version="1.1"
   id="svg1"
   xml:space="preserve"
   sodipodi:docname="404.svg"
   inkscape:version="1.3 (0e150ed6c4, 2023-07-21)"
   xmlns:inkscape="http://www.inkscape.org/namespaces/inkscape"
   xmlns:sodipodi="http://sodipodi.sourceforge.net/DTD/sodipodi-0.dtd"
   xmlns="http://www.w3.org/2000/svg"
   xmlns:svg="http://www.w3.org/2000/svg"
   xmlns:rdf="http://www.w3.org/1999/02/22-rdf-syntax-ns#"
   xmlns:cc="http://creativecommons.org/ns#"
   xmlns:dc="http://purl.org/dc/elements/1.1/"><title
     id="title1">Template text</title><sodipodi:namedview
     id="namedview1"
     pagecolor="#505050"
     bordercolor="#ffffff"
     borderopacity="1"
     inkscape:showpageshadow="0"
     inkscape:pageopacity="0"
     inkscape:pagecheckerboard="1"
     inkscape:deskcolor="#505050"
     inkscape:document-units="px"
     showgrid="true"
     inkscape:zoom="4"
     inkscape:cx="63.125"
     inkscape:cy="32.25"
     inkscape:window-width="1287"
     inkscape:window-height="747"
     inkscape:window-x="-4"
     inkscape:window-y="-4"
     inkscape:window-maximized="1"
     inkscape:current-layer="layer1"><inkscape:grid
       id="grid2"
       units="px"
       originx="6.9196224"
       originy="-164.65294"
       spacingx="0.26458333"
       spacingy="0.26458333"
       empcolor="#0099e5"
       empopacity="0.30196078"
       color="#0099e5"
       opacity="0.14901961"
       empspacing="5"
       dotted="false"
       gridanglex="30"
       gridanglez="30"
       visible="true" /></sodipodi:namedview><defs
     id="defs1"><filter
       inkscape:collect="always"
       style="color-interpolation-filters:sRGB"
       id="filter1"
       x="-0.011471882"
       y="-0.012579088"
       width="1.0229438"
       height="1.0251582"><feGaussianBlur
         inkscape:collect="always"
         stdDeviation="0.40729294"
         id="feGaussianBlur1" /></filter></defs><g
     inkscape:label="Text"
     inkscape:groupmode="layer"
     id="layer1"
     transform="rotate(-90,-65.232456,-52.310343)"
     style="opacity:1"><path
       d="m -160.65586,13.899616 h 0.36459 l 41.77096,77.239825 v 0.468751 h -84.32318 l -0.41666,-0.468751 h -0.46876 q 41.40638,-75.521069 43.07305,-77.239825 z m -0.46875,9.791698 -34.58344,62.552278 v 0.88542 h 69.63564 V 86.66026 q -33.54178,-61.510608 -35.0522,-62.968946 z m 0.46875,11.562536 q 4.01043,0 4.01043,3.541677 -2.70834,31.927184 -4.01043,31.927184 -1.19792,0 -4.01042,-32.395935 1.30208,-3.072926 4.01042,-3.072926 z m -0.0521,39.323039 q 0.98959,0 1.92709,0.520835 0.98959,0.520835 1.51042,1.458338 0.57292,0.937503 0.57292,2.031256 0,1.04167 -0.52083,1.979173 -0.52084,0.937503 -1.51043,1.458338 -0.98958,0.520835 -1.97917,0.520835 -1.04167,0 -1.97917,-0.520835 -0.9375,-0.520835 -1.51042,-1.458338 -0.52084,-0.937503 -0.52084,-1.979173 0,-1.093753 0.52084,-2.031256 0.57292,-0.937503 1.51042,-1.458338 0.9375,-0.520835 1.97917,-0.520835 z"
       id="text3"
       style="font-size:106.667px;font-family:'Bodoni MT';-inkscape-font-specification:'Bodoni MT';stroke-width:0;stroke-linejoin:bevel;paint-order:stroke fill markers;filter:url(#filter1)"
       inkscape:label="Shadow"
       aria-label="⚠" /><path
       d="m -162.10523,15.857731 h 0.36459 l 41.77096,77.239825 v 0.468751 h -84.32318 l -0.41667,-0.468751 h -0.46875 q 41.40638,-75.52107 43.07305,-77.239825 z m -0.46875,9.791697 -34.58344,62.552279 v 0.885419 h 69.63563 v -0.468751 q -33.54177,-61.510609 -35.05219,-62.968947 z m 0.46875,11.562536 q 4.01043,0 4.01043,3.541678 -2.70834,31.927183 -4.01043,31.927183 -1.19792,0 -4.01043,-32.395934 1.30209,-3.072927 4.01043,-3.072927 z m -0.0521,39.32304 q 0.98959,0 1.92709,0.520835 0.98959,0.520835 1.51042,1.458338 0.57292,0.937503 0.57292,2.031256 0,1.04167 -0.52084,1.979173 -0.52083,0.937503 -1.51042,1.458338 -0.98958,0.520835 -1.97917,0.520835 -1.04167,0 -1.97917,-0.520835 -0.93751,-0.520835 -1.51042,-1.458338 -0.52084,-0.937503 -0.52084,-1.979173 0,-1.093753 0.52084,-2.031256 0.57291,-0.937503 1.51042,-1.458338 0.9375,-0.520835 1.97917,-0.520835 z"
       id="text4"
       style="font-size:106.667px;font-family:'Bodoni MT';-inkscape-font-specification:'Bodoni MT';fill:#515b84;stroke-width:0;stroke-linejoin:bevel;paint-order:stroke fill markers"
       inkscape:label="Warning"
       aria-label="⚠" /></g><metadata
     id="metadata1"><rdf:RDF><cc:Work
         rdf:about=""><dc:title>Warning triangle</dc:title></cc:Work></rdf:RDF></metadata></svg>
