<?xml version="1.0" encoding="UTF-8"?>
<svg width="135" height="175" version="1.1" viewBox="0 0 135 175" xmlns="http://www.w3.org/2000/svg" xmlns:xlink="http://www.w3.org/1999/xlink"><title>Button Border 2</title><defs><linearGradient id="a"><stop stop-color="#040404" offset="0"/><stop stop-color="#040404" stop-opacity="0" offset="1"/></linearGradient><linearGradient id="h" x1="67.499" x2="67.499" y1="15" y2="160" gradientUnits="userSpaceOnUse"><stop stop-color="#2f2f2f" offset="0"/><stop stop-color="#060606" offset="1"/></linearGradient><linearGradient id="g" x1="65" x2="65" y2="15" gradientUnits="userSpaceOnUse"><stop stop-color="#404040" offset="0"/><stop stop-color="#333" offset="1"/></linearGradient><linearGradient id="f" x1="-.00049832" x2="15" y1="87.5" y2="87.5" gradientUnits="userSpaceOnUse"><stop stop-color="#404040" offset="0"/><stop stop-color="#333" offset="1"/></linearGradient><linearGradient id="e" x1="135" x2="120" y1="87.5" y2="87.5" gradientTransform="translate(9.5642e-5)" gradientUnits="userSpaceOnUse"><stop offset="0"/><stop stop-color="#272727" offset="1"/></linearGradient><linearGradient id="d" x1="135" x2="135" y1="175" y2="2.0711e-7" gradientTransform="translate(1.06e-4)" gradientUnits="userSpaceOnUse" xlink:href="#a"/><linearGradient id="c" x1="67.5" x2="67.5" y1="175" y2="160" gradientUnits="userSpaceOnUse"><stop offset="0"/><stop stop-color="#040404" offset="1"/></linearGradient><linearGradient id="b" x1="135" x2="135" y1="175" y2="2.0711e-7" gradientTransform="matrix(-1 0 0 1 135 0)" gradientUnits="userSpaceOnUse" xlink:href="#a"/></defs><g transform="translate(.00049782)"><rect x="15" y="15" width="105" height="145" fill="url(#h)" /><g><path d="m-4.9782e-4 0v15 145 15l15-15v-145l-15-15z" fill="url(#f)" /><path d="m135-3.1076e-6v175l-15-15v-145z" fill="url(#e)" /><path d="m-4.9764e-4 0 15 15h105l15-15h-120z" fill="url(#g)"/><path d="m-4.983e-4 175 15-15h105l15 15h-120z" fill="url(#c)" /><path d="m135-1.3e-6v175l-15-15v-145z" fill="url(#d)" /><path d="m-4.98e-4 2.0711e-7v175l15-15v-145z" fill="url(#b)"/></g></g></svg>
