<?xml version="1.0" encoding="UTF-8"?>
<svg width="148" height="140" version="1.1" viewBox="0 0 148 140" xmlns="http://www.w3.org/2000/svg" xmlns:cc="http://creativecommons.org/ns#" xmlns:dc="http://purl.org/dc/elements/1.1/" xmlns:rdf="http://www.w3.org/1999/02/22-rdf-syntax-ns#"><title>Chat Bubble</title><defs><filter id="c" x="-.14534" y="-.15364" width="1.2907" height="1.3073" color-interpolation-filters="sRGB"><feGaussianBlur in="SourceGraphic" result="result0" stdDeviation="2.9625765"/><feDiffuseLighting lighting-color="#ffffff" result="result5" surfaceScale="4"><feDistantLight azimuth="235" elevation="45"/></feDiffuseLighting><feComposite in="result5" in2="SourceGraphic" k1="1.4" operator="arithmetic" result="fbSourceGraphic"/><feGaussianBlur in="fbSourceGraphic" result="result0" stdDeviation="6"/><feSpecularLighting lighting-color="#ffffff" in="result0" result="result1" specularExponent="25" surfaceScale="4"><feDistantLight azimuth="235" elevation="45"/></feSpecularLighting><feComposite in="fbSourceGraphic" in2="result1" k2="1" k3="1" operator="arithmetic" result="result4"/><feComposite in="result4" in2="SourceGraphic" operator="in" result="fbSourceGraphic"/><feColorMatrix in="fbSourceGraphic" result="fbSourceGraphicAlpha" values="0 0 0 -1 0 0 0 0 -1 0 0 0 0 -1 0 0 0 0 1 0"/><feColorMatrix in="fbSourceGraphic" values="0.974843 0 0 -0.0372612 0.0125786 0 0.974843 0 -0.0372612 0.0125786 0 0 0.974843 -0.0372612 0.0125786 0 0 0 1 0"/></filter><linearGradient id="a" x1="48" x2="128" y1="40" y2="96" gradientTransform="translate(-10,-12)" gradientUnits="userSpaceOnUse"><stop stop-color="#bfbfbf" offset="0"/><stop stop-color="#989898" offset="1"/></linearGradient><filter id="b" x="-.00026455" y="-.00068681" width="1.0323" height="1.0769" color-interpolation-filters="sRGB"><feMorphology in="SourceAlpha" radius="4.3" result="result91"/><feComposite in="SourceGraphic" in2="result91" operator="out"/><feGaussianBlur result="result0" stdDeviation="1.2"/><feDiffuseLighting><feDistantLight azimuth="225" elevation="66"/></feDiffuseLighting><feBlend in2="SourceGraphic" mode="multiply"/><feComposite in2="SourceAlpha" operator="in" result="fbSourceGraphic"/><feColorMatrix in="fbSourceGraphic" result="fbSourceGraphicAlpha" values="0 0 0 -1 0 0 0 0 -1 0 0 0 0 -1 0 0 0 0 1 0"/><feFlood flood-color="rgb(211,211,211)" in="fbSourceGraphic" result="flood"/><feGaussianBlur in="fbSourceGraphic" result="blur" stdDeviation="0.600000"/><feOffset dx="2.400000" dy="2.200000" in="blur" result="offset"/><feComposite in="flood" in2="offset" operator="in" result="comp1"/><feComposite in="fbSourceGraphic" in2="comp1" result="comp2"/></filter></defs><path d="m74 0c-40.869 0-74 24.177-74 54 0.06719 29.044 31.604 52.847 71.381 53.875l-1.3848-0.0703-7.9963 32.195 29.643-33.621c33.059-5.9223 56.317-27.538 56.357-52.379 1e-5 -29.823-33.131-54-74-54z" fill="url(#a)" filter="url(#c)"/><path d="m50.94 63.38v-13.56c0-3.6-1.88-5.76-5.64-5.76-2.56 0-4.68 1.36-6.64 3.08v-12.48l-2.64 0.48v28.24h2.64v-13.68c2.08-2.04 4.12-3.28 6.12-3.28 2.4 0 3.52 1.48 3.52 3.92v13.04zm20.74-9.84c0-5.24-2.48-9.48-7.64-9.48-4.64 0-8.16 3.76-8.16 9.84 0 6.52 3.56 9.88 8.52 9.88 2.92 0 5.36-1.08 7.24-2.68l-0.4-2.4c-1.96 1.68-4.16 2.8-6.68 2.8-3.8 0-5.96-2.76-6.04-7.4h13.16zm-2.72-1.52h-10.32c0.52-3.64 2.44-5.84 5.4-5.84 3.04 0 4.64 2.44 4.92 5.84zm10.7 11.36v-28.72l-2.6 0.48v28.24zm9.46 0v-28.72l-2.6 0.48v28.24zm22.5-9.44c0-6.28-3.68-9.88-8.6-9.88-4.76 0-8.48 3.6-8.48 9.88 0 6.24 3.64 9.84 8.48 9.84s8.6-3.6 8.6-9.84zm-2.72 0c0 4.48-2.04 7.6-5.88 7.6-3.72 0-5.8-3.24-5.8-7.6 0-4.48 2.04-7.64 5.8-7.64 3.8 0 5.88 3.28 5.88 7.64z" fill="#4e4e4e" filter="url(#b)" aria-label="hello"/><metadata><rdf:RDF><cc:Work rdf:about=""><dc:title>Chat Bubble</dc:title></cc:Work></rdf:RDF></metadata></svg>
