<?xml version="1.0" encoding="UTF-8"?>
<svg width="102.46" height="526.06" version="1.1" viewBox="0 0 102.46 526.06" xmlns="http://www.w3.org/2000/svg"><title>Community text</title><defs><filter id="a" x="-.0045671" y="-.02412" width="1.0091" height="1.0482" color-interpolation-filters="sRGB"><feGaussianBlur stdDeviation="0.99558646"/></filter></defs><g transform="rotate(-90 150.41 169.64)" stroke-width="0"><path d="m-153.57 21.501v20.729h-2.2396q-3.6458-18.906-18.854-18.906-8.1771 0-11.927 6.4063t-3.75 26.979q0 16.927 1.6146 23.021 1.6146 6.0938 5.5729 8.75 4.0104 2.6042 8.8021 2.6042 6.25 0 11.719-4.6875 5.5208-4.7396 8.5417-15.156h2.4479l-0.83333 21.302h-2.1354q-1.1979-3.3333-3.75-5.625-8.2292 6.8229-16.927 6.8229-11.042 0-20.156-10.469t-9.1146-25.625q0-15.469 8.9584-26.198 8.9584-10.781 20.729-10.781 9.0625 0 15.99 6.5104 2.0312-3.2292 3.0729-5.6771zm11.563 50.052q0-9.0104 6.1979-15.313 6.1979-6.3542 15.365-6.3542 8.9584 0 15.156 6.0938 6.25 6.0417 6.25 15.156 0 9.3229-6.4584 15.833-6.4584 6.4584-15.26 6.4584-8.6459 0-14.948-6.3021-6.3021-6.3542-6.3021-15.573zm31.25 0q0-9.5834-0.67709-12.656-0.625-3.0729-2.9167-4.8438-2.2396-1.8229-6.1979-1.8229-3.75 0-6.1979 1.875-2.3958 1.8229-2.9688 4.8958-0.57292 3.0729-0.57292 12.656 0 9.6354 0.67708 12.76 0.72917 3.125 3.0729 4.8958 2.3958 1.7708 5.9896 1.7708 3.6458 0 6.0417-1.7708 2.4479-1.8229 3.0729-5 0.67709-3.2292 0.67709-12.76zm27.552 17.917v-35.625h-7.3438v-2.6563h4.5833q8.125 0 12.917-0.67708v10.052h0.20833q4.1146-10.052 14.688-10.052 11.51 0 12.708 10.677h0.20833q4.5313-10.677 15.052-10.677 4.6875 0 7.8646 2.3438 3.2292 2.3438 3.9583 5.4167 0.78125 3.0729 0.78125 10.156v21.042h7.2396v2.6563h-24.219v-2.6563h6.8229v-25.729q0-6.0938-0.72917-8.3854-0.67709-2.2917-3.75-2.2917-4.2188 0-8.6979 4.7917-4.4271 4.7396-4.4271 18.073v13.542h6.7188v2.6563h-23.594v-2.6563h6.7709v-20.156q0-11.771-0.88542-14.01-0.83334-2.2396-4.0625-2.2396-4.4271 0-7.7604 3.9063-3.2813 3.9063-4.1146 7.6042-0.78125 3.6979-0.78125 11.771v13.125h6.7188v2.6563h-24.219v-2.6563zm86.719 0v-35.625h-7.3438v-2.6563h4.5833q8.125 0 12.917-0.67708v10.052h0.20833q4.1146-10.052 14.688-10.052 11.51 0 12.708 10.677h0.20833q4.5313-10.677 15.052-10.677 4.6875 0 7.8646 2.3438 3.2292 2.3438 3.9583 5.4167 0.78125 3.0729 0.78125 10.156v21.042h7.2396v2.6563h-24.219v-2.6563h6.8229v-25.729q0-6.0938-0.72917-8.3854-0.67708-2.2917-3.75-2.2917-4.2188 0-8.6979 4.7917-4.4271 4.7396-4.4271 18.073v13.542h6.7188v2.6563h-23.594v-2.6563h6.7709v-20.156q0-11.771-0.88542-14.01-0.83334-2.2396-4.0625-2.2396-4.4271 0-7.7604 3.9063-3.2813 3.9063-4.1146 7.6042-0.78125 3.6979-0.78125 11.771v13.125h6.7188v2.6563h-24.219v-2.6563zm122.4-38.281v38.281h7.0313v2.6563h-7.0313q-8.125 0-10.26 0.625v-9.6875h-0.20833q-4.6875 9.6875-14.74 9.6875-5.7813 0-9.3229-3.0208-3.4896-3.0729-3.4896-12.865v-23.021h-7.5521v-2.6563h17.708v27.5q0 6.4584 0.78125 8.9584 0.78125 2.4479 4.0104 2.4479 4.7917 0 8.8542-5.1042 4.0625-5.1563 4.0625-15.469v-15.677h-8.3334v-2.6563zm20.469 38.281v-35.625h-7.3958v-2.6563h4.7396q7.0313 0 12.76-0.78125v10.156h0.20834q5.3646-10.677 15.156-10.677 4.5834 0 7.5 2.3438 2.9688 2.3438 4.0104 5.5209 1.0938 3.1771 1.0938 9.8438v21.875h8.125v2.6563h-25.208v-2.6563h6.9271v-26.042q0-5.9896-0.78125-8.2813-0.72917-2.2917-3.9063-2.2917-5.0521 0-9.1146 5.2084-4.0104 5.1563-4.0104 13.906v17.5h6.8229v2.6563h-24.323v-2.6563zm57.031-59.115q0-2.2917 1.6667-3.9583 1.7188-1.6667 4.0104-1.6667 2.2917 0 3.9583 1.6667 1.7188 1.6146 1.7188 3.9583 0 2.4479-1.6667 4.0625-1.6667 1.6146-4.0104 1.6146-2.3438 0-4.0104-1.6146-1.6667-1.6667-1.6667-4.0625zm10.469 20.052v39.063h6.8229v2.6563h-24.219v-2.6563h7.2917v-35.625h-7.2917v-2.6563h7.3959q5.3125 0 10-0.78125zm30.625-11.094v11.875h12.344v2.6563h-12.344v25.781q0 5.6771 0.72916 7.7604 0.78126 2.0833 4.0625 2.0833 2.5 0 4.7917-1.6667 2.3438-1.6667 3.5417-5.1563h2.2396q-2.3958 10.104-14.531 10.104-5.1042 0-7.5-1.8229-2.3958-1.875-2.9688-4.5833-0.52084-2.7083-0.52084-7.3438v-25.156h-9.2709v-2.6563h9.2709v-10.99q5.1563 0 10.156-0.88542zm37.448 14.531 14.583 28.49 12.708-28.49h-9.0625v-2.6563h18.438v2.6563h-6.9271l-20.99 47.552q-4.5313 10.208-7.7084 14.271-3.125 4.0625-7.6563 4.0625-2.8125 0-4.375-1.8229-1.5104-1.7708-1.5104-4.0104 0-2.0833 1.3021-3.3854 1.3542-1.3021 3.1771-1.3021 2.5521 0 3.9583 2.3438 1.4063 2.3438 2.3438 2.3438 1.4063 0 3.0208-2.5521 1.6146-2.5521 4.8958-9.948l3.3854-7.6563-20.573-39.896h-6.1979v-2.6563h25.052v2.6563z" filter="url(#a)" style="paint-order:stroke fill markers" aria-label="Community"/><path d="m-155.02 23.459v20.729h-2.2396q-3.6458-18.906-18.854-18.906-8.1771 0-11.927 6.4063-3.75 6.4063-3.75 26.979 0 16.927 1.6146 23.021t5.5729 8.75q4.0104 2.6042 8.8021 2.6042 6.25 0 11.719-4.6875 5.5208-4.7396 8.5417-15.156h2.4479l-0.83333 21.302h-2.1354q-1.1979-3.3333-3.75-5.625-8.2292 6.8229-16.927 6.8229-11.042 0-20.156-10.469-9.1146-10.469-9.1146-25.625 0-15.469 8.9584-26.198 8.9584-10.781 20.729-10.781 9.0625 0 15.99 6.5104 2.0312-3.2292 3.0729-5.6771zm11.563 50.052q0-9.0104 6.1979-15.313 6.1979-6.3542 15.365-6.3542 8.9584 0 15.156 6.0938 6.25 6.0417 6.25 15.156 0 9.3229-6.4584 15.833-6.4584 6.4584-15.26 6.4584-8.6459 0-14.948-6.3021-6.3021-6.3542-6.3021-15.573zm31.25 0q0-9.5834-0.67709-12.656-0.625-3.0729-2.9167-4.8438-2.2396-1.8229-6.1979-1.8229-3.75 0-6.1979 1.875-2.3958 1.8229-2.9688 4.8958-0.57291 3.0729-0.57291 12.656 0 9.6354 0.67708 12.76 0.72917 3.125 3.0729 4.8958 2.3958 1.7708 5.9896 1.7708 3.6458 0 6.0417-1.7708 2.4479-1.8229 3.0729-5 0.67709-3.2292 0.67709-12.76zm27.552 17.917v-35.625h-7.3438v-2.6563h4.5833q8.125 0 12.917-0.67709v10.052h0.20833q4.1146-10.052 14.688-10.052 11.51 0 12.708 10.677h0.20833q4.5313-10.677 15.052-10.677 4.6875 0 7.8646 2.3438 3.2292 2.3438 3.9583 5.4167 0.78125 3.0729 0.78125 10.156v21.042h7.2396v2.6563h-24.219v-2.6563h6.8229v-25.729q0-6.0938-0.72917-8.3854-0.67708-2.2917-3.75-2.2917-4.2188 0-8.6979 4.7917-4.4271 4.7396-4.4271 18.073v13.542h6.7188v2.6563h-23.594v-2.6563h6.7709v-20.156q0-11.771-0.88542-14.01-0.83334-2.2396-4.0625-2.2396-4.4271 0-7.7604 3.9063-3.2813 3.9063-4.1146 7.6042-0.78125 3.6979-0.78125 11.771v13.125h6.7188v2.6563h-24.219v-2.6563zm86.719 0v-35.625h-7.3438v-2.6563h4.5833q8.125 0 12.917-0.67709v10.052h0.20833q4.1146-10.052 14.688-10.052 11.51 0 12.708 10.677h0.20833q4.5313-10.677 15.052-10.677 4.6875 0 7.8646 2.3438 3.2292 2.3438 3.9583 5.4167 0.78125 3.0729 0.78125 10.156v21.042h7.2396v2.6563h-24.219v-2.6563h6.8229v-25.729q0-6.0938-0.72917-8.3854-0.67709-2.2917-3.75-2.2917-4.2188 0-8.6979 4.7917-4.4271 4.7396-4.4271 18.073v13.542h6.7188v2.6563h-23.594v-2.6563h6.7709v-20.156q0-11.771-0.88542-14.01-0.83334-2.2396-4.0625-2.2396-4.4271 0-7.7604 3.9063-3.2813 3.9063-4.1146 7.6042-0.78125 3.6979-0.78125 11.771v13.125h6.7188v2.6563h-24.219v-2.6563zm122.4-38.281v38.281h7.0313v2.6563h-7.0313q-8.125 0-10.26 0.625v-9.6875h-0.20834q-4.6875 9.6875-14.74 9.6875-5.7813 0-9.3229-3.0208-3.4896-3.0729-3.4896-12.865v-23.021h-7.5521v-2.6563h17.708v27.5q0 6.4584 0.78125 8.9584 0.78125 2.4479 4.0104 2.4479 4.7917 0 8.8542-5.1042 4.0625-5.1563 4.0625-15.469v-15.677h-8.3334v-2.6563zm20.469 38.281v-35.625h-7.3958v-2.6563h4.7396q7.0313 0 12.76-0.78125v10.156h0.20834q5.3646-10.677 15.156-10.677 4.5834 0 7.5 2.3438 2.9688 2.3438 4.0104 5.5208 1.0938 3.1771 1.0938 9.8438v21.875h8.125v2.6563h-25.208v-2.6563h6.9271v-26.042q0-5.9896-0.78125-8.2813-0.72917-2.2917-3.9063-2.2917-5.0521 0-9.1146 5.2083-4.0104 5.1563-4.0104 13.906v17.5h6.8229v2.6563h-24.323v-2.6563zm57.031-59.115q0-2.2917 1.6667-3.9583 1.7188-1.6667 4.0104-1.6667 2.2917 0 3.9583 1.6667 1.7188 1.6146 1.7188 3.9583 0 2.4479-1.6667 4.0625-1.6667 1.6146-4.0104 1.6146-2.3438 0-4.0104-1.6146-1.6667-1.6667-1.6667-4.0625zm10.469 20.052v39.063h6.8229v2.6563h-24.219v-2.6563h7.2917v-35.625h-7.2917v-2.6563h7.3959q5.3125 0 10-0.78125zm30.625-11.094v11.875h12.344v2.6563h-12.344v25.781q0 5.6771 0.72917 7.7604 0.78126 2.0833 4.0625 2.0833 2.5 0 4.7917-1.6667 2.3438-1.6667 3.5417-5.1563h2.2396q-2.3958 10.104-14.531 10.104-5.1042 0-7.5-1.8229-2.3958-1.875-2.9688-4.5833-0.52084-2.7083-0.52084-7.3438v-25.156h-9.2709v-2.6563h9.2709v-10.99q5.1563 0 10.156-0.88542zm37.448 14.531 14.583 28.49 12.708-28.49h-9.0625v-2.6563h18.438v2.6563h-6.9271l-20.99 47.552q-4.5313 10.208-7.7084 14.271-3.125 4.0625-7.6563 4.0625-2.8125 0-4.375-1.8229-1.5104-1.7708-1.5104-4.0104 0-2.0833 1.3021-3.3854 1.3542-1.3021 3.1771-1.3021 2.5521 0 3.9583 2.3438 1.4063 2.3438 2.3438 2.3438 1.4062 0 3.0208-2.5521 1.6146-2.5521 4.8958-9.9479l3.3854-7.6563-20.573-39.896h-6.1979v-2.6563h25.052v2.6563z" fill="#348a7a" style="paint-order:stroke fill markers" aria-label="Community"/></g></svg>
