<?xml version="1.0" encoding="UTF-8" standalone="no"?>
<!-- Created with Inkscape (http://www.inkscape.org/) -->

<svg
   width="102.45606"
   height="526.06323"
   viewBox="0 0 102.45607 526.06323"
   version="1.1"
   id="svg1"
   xml:space="preserve"
   sodipodi:docname="Community.svg"
   inkscape:version="1.3 (0e150ed6c4, 2023-07-21)"
   xmlns:inkscape="http://www.inkscape.org/namespaces/inkscape"
   xmlns:sodipodi="http://sodipodi.sourceforge.net/DTD/sodipodi-0.dtd"
   xmlns="http://www.w3.org/2000/svg"
   xmlns:svg="http://www.w3.org/2000/svg"
   xmlns:rdf="http://www.w3.org/1999/02/22-rdf-syntax-ns#"
   xmlns:cc="http://creativecommons.org/ns#"
   xmlns:dc="http://purl.org/dc/elements/1.1/"><title
     id="title1">Community text</title><sodipodi:namedview
     id="namedview1"
     pagecolor="#505050"
     bordercolor="#ffffff"
     borderopacity="1"
     inkscape:showpageshadow="0"
     inkscape:pageopacity="0"
     inkscape:pagecheckerboard="1"
     inkscape:deskcolor="#505050"
     inkscape:document-units="px"
     showgrid="true"
     inkscape:zoom="2"
     inkscape:cx="48.75"
     inkscape:cy="116.5"
     inkscape:window-width="1287"
     inkscape:window-height="747"
     inkscape:window-x="-4"
     inkscape:window-y="-4"
     inkscape:window-maximized="1"
     inkscape:current-layer="layer1"><inkscape:grid
       id="grid2"
       units="px"
       originx="-0.53360143"
       originy="217.28195"
       spacingx="1.0000001"
       spacingy="1.0000001"
       empcolor="#0099e5"
       empopacity="0.30196078"
       color="#0099e5"
       opacity="0.14901961"
       empspacing="5"
       dotted="false"
       gridanglex="30"
       gridanglez="30"
       visible="true" /></sodipodi:namedview><defs
     id="defs1"><filter
       inkscape:collect="always"
       style="color-interpolation-filters:sRGB"
       id="filter1"
       x="-0.0027431121"
       y="-0.014487151"
       width="1.0054862"
       height="1.0289743"><feGaussianBlur
         inkscape:collect="always"
         stdDeviation="0.59797412"
         id="feGaussianBlur1" /></filter></defs><g
     inkscape:label="Text"
     inkscape:groupmode="layer"
     id="layer1"
     transform="rotate(-90,150.41224,169.64467)"
     style="opacity:1"><path
       d="M -153.56723,21.500909 V 42.23014 h -2.23959 q -3.64584,-18.906309 -18.85422,-18.906309 -8.17711,0 -11.92712,6.40627 -3.75001,6.40627 -3.75001,26.979251 0,16.927136 1.61458,23.020905 1.61459,6.093769 5.57294,8.750027 4.01043,2.604175 8.80211,2.604175 6.25002,0 11.71879,-4.687514 5.52085,-4.739599 8.54169,-15.156298 h 2.44792 l -0.83333,21.30215 h -2.13543 q -1.19792,-3.333344 -3.75001,-5.625017 -8.22919,6.822938 -16.92713,6.822938 -11.04171,0 -20.15632,-10.468783 -9.11461,-10.468783 -9.11461,-25.62508 0,-15.468799 8.95836,-26.197999 8.95836,-10.781283 20.72923,-10.781283 9.06253,0 15.98964,6.510437 2.03125,-3.229177 3.07292,-5.677101 z m 11.56254,50.052239 q 0,-9.010445 6.19794,-15.312548 6.19793,-6.354186 15.36463,-6.354186 8.95836,0 15.1563,6.093769 6.250015,6.041685 6.250015,15.156297 0,9.322946 -6.458355,15.833383 -6.45835,6.458354 -15.26046,6.458354 -8.64586,0 -14.94797,-6.302103 -6.3021,-6.354187 -6.3021,-15.572966 z m 31.2501,0 q 0,-9.583363 -0.67709,-12.656289 -0.625,-3.072927 -2.91667,-4.843765 -2.23959,-1.822923 -6.19794,-1.822923 -3.75001,0 -6.19793,1.875006 -2.39585,1.822922 -2.96876,4.895849 -0.57292,3.072926 -0.57292,12.656289 0,9.635447 0.67708,12.760457 0.72917,3.12501 3.07293,4.895848 2.39584,1.770839 5.9896,1.770839 3.64585,0 6.04169,-1.770839 2.44792,-1.822922 3.07292,-5.000015 0.67709,-3.229177 0.67709,-12.760457 z m 27.552166,17.916723 V 53.84476 h -7.343773 v -2.656259 h 4.583348 q 8.125025,0 12.916707,-0.677085 v 10.052115 h 0.208334 q 4.114596,-10.052115 14.687546,-10.052115 11.510452,0 12.708373,10.677117 h 0.208334 q 4.531264,-10.677117 15.05213,-10.677117 4.687515,0 7.864608,2.343757 3.229177,2.343757 3.958346,5.416684 0.781252,3.072926 0.781252,10.156281 v 21.041733 h 7.239606 v 2.656258 H -34.556438 V 89.469871 H -27.7335 V 63.740624 q 0,-6.093769 -0.729169,-8.385443 -0.677086,-2.291674 -3.750012,-2.291674 -4.218763,0 -8.697944,4.791682 -4.427097,4.739598 -4.427097,18.072973 v 13.541709 h 6.718771 v 2.656258 h -23.593824 v -2.656258 h 6.770855 V 69.313558 q 0,-11.77087 -0.88542,-14.010461 -0.833336,-2.23959 -4.062512,-2.23959 -4.427098,0 -7.760441,3.906262 -3.281261,3.906263 -4.114597,7.604191 -0.781252,3.697928 -0.781252,11.77087 v 13.125041 h 6.718771 v 2.656258 h -24.218826 v -2.656258 z m 86.7190249,0 V 53.84476 H -3.827172 v -2.656259 h 4.58334764 q 8.12502536,0 12.91670736,-0.677085 v 10.052115 h 0.208334 q 4.114596,-10.052115 14.687546,-10.052115 11.510452,0 12.708373,10.677117 h 0.208334 q 4.531264,-10.677117 15.05213,-10.677117 4.687515,0 7.864608,2.343757 3.229177,2.343757 3.958345,5.416684 0.781253,3.072926 0.781253,10.156281 v 21.041733 h 7.239606 v 2.656258 H 52.162586 v -2.656258 h 6.822938 V 63.740624 q 0,-6.093769 -0.729169,-8.385443 -0.677085,-2.291674 -3.750011,-2.291674 -4.218764,0 -8.697944,4.791682 -4.427097,4.739598 -4.427097,18.072973 v 13.541709 h 6.718771 v 2.656258 H 24.50625 v -2.656258 h 6.770854 V 69.313558 q 0,-11.77087 -0.885419,-14.010461 -0.833336,-2.23959 -4.062513,-2.23959 -4.427097,0 -7.760441,3.906262 -3.28126,3.906263 -4.114596,7.604191 -0.781252,3.697928 -0.781252,11.77087 v 13.125041 h 6.718771 v 2.656258 H -3.827172 V 89.469871 Z M 125.91282,51.188501 v 38.28137 h 7.03127 v 2.656258 h -7.03127 q -8.12503,0 -10.26045,0.625002 v -9.68753 h -0.20833 q -4.68752,9.68753 -14.73963,9.68753 -5.781272,0 -9.322949,-3.020843 -3.489595,-3.072926 -3.489595,-12.864623 V 53.84476 H 80.33976 v -2.656259 h 17.708388 v 27.500086 q 0,6.458354 0.781253,8.958361 0.781252,2.447925 4.010429,2.447925 4.79168,0 8.85419,-5.104183 4.06252,-5.156266 4.06252,-15.468798 V 53.84476 h -8.33336 v -2.656259 z m 20.46881,38.28137 V 53.84476 h -7.39585 v -2.656259 h 4.7396 q 7.03127,0 12.76045,-0.781252 v 10.156282 h 0.20834 q 5.3646,-10.677117 15.15629,-10.677117 4.58335,0 7.50003,2.343757 2.96876,2.343758 4.01043,5.520851 1.09375,3.177093 1.09375,9.843781 v 21.875068 h 8.12503 v 2.656258 h -25.20842 v -2.656258 h 6.92711 V 63.428123 q 0,-5.989602 -0.78125,-8.281276 -0.72917,-2.291674 -3.90627,-2.291674 -5.05209,0 -9.11461,5.20835 -4.01043,5.156266 -4.01043,13.906293 v 17.500055 h 6.82294 v 2.656258 h -24.32299 v -2.656258 z m 57.03144,-59.114768 q 0,-2.291674 1.66667,-3.958346 1.71875,-1.666672 4.01043,-1.666672 2.29167,0 3.95834,1.666672 1.71876,1.614589 1.71876,3.958346 0,2.447924 -1.66667,4.062513 -1.66668,1.614588 -4.01043,1.614588 -2.34376,0 -4.01043,-1.614588 -1.66667,-1.666672 -1.66667,-4.062513 z m 10.46878,20.052146 v 39.062622 h 6.82294 v 2.656258 h -24.21883 v -2.656258 h 7.29169 V 53.84476 h -7.29169 v -2.656259 h 7.39586 q 5.31251,0 10.00003,-0.781252 z m 30.6251,-11.093785 v 11.875037 h 12.34378 v 2.656259 h -12.34378 v 25.78133 q 0,5.677101 0.72916,7.760441 0.78126,2.08334 4.06252,2.08334 2.5,0 4.79168,-1.666672 2.34376,-1.666672 3.54168,-5.156266 h 2.23959 q -2.39584,10.104198 -14.5313,10.104198 -5.10418,0 -7.50002,-1.822922 -2.39584,-1.875006 -2.96876,-4.583348 -0.52084,-2.708342 -0.52084,-7.343773 V 53.84476 h -9.27086 v -2.656259 h 9.27086 V 40.198884 q 5.15627,0 10.15629,-0.88542 z m 37.44803,14.531296 14.58337,28.489672 12.70838,-28.489672 h -9.06253 v -2.656259 h 18.43756 v 2.656259 h -6.92711 L 290.705,101.39699 q -4.53126,10.20837 -7.70835,14.27088 -3.12501,4.06251 -7.65628,4.06251 -2.81251,0 -4.37501,-1.82292 -1.51042,-1.77084 -1.51042,-4.01043 0,-2.08334 1.30208,-3.38543 1.35418,-1.30208 3.1771,-1.30208 2.55209,0 3.95834,2.34375 1.40626,2.34376 2.34376,2.34376 1.40626,0 3.02084,-2.55209 1.61459,-2.55209 4.89585,-9.94795 l 3.38543,-7.656272 -20.57298,-39.895958 h -6.19794 v -2.656259 h 25.05216 v 2.656259 z"
       id="text3"
       style="font-size:106.667px;font-family:'Bodoni MT';-inkscape-font-specification:'Bodoni MT';stroke-width:0;stroke-linejoin:bevel;paint-order:stroke fill markers;filter:url(#filter1)"
       inkscape:label="Shadow"
       aria-label="Community" /><path
       d="m -155.0166,23.459023 v 20.729232 h -2.23959 q -3.64584,-18.906309 -18.85422,-18.906309 -8.17711,0 -11.92712,6.40627 -3.75002,6.40627 -3.75002,26.97925 0,16.927137 1.61459,23.020906 1.61459,6.093769 5.57294,8.750027 4.01043,2.604175 8.80211,2.604175 6.25002,0 11.71878,-4.687515 5.52085,-4.739598 8.5417,-15.156297 h 2.44792 l -0.83333,21.30215 h -2.13543 q -1.19792,-3.333344 -3.75001,-5.625018 -8.22919,6.822938 -16.92714,6.822938 -11.0417,0 -20.15631,-10.468783 -9.11461,-10.468782 -9.11461,-25.62508 0,-15.468798 8.95836,-26.197998 8.95836,-10.781284 20.72923,-10.781284 9.06253,0 15.98964,6.510437 2.03125,-3.229176 3.07292,-5.677101 z m 11.56254,50.05224 q 0,-9.010445 6.19794,-15.312548 6.19793,-6.354186 15.36463,-6.354186 8.95836,0 15.15629,6.093769 6.25002,6.041685 6.25002,15.156297 0,9.322946 -6.45835,15.833383 -6.45835,6.458353 -15.26046,6.458353 -8.64586,0 -14.94797,-6.302103 -6.3021,-6.354186 -6.3021,-15.572965 z m 31.2501,0 q 0,-9.583363 -0.67709,-12.65629 -0.625,-3.072926 -2.91667,-4.843765 -2.23959,-1.822922 -6.19794,-1.822922 -3.75001,0 -6.19794,1.875006 -2.39584,1.822922 -2.96876,4.895848 -0.57291,3.072927 -0.57291,12.65629 0,9.635447 0.67708,12.760456 0.72917,3.12501 3.07293,4.895849 2.39584,1.770839 5.9896,1.770839 3.64584,0 6.04169,-1.770839 2.44792,-1.822922 3.07292,-5.000016 0.67709,-3.229176 0.67709,-12.760456 z m 27.552165,17.916722 V 55.802874 h -7.343773 v -2.656258 h 4.583348 q 8.125025,0 12.916707,-0.677086 v 10.052115 h 0.208334 q 4.114596,-10.052115 14.687546,-10.052115 11.510452,0 12.708373,10.677117 h 0.208334 q 4.531264,-10.677117 15.05213,-10.677117 4.687515,0 7.864608,2.343758 3.229177,2.343757 3.958345,5.416683 0.781253,3.072927 0.781253,10.156282 v 21.041732 h 7.239606 v 2.656259 H -36.00581 v -2.656259 h 6.822938 V 65.698738 q 0,-6.093769 -0.729169,-8.385442 -0.677085,-2.291674 -3.750011,-2.291674 -4.218764,0 -8.697944,4.791681 -4.427097,4.739599 -4.427097,18.072974 v 13.541708 h 6.718771 v 2.656259 h -23.593824 v -2.656259 h 6.770854 V 71.271673 q 0,-11.770871 -0.885419,-14.010461 -0.833336,-2.23959 -4.062513,-2.23959 -4.427097,0 -7.760441,3.906262 -3.28126,3.906262 -4.114596,7.60419 -0.781252,3.697929 -0.781252,11.77087 v 13.125041 h 6.718771 v 2.656259 h -24.218826 v -2.656259 z m 86.7190246,0 V 55.802874 h -7.3437729 v -2.656258 h 4.58334761 q 8.12502539,0 12.91670669,-0.677086 v 10.052115 h 0.208334 Q 16.546441,52.46953 27.119391,52.46953 q 11.510453,0 12.708373,10.677117 h 0.208334 Q 44.567362,52.46953 55.088229,52.46953 q 4.687514,0 7.864607,2.343758 3.229177,2.343757 3.958346,5.416683 0.781253,3.072927 0.781253,10.156282 v 21.041732 h 7.239606 v 2.656259 H 50.713215 v -2.656259 h 6.822938 V 65.698738 q 0,-6.093769 -0.729169,-8.385442 -0.677086,-2.291674 -3.750012,-2.291674 -4.218763,0 -8.697944,4.791681 -4.427097,4.739599 -4.427097,18.072974 v 13.541708 h 6.718771 v 2.656259 H 23.056878 v -2.656259 h 6.770855 V 71.271673 q 0,-11.770871 -0.885419,-14.010461 -0.833336,-2.23959 -4.062513,-2.23959 -4.427097,0 -7.760441,3.906262 -3.28126,3.906262 -4.114596,7.60419 -0.781253,3.697929 -0.781253,11.77087 v 13.125041 h 6.718771 v 2.656259 H -5.2765433 V 91.427985 Z M 124.46345,53.146616 v 38.281369 h 7.03127 v 2.656259 h -7.03127 q -8.12503,0 -10.26045,0.625002 v -9.687531 h -0.20834 q -4.68751,9.687531 -14.739625,9.687531 -5.781268,0 -9.322946,-3.020843 -3.489594,-3.072926 -3.489594,-12.864624 V 55.802874 h -7.552107 v -2.656258 h 17.708389 v 27.500086 q 0,6.458353 0.781252,8.958361 0.781253,2.447924 4.010431,2.447924 4.79168,0 8.85419,-5.104182 4.06252,-5.156266 4.06252,-15.468798 V 55.802874 h -8.33336 v -2.656258 z m 20.46881,38.281369 V 55.802874 h -7.39585 v -2.656258 h 4.7396 q 7.03127,0 12.76045,-0.781253 v 10.156282 h 0.20834 q 5.3646,-10.677116 15.15629,-10.677116 4.58335,0 7.50003,2.343757 2.96876,2.343757 4.01043,5.52085 1.09375,3.177094 1.09375,9.843781 v 21.875068 h 8.12502 v 2.656259 h -25.20841 v -2.656259 h 6.92711 V 65.386237 q 0,-5.989602 -0.78125,-8.281275 -0.72917,-2.291674 -3.90627,-2.291674 -5.0521,0 -9.11461,5.208349 -4.01043,5.156266 -4.01043,13.906294 v 17.500054 h 6.82294 v 2.656259 h -24.32299 v -2.656259 z m 57.03143,-59.114767 q 0,-2.291674 1.66668,-3.958346 1.71875,-1.666672 4.01043,-1.666672 2.29167,0 3.95834,1.666672 1.71876,1.614588 1.71876,3.958346 0,2.447924 -1.66668,4.062512 -1.66667,1.614589 -4.01042,1.614589 -2.34376,0 -4.01043,-1.614589 -1.66668,-1.666672 -1.66668,-4.062512 z m 10.46879,20.052145 v 39.062622 h 6.82293 v 2.656259 h -24.21882 v -2.656259 h 7.29169 V 55.802874 h -7.29169 v -2.656258 h 7.39586 q 5.31251,0 10.00003,-0.781253 z m 30.62509,-11.093784 v 11.875037 h 12.34379 v 2.656258 h -12.34379 v 25.781331 q 0,5.677101 0.72917,7.760441 0.78126,2.083339 4.06252,2.083339 2.5,0 4.79168,-1.666671 2.34375,-1.666672 3.54167,-5.156266 h 2.2396 q -2.39585,10.104198 -14.5313,10.104198 -5.10418,0 -7.50002,-1.822923 -2.39584,-1.875005 -2.96876,-4.583347 -0.52084,-2.708342 -0.52084,-7.343773 V 55.802874 h -9.27086 v -2.656258 h 9.27086 V 42.156998 q 5.15627,0 10.15628,-0.885419 z m 37.44803,14.531295 14.58338,28.489673 12.70838,-28.489673 h -9.06253 v -2.656258 h 18.43756 v 2.656258 h -6.92711 l -20.98965,47.552236 q -4.53126,10.20836 -7.70836,14.27087 -3.12501,4.06252 -7.65627,4.06252 -2.81251,0 -4.37501,-1.82293 -1.51042,-1.77083 -1.51042,-4.01042 0,-2.08334 1.30208,-3.38543 1.35417,-1.30209 3.1771,-1.30209 2.55209,0 3.95834,2.34376 1.40626,2.34376 2.34376,2.34376 1.40625,0 3.02084,-2.5521 1.61459,-2.55209 4.89585,-9.94794 l 3.38543,-7.656278 -20.57298,-39.895958 h -6.19794 v -2.656258 h 25.05216 v 2.656258 z"
       id="text4"
       style="font-size:106.667px;font-family:'Bodoni MT';-inkscape-font-specification:'Bodoni MT';fill:#348a7a;stroke-width:0;stroke-linejoin:bevel;paint-order:stroke fill markers"
       inkscape:label="Community"
       aria-label="Community" /></g><metadata
     id="metadata1"><rdf:RDF><cc:Work
         rdf:about=""><dc:title>Community text</dc:title></cc:Work></rdf:RDF></metadata></svg>
