<?xml version="1.0" encoding="UTF-8" standalone="no"?>
<!-- Created with Inkscape (http://www.inkscape.org/) -->

<svg
   width="76.482056"
   height="307.64215"
   viewBox="0 0 76.482065 307.64215"
   version="1.1"
   id="svg1"
   xml:space="preserve"
   sodipodi:docname="Credits.svg"
   inkscape:version="1.3 (0e150ed6c4, 2023-07-21)"
   xmlns:inkscape="http://www.inkscape.org/namespaces/inkscape"
   xmlns:sodipodi="http://sodipodi.sourceforge.net/DTD/sodipodi-0.dtd"
   xmlns="http://www.w3.org/2000/svg"
   xmlns:svg="http://www.w3.org/2000/svg"
   xmlns:rdf="http://www.w3.org/1999/02/22-rdf-syntax-ns#"
   xmlns:cc="http://creativecommons.org/ns#"
   xmlns:dc="http://purl.org/dc/elements/1.1/"><title
     id="title1">Credits text</title><sodipodi:namedview
     id="namedview1"
     pagecolor="#505050"
     bordercolor="#ffffff"
     borderopacity="1"
     inkscape:showpageshadow="0"
     inkscape:pageopacity="0"
     inkscape:pagecheckerboard="1"
     inkscape:deskcolor="#505050"
     inkscape:document-units="mm"
     showgrid="true"
     inkscape:zoom="1"
     inkscape:cx="-57.5"
     inkscape:cy="110"
     inkscape:window-width="1287"
     inkscape:window-height="747"
     inkscape:window-x="-4"
     inkscape:window-y="-4"
     inkscape:window-maximized="1"
     inkscape:current-layer="layer1"><inkscape:grid
       id="grid2"
       units="px"
       originx="1.1429057"
       originy="55.664803"
       spacingx="0.26458333"
       spacingy="0.26458333"
       empcolor="#0099e5"
       empopacity="0.30196078"
       color="#0099e5"
       opacity="0.14901961"
       empspacing="5"
       dotted="false"
       gridanglex="30"
       gridanglez="30"
       visible="true" /></sodipodi:namedview><defs
     id="defs1"><filter
       inkscape:collect="always"
       style="color-interpolation-filters:sRGB"
       id="filter1"
       x="-0.0047607861"
       y="-0.019854142"
       width="1.0095216"
       height="1.0397083"><feGaussianBlur
         inkscape:collect="always"
         stdDeviation="0.60450191"
         id="feGaussianBlur1" /></filter></defs><g
     inkscape:label="Text"
     inkscape:groupmode="layer"
     id="layer1"
     transform="rotate(-90,42.03806,60.736891)"
     style="opacity:1"><path
       d="m -152.42666,20.982972 v 20.729231 h -2.23959 q -3.64585,-18.906309 -18.85423,-18.906309 -8.17711,0 -11.92712,6.40627 -3.75001,6.40627 -3.75001,26.979251 0,16.927136 1.61459,23.020905 1.61459,6.093769 5.57293,8.750028 4.01043,2.604175 8.80211,2.604175 6.25002,0 11.71879,-4.687515 5.52085,-4.739598 8.54169,-15.156297 h 2.44793 l -0.83334,21.302149 h -2.13542 q -1.19792,-3.333343 -3.75001,-5.625017 -8.2292,6.822938 -16.92714,6.822938 -11.0417,0 -20.15631,-10.468783 -9.11462,-10.468783 -9.11462,-25.62508 0,-15.468798 8.95837,-26.197998 8.95836,-10.781284 20.72923,-10.781284 9.06253,0 15.98963,6.510437 2.03126,-3.229177 3.07293,-5.677101 z m 17.3438,67.968962 V 53.326823 h -8.43752 v -2.656258 h 8.54169 q 6.56252,0 10.00003,-0.677086 v 9.843781 h 0.20834 q 3.64584,-9.843781 10.78128,-9.843781 3.12501,0 5.00001,1.927089 1.92709,1.875006 1.92709,4.583348 0,2.500008 -1.5625,4.062513 -1.51042,1.510421 -3.95835,1.510421 -4.47918,0 -4.47918,-4.47918 l 0.20834,-2.239591 q 0,-1.19792 -1.09376,-1.19792 -1.71875,0 -4.37501,4.635431 -2.65626,4.635431 -2.65626,14.166711 v 15.989633 h 8.64586 v 2.656258 h -27.18758 v -2.656258 z m 71.562728,-20.937565 h -26.354249 q -0.364585,15.416715 1.718755,19.010476 2.08334,3.541678 7.44794,3.541678 11.041701,0 14.947963,-12.81254 h 2.239591 q -1.718756,7.76044 -6.510437,11.458369 -4.791682,3.697928 -10.677117,3.697928 -8.385443,0 -14.583379,-6.197936 -6.197935,-6.25002 -6.197935,-15.677132 0,-9.166696 6.041685,-15.416715 6.093769,-6.25002 14.114627,-6.25002 6.979188,0 12.187538,4.947932 5.260433,4.947932 5.625018,13.69796 z m -26.354249,-2.343758 h 15.156297 q 0.416668,-3.697928 0.416668,-5.625017 0,-8.333359 -7.552107,-8.333359 -3.750012,0 -5.885435,2.031256 -2.135423,1.979173 -2.135423,5.416683 z m 76.875245,-44.687639 v 67.968962 h 7.031272 v 2.656258 h -5.833352 q -5.52085,0 -11.666703,0.625002 v -8.541693 h -0.208334 q -4.166679,9.218779 -13.333375,9.218779 -7.343773,0 -12.96879,-6.510437 -5.572934,-6.562521 -5.572934,-14.843797 0,-8.854194 5.885435,-15.520881 5.937518,-6.666688 13.958377,-6.666688 8.177109,0 12.031287,7.343773 h 0.208334 V 24.420483 h -9.479196 v -2.656259 h 9.479196 q 5.260433,0 10.468783,-0.781252 z m -22.395903,30.729263 q -5.677101,0 -7.135439,4.270846 -1.406255,4.218763 -1.406255,17.187554 0,11.197951 1.822923,14.114627 1.822922,2.916676 5.885435,2.916676 4.375014,0 7.708357,-2.968759 3.333344,-2.968759 4.375014,-6.770855 1.04167,-3.802095 1.04167,-12.343788 0,-8.125026 -3.28126,-12.239622 -3.281261,-4.166679 -9.010445,-4.166679 z M 6.3759258,29.837166 q 0,-2.291674 1.6666718,-3.958346 1.7187554,-1.666671 4.0104294,-1.666671 2.291674,0 3.958346,1.666671 1.718755,1.614589 1.718755,3.958346 0,2.447924 -1.666672,4.062513 -1.666672,1.614588 -4.010429,1.614588 -2.3437575,0 -4.0104294,-1.614588 Q 6.3759258,32.233007 6.3759258,29.837166 Z M 16.844708,49.889312 v 39.062622 h 6.822938 v 2.656258 H -0.5511792 V 88.951934 H 6.7405102 V 53.326823 h -7.2916894 v -2.656258 h 7.3958564 q 5.3125168,0 10.0000308,-0.781253 z M 47.469805,38.795527 v 11.875038 h 12.343789 v 2.656258 H 47.469805 v 25.78133 q 0,5.677101 0.729169,7.760441 0.781253,2.08334 4.062513,2.08334 2.500008,0 4.791682,-1.666672 2.343757,-1.666672 3.541677,-5.156266 h 2.239591 q -2.395841,10.104198 -14.531296,10.104198 -5.104182,0 -7.500023,-1.822922 -2.395841,-1.875006 -2.968759,-4.583348 -0.520835,-2.708341 -0.520835,-7.343773 V 53.326823 h -9.270863 v -2.656258 h 9.270863 V 39.680947 q 5.156266,0 10.156281,-0.88542 z M 98.042877,50.201813 V 61.868516 H 95.907454 Q 93.511613,51.712235 84.240751,51.712235 q -4.010429,0 -6.718771,2.135423 -2.656259,2.08334 -2.656259,4.791681 0,2.291674 1.875006,3.645845 1.92709,1.302088 9.010445,2.239591 15.572968,1.927089 15.572968,14.16671 0,6.093769 -4.062515,10.156282 -4.010429,4.062513 -10.000032,4.062513 -5.885435,0 -11.406285,-4.843765 l -3.645845,3.125009 H 70.386541 V 75.826893 h 1.822922 q 4.479181,14.73963 15.05213,14.73963 4.01043,0 7.29169,-2.552092 3.28126,-2.552091 3.28126,-5.989602 0,-2.864592 -1.979173,-4.32293 -1.927089,-1.458338 -10.520866,-2.708342 -14.635462,-2.135423 -14.635462,-13.020874 0,-5.3646 3.906262,-8.958361 3.958346,-3.645845 9.635447,-3.645845 5.989602,0 10.052114,3.958346 1.04167,-1.093754 2.135424,-3.12501 z"
       id="text3"
       style="font-size:106.667px;font-family:'Bodoni MT';-inkscape-font-specification:'Bodoni MT';stroke-width:0;stroke-linejoin:bevel;paint-order:stroke fill markers;filter:url(#filter1)"
       inkscape:label="Shadow"
       aria-label="Credits" /><path
       d="m -153.87603,22.941086 v 20.729232 h -2.23959 q -3.64585,-18.906309 -18.85423,-18.906309 -8.17711,0 -11.92712,6.40627 -3.75001,6.40627 -3.75001,26.979251 0,16.927136 1.61459,23.020905 1.61458,6.093769 5.57293,8.750027 4.01043,2.604175 8.80211,2.604175 6.25002,0 11.71879,-4.687514 5.52085,-4.739599 8.54169,-15.156298 h 2.44793 l -0.83334,21.30215 h -2.13542 q -1.19792,-3.333344 -3.75002,-5.625018 -8.22919,6.822938 -16.92713,6.822938 -11.0417,0 -20.15631,-10.468782 -9.11462,-10.468783 -9.11462,-25.62508 0,-15.468799 8.95836,-26.197999 8.95837,-10.781283 20.72924,-10.781283 9.06252,0 15.98963,6.510437 2.03126,-3.229177 3.07293,-5.677102 z m 17.3438,67.968963 V 55.284938 h -8.43752 v -2.656259 h 8.54169 q 6.56252,0 10.00003,-0.677085 v 9.843781 h 0.20833 q 3.64585,-9.843781 10.78129,-9.843781 3.12501,0 5.00001,1.927089 1.92709,1.875006 1.92709,4.583348 0,2.500008 -1.5625,4.062512 -1.51042,1.510422 -3.95835,1.510422 -4.47918,0 -4.47918,-4.479181 l 0.20834,-2.23959 q 0,-1.197921 -1.09376,-1.197921 -1.71875,0 -4.37501,4.635432 -2.65626,4.635431 -2.65626,14.16671 v 15.989634 h 8.64586 v 2.656258 h -27.18758 v -2.656258 z m 71.562726,-20.937566 h -26.354249 q -0.364584,15.416715 1.718756,19.010476 2.083339,3.541678 7.44794,3.541678 11.041701,0 14.947963,-12.81254 h 2.23959 q -1.718755,7.760441 -6.510437,11.458369 -4.791681,3.697928 -10.677116,3.697928 -8.385443,0 -14.583379,-6.197936 -6.197934,-6.250019 -6.197934,-15.677132 0,-9.166695 6.041683,-15.416715 6.093769,-6.250019 14.114628,-6.250019 6.979188,0 12.187538,4.947932 5.260433,4.947932 5.625017,13.697959 z m -26.354249,-2.343757 h 15.156298 q 0.416668,-3.697928 0.416668,-5.625018 0,-8.333359 -7.552107,-8.333359 -3.750012,0 -5.885435,2.031256 -2.135424,1.979173 -2.135424,5.416684 z m 76.875246,-44.68764 v 67.968963 h 7.0312717 v 2.656258 h -5.8333517 q -5.52085,0 -11.666703,0.625002 v -8.541693 h -0.208334 q -4.16668,9.218778 -13.333375,9.218778 -7.343773,0 -12.96879,-6.510437 -5.572935,-6.56252 -5.572935,-14.843796 0,-8.854194 5.885436,-15.520882 5.937518,-6.666687 13.958376,-6.666687 8.177109,0 12.031288,7.343773 h 0.208334 V 26.378597 h -9.479196 v -2.656258 h 9.479196 q 5.260433,0 10.468783,-0.781253 z m -22.395904,30.729263 q -5.677101,0 -7.135439,4.270847 -1.406254,4.218763 -1.406254,17.187553 0,11.197952 1.822922,14.114628 1.822923,2.916676 5.885435,2.916676 4.375014,0 7.708358,-2.96876 3.333344,-2.968759 4.375014,-6.770854 1.041669,-3.802095 1.041669,-12.343789 0,-8.125025 -3.28126,-12.239621 -3.28126,-4.16668 -9.010445,-4.16668 z M 4.9265544,31.795281 q 0,-2.291674 1.6666719,-3.958346 1.7187554,-1.666672 4.0104287,-1.666672 2.291674,0 3.958346,1.666672 1.718756,1.614588 1.718756,3.958346 0,2.447924 -1.666672,4.062512 -1.666672,1.614589 -4.01043,1.614589 -2.3437568,0 -4.0104287,-1.614589 Q 4.9265544,34.191122 4.9265544,31.795281 Z M 15.395337,51.847427 v 39.062622 h 6.822938 v 2.656258 H -2.0005505 V 90.910049 H 5.2911389 V 55.284938 h -7.2916894 v -2.656259 h 7.3958564 q 5.3125161,0 10.0000311,-0.781252 z M 46.020434,40.753642 v 11.875037 h 12.343789 v 2.656259 H 46.020434 v 25.78133 q 0,5.677101 0.729169,7.760441 0.781252,2.08334 4.062513,2.08334 2.500007,0 4.791681,-1.666672 2.343758,-1.666672 3.541678,-5.156266 h 2.23959 q -2.39584,10.104198 -14.531295,10.104198 -5.104183,0 -7.500023,-1.822922 -2.395841,-1.875006 -2.96876,-4.583348 -0.520835,-2.708342 -0.520835,-7.343773 V 55.284938 H 26.59329 v -2.656259 h 9.270862 V 41.639062 q 5.156266,0 10.156282,-0.88542 z m 50.573072,11.406286 v 11.666703 h -2.135424 q -2.39584,-10.156282 -11.666703,-10.156282 -4.010429,0 -6.718771,2.135423 -2.656258,2.08334 -2.656258,4.791682 0,2.291674 1.875006,3.645845 1.927089,1.302087 9.010445,2.23959 15.572965,1.927089 15.572965,14.166711 0,6.093769 -4.062513,10.156282 -4.010429,4.062512 -10.000031,4.062512 -5.885435,0 -11.406285,-4.843765 l -3.645845,3.12501 H 68.937169 V 77.785008 h 1.822923 q 4.47918,14.739629 15.05213,14.739629 4.010429,0 7.29169,-2.552091 3.28126,-2.552091 3.28126,-5.989602 0,-2.864592 -1.979173,-4.32293 Q 92.47891,78.201676 83.885133,76.951672 69.24967,74.816249 69.24967,63.930798 q 0,-5.3646 3.906263,-8.958361 3.958345,-3.645845 9.635446,-3.645845 5.989602,0 10.052115,3.958346 1.04167,-1.093754 2.135423,-3.12501 z"
       id="text4"
       style="font-size:106.667px;font-family:'Bodoni MT';-inkscape-font-specification:'Bodoni MT';fill:#c0954a;stroke-width:0;stroke-linejoin:bevel;paint-order:stroke fill markers"
       inkscape:label="Credits"
       aria-label="Credits" /></g><metadata
     id="metadata1"><rdf:RDF><cc:Work
         rdf:about=""><dc:title>Credits text</dc:title></cc:Work></rdf:RDF></metadata></svg>
