<svg width="560" height="420" version="1.1" viewBox="0 0 560 420" xmlns="http://www.w3.org/2000/svg" xmlns:cc="http://creativecommons.org/ns#" xmlns:dc="http://purl.org/dc/elements/1.1/" xmlns:rdf="http://www.w3.org/1999/02/22-rdf-syntax-ns#" xmlns:xlink="http://www.w3.org/1999/xlink"><title>WebTV Dialing</title><defs><filter id="f" x="-.014164" y="-.28808" width="1.0283" height="1.5762" color-interpolation-filters="sRGB"><feGaussianBlur stdDeviation="5.1357184"/></filter><filter id="g" x="-.014164" y="-.28808" width="1.0283" height="1.5762" color-interpolation-filters="sRGB"><feGaussianBlur stdDeviation="5.1357184"/></filter><filter id="h" x="-.014164" y="-.28808" width="1.0283" height="1.5762" color-interpolation-filters="sRGB"><feGaussianBlur stdDeviation="5.1357184"/></filter><filter id="i" x="-.014164" y="-.28808" width="1.0283" height="1.5762" color-interpolation-filters="sRGB"><feGaussianBlur stdDeviation="5.1357184"/></filter><filter id="j" x="-.014164" y="-.28808" width="1.0283" height="1.5762" color-interpolation-filters="sRGB"><feGaussianBlur stdDeviation="5.1357184"/></filter><filter id="k" x="-.014164" y="-.28808" width="1.0283" height="1.5762" color-interpolation-filters="sRGB"><feGaussianBlur stdDeviation="5.1357184"/></filter><radialGradient id="a" cx="278" cy="-91.5" r="83" gradientTransform="matrix(-1.1205 2.7193e-7 -3.552e-7 -1.0361 589.49 -310.81)" gradientUnits="userSpaceOnUse"><stop stop-color="#efbd39" offset="0"/><stop stop-color="#efbd39" offset=".05"/><stop stop-color="#efbd39" stop-opacity=".25" offset=".4"/><stop stop-color="#efbd39" stop-opacity="0" offset="1"/></radialGradient><filter id="e" x="-.016907" y="-.067" width="1.0338" height="1.134" color-interpolation-filters="sRGB"><feGaussianBlur stdDeviation="2.26125"/></filter><filter id="d" x="-.19687" y="-.046323" width="1.3937" height="1.0926" color-interpolation-filters="sRGB"><feGaussianBlur stdDeviation="0.16406234"/></filter><linearGradient id="b" x1="248" x2="248" y1="160" y2="168" gradientUnits="userSpaceOnUse"><stop stop-color="#efbd39" offset=".25"/><stop stop-color="#efbd39" stop-opacity="0" offset="1"/></linearGradient><mask id="c" maskUnits="userSpaceOnUse"><path d="m115 90.046h331v125.95h-331z" fill="url(#l)" style="paint-order:fill markers stroke"/></mask><linearGradient id="l" x1="115" x2="446" y1="153.02" y2="153.02" gradientUnits="userSpaceOnUse"><stop offset="0"/><stop stop-color="#808080" offset=".16"/><stop stop-color="#fff" offset=".25"/><stop stop-color="#fff" offset=".7"/><stop stop-color="#808080" offset=".82"/><stop offset="1"/></linearGradient></defs><g fill="#8d681b" stroke-linejoin="bevel" stroke-width=".28"><path transform="matrix(.38824 0 0 .38824 -92.998 .285)" d="m567.61 174.45q-0.79023-7.9587-6.0396-12.248-5.1929-4.3462-14.393-4.3462-4.2333 0-7.9587 1.4676-3.6689 1.4676-6.4347 4.2898t-4.3462 6.7733q-1.524 3.9511-1.524 8.8053 0 4.9107 1.4676 8.9182 1.4676 3.9511 4.2898 6.7733t6.8298 4.2898 8.9747 1.4676q8.0716 0 13.264-4.4591 5.2493-4.5156 6.1524-12.361h-12.813q-0.39511 3.1044-2.0884 5.0236-1.6933 1.8627-4.7413 1.8627-2.4271 0-4.064-0.84666-1.5804-0.90311-2.4271-2.4271-0.84667-1.5804-1.1853-3.4996-0.33867-1.9191-0.33867-4.2898 0-5.8138 1.9756-8.8053 1.9756-3.048 5.5316-3.048 3.1044 0 5.0236 1.7498 1.9191 1.7498 2.2013 4.9107zm30.635-6.6604q2.1449 0 3.6689 0.95955 1.5804 0.90311 2.54 2.54 1.016 1.5804 1.4676 3.6124 0.45156 1.9756 0.45156 4.1204 0 5.3622-1.9756 8.5231-1.9191 3.1609-6.0396 3.1609-2.2578 0-3.8382-1.016-1.5804-1.0724-2.4836-2.7658-0.90311-1.7498-1.2982-3.7253-0.33867-2.032-0.33867-4.1769 0-2.0884 0.39511-4.064t1.2982-3.556q0.95956-1.6369 2.4836-2.5964 1.524-1.016 3.6689-1.016zm0.11289-9.9342q-4.6849 0-8.636 1.4676-3.8947 1.4676-6.7733 4.2898-2.8222 2.7658-4.3462 6.7169-1.524 3.8947-1.524 8.5796 0 5.08 1.524 9.144t4.3462 6.8862 6.7169 4.2898q3.9511 1.4111 8.6924 1.4111 4.5156 0 8.4102-1.4111 3.8947-1.4676 6.7733-4.2333 2.9351-2.8222 4.5156-6.8298 1.6369-4.064 1.6369-9.144 0-4.1204-1.3547-7.9022-1.2982-3.7818-4.0076-6.7733-2.6529-3.048-6.7169-4.7413-4.0076-1.7498-9.2569-1.7498zm45.198 1.0724h-12.474v40.64h12.756v-12.869l-0.508-9.2569 14.506 22.126h12.474v-40.64h-12.756v12.926l0.508 9.2569zm52.31 0h-12.474v40.64h12.756v-12.869l-0.508-9.2569 14.506 22.126h12.474v-40.64h-12.756v12.926l0.508 9.2569zm74.154 40.64v-9.4826h-20.602v-6.3782h16.764v-9.4827h-16.764v-5.8138h19.812v-9.4827h-33.133v40.64zm49.77-25.118q-0.79022-7.9587-6.0396-12.248-5.1929-4.3462-14.393-4.3462-4.2333 0-7.9587 1.4676-3.6689 1.4676-6.4347 4.2898t-4.3462 6.7733q-1.524 3.9511-1.524 8.8053 0 4.9107 1.4676 8.9182 1.4676 3.9511 4.2898 6.7733t6.8298 4.2898 8.9747 1.4676q8.0716 0 13.264-4.4591 5.2493-4.5156 6.1524-12.361h-12.813q-0.39511 3.1044-2.0884 5.0236-1.6933 1.8627-4.7413 1.8627-2.4271 0-4.064-0.84666-1.5804-0.90311-2.4271-2.4271-0.84667-1.5804-1.1853-3.4996-0.33866-1.9191-0.33866-4.2898 0-5.8138 1.9756-8.8053 1.9756-3.048 5.5316-3.048 3.1044 0 5.0236 1.7498 1.9191 1.7498 2.2013 4.9107zm9.017-4.8542h11.966v29.972h13.321v-29.972h11.966v-10.668h-37.253zm61.905 29.972v-40.64h-13.321v40.64zm26.007-40.64h-12.474v40.64h12.756v-12.869l-0.508-9.2569 14.506 22.126h12.474v-40.64h-12.756v12.926l0.508 9.2569zm79.177 18.288h-18.232v8.8053h5.8702q-0.508 2.032-2.5964 3.3867-2.0884 1.2982-4.2333 1.2982-2.4271 0-4.1204-0.84666-1.6369-0.90311-2.5964-2.4271-0.95955-1.524-1.4111-3.4431-0.39511-1.9756-0.39511-4.2898 0-5.5316 1.9191-8.6924 1.9756-3.2173 5.8138-3.2173 2.5964 0 4.3462 1.3547 1.7498 1.2982 2.4836 3.7818h12.644q-1.1853-7.2813-6.4347-11.176-5.2493-3.8947-12.813-3.8947-4.8542 0-8.8053 1.5804t-6.7733 4.5156q-2.7658 2.9351-4.2333 6.9427-1.4676 4.0076-1.4676 8.8618 0 5.1364 1.524 9.0876 1.5804 3.9511 4.3462 6.604 2.7658 2.5964 6.2653 3.8947 3.556 1.2982 7.5636 1.2982 4.4027 0 7.3942-1.3547 2.9916-1.4111 4.8542-3.6124l0.508 4.0076h8.5796zm34.911-7.62h11.966v29.972h13.321v-29.972h11.966v-10.668h-37.253zm67.663-1.8062q2.1449 0 3.6689 0.95955 1.5804 0.90311 2.54 2.54 1.016 1.5804 1.4675 3.6124 0.4516 1.9756 0.4516 4.1204 0 5.3622-1.9756 8.5231-1.9191 3.1609-6.0395 3.1609-2.2578 0-3.8382-1.016-1.5805-1.0724-2.4836-2.7658-0.9031-1.7498-1.2982-3.7253-0.3387-2.032-0.3387-4.1769 0-2.0884 0.3951-4.064t1.2983-3.556q0.9595-1.6369 2.4835-2.5964 1.524-1.016 3.6689-1.016zm0.1129-9.9342q-4.6849 0-8.636 1.4676-3.8947 1.4676-6.7733 4.2898-2.8223 2.7658-4.3463 6.7169-1.524 3.8947-1.524 8.5796 0 5.08 1.524 9.144t4.3463 6.8862q2.8222 2.8222 6.7168 4.2898 3.9511 1.4111 8.6925 1.4111 4.5155 0 8.4102-1.4111 3.8947-1.4676 6.7733-4.2333 2.9351-2.8222 4.5156-6.8298 1.6369-4.064 1.6369-9.144 0-4.1204-1.3547-7.9022-1.2982-3.7818-4.0076-6.7733-2.6528-3.048-6.7168-4.7413-4.0076-1.7498-9.2569-1.7498zm86.614 1.0724h-11.007l-4.8542 25.118h-0.1129l-4.572-25.118h-12.869l10.104 40.64h13.095l4.6284-23.594h0.1129l4.6849 23.594h13.095l10.104-40.64h-12.869l-4.572 25.118h-0.1129zm66.252 40.64v-9.4826h-20.602v-6.3782h16.764v-9.4827h-16.764v-5.8138h19.812v-9.4827h-33.133v40.64zm29.45-16.99q3.7817 0 5.5315 0.67733 1.8062 0.67734 1.8062 3.1044 0 2.0884-1.524 2.9351-1.4675 0.79023-4.2333 0.79023h-5.8138v-7.5071zm0.4515-14.168q2.7658 0 4.064 0.56444 1.3547 0.508 1.3547 2.6529 0 1.6933-1.2982 2.6529-1.2418 0.90311-3.2738 0.90311h-5.5316v-6.7733zm1.8063 31.157q4.1204 0 7.2813-0.62088 3.2173-0.67734 5.4751-2.0884 2.3142-1.4676 3.4995-3.8382 1.2418-2.3707 1.2418-5.7009 0-3.3867-1.8062-5.9267-1.7498-2.54-4.9671-3.3867 2.2013-1.4111 3.7253-3.6689 1.5805-2.3142 1.5805-5.1929 0-2.9351-1.2418-4.9107-1.2418-2.032-3.4431-3.1609-2.2014-1.1853-5.1365-1.6369-2.9351-0.508-6.604-0.508h-19.417v40.64zm27.079-29.972h11.966v29.972h13.321v-29.972h11.966v-10.668h-37.253zm59.422 29.972h13.377l14.111-40.64h-13.434l-7.3943 27.037-7.1119-27.037h-13.434z" filter="url(#f)" style="paint-order:stroke fill markers" aria-label="CONNECTING TO WEBTV"/><path transform="matrix(.38824 0 0 .38824 -92.998 .285)" d="m567.61 174.45q-0.79023-7.9587-6.0396-12.248-5.1929-4.3462-14.393-4.3462-4.2333 0-7.9587 1.4676-3.6689 1.4676-6.4347 4.2898t-4.3462 6.7733q-1.524 3.9511-1.524 8.8053 0 4.9107 1.4676 8.9182 1.4676 3.9511 4.2898 6.7733t6.8298 4.2898 8.9747 1.4676q8.0716 0 13.264-4.4591 5.2493-4.5156 6.1524-12.361h-12.813q-0.39511 3.1044-2.0884 5.0236-1.6933 1.8627-4.7413 1.8627-2.4271 0-4.064-0.84666-1.5804-0.90311-2.4271-2.4271-0.84667-1.5804-1.1853-3.4996-0.33867-1.9191-0.33867-4.2898 0-5.8138 1.9756-8.8053 1.9756-3.048 5.5316-3.048 3.1044 0 5.0236 1.7498 1.9191 1.7498 2.2013 4.9107zm30.635-6.6604q2.1449 0 3.6689 0.95955 1.5804 0.90311 2.54 2.54 1.016 1.5804 1.4676 3.6124 0.45156 1.9756 0.45156 4.1204 0 5.3622-1.9756 8.5231-1.9191 3.1609-6.0396 3.1609-2.2578 0-3.8382-1.016-1.5804-1.0724-2.4836-2.7658-0.90311-1.7498-1.2982-3.7253-0.33867-2.032-0.33867-4.1769 0-2.0884 0.39511-4.064t1.2982-3.556q0.95956-1.6369 2.4836-2.5964 1.524-1.016 3.6689-1.016zm0.11289-9.9342q-4.6849 0-8.636 1.4676-3.8947 1.4676-6.7733 4.2898-2.8222 2.7658-4.3462 6.7169-1.524 3.8947-1.524 8.5796 0 5.08 1.524 9.144t4.3462 6.8862 6.7169 4.2898q3.9511 1.4111 8.6924 1.4111 4.5156 0 8.4102-1.4111 3.8947-1.4676 6.7733-4.2333 2.9351-2.8222 4.5156-6.8298 1.6369-4.064 1.6369-9.144 0-4.1204-1.3547-7.9022-1.2982-3.7818-4.0076-6.7733-2.6529-3.048-6.7169-4.7413-4.0076-1.7498-9.2569-1.7498zm45.198 1.0724h-12.474v40.64h12.756v-12.869l-0.508-9.2569 14.506 22.126h12.474v-40.64h-12.756v12.926l0.508 9.2569zm52.31 0h-12.474v40.64h12.756v-12.869l-0.508-9.2569 14.506 22.126h12.474v-40.64h-12.756v12.926l0.508 9.2569zm74.154 40.64v-9.4826h-20.602v-6.3782h16.764v-9.4827h-16.764v-5.8138h19.812v-9.4827h-33.133v40.64zm49.77-25.118q-0.79022-7.9587-6.0396-12.248-5.1929-4.3462-14.393-4.3462-4.2333 0-7.9587 1.4676-3.6689 1.4676-6.4347 4.2898t-4.3462 6.7733q-1.524 3.9511-1.524 8.8053 0 4.9107 1.4676 8.9182 1.4676 3.9511 4.2898 6.7733t6.8298 4.2898 8.9747 1.4676q8.0716 0 13.264-4.4591 5.2493-4.5156 6.1524-12.361h-12.813q-0.39511 3.1044-2.0884 5.0236-1.6933 1.8627-4.7413 1.8627-2.4271 0-4.064-0.84666-1.5804-0.90311-2.4271-2.4271-0.84667-1.5804-1.1853-3.4996-0.33866-1.9191-0.33866-4.2898 0-5.8138 1.9756-8.8053 1.9756-3.048 5.5316-3.048 3.1044 0 5.0236 1.7498 1.9191 1.7498 2.2013 4.9107zm9.017-4.8542h11.966v29.972h13.321v-29.972h11.966v-10.668h-37.253zm61.905 29.972v-40.64h-13.321v40.64zm26.007-40.64h-12.474v40.64h12.756v-12.869l-0.508-9.2569 14.506 22.126h12.474v-40.64h-12.756v12.926l0.508 9.2569zm79.177 18.288h-18.232v8.8053h5.8702q-0.508 2.032-2.5964 3.3867-2.0884 1.2982-4.2333 1.2982-2.4271 0-4.1204-0.84666-1.6369-0.90311-2.5964-2.4271-0.95955-1.524-1.4111-3.4431-0.39511-1.9756-0.39511-4.2898 0-5.5316 1.9191-8.6924 1.9756-3.2173 5.8138-3.2173 2.5964 0 4.3462 1.3547 1.7498 1.2982 2.4836 3.7818h12.644q-1.1853-7.2813-6.4347-11.176-5.2493-3.8947-12.813-3.8947-4.8542 0-8.8053 1.5804t-6.7733 4.5156q-2.7658 2.9351-4.2333 6.9427-1.4676 4.0076-1.4676 8.8618 0 5.1364 1.524 9.0876 1.5804 3.9511 4.3462 6.604 2.7658 2.5964 6.2653 3.8947 3.556 1.2982 7.5636 1.2982 4.4027 0 7.3942-1.3547 2.9916-1.4111 4.8542-3.6124l0.508 4.0076h8.5796zm34.911-7.62h11.966v29.972h13.321v-29.972h11.966v-10.668h-37.253zm67.663-1.8062q2.1449 0 3.6689 0.95955 1.5804 0.90311 2.54 2.54 1.016 1.5804 1.4675 3.6124 0.4516 1.9756 0.4516 4.1204 0 5.3622-1.9756 8.5231-1.9191 3.1609-6.0395 3.1609-2.2578 0-3.8382-1.016-1.5805-1.0724-2.4836-2.7658-0.9031-1.7498-1.2982-3.7253-0.3387-2.032-0.3387-4.1769 0-2.0884 0.3951-4.064t1.2983-3.556q0.9595-1.6369 2.4835-2.5964 1.524-1.016 3.6689-1.016zm0.1129-9.9342q-4.6849 0-8.636 1.4676-3.8947 1.4676-6.7733 4.2898-2.8223 2.7658-4.3463 6.7169-1.524 3.8947-1.524 8.5796 0 5.08 1.524 9.144t4.3463 6.8862q2.8222 2.8222 6.7168 4.2898 3.9511 1.4111 8.6925 1.4111 4.5155 0 8.4102-1.4111 3.8947-1.4676 6.7733-4.2333 2.9351-2.8222 4.5156-6.8298 1.6369-4.064 1.6369-9.144 0-4.1204-1.3547-7.9022-1.2982-3.7818-4.0076-6.7733-2.6528-3.048-6.7168-4.7413-4.0076-1.7498-9.2569-1.7498zm86.614 1.0724h-11.007l-4.8542 25.118h-0.1129l-4.572-25.118h-12.869l10.104 40.64h13.095l4.6284-23.594h0.1129l4.6849 23.594h13.095l10.104-40.64h-12.869l-4.572 25.118h-0.1129zm66.252 40.64v-9.4826h-20.602v-6.3782h16.764v-9.4827h-16.764v-5.8138h19.812v-9.4827h-33.133v40.64zm29.45-16.99q3.7817 0 5.5315 0.67733 1.8062 0.67734 1.8062 3.1044 0 2.0884-1.524 2.9351-1.4675 0.79023-4.2333 0.79023h-5.8138v-7.5071zm0.4515-14.168q2.7658 0 4.064 0.56444 1.3547 0.508 1.3547 2.6529 0 1.6933-1.2982 2.6529-1.2418 0.90311-3.2738 0.90311h-5.5316v-6.7733zm1.8063 31.157q4.1204 0 7.2813-0.62088 3.2173-0.67734 5.4751-2.0884 2.3142-1.4676 3.4995-3.8382 1.2418-2.3707 1.2418-5.7009 0-3.3867-1.8062-5.9267-1.7498-2.54-4.9671-3.3867 2.2013-1.4111 3.7253-3.6689 1.5805-2.3142 1.5805-5.1929 0-2.9351-1.2418-4.9107-1.2418-2.032-3.4431-3.1609-2.2014-1.1853-5.1365-1.6369-2.9351-0.508-6.604-0.508h-19.417v40.64zm27.079-29.972h11.966v29.972h13.321v-29.972h11.966v-10.668h-37.253zm59.422 29.972h13.377l14.111-40.64h-13.434l-7.3943 27.037-7.1119-27.037h-13.434z" filter="url(#g)" style="paint-order:stroke fill markers" aria-label="CONNECTING TO WEBTV"/><path transform="matrix(.38824 0 0 .38824 -92.998 .285)" d="m567.61 174.45q-0.79023-7.9587-6.0396-12.248-5.1929-4.3462-14.393-4.3462-4.2333 0-7.9587 1.4676-3.6689 1.4676-6.4347 4.2898t-4.3462 6.7733q-1.524 3.9511-1.524 8.8053 0 4.9107 1.4676 8.9182 1.4676 3.9511 4.2898 6.7733t6.8298 4.2898 8.9747 1.4676q8.0716 0 13.264-4.4591 5.2493-4.5156 6.1524-12.361h-12.813q-0.39511 3.1044-2.0884 5.0236-1.6933 1.8627-4.7413 1.8627-2.4271 0-4.064-0.84666-1.5804-0.90311-2.4271-2.4271-0.84667-1.5804-1.1853-3.4996-0.33867-1.9191-0.33867-4.2898 0-5.8138 1.9756-8.8053 1.9756-3.048 5.5316-3.048 3.1044 0 5.0236 1.7498 1.9191 1.7498 2.2013 4.9107zm30.635-6.6604q2.1449 0 3.6689 0.95955 1.5804 0.90311 2.54 2.54 1.016 1.5804 1.4676 3.6124 0.45156 1.9756 0.45156 4.1204 0 5.3622-1.9756 8.5231-1.9191 3.1609-6.0396 3.1609-2.2578 0-3.8382-1.016-1.5804-1.0724-2.4836-2.7658-0.90311-1.7498-1.2982-3.7253-0.33867-2.032-0.33867-4.1769 0-2.0884 0.39511-4.064t1.2982-3.556q0.95956-1.6369 2.4836-2.5964 1.524-1.016 3.6689-1.016zm0.11289-9.9342q-4.6849 0-8.636 1.4676-3.8947 1.4676-6.7733 4.2898-2.8222 2.7658-4.3462 6.7169-1.524 3.8947-1.524 8.5796 0 5.08 1.524 9.144t4.3462 6.8862 6.7169 4.2898q3.9511 1.4111 8.6924 1.4111 4.5156 0 8.4102-1.4111 3.8947-1.4676 6.7733-4.2333 2.9351-2.8222 4.5156-6.8298 1.6369-4.064 1.6369-9.144 0-4.1204-1.3547-7.9022-1.2982-3.7818-4.0076-6.7733-2.6529-3.048-6.7169-4.7413-4.0076-1.7498-9.2569-1.7498zm45.198 1.0724h-12.474v40.64h12.756v-12.869l-0.508-9.2569 14.506 22.126h12.474v-40.64h-12.756v12.926l0.508 9.2569zm52.31 0h-12.474v40.64h12.756v-12.869l-0.508-9.2569 14.506 22.126h12.474v-40.64h-12.756v12.926l0.508 9.2569zm74.154 40.64v-9.4826h-20.602v-6.3782h16.764v-9.4827h-16.764v-5.8138h19.812v-9.4827h-33.133v40.64zm49.77-25.118q-0.79022-7.9587-6.0396-12.248-5.1929-4.3462-14.393-4.3462-4.2333 0-7.9587 1.4676-3.6689 1.4676-6.4347 4.2898t-4.3462 6.7733q-1.524 3.9511-1.524 8.8053 0 4.9107 1.4676 8.9182 1.4676 3.9511 4.2898 6.7733t6.8298 4.2898 8.9747 1.4676q8.0716 0 13.264-4.4591 5.2493-4.5156 6.1524-12.361h-12.813q-0.39511 3.1044-2.0884 5.0236-1.6933 1.8627-4.7413 1.8627-2.4271 0-4.064-0.84666-1.5804-0.90311-2.4271-2.4271-0.84667-1.5804-1.1853-3.4996-0.33866-1.9191-0.33866-4.2898 0-5.8138 1.9756-8.8053 1.9756-3.048 5.5316-3.048 3.1044 0 5.0236 1.7498 1.9191 1.7498 2.2013 4.9107zm9.017-4.8542h11.966v29.972h13.321v-29.972h11.966v-10.668h-37.253zm61.905 29.972v-40.64h-13.321v40.64zm26.007-40.64h-12.474v40.64h12.756v-12.869l-0.508-9.2569 14.506 22.126h12.474v-40.64h-12.756v12.926l0.508 9.2569zm79.177 18.288h-18.232v8.8053h5.8702q-0.508 2.032-2.5964 3.3867-2.0884 1.2982-4.2333 1.2982-2.4271 0-4.1204-0.84666-1.6369-0.90311-2.5964-2.4271-0.95955-1.524-1.4111-3.4431-0.39511-1.9756-0.39511-4.2898 0-5.5316 1.9191-8.6924 1.9756-3.2173 5.8138-3.2173 2.5964 0 4.3462 1.3547 1.7498 1.2982 2.4836 3.7818h12.644q-1.1853-7.2813-6.4347-11.176-5.2493-3.8947-12.813-3.8947-4.8542 0-8.8053 1.5804t-6.7733 4.5156q-2.7658 2.9351-4.2333 6.9427-1.4676 4.0076-1.4676 8.8618 0 5.1364 1.524 9.0876 1.5804 3.9511 4.3462 6.604 2.7658 2.5964 6.2653 3.8947 3.556 1.2982 7.5636 1.2982 4.4027 0 7.3942-1.3547 2.9916-1.4111 4.8542-3.6124l0.508 4.0076h8.5796zm34.911-7.62h11.966v29.972h13.321v-29.972h11.966v-10.668h-37.253zm67.663-1.8062q2.1449 0 3.6689 0.95955 1.5804 0.90311 2.54 2.54 1.016 1.5804 1.4675 3.6124 0.4516 1.9756 0.4516 4.1204 0 5.3622-1.9756 8.5231-1.9191 3.1609-6.0395 3.1609-2.2578 0-3.8382-1.016-1.5805-1.0724-2.4836-2.7658-0.9031-1.7498-1.2982-3.7253-0.3387-2.032-0.3387-4.1769 0-2.0884 0.3951-4.064t1.2983-3.556q0.9595-1.6369 2.4835-2.5964 1.524-1.016 3.6689-1.016zm0.1129-9.9342q-4.6849 0-8.636 1.4676-3.8947 1.4676-6.7733 4.2898-2.8223 2.7658-4.3463 6.7169-1.524 3.8947-1.524 8.5796 0 5.08 1.524 9.144t4.3463 6.8862q2.8222 2.8222 6.7168 4.2898 3.9511 1.4111 8.6925 1.4111 4.5155 0 8.4102-1.4111 3.8947-1.4676 6.7733-4.2333 2.9351-2.8222 4.5156-6.8298 1.6369-4.064 1.6369-9.144 0-4.1204-1.3547-7.9022-1.2982-3.7818-4.0076-6.7733-2.6528-3.048-6.7168-4.7413-4.0076-1.7498-9.2569-1.7498zm86.614 1.0724h-11.007l-4.8542 25.118h-0.1129l-4.572-25.118h-12.869l10.104 40.64h13.095l4.6284-23.594h0.1129l4.6849 23.594h13.095l10.104-40.64h-12.869l-4.572 25.118h-0.1129zm66.252 40.64v-9.4826h-20.602v-6.3782h16.764v-9.4827h-16.764v-5.8138h19.812v-9.4827h-33.133v40.64zm29.45-16.99q3.7817 0 5.5315 0.67733 1.8062 0.67734 1.8062 3.1044 0 2.0884-1.524 2.9351-1.4675 0.79023-4.2333 0.79023h-5.8138v-7.5071zm0.4515-14.168q2.7658 0 4.064 0.56444 1.3547 0.508 1.3547 2.6529 0 1.6933-1.2982 2.6529-1.2418 0.90311-3.2738 0.90311h-5.5316v-6.7733zm1.8063 31.157q4.1204 0 7.2813-0.62088 3.2173-0.67734 5.4751-2.0884 2.3142-1.4676 3.4995-3.8382 1.2418-2.3707 1.2418-5.7009 0-3.3867-1.8062-5.9267-1.7498-2.54-4.9671-3.3867 2.2013-1.4111 3.7253-3.6689 1.5805-2.3142 1.5805-5.1929 0-2.9351-1.2418-4.9107-1.2418-2.032-3.4431-3.1609-2.2014-1.1853-5.1365-1.6369-2.9351-0.508-6.604-0.508h-19.417v40.64zm27.079-29.972h11.966v29.972h13.321v-29.972h11.966v-10.668h-37.253zm59.422 29.972h13.377l14.111-40.64h-13.434l-7.3943 27.037-7.1119-27.037h-13.434z" filter="url(#h)" style="paint-order:stroke fill markers" aria-label="CONNECTING TO WEBTV"/><path transform="matrix(.38824 0 0 .38824 -92.998 .285)" d="m567.61 174.45q-0.79023-7.9587-6.0396-12.248-5.1929-4.3462-14.393-4.3462-4.2333 0-7.9587 1.4676-3.6689 1.4676-6.4347 4.2898t-4.3462 6.7733q-1.524 3.9511-1.524 8.8053 0 4.9107 1.4676 8.9182 1.4676 3.9511 4.2898 6.7733t6.8298 4.2898 8.9747 1.4676q8.0716 0 13.264-4.4591 5.2493-4.5156 6.1524-12.361h-12.813q-0.39511 3.1044-2.0884 5.0236-1.6933 1.8627-4.7413 1.8627-2.4271 0-4.064-0.84666-1.5804-0.90311-2.4271-2.4271-0.84667-1.5804-1.1853-3.4996-0.33867-1.9191-0.33867-4.2898 0-5.8138 1.9756-8.8053 1.9756-3.048 5.5316-3.048 3.1044 0 5.0236 1.7498 1.9191 1.7498 2.2013 4.9107zm30.635-6.6604q2.1449 0 3.6689 0.95955 1.5804 0.90311 2.54 2.54 1.016 1.5804 1.4676 3.6124 0.45156 1.9756 0.45156 4.1204 0 5.3622-1.9756 8.5231-1.9191 3.1609-6.0396 3.1609-2.2578 0-3.8382-1.016-1.5804-1.0724-2.4836-2.7658-0.90311-1.7498-1.2982-3.7253-0.33867-2.032-0.33867-4.1769 0-2.0884 0.39511-4.064t1.2982-3.556q0.95956-1.6369 2.4836-2.5964 1.524-1.016 3.6689-1.016zm0.11289-9.9342q-4.6849 0-8.636 1.4676-3.8947 1.4676-6.7733 4.2898-2.8222 2.7658-4.3462 6.7169-1.524 3.8947-1.524 8.5796 0 5.08 1.524 9.144t4.3462 6.8862 6.7169 4.2898q3.9511 1.4111 8.6924 1.4111 4.5156 0 8.4102-1.4111 3.8947-1.4676 6.7733-4.2333 2.9351-2.8222 4.5156-6.8298 1.6369-4.064 1.6369-9.144 0-4.1204-1.3547-7.9022-1.2982-3.7818-4.0076-6.7733-2.6529-3.048-6.7169-4.7413-4.0076-1.7498-9.2569-1.7498zm45.198 1.0724h-12.474v40.64h12.756v-12.869l-0.508-9.2569 14.506 22.126h12.474v-40.64h-12.756v12.926l0.508 9.2569zm52.31 0h-12.474v40.64h12.756v-12.869l-0.508-9.2569 14.506 22.126h12.474v-40.64h-12.756v12.926l0.508 9.2569zm74.154 40.64v-9.4826h-20.602v-6.3782h16.764v-9.4827h-16.764v-5.8138h19.812v-9.4827h-33.133v40.64zm49.77-25.118q-0.79022-7.9587-6.0396-12.248-5.1929-4.3462-14.393-4.3462-4.2333 0-7.9587 1.4676-3.6689 1.4676-6.4347 4.2898t-4.3462 6.7733q-1.524 3.9511-1.524 8.8053 0 4.9107 1.4676 8.9182 1.4676 3.9511 4.2898 6.7733t6.8298 4.2898 8.9747 1.4676q8.0716 0 13.264-4.4591 5.2493-4.5156 6.1524-12.361h-12.813q-0.39511 3.1044-2.0884 5.0236-1.6933 1.8627-4.7413 1.8627-2.4271 0-4.064-0.84666-1.5804-0.90311-2.4271-2.4271-0.84667-1.5804-1.1853-3.4996-0.33866-1.9191-0.33866-4.2898 0-5.8138 1.9756-8.8053 1.9756-3.048 5.5316-3.048 3.1044 0 5.0236 1.7498 1.9191 1.7498 2.2013 4.9107zm9.017-4.8542h11.966v29.972h13.321v-29.972h11.966v-10.668h-37.253zm61.905 29.972v-40.64h-13.321v40.64zm26.007-40.64h-12.474v40.64h12.756v-12.869l-0.508-9.2569 14.506 22.126h12.474v-40.64h-12.756v12.926l0.508 9.2569zm79.177 18.288h-18.232v8.8053h5.8702q-0.508 2.032-2.5964 3.3867-2.0884 1.2982-4.2333 1.2982-2.4271 0-4.1204-0.84666-1.6369-0.90311-2.5964-2.4271-0.95955-1.524-1.4111-3.4431-0.39511-1.9756-0.39511-4.2898 0-5.5316 1.9191-8.6924 1.9756-3.2173 5.8138-3.2173 2.5964 0 4.3462 1.3547 1.7498 1.2982 2.4836 3.7818h12.644q-1.1853-7.2813-6.4347-11.176-5.2493-3.8947-12.813-3.8947-4.8542 0-8.8053 1.5804t-6.7733 4.5156q-2.7658 2.9351-4.2333 6.9427-1.4676 4.0076-1.4676 8.8618 0 5.1364 1.524 9.0876 1.5804 3.9511 4.3462 6.604 2.7658 2.5964 6.2653 3.8947 3.556 1.2982 7.5636 1.2982 4.4027 0 7.3942-1.3547 2.9916-1.4111 4.8542-3.6124l0.508 4.0076h8.5796zm34.911-7.62h11.966v29.972h13.321v-29.972h11.966v-10.668h-37.253zm67.663-1.8062q2.1449 0 3.6689 0.95955 1.5804 0.90311 2.54 2.54 1.016 1.5804 1.4675 3.6124 0.4516 1.9756 0.4516 4.1204 0 5.3622-1.9756 8.5231-1.9191 3.1609-6.0395 3.1609-2.2578 0-3.8382-1.016-1.5805-1.0724-2.4836-2.7658-0.9031-1.7498-1.2982-3.7253-0.3387-2.032-0.3387-4.1769 0-2.0884 0.3951-4.064t1.2983-3.556q0.9595-1.6369 2.4835-2.5964 1.524-1.016 3.6689-1.016zm0.1129-9.9342q-4.6849 0-8.636 1.4676-3.8947 1.4676-6.7733 4.2898-2.8223 2.7658-4.3463 6.7169-1.524 3.8947-1.524 8.5796 0 5.08 1.524 9.144t4.3463 6.8862q2.8222 2.8222 6.7168 4.2898 3.9511 1.4111 8.6925 1.4111 4.5155 0 8.4102-1.4111 3.8947-1.4676 6.7733-4.2333 2.9351-2.8222 4.5156-6.8298 1.6369-4.064 1.6369-9.144 0-4.1204-1.3547-7.9022-1.2982-3.7818-4.0076-6.7733-2.6528-3.048-6.7168-4.7413-4.0076-1.7498-9.2569-1.7498zm86.614 1.0724h-11.007l-4.8542 25.118h-0.1129l-4.572-25.118h-12.869l10.104 40.64h13.095l4.6284-23.594h0.1129l4.6849 23.594h13.095l10.104-40.64h-12.869l-4.572 25.118h-0.1129zm66.252 40.64v-9.4826h-20.602v-6.3782h16.764v-9.4827h-16.764v-5.8138h19.812v-9.4827h-33.133v40.64zm29.45-16.99q3.7817 0 5.5315 0.67733 1.8062 0.67734 1.8062 3.1044 0 2.0884-1.524 2.9351-1.4675 0.79023-4.2333 0.79023h-5.8138v-7.5071zm0.4515-14.168q2.7658 0 4.064 0.56444 1.3547 0.508 1.3547 2.6529 0 1.6933-1.2982 2.6529-1.2418 0.90311-3.2738 0.90311h-5.5316v-6.7733zm1.8063 31.157q4.1204 0 7.2813-0.62088 3.2173-0.67734 5.4751-2.0884 2.3142-1.4676 3.4995-3.8382 1.2418-2.3707 1.2418-5.7009 0-3.3867-1.8062-5.9267-1.7498-2.54-4.9671-3.3867 2.2013-1.4111 3.7253-3.6689 1.5805-2.3142 1.5805-5.1929 0-2.9351-1.2418-4.9107-1.2418-2.032-3.4431-3.1609-2.2014-1.1853-5.1365-1.6369-2.9351-0.508-6.604-0.508h-19.417v40.64zm27.079-29.972h11.966v29.972h13.321v-29.972h11.966v-10.668h-37.253zm59.422 29.972h13.377l14.111-40.64h-13.434l-7.3943 27.037-7.1119-27.037h-13.434z" filter="url(#i)" style="paint-order:stroke fill markers" aria-label="CONNECTING TO WEBTV"/><path transform="matrix(.38824 0 0 .38824 -92.998 .285)" d="m567.61 174.45q-0.79023-7.9587-6.0396-12.248-5.1929-4.3462-14.393-4.3462-4.2333 0-7.9587 1.4676-3.6689 1.4676-6.4347 4.2898t-4.3462 6.7733q-1.524 3.9511-1.524 8.8053 0 4.9107 1.4676 8.9182 1.4676 3.9511 4.2898 6.7733t6.8298 4.2898 8.9747 1.4676q8.0716 0 13.264-4.4591 5.2493-4.5156 6.1524-12.361h-12.813q-0.39511 3.1044-2.0884 5.0236-1.6933 1.8627-4.7413 1.8627-2.4271 0-4.064-0.84666-1.5804-0.90311-2.4271-2.4271-0.84667-1.5804-1.1853-3.4996-0.33867-1.9191-0.33867-4.2898 0-5.8138 1.9756-8.8053 1.9756-3.048 5.5316-3.048 3.1044 0 5.0236 1.7498 1.9191 1.7498 2.2013 4.9107zm30.635-6.6604q2.1449 0 3.6689 0.95955 1.5804 0.90311 2.54 2.54 1.016 1.5804 1.4676 3.6124 0.45156 1.9756 0.45156 4.1204 0 5.3622-1.9756 8.5231-1.9191 3.1609-6.0396 3.1609-2.2578 0-3.8382-1.016-1.5804-1.0724-2.4836-2.7658-0.90311-1.7498-1.2982-3.7253-0.33867-2.032-0.33867-4.1769 0-2.0884 0.39511-4.064t1.2982-3.556q0.95956-1.6369 2.4836-2.5964 1.524-1.016 3.6689-1.016zm0.11289-9.9342q-4.6849 0-8.636 1.4676-3.8947 1.4676-6.7733 4.2898-2.8222 2.7658-4.3462 6.7169-1.524 3.8947-1.524 8.5796 0 5.08 1.524 9.144t4.3462 6.8862 6.7169 4.2898q3.9511 1.4111 8.6924 1.4111 4.5156 0 8.4102-1.4111 3.8947-1.4676 6.7733-4.2333 2.9351-2.8222 4.5156-6.8298 1.6369-4.064 1.6369-9.144 0-4.1204-1.3547-7.9022-1.2982-3.7818-4.0076-6.7733-2.6529-3.048-6.7169-4.7413-4.0076-1.7498-9.2569-1.7498zm45.198 1.0724h-12.474v40.64h12.756v-12.869l-0.508-9.2569 14.506 22.126h12.474v-40.64h-12.756v12.926l0.508 9.2569zm52.31 0h-12.474v40.64h12.756v-12.869l-0.508-9.2569 14.506 22.126h12.474v-40.64h-12.756v12.926l0.508 9.2569zm74.154 40.64v-9.4826h-20.602v-6.3782h16.764v-9.4827h-16.764v-5.8138h19.812v-9.4827h-33.133v40.64zm49.77-25.118q-0.79022-7.9587-6.0396-12.248-5.1929-4.3462-14.393-4.3462-4.2333 0-7.9587 1.4676-3.6689 1.4676-6.4347 4.2898t-4.3462 6.7733q-1.524 3.9511-1.524 8.8053 0 4.9107 1.4676 8.9182 1.4676 3.9511 4.2898 6.7733t6.8298 4.2898 8.9747 1.4676q8.0716 0 13.264-4.4591 5.2493-4.5156 6.1524-12.361h-12.813q-0.39511 3.1044-2.0884 5.0236-1.6933 1.8627-4.7413 1.8627-2.4271 0-4.064-0.84666-1.5804-0.90311-2.4271-2.4271-0.84667-1.5804-1.1853-3.4996-0.33866-1.9191-0.33866-4.2898 0-5.8138 1.9756-8.8053 1.9756-3.048 5.5316-3.048 3.1044 0 5.0236 1.7498 1.9191 1.7498 2.2013 4.9107zm9.017-4.8542h11.966v29.972h13.321v-29.972h11.966v-10.668h-37.253zm61.905 29.972v-40.64h-13.321v40.64zm26.007-40.64h-12.474v40.64h12.756v-12.869l-0.508-9.2569 14.506 22.126h12.474v-40.64h-12.756v12.926l0.508 9.2569zm79.177 18.288h-18.232v8.8053h5.8702q-0.508 2.032-2.5964 3.3867-2.0884 1.2982-4.2333 1.2982-2.4271 0-4.1204-0.84666-1.6369-0.90311-2.5964-2.4271-0.95955-1.524-1.4111-3.4431-0.39511-1.9756-0.39511-4.2898 0-5.5316 1.9191-8.6924 1.9756-3.2173 5.8138-3.2173 2.5964 0 4.3462 1.3547 1.7498 1.2982 2.4836 3.7818h12.644q-1.1853-7.2813-6.4347-11.176-5.2493-3.8947-12.813-3.8947-4.8542 0-8.8053 1.5804t-6.7733 4.5156q-2.7658 2.9351-4.2333 6.9427-1.4676 4.0076-1.4676 8.8618 0 5.1364 1.524 9.0876 1.5804 3.9511 4.3462 6.604 2.7658 2.5964 6.2653 3.8947 3.556 1.2982 7.5636 1.2982 4.4027 0 7.3942-1.3547 2.9916-1.4111 4.8542-3.6124l0.508 4.0076h8.5796zm34.911-7.62h11.966v29.972h13.321v-29.972h11.966v-10.668h-37.253zm67.663-1.8062q2.1449 0 3.6689 0.95955 1.5804 0.90311 2.54 2.54 1.016 1.5804 1.4675 3.6124 0.4516 1.9756 0.4516 4.1204 0 5.3622-1.9756 8.5231-1.9191 3.1609-6.0395 3.1609-2.2578 0-3.8382-1.016-1.5805-1.0724-2.4836-2.7658-0.9031-1.7498-1.2982-3.7253-0.3387-2.032-0.3387-4.1769 0-2.0884 0.3951-4.064t1.2983-3.556q0.9595-1.6369 2.4835-2.5964 1.524-1.016 3.6689-1.016zm0.1129-9.9342q-4.6849 0-8.636 1.4676-3.8947 1.4676-6.7733 4.2898-2.8223 2.7658-4.3463 6.7169-1.524 3.8947-1.524 8.5796 0 5.08 1.524 9.144t4.3463 6.8862q2.8222 2.8222 6.7168 4.2898 3.9511 1.4111 8.6925 1.4111 4.5155 0 8.4102-1.4111 3.8947-1.4676 6.7733-4.2333 2.9351-2.8222 4.5156-6.8298 1.6369-4.064 1.6369-9.144 0-4.1204-1.3547-7.9022-1.2982-3.7818-4.0076-6.7733-2.6528-3.048-6.7168-4.7413-4.0076-1.7498-9.2569-1.7498zm86.614 1.0724h-11.007l-4.8542 25.118h-0.1129l-4.572-25.118h-12.869l10.104 40.64h13.095l4.6284-23.594h0.1129l4.6849 23.594h13.095l10.104-40.64h-12.869l-4.572 25.118h-0.1129zm66.252 40.64v-9.4826h-20.602v-6.3782h16.764v-9.4827h-16.764v-5.8138h19.812v-9.4827h-33.133v40.64zm29.45-16.99q3.7817 0 5.5315 0.67733 1.8062 0.67734 1.8062 3.1044 0 2.0884-1.524 2.9351-1.4675 0.79023-4.2333 0.79023h-5.8138v-7.5071zm0.4515-14.168q2.7658 0 4.064 0.56444 1.3547 0.508 1.3547 2.6529 0 1.6933-1.2982 2.6529-1.2418 0.90311-3.2738 0.90311h-5.5316v-6.7733zm1.8063 31.157q4.1204 0 7.2813-0.62088 3.2173-0.67734 5.4751-2.0884 2.3142-1.4676 3.4995-3.8382 1.2418-2.3707 1.2418-5.7009 0-3.3867-1.8062-5.9267-1.7498-2.54-4.9671-3.3867 2.2013-1.4111 3.7253-3.6689 1.5805-2.3142 1.5805-5.1929 0-2.9351-1.2418-4.9107-1.2418-2.032-3.4431-3.1609-2.2014-1.1853-5.1365-1.6369-2.9351-0.508-6.604-0.508h-19.417v40.64zm27.079-29.972h11.966v29.972h13.321v-29.972h11.966v-10.668h-37.253zm59.422 29.972h13.377l14.111-40.64h-13.434l-7.3943 27.037-7.1119-27.037h-13.434z" filter="url(#j)" style="paint-order:stroke fill markers" aria-label="CONNECTING TO WEBTV"/><path transform="matrix(.38824 0 0 .38824 -92.998 .285)" d="m567.61 174.45q-0.79023-7.9587-6.0396-12.248-5.1929-4.3462-14.393-4.3462-4.2333 0-7.9587 1.4676-3.6689 1.4676-6.4347 4.2898t-4.3462 6.7733q-1.524 3.9511-1.524 8.8053 0 4.9107 1.4676 8.9182 1.4676 3.9511 4.2898 6.7733t6.8298 4.2898 8.9747 1.4676q8.0716 0 13.264-4.4591 5.2493-4.5156 6.1524-12.361h-12.813q-0.39511 3.1044-2.0884 5.0236-1.6933 1.8627-4.7413 1.8627-2.4271 0-4.064-0.84666-1.5804-0.90311-2.4271-2.4271-0.84667-1.5804-1.1853-3.4996-0.33867-1.9191-0.33867-4.2898 0-5.8138 1.9756-8.8053 1.9756-3.048 5.5316-3.048 3.1044 0 5.0236 1.7498 1.9191 1.7498 2.2013 4.9107zm30.635-6.6604q2.1449 0 3.6689 0.95955 1.5804 0.90311 2.54 2.54 1.016 1.5804 1.4676 3.6124 0.45156 1.9756 0.45156 4.1204 0 5.3622-1.9756 8.5231-1.9191 3.1609-6.0396 3.1609-2.2578 0-3.8382-1.016-1.5804-1.0724-2.4836-2.7658-0.90311-1.7498-1.2982-3.7253-0.33867-2.032-0.33867-4.1769 0-2.0884 0.39511-4.064t1.2982-3.556q0.95956-1.6369 2.4836-2.5964 1.524-1.016 3.6689-1.016zm0.11289-9.9342q-4.6849 0-8.636 1.4676-3.8947 1.4676-6.7733 4.2898-2.8222 2.7658-4.3462 6.7169-1.524 3.8947-1.524 8.5796 0 5.08 1.524 9.144t4.3462 6.8862 6.7169 4.2898q3.9511 1.4111 8.6924 1.4111 4.5156 0 8.4102-1.4111 3.8947-1.4676 6.7733-4.2333 2.9351-2.8222 4.5156-6.8298 1.6369-4.064 1.6369-9.144 0-4.1204-1.3547-7.9022-1.2982-3.7818-4.0076-6.7733-2.6529-3.048-6.7169-4.7413-4.0076-1.7498-9.2569-1.7498zm45.198 1.0724h-12.474v40.64h12.756v-12.869l-0.508-9.2569 14.506 22.126h12.474v-40.64h-12.756v12.926l0.508 9.2569zm52.31 0h-12.474v40.64h12.756v-12.869l-0.508-9.2569 14.506 22.126h12.474v-40.64h-12.756v12.926l0.508 9.2569zm74.154 40.64v-9.4826h-20.602v-6.3782h16.764v-9.4827h-16.764v-5.8138h19.812v-9.4827h-33.133v40.64zm49.77-25.118q-0.79022-7.9587-6.0396-12.248-5.1929-4.3462-14.393-4.3462-4.2333 0-7.9587 1.4676-3.6689 1.4676-6.4347 4.2898t-4.3462 6.7733q-1.524 3.9511-1.524 8.8053 0 4.9107 1.4676 8.9182 1.4676 3.9511 4.2898 6.7733t6.8298 4.2898 8.9747 1.4676q8.0716 0 13.264-4.4591 5.2493-4.5156 6.1524-12.361h-12.813q-0.39511 3.1044-2.0884 5.0236-1.6933 1.8627-4.7413 1.8627-2.4271 0-4.064-0.84666-1.5804-0.90311-2.4271-2.4271-0.84667-1.5804-1.1853-3.4996-0.33866-1.9191-0.33866-4.2898 0-5.8138 1.9756-8.8053 1.9756-3.048 5.5316-3.048 3.1044 0 5.0236 1.7498 1.9191 1.7498 2.2013 4.9107zm9.017-4.8542h11.966v29.972h13.321v-29.972h11.966v-10.668h-37.253zm61.905 29.972v-40.64h-13.321v40.64zm26.007-40.64h-12.474v40.64h12.756v-12.869l-0.508-9.2569 14.506 22.126h12.474v-40.64h-12.756v12.926l0.508 9.2569zm79.177 18.288h-18.232v8.8053h5.8702q-0.508 2.032-2.5964 3.3867-2.0884 1.2982-4.2333 1.2982-2.4271 0-4.1204-0.84666-1.6369-0.90311-2.5964-2.4271-0.95955-1.524-1.4111-3.4431-0.39511-1.9756-0.39511-4.2898 0-5.5316 1.9191-8.6924 1.9756-3.2173 5.8138-3.2173 2.5964 0 4.3462 1.3547 1.7498 1.2982 2.4836 3.7818h12.644q-1.1853-7.2813-6.4347-11.176-5.2493-3.8947-12.813-3.8947-4.8542 0-8.8053 1.5804t-6.7733 4.5156q-2.7658 2.9351-4.2333 6.9427-1.4676 4.0076-1.4676 8.8618 0 5.1364 1.524 9.0876 1.5804 3.9511 4.3462 6.604 2.7658 2.5964 6.2653 3.8947 3.556 1.2982 7.5636 1.2982 4.4027 0 7.3942-1.3547 2.9916-1.4111 4.8542-3.6124l0.508 4.0076h8.5796zm34.911-7.62h11.966v29.972h13.321v-29.972h11.966v-10.668h-37.253zm67.663-1.8062q2.1449 0 3.6689 0.95955 1.5804 0.90311 2.54 2.54 1.016 1.5804 1.4675 3.6124 0.4516 1.9756 0.4516 4.1204 0 5.3622-1.9756 8.5231-1.9191 3.1609-6.0395 3.1609-2.2578 0-3.8382-1.016-1.5805-1.0724-2.4836-2.7658-0.9031-1.7498-1.2982-3.7253-0.3387-2.032-0.3387-4.1769 0-2.0884 0.3951-4.064t1.2983-3.556q0.9595-1.6369 2.4835-2.5964 1.524-1.016 3.6689-1.016zm0.1129-9.9342q-4.6849 0-8.636 1.4676-3.8947 1.4676-6.7733 4.2898-2.8223 2.7658-4.3463 6.7169-1.524 3.8947-1.524 8.5796 0 5.08 1.524 9.144t4.3463 6.8862q2.8222 2.8222 6.7168 4.2898 3.9511 1.4111 8.6925 1.4111 4.5155 0 8.4102-1.4111 3.8947-1.4676 6.7733-4.2333 2.9351-2.8222 4.5156-6.8298 1.6369-4.064 1.6369-9.144 0-4.1204-1.3547-7.9022-1.2982-3.7818-4.0076-6.7733-2.6528-3.048-6.7168-4.7413-4.0076-1.7498-9.2569-1.7498zm86.614 1.0724h-11.007l-4.8542 25.118h-0.1129l-4.572-25.118h-12.869l10.104 40.64h13.095l4.6284-23.594h0.1129l4.6849 23.594h13.095l10.104-40.64h-12.869l-4.572 25.118h-0.1129zm66.252 40.64v-9.4826h-20.602v-6.3782h16.764v-9.4827h-16.764v-5.8138h19.812v-9.4827h-33.133v40.64zm29.45-16.99q3.7817 0 5.5315 0.67733 1.8062 0.67734 1.8062 3.1044 0 2.0884-1.524 2.9351-1.4675 0.79023-4.2333 0.79023h-5.8138v-7.5071zm0.4515-14.168q2.7658 0 4.064 0.56444 1.3547 0.508 1.3547 2.6529 0 1.6933-1.2982 2.6529-1.2418 0.90311-3.2738 0.90311h-5.5316v-6.7733zm1.8063 31.157q4.1204 0 7.2813-0.62088 3.2173-0.67734 5.4751-2.0884 2.3142-1.4676 3.4995-3.8382 1.2418-2.3707 1.2418-5.7009 0-3.3867-1.8062-5.9267-1.7498-2.54-4.9671-3.3867 2.2013-1.4111 3.7253-3.6689 1.5805-2.3142 1.5805-5.1929 0-2.9351-1.2418-4.9107-1.2418-2.032-3.4431-3.1609-2.2014-1.1853-5.1365-1.6369-2.9351-0.508-6.604-0.508h-19.417v40.64zm27.079-29.972h11.966v29.972h13.321v-29.972h11.966v-10.668h-37.253zm59.422 29.972h13.377l14.111-40.64h-13.434l-7.3943 27.037-7.1119-27.037h-13.434z" filter="url(#k)" style="paint-order:stroke fill markers" aria-label="CONNECTING TO WEBTV"/></g><path d="m127.37 68.013q-0.3068-3.0899-2.3448-4.7552-2.0161-1.6874-5.5879-1.6874-1.6435 0-3.0899 0.56978-1.4244 0.56978-2.4982 1.6655t-1.6874 2.6297q-0.59168 1.534-0.59168 3.4186 0 1.9065 0.56978 3.4624 0.56979 1.534 1.6655 2.6297t2.6516 1.6655 3.4843 0.56978q3.1337 0 5.1496-1.7312 2.038-1.7531 2.3886-4.799h-4.9745q-0.1534 1.2053-0.8108 1.9504-0.65741 0.72318-1.8408 0.72318-0.9423 0-1.5778-0.32871-0.61357-0.35062-0.9423-0.9423-0.32871-0.61357-0.46018-1.3587-0.13148-0.74507-0.13148-1.6655 0-2.2572 0.767-3.4186 0.76701-1.1834 2.1476-1.1834 1.2052 0 1.9504 0.67934 0.74508 0.67934 0.85464 1.9065zm11.894-2.5858q0.83273 0 1.4244 0.37254 0.61358 0.35062 0.98613 0.98613 0.39445 0.61357 0.56978 1.4025 0.17532 0.76701 0.17532 1.5997 0 2.0818-0.76701 3.309-0.74507 1.2272-2.3448 1.2272-0.87657 0-1.4902-0.39445-0.61357-0.41635-0.96423-1.0738-0.35062-0.67934-0.50401-1.4463-0.13149-0.7889-0.13149-1.6216 0-0.8108 0.1534-1.5778 0.1534-0.76701 0.50401-1.3806 0.37254-0.63551 0.96424-1.008 0.59167-0.39445 1.4244-0.39445zm0.0438-3.8569q-1.8189 0-3.3528 0.56978-1.5121 0.56978-2.6297 1.6655-1.0957 1.0738-1.6874 2.6078-0.59168 1.5121-0.59168 3.3309 0 1.9723 0.59168 3.5501 0.59168 1.5778 1.6874 2.6735 1.0957 1.0957 2.6078 1.6655 1.534 0.54785 3.3747 0.54785 1.7531 0 3.2652-0.54785 1.5121-0.56978 2.6297-1.6435 1.1395-1.0957 1.7531-2.6516 0.63551-1.5778 0.63551-3.5501 0-1.5997-0.52595-3.068-0.50402-1.4682-1.5559-2.6297-1.03-1.1834-2.6078-1.8408-1.5559-0.67934-3.5939-0.67934zm17.548 0.41635h-4.8429v15.778h4.9524v-4.9963l-0.19722-3.5939 5.6318 8.5902h4.8429v-15.778h-4.9524v5.0184l0.19723 3.5939zm20.309 0h-4.8429v15.778h4.9524v-4.9963l-0.19723-3.5939 5.6318 8.5902h4.8429v-15.778h-4.9524v5.0184l0.19722 3.5939zm28.79 15.778v-3.6815h-7.9985v-2.4763h6.5085v-3.6816h-6.5085v-2.2571h7.6918v-3.6816h-12.864v15.778zm19.323-9.7518q-0.3068-3.0899-2.3448-4.7552-2.0161-1.6874-5.5879-1.6874-1.6435 0-3.0899 0.56978-1.4244 0.56978-2.4982 1.6655t-1.6874 2.6297q-0.59168 1.534-0.59168 3.4186 0 1.9065 0.56979 3.4624 0.56978 1.534 1.6655 2.6297t2.6516 1.6655 3.4843 0.56978q3.1337 0 5.1496-1.7312 2.038-1.7531 2.3886-4.799h-4.9745q-0.1534 1.2053-0.8108 1.9504-0.65741 0.72317-1.8408 0.72317-0.9423 0-1.5778-0.32871-0.61357-0.35062-0.9423-0.9423-0.32871-0.61358-0.46018-1.3587-0.13148-0.74507-0.13148-1.6655 0-2.2572 0.76701-3.4186 0.767-1.1834 2.1476-1.1834 1.2052 0 1.9504 0.67934 0.74507 0.67934 0.85463 1.9065zm3.5008-1.8846h4.6457v11.636h5.1717v-11.636h4.6457v-4.1417h-14.463zm24.034 11.636v-15.778h-5.1717v15.778zm10.097-15.778h-4.8429v15.778h4.9524v-4.9963l-0.19723-3.5939 5.6318 8.5902h4.8429v-15.778h-4.9524v5.0184l0.19722 3.5939zm30.74 7.1001h-7.0784v3.4186h2.279q-0.19723 0.7889-1.008 1.3149-0.8108 0.50401-1.6435 0.50401-0.94229 0-1.5997-0.32871-0.63551-0.35062-1.008-0.9423-0.37253-0.59168-0.54784-1.3367-0.1534-0.76701-0.1534-1.6655 0-2.1476 0.74507-3.3747 0.76701-1.2491 2.2572-1.2491 1.008 0 1.6874 0.52595 0.67934 0.50401 0.96423 1.4682h4.9089q-0.46018-2.8269-2.4982-4.339-2.038-1.5121-4.9745-1.5121-1.8846 0-3.4186 0.61358-1.534 0.61357-2.6297 1.7531-1.0738 1.1395-1.6435 2.6954-0.56978 1.5559-0.56978 3.4405 0 1.9942 0.59168 3.5282 0.61357 1.534 1.6874 2.5639 1.0738 1.008 2.4324 1.5121 1.3806 0.50401 2.9365 0.50401 1.7093 0 2.8707-0.52595 1.1615-0.54784 1.8846-1.4025l0.19722 1.5559h3.331zm13.554-2.9584h4.6457v11.636h5.1718v-11.636h4.6457v-4.1417h-14.463zm26.269-0.70124q0.83274 0 1.4244 0.37254 0.61357 0.35062 0.98613 0.98613 0.39445 0.61357 0.56974 1.4025 0.17533 0.76701 0.17533 1.5997 0 2.0818-0.76701 3.309-0.74507 1.2272-2.3448 1.2272-0.87657 0-1.4902-0.39445-0.61361-0.41635-0.96423-1.0738-0.35062-0.67934-0.50401-1.4463-0.1315-0.7889-0.1315-1.6216 0-0.8108 0.15339-1.5778 0.1534-0.76701 0.50406-1.3806 0.37251-0.63551 0.96419-1.008 0.59168-0.39445 1.4244-0.39445zm0.0438-3.8569q-1.8189 0-3.3528 0.56978-1.5121 0.56978-2.6297 1.6655-1.0957 1.0738-1.6874 2.6078-0.59168 1.5121-0.59168 3.3309 0 1.9723 0.59168 3.5501 0.59168 1.5778 1.6874 2.6735 1.0957 1.0957 2.6077 1.6655 1.534 0.54784 3.3748 0.54784 1.7531 0 3.2652-0.54784 1.5121-0.56978 2.6297-1.6435 1.1395-1.0957 1.7531-2.6516 0.63551-1.5778 0.63551-3.5501 0-1.5997-0.52594-3.068-0.50402-1.4682-1.5559-2.6297-1.0299-1.1834-2.6077-1.8408-1.5559-0.67934-3.5939-0.67934zm33.627 0.41635h-4.2734l-1.8846 9.7518h-0.0438l-1.775-9.7518h-4.9963l3.9228 15.778h5.084l1.7969-9.1601h0.0438l1.8189 9.1601h5.084l3.9228-15.778h-4.9963l-1.775 9.7518h-0.0438zm25.722 15.778v-3.6815h-7.9985v-2.4763h6.5085v-3.6816h-6.5085v-2.2572h7.6918v-3.6816h-12.864v15.778zm11.434-6.5962q1.4682 0 2.1476 0.26297 0.70124 0.26297 0.70124 1.2053 0 0.8108-0.59168 1.1395-0.56974 0.3068-1.6435 0.3068h-2.2572v-2.9146zm0.17529-5.5006q1.0738 0 1.5778 0.21914 0.52595 0.19723 0.52595 1.03 0 0.65741-0.50402 1.03-0.48211 0.35062-1.271 0.35062h-2.1476v-2.6297zm0.70128 12.096q1.5997 0 2.8269-0.24105 1.2491-0.26297 2.1256-0.8108 0.89847-0.56978 1.3586-1.4901 0.48212-0.9204 0.48212-2.2133 0-1.3149-0.70124-2.301-0.67935-0.98613-1.9284-1.3149 0.85463-0.54784 1.4463-1.4244 0.61361-0.89846 0.61361-2.0161 0-1.1395-0.48211-1.9065-0.48212-0.7889-1.3368-1.2272-0.85467-0.46018-1.9942-0.63551-1.1395-0.19723-2.5639-0.19723h-7.5385v15.778zm10.513-11.636h4.6457v11.636h5.1717v-11.636h4.6457v-4.1417h-14.463zm23.07 11.636h5.1935l5.4785-15.778h-5.2156l-2.8708 10.497-2.7611-10.497h-5.2156z" stroke-linejoin="bevel" stroke-width=".10871" style="paint-order:stroke fill markers" aria-label="CONNECTING TO WEBTV"/><g mask="url(#c)"><path d="m441 215v-18h-36v17h-13v-28h-17v28h-3v-9h-7v10h-1v-13h-12v12h-1v-4h-3v-6h-2v-34h-11v26h-8v-8h-8v8h-7v-36h-10v-2h-1v-1h-5v1h-1v-8h-3v-10h-2v-5h-2v5h-1v10h-3v10h-4v55h-4v-81h-20v53h-3v-20l-3.5-1e-5v-8.5h-2v8.5l-10.5 1e-5v-16h-5v16h-6v28h-10l-1-15s-1-9-8-9-8 9-8 9l-1 32h-2v-12h-7v-7h-25v14h-6v7h-6v-26h-32v27z" fill="#efbd39" fill-opacity=".8" filter="url(#e)" style="mix-blend-mode:normal;paint-order:fill markers stroke"/><path d="m247.5 159.5h2v8.5h-2z" fill="url(#b)" fill-opacity=".35" filter="url(#d)" stroke-width="0" style="mix-blend-mode:normal;paint-order:fill markers stroke"/><path transform="scale(1,-1)" d="m371-216a93 96 0 0 1-46.5 83.138 93 96 0 0 1-93 0 93 96 0 0 1-46.5-83.138" fill="url(#a)" style="paint-order:fill markers stroke"/><path d="m441 216v-18h-36v17h-13v-28h-17v28h-3v-9h-7v10h-1v-13h-12v12h-1v-4h-3v-6h-2v-34h-11v26h-8v-8h-8v8h-7v-36h-10v-2h-1v-1h-5v1h-1v-8h-3v-10h-2v-5h-2v5h-1v10h-3v10h-4v55h-4v-81h-20v53h-3v-20h-4v-8h-1v8h-11v-16h-5v16h-6v28h-10v-15h-1s-1-9-8-9-8 9-8 9h-1v28h-2v-8h-7v-7h-25v14h-6v7h-6v-26h-32v27z" style="paint-order:fill markers stroke"/><g fill="#cee78c"><rect x="229" y="177" width="1" height="1" style="paint-order:fill markers stroke"/><rect x="229" y="180" width="1" height="1" style="paint-order:fill markers stroke"/><rect x="229" y="183" width="1" height="1" style="paint-order:fill markers stroke"/><rect x="148" y="194" width="1" height="1" style="paint-order:fill markers stroke"/><rect x="141" y="192" width="1" height="1" style="paint-order:fill markers stroke"/></g><g fill="#00ff21"><rect x="234" y="153" width="1" height="1" style="paint-order:fill markers stroke"/><rect x="234" y="156" width="1" height="1" style="paint-order:fill markers stroke"/><rect x="234" y="159" width="1" height="1" style="paint-order:fill markers stroke"/><rect x="235" y="165" width="1" height="1" style="paint-order:fill markers stroke"/><rect x="202" y="181" width="1" height="1" style="paint-order:fill markers stroke"/><rect x="208" y="181" width="1" height="1" style="paint-order:fill markers stroke"/><rect x="211" y="182" width="1" height="1" style="paint-order:fill markers stroke"/><rect x="200" y="191" width="1" height="1" style="paint-order:fill markers stroke"/><rect x="178" y="198" width="1" height="1" style="paint-order:fill markers stroke"/><rect x="183" y="200" width="1" height="1" style="paint-order:fill markers stroke"/><rect x="183" y="202" width="1" height="1" style="paint-order:fill markers stroke"/><rect x="300" y="187" width="1" height="1" style="paint-order:fill markers stroke"/><rect x="301" y="190" width="1" height="1" style="paint-order:fill markers stroke"/><rect x="316" y="199" width="1" height="1" style="paint-order:fill markers stroke"/><rect x="315" y="201" width="1" height="1" style="paint-order:fill markers stroke"/><rect x="317" y="203" width="1" height="1" style="paint-order:fill markers stroke"/><rect x="337" y="175" width="1" height="1" style="paint-order:fill markers stroke"/><rect x="341" y="175" width="1" height="1" style="paint-order:fill markers stroke"/><rect x="344" y="178" width="1" height="1" style="paint-order:fill markers stroke"/><rect x="337" y="179" width="1" height="1" style="paint-order:fill markers stroke"/><rect x="337" y="183" width="1" height="1" style="paint-order:fill markers stroke"/><rect x="290" y="146" width="1" height="1" style="paint-order:fill markers stroke"/><rect x="290" y="148" width="1" height="1" style="paint-order:fill markers stroke"/><rect x="388" y="191" width="1" height="1" style="paint-order:fill markers stroke"/><rect x="388" y="193" width="1" height="1" style="paint-order:fill markers stroke"/><rect x="410" y="203" width="1" height="1" style="paint-order:fill markers stroke"/></g><g fill="#94ced6"><rect x="219" y="199" width="1" height="1" style="paint-order:fill markers stroke"/><rect x="221" y="199" width="1" height="1" style="paint-order:fill markers stroke"/><rect x="220" y="205" width="1" height="1" style="paint-order:fill markers stroke"/><rect x="289" y="200" width="1" height="1" style="paint-order:fill markers stroke"/><rect x="289" y="203" width="1" height="1" style="paint-order:fill markers stroke"/><rect x="289" y="206" width="1" height="1" style="paint-order:fill markers stroke"/><rect x="378" y="201" width="1" height="1" style="paint-order:fill markers stroke"/><rect x="377" y="204" width="1" height="1" style="paint-order:fill markers stroke"/><rect x="308" y="175" width="1" height="1" style="paint-order:fill markers stroke"/></g><g fill="#f00"><rect x="261" y="134" width="2" height="1" style="paint-order:fill markers stroke"/><rect x="233" y="151" width="2" height="1" style="paint-order:fill markers stroke"/><rect x="206" y="171" width="1" height="1" style="paint-order:fill markers stroke"/><rect x="289" y="135" width="1" height="1" style="paint-order:fill markers stroke"/><rect x="298" y="157" width="1" height="1" style="paint-order:fill markers stroke"/><rect x="341" y="170" width="3" height="1" style="paint-order:fill markers stroke"/></g><g fill="#fff"><rect x="273" y="139" width="1" height="1" style="paint-order:fill markers stroke"/><rect x="270" y="139" width="1" height="1" style="paint-order:fill markers stroke"/><rect x="267" y="139" width="1" height="1" style="paint-order:fill markers stroke"/><rect x="263" y="139" width="1" height="1" style="paint-order:fill markers stroke"/><rect x="273" y="145" width="1" height="1" style="paint-order:fill markers stroke"/><rect x="273" y="151" width="1" height="1" style="paint-order:fill markers stroke"/><rect x="270" y="151" width="1" height="1" style="paint-order:fill markers stroke"/><rect x="261" y="160" width="1" height="1" style="paint-order:fill markers stroke"/><rect x="261" y="163" width="1" height="1" style="paint-order:fill markers stroke"/><rect x="270" y="167" width="1" height="1" style="paint-order:fill markers stroke"/><rect x="270" y="179" width="1" height="1" style="paint-order:fill markers stroke"/><rect x="270" y="183" width="1" height="1" style="paint-order:fill markers stroke"/><rect x="265" y="183" width="2" height="1" style="paint-order:fill markers stroke"/><rect x="248" y="175" width="1" height="1" style="paint-order:fill markers stroke"/><rect x="248" y="187" width="1" height="1" style="paint-order:fill markers stroke"/><rect x="248" y="191" width="1" height="1" style="paint-order:fill markers stroke"/><rect x="240" y="191" width="1" height="1" style="paint-order:fill markers stroke"/><rect x="248" y="199" width="1" height="1" style="paint-order:fill markers stroke"/><rect x="270" y="207" width="1" height="2" style="paint-order:fill markers stroke"/><rect x="209" y="191" width="1" height="1" style="paint-order:fill markers stroke"/><rect x="209" y="203" width="1" height="1" style="paint-order:fill markers stroke"/><rect x="292" y="163" width="1" height="1" style="paint-order:fill markers stroke"/><rect x="292" y="167" width="1" height="1" style="paint-order:fill markers stroke"/><rect x="292" y="171" width="1" height="1" style="paint-order:fill markers stroke"/><rect x="328" y="204" width="1" height="1" style="paint-order:fill markers stroke"/><rect x="328" y="208" width="1" height="1" style="paint-order:fill markers stroke"/><rect x="336" y="203" width="1" height="1" style="paint-order:fill markers stroke"/><rect x="356" y="207" width="1" height="1" style="paint-order:fill markers stroke"/><rect x="356" y="211" width="1" height="1" style="paint-order:fill markers stroke"/></g></g><metadata><rdf:RDF><cc:Work rdf:about=""><dc:title>WebTV Dialing</dc:title></cc:Work></rdf:RDF></metadata></svg>
