<?xml version="1.0" encoding="UTF-8" standalone="no"?>
<svg
   version="1.1"
   id="svg1"
   sodipodi:docname="Discord.svg"
   width="128"
   height="102.522"
   inkscape:version="1.3 (0e150ed6c4, 2023-07-21)"
   xmlns:inkscape="http://www.inkscape.org/namespaces/inkscape"
   xmlns:sodipodi="http://sodipodi.sourceforge.net/DTD/sodipodi-0.dtd"
   xmlns:xlink="http://www.w3.org/1999/xlink"
   xmlns="http://www.w3.org/2000/svg"
   xmlns:svg="http://www.w3.org/2000/svg">
  <defs
     id="defs1">
    <linearGradient
       id="linearGradient418"
       inkscape:collect="always">
      <stop
         style="stop-color:#0088ff;stop-opacity:1;"
         offset="0"
         id="stop418" />
      <stop
         style="stop-color:#002244;stop-opacity:1;"
         offset="1"
         id="stop419" />
    </linearGradient>
    <filter
       style="color-interpolation-filters:sRGB"
       inkscape:label="Drop Shadow"
       id="filter103"
       x="-0.05625"
       y="-0.073125064"
       width="1.159375"
       height="1.2071877">
      <feFlood
         result="flood"
         in="SourceGraphic"
         flood-opacity="0.498039"
         flood-color="rgb(0,0,0)"
         id="feFlood102" />
      <feGaussianBlur
         result="blur"
         in="SourceGraphic"
         stdDeviation="1.500000"
         id="feGaussianBlur102" />
      <feOffset
         result="offset"
         in="blur"
         dx="3.000000"
         dy="3.000000"
         id="feOffset102" />
      <feComposite
         result="comp1"
         operator="in"
         in="flood"
         in2="offset"
         id="feComposite102" />
      <feComposite
         result="comp2"
         operator="over"
         in="SourceGraphic"
         in2="comp1"
         id="feComposite103" />
    </filter>
    <radialGradient
       inkscape:collect="always"
       xlink:href="#linearGradient418"
       id="radialGradient419"
       cx="34.78125"
       cy="29.697359"
       fx="34.78125"
       fy="29.697359"
       r="37.099998"
       gradientTransform="matrix(1,0,0,0.80095319,2.3179564e-8,5.1981796)"
       gradientUnits="userSpaceOnUse"
       spreadMethod="pad" />
  </defs>
  <sodipodi:namedview
     id="namedview1"
     pagecolor="#505050"
     bordercolor="#ffffff"
     borderopacity="1"
     inkscape:showpageshadow="0"
     inkscape:pageopacity="0"
     inkscape:pagecheckerboard="1"
     inkscape:deskcolor="#505050"
     inkscape:zoom="2.8284271"
     inkscape:cx="55.861436"
     inkscape:cy="55.154329"
     inkscape:window-width="1287"
     inkscape:window-height="747"
     inkscape:window-x="-4"
     inkscape:window-y="-4"
     inkscape:window-maximized="1"
     inkscape:current-layer="svg1"
     showgrid="true">
    <inkscape:grid
       id="grid1"
       units="px"
       originx="0"
       originy="0"
       spacingx="1"
       spacingy="1"
       empcolor="#0099e5"
       empopacity="0.30196078"
       color="#0099e5"
       opacity="0.14901961"
       empspacing="5"
       dotted="false"
       gridanglex="30"
       gridanglez="30"
       visible="true" />
  </sodipodi:namedview>
  <path
     fill="white"
     d="M 57.805987,7.7272825 C 53.59553,5.7653051 49.157872,4.3847304 44.605261,3.6 c -0.6208,1.1365947 -1.190153,2.3004066 -1.692553,3.4914431 -4.843811,-0.7309532 -9.780668,-0.7309532 -14.627679,0 C 27.769829,5.9004066 27.203676,4.7365996 26.582877,3.6134476 22.014117,4.3985051 17.576484,5.7787501 13.366051,7.7410672 4.9963599,20.285598 2.7376444,32.532405 3.8734317,44.589502 c 4.8983094,3.667197 10.3756713,6.454887 16.1986073,8.241224 1.308577,-1.786337 2.469955,-3.694027 3.461781,-5.683688 -1.890853,-0.717046 -3.724058,-1.596552 -5.46776,-2.652305 0.463925,-0.337969 0.911801,-0.67643 1.346927,-1.055506 10.257395,4.898949 22.114369,4.898949 32.37479,0 0.435199,0.365537 0.883199,0.717537 1.331199,1.055506 -1.740553,1.042215 -3.577105,1.935259 -5.464857,2.652305 1.004799,1.989661 2.153352,3.884059 3.458705,5.670149 5.82301,-1.78609 11.300421,-4.57378 16.198632,-8.240977 h 0.016 C 68.658409,30.610684 65.05595,18.485599 57.805987,7.7272825 Z M 24.967149,37.171171 c -3.157831,0 -5.758912,-2.936614 -5.758912,-6.509041 0,-3.572378 2.537105,-6.508966 5.758912,-6.508966 3.22188,0 5.806985,2.936588 5.755785,6.508966 0,3.572427 -2.549905,6.509041 -5.755785,6.509041 z m 21.257064,0 c -3.157905,0 -5.75901,-2.936614 -5.75901,-6.509041 0,-3.572378 2.549905,-6.508966 5.75901,-6.508966 3.205658,0 5.806764,2.936588 5.755564,6.508966 0,3.572427 -2.549906,6.509041 -5.755564,6.509041 z"
     id="path1"
     style="fill:url(#radialGradient419);filter:url(#filter103)"
     transform="scale(1.7250674)" />
</svg>
