<?xml version="1.0" encoding="UTF-8"?>
<svg width="128" height="102.52" version="1.1" xmlns="http://www.w3.org/2000/svg" xmlns:xlink="http://www.w3.org/1999/xlink"><defs><filter id="b" x="-.075" y="-.0975" width="1.1969" height="1.2559" color-interpolation-filters="sRGB"><feFlood flood-color="rgb(0,0,0)" flood-opacity=".49804" in="SourceGraphic" result="flood"/><feGaussianBlur in="SourceGraphic" result="blur" stdDeviation="1.500000"/><feOffset dx="3.000000" dy="3.000000" in="blur" result="offset"/><feComposite in="flood" in2="offset" operator="in" result="comp1"/><feComposite in="SourceGraphic" in2="comp1" result="fbSourceGraphic"/><feColorMatrix in="fbSourceGraphic" result="fbSourceGraphicAlpha" values="0 0 0 -1 0 0 0 0 -1 0 0 0 0 -1 0 0 0 0 1 0"/><feGaussianBlur in="fbSourceGraphic" result="blur" stdDeviation="0.5"/><feDiffuseLighting lighting-color="rgb(255,255,255)" result="diffuse" surfaceScale="10"><feDistantLight azimuth="45" elevation="165"/></feDiffuseLighting><feComposite in="diffuse" in2="diffuse" k1="1" operator="arithmetic" result="composite1"/><feComposite in="composite1" in2="fbSourceGraphic" k1="1" k3="1" operator="arithmetic" result="composite2"/></filter><radialGradient id="a" cx="34.781" cy="29.697" r="37.1" gradientTransform="matrix(1 0 0 .80095 2.318e-8 5.1982)" gradientUnits="userSpaceOnUse"><stop stop-color="#0080ff" offset="0"/><stop stop-color="#012" offset="1"/></radialGradient></defs><path transform="scale(1.7251)" d="m57.806 7.7273c-4.2105-1.962-8.6481-3.3426-13.201-4.1273-0.6208 1.1366-1.1902 2.3004-1.6926 3.4914-4.8438-0.73095-9.7807-0.73095-14.628 0-0.5152-1.191-1.0814-2.3548-1.7022-3.478-4.5688 0.78506-9.0064 2.1653-13.217 4.1276-8.3697 12.545-10.628 24.791-9.4926 36.848 4.8983 3.6672 10.376 6.4549 16.199 8.2412 1.3086-1.7863 2.47-3.694 3.4618-5.6837-1.8909-0.71705-3.7241-1.5966-5.4678-2.6523 0.46392-0.33797 0.9118-0.67643 1.3469-1.0555 10.257 4.8989 22.114 4.8989 32.375 0 0.4352 0.36554 0.8832 0.71754 1.3312 1.0555-1.7406 1.0422-3.5771 1.9353-5.4649 2.6523 1.0048 1.9897 2.1534 3.8841 3.4587 5.6701 5.823-1.7861 11.3-4.5738 16.199-8.241h0.016c1.331-13.966-2.2715-26.091-9.5215-36.849zm-32.839 29.444c-3.1578 0-5.7589-2.9366-5.7589-6.509 0-3.5724 2.5371-6.509 5.7589-6.509 3.2219 0 5.807 2.9366 5.7558 6.509 0 3.5724-2.5499 6.509-5.7558 6.509zm21.257 0c-3.1579 0-5.759-2.9366-5.759-6.509 0-3.5724 2.5499-6.509 5.759-6.509 3.2057 0 5.8068 2.9366 5.7556 6.509 0 3.5724-2.5499 6.509-5.7556 6.509z" fill="url(#a)" filter="url(#b)"/></svg>
