<?xml version="1.0" encoding="UTF-8" standalone="no"?>
<!-- Created with Inkscape (http://www.inkscape.org/) -->

<svg
   width="74.347466"
   height="265.25201"
   viewBox="0 0 74.347466 265.25201"
   version="1.1"
   id="svg1"
   xml:space="preserve"
   sodipodi:docname="Home.svg"
   inkscape:version="1.3 (0e150ed6c4, 2023-07-21)"
   xmlns:inkscape="http://www.inkscape.org/namespaces/inkscape"
   xmlns:sodipodi="http://sodipodi.sourceforge.net/DTD/sodipodi-0.dtd"
   xmlns="http://www.w3.org/2000/svg"
   xmlns:svg="http://www.w3.org/2000/svg"
   xmlns:rdf="http://www.w3.org/1999/02/22-rdf-syntax-ns#"
   xmlns:cc="http://creativecommons.org/ns#"
   xmlns:dc="http://purl.org/dc/elements/1.1/"><title
     id="title1">Home text</title><sodipodi:namedview
     id="namedview1"
     pagecolor="#505050"
     bordercolor="#ffffff"
     borderopacity="1"
     inkscape:showpageshadow="0"
     inkscape:pageopacity="0"
     inkscape:pagecheckerboard="1"
     inkscape:deskcolor="#505050"
     inkscape:document-units="mm"
     showgrid="true"
     inkscape:zoom="1.4142136"
     inkscape:cx="-11.667262"
     inkscape:cy="130.81475"
     inkscape:window-width="1287"
     inkscape:window-height="747"
     inkscape:window-x="-4"
     inkscape:window-y="-4"
     inkscape:window-maximized="1"
     inkscape:current-layer="layer1"><inkscape:grid
       id="grid2"
       units="px"
       originx="-0.51547318"
       originy="14.666063"
       spacingx="0.26458333"
       spacingy="0.26458333"
       empcolor="#0099e5"
       empopacity="0.30196078"
       color="#0099e5"
       opacity="0.14901961"
       empspacing="5"
       dotted="false"
       gridanglex="30"
       gridanglez="30"
       visible="true" /></sodipodi:namedview><defs
     id="defs1"><filter
       inkscape:collect="always"
       style="color-interpolation-filters:sRGB"
       id="filter1"
       x="-0.0048793303"
       y="-0.018027804"
       width="1.0097587"
       height="1.0360556"><feGaussianBlur
         inkscape:collect="always"
         stdDeviation="0.13786331"
         id="feGaussianBlur1" /></filter></defs><g
     inkscape:label="Text"
     inkscape:groupmode="layer"
     id="layer1"
     transform="rotate(-90,20.709499,41.066709)"
     style="opacity:1"><path
       d="M -14.511686,37.796936 V 21.149869 h -2.834973 v -0.68523 h 8.8945586 v 0.68523 h -2.8618446 v 7.698765 h 7.77938 v -7.698765 h -2.8081008 v -0.68523 h 8.840815 v 0.68523 h -2.8349726 v 16.647067 h 2.8349726 v 0.68523 h -8.840815 v -0.68523 h 2.8081008 v -8.263072 h -7.77938 v 8.263072 h 2.8618446 v 0.68523 h -8.8945586 v -0.68523 z M 4.9703537,33.17499 q 0,-2.324409 1.5988708,-3.950151 1.5988708,-1.639179 3.9635875,-1.639179 2.310973,0 3.909843,1.571999 1.612307,1.558563 1.612307,3.909844 0,2.405024 -1.66605,4.08451 -1.66605,1.666051 -3.936716,1.666051 -2.2303572,0 -3.8560998,-1.625743 Q 4.9703537,35.553142 4.9703537,33.17499 Z m 8.0615333,0 q 0,-2.472203 -0.174666,-3.264921 -0.161231,-0.792717 -0.75241,-1.249538 -0.577743,-0.470256 -1.598871,-0.470256 -0.9673841,0 -1.5988708,0.483692 -0.6180509,0.470256 -0.7658457,1.262974 -0.1477948,0.792717 -0.1477948,3.264921 0,2.485639 0.1746666,3.291793 0.1881024,0.806153 0.7927174,1.262973 0.6180509,0.456821 1.5451273,0.456821 0.940512,0 1.558563,-0.456821 0.631487,-0.470256 0.792718,-1.289845 0.174666,-0.833025 0.174666,-3.291793 z m 7.107586,4.621946 v -9.190148 h -1.89446 v -0.68523 h 1.182358 q 2.095999,0 3.332101,-0.174667 v 2.593127 h 0.05374 q 1.061436,-2.593127 3.788921,-2.593127 2.969331,0 3.278357,2.754357 h 0.05374 q 1.168923,-2.754357 3.882972,-2.754357 1.20923,0 2.02882,0.604615 0.833025,0.604615 1.021127,1.397332 0.201539,0.792718 0.201539,2.619999 v 5.428099 h 1.867588 v 0.68523 h -6.247688 v -0.68523 h 1.760101 v -6.637329 q 0,-1.571999 -0.188102,-2.163178 -0.174667,-0.591179 -0.967384,-0.591179 -1.088307,0 -2.243794,1.236101 -1.14205,1.222666 -1.14205,4.662254 v 3.493331 h 1.733229 v 0.68523 h -6.086457 v -0.68523 h 1.746665 v -5.199689 q 0,-3.036511 -0.22841,-3.614254 -0.214974,-0.577743 -1.047999,-0.577743 -1.142051,0 -2.001948,1.007691 -0.846461,1.007692 -1.061435,1.96164 -0.201538,0.953948 -0.201538,3.036511 v 3.385844 h 1.733229 v 0.68523 h -6.247688 v -0.68523 z m 30.324801,-5.401227 h -6.79856 q -0.09405,3.977023 0.443384,4.904099 0.537436,0.913641 1.921333,0.913641 2.848408,0 3.8561,-3.305229 h 0.577743 q -0.443384,2.001947 -1.679486,2.955895 -1.236102,0.953949 -2.754357,0.953949 -2.163179,0 -3.762049,-1.598871 -1.598871,-1.612307 -1.598871,-4.044203 0,-2.364716 1.558563,-3.977023 1.571999,-1.612307 3.641126,-1.612307 1.800409,0 3.143998,1.27641 1.357025,1.276409 1.451076,3.533639 z m -6.79856,-0.604615 h 3.909844 q 0.107487,-0.953949 0.107487,-1.451076 0,-2.149743 -1.948204,-2.149743 -0.967384,0 -1.518255,0.524 -0.550872,0.510564 -0.550872,1.397332 z"
       id="text2"
       style="font-size:27.5167px;font-family:'Bodoni MT';-inkscape-font-specification:'Bodoni MT';fill-opacity:0.753846;stroke-width:0;stroke-linejoin:bevel;paint-order:stroke fill markers;filter:url(#filter1)"
       inkscape:label="Shadow"
       transform="matrix(3.8675982,0,0,3.8675654,-134.67902,-57.51145)"
       aria-label="Home" /><path
       d="M -192.51124,90.755349 V 26.370905 h -10.96458 v -2.650207 h 34.40072 v 2.650207 h -11.06851 v 29.775856 h 30.08765 V 26.370905 h -10.86066 v -2.650207 h 34.19287 v 2.650207 h -10.96458 v 64.384444 h 10.96458 v 2.650207 h -34.19287 v -2.650207 h 10.86066 v -31.95838 h -30.08765 v 31.95838 h 11.06851 v 2.650207 h -34.40072 v -2.650207 z m 75.34903,-17.875907 q 0,-8.989919 6.18381,-15.277665 6.18382,-6.339711 15.329632,-6.339711 8.937953,0 15.12177,6.079887 6.235781,6.027922 6.235781,15.12177 0,9.301707 -6.44364,15.797313 -6.443641,6.443641 -15.2257,6.443641 -8.626163,0 -14.913913,-6.287746 -6.28774,-6.339712 -6.28774,-15.537489 z m 31.178903,0 q 0,-9.561532 -0.675543,-12.627458 -0.623578,-3.065926 -2.910031,-4.83273 -2.234489,-1.81877 -6.183817,-1.81877 -3.741469,0 -6.183812,1.870735 -2.39039,1.818769 -2.962,4.884695 -0.57161,3.065926 -0.57161,12.627457 0,9.613497 0.67554,12.731388 0.72751,3.11789 3.06592,4.884695 2.390388,1.766805 5.975962,1.766805 3.637539,0 6.027922,-1.766805 2.442348,-1.81877 3.065926,-4.988625 0.675543,-3.221821 0.675543,-12.731387 z m 27.489413,17.875907 V 55.211394 h -7.327043 v -2.650207 h 4.572906 q 8.106516,0 12.887282,-0.675543 v 10.029215 h 0.207859 q 4.105223,-10.029215 14.654086,-10.029215 11.484231,0 12.679423,10.652793 h 0.207859 q 4.520942,-10.652793 15.0178405,-10.652793 4.67683605,0 7.8466916,2.338418 3.2218204,2.338418 3.9493283,5.404344 0.7794727,3.065926 0.7794727,10.133145 v 20.993798 h 7.2231139 v 2.650207 H -9.9587286 v -2.650207 h 6.8073948 V 65.084715 q 0,-6.079887 -0.7275078,-8.36634 -0.675543,-2.286453 -3.7414689,-2.286453 -4.2091525,0 -8.6781295,4.780765 -4.417012,4.728801 -4.417012,18.031802 v 13.51086 h 6.703465 v 2.650207 h -23.540075 v -2.650207 h 6.75543 V 70.644953 q 0,-11.744055 -0.883402,-13.978543 -0.831438,-2.234488 -4.053258,-2.234488 -4.417012,0 -7.742762,3.897363 -3.273785,3.897363 -4.105223,7.586867 -0.779472,3.689504 -0.779472,11.744056 v 13.095141 h 6.703465 v 2.650207 H -65.820937 V 90.755349 Z M 58.790748,69.865481 H 32.496536 q -0.363754,15.381594 1.71484,18.967168 2.078594,3.53361 7.430973,3.53361 11.016547,0 14.913911,-12.783352 h 2.234488 q -1.71484,7.742762 -6.495606,11.432266 -4.780765,3.689504 -10.652793,3.689504 -8.36634,0 -14.550157,-6.183817 -6.183816,-6.235781 -6.183816,-15.641418 0,-9.145813 6.027922,-15.381595 6.079887,-6.235781 14.082473,-6.235781 6.963289,0 12.159774,4.93666 5.248449,4.936661 5.612203,13.666755 z M 32.496536,67.527063 h 15.12177 q 0.415719,-3.689504 0.415719,-5.612204 0,-8.314375 -7.534902,-8.314375 -3.741469,0 -5.872028,2.026629 -2.130559,1.974664 -2.130559,5.404344 z"
       id="text1"
       style="font-size:106.424px;font-family:'Bodoni MT';-inkscape-font-specification:'Bodoni MT';fill:#565677;stroke-width:0;stroke-linejoin:bevel;paint-order:stroke fill markers"
       inkscape:label="Home"
       aria-label="Home" /></g><metadata
     id="metadata1"><rdf:RDF><cc:Work
         rdf:about=""><dc:title>Home text</dc:title></cc:Work></rdf:RDF></metadata></svg>
