<?xml version="1.0" encoding="UTF-8" standalone="no"?>
<!-- Created with Inkscape (http://www.inkscape.org/) -->

<svg
   width="560"
   height="420"
   viewBox="0 0 560 420"
   version="1.1"
   id="svg1"
   xml:space="preserve"
   inkscape:version="1.3 (0e150ed6c4, 2023-07-21)"
   sodipodi:docname="MSNDialing.svg"
   xmlns:inkscape="http://www.inkscape.org/namespaces/inkscape"
   xmlns:sodipodi="http://sodipodi.sourceforge.net/DTD/sodipodi-0.dtd"
   xmlns:xlink="http://www.w3.org/1999/xlink"
   xmlns="http://www.w3.org/2000/svg"
   xmlns:svg="http://www.w3.org/2000/svg"
   xmlns:rdf="http://www.w3.org/1999/02/22-rdf-syntax-ns#"
   xmlns:cc="http://creativecommons.org/ns#"
   xmlns:dc="http://purl.org/dc/elements/1.1/"><title
     id="title2">MSN TV Dialing</title><sodipodi:namedview
     id="namedview1"/><defs
     id="defs1"><linearGradient
       id="linearGradient19"
       inkscape:collect="always"><stop
         style="stop-color:#2c2c74;stop-opacity:0.5;"
         offset="0"
         id="stop19" /><stop
         style="stop-color:#2c2c74;stop-opacity:1;"
         offset="1"
         id="stop20" /></linearGradient><linearGradient
       xlink:href="#linearGradient3-6"
       id="linearGradient14-1"
       x1="8.5921335"
       y1="46.94643"
       x2="169.41133"
       y2="170.30881"
       gradientUnits="userSpaceOnUse"
       gradientTransform="matrix(1.2801527,0,0,1.2801541,856.3739,80.958662)" /><linearGradient
       id="linearGradient3-6"><stop
         style="stop-color:#43438b;stop-opacity:1;"
         offset="0"
         id="stop3-1" /><stop
         style="stop-color:#32327a;stop-opacity:1;"
         offset="0.19745167"
         id="stop12" /><stop
         style="stop-color:#23236b;stop-opacity:1;"
         offset="0.42024603"
         id="stop15" /><stop
         style="stop-color:#14145c;stop-opacity:1;"
         offset="0.60309315"
         id="stop4-6" /></linearGradient><linearGradient
       xlink:href="#linearGradient5-5"
       id="linearGradient6-6"
       x1="8.5921335"
       y1="46.94643"
       x2="169.41133"
       y2="170.30881"
       gradientUnits="userSpaceOnUse"
       spreadMethod="pad"
       gradientTransform="matrix(1.2801527,0,0,1.2801541,856.3739,80.958662)" /><linearGradient
       id="linearGradient5-5"><stop
         style="stop-color:#8080bf;stop-opacity:1;"
         offset="0"
         id="stop5-5" /><stop
         style="stop-color:#7777bf;stop-opacity:1;"
         offset="0.02"
         id="stop16" /><stop
         style="stop-color:#5c5ca4;stop-opacity:1;"
         offset="0.04"
         id="stop14-8" /><stop
         style="stop-color:#33337b;stop-opacity:1;"
         offset="0.134064"
         id="stop9-7" /><stop
         style="stop-color:#1a1a62;stop-opacity:1;"
         offset="0.38247943"
         id="stop10-9" /><stop
         style="stop-color:#0b0b53;stop-opacity:1;"
         offset="0.58057064"
         id="stop7-3" /><stop
         style="stop-color:#0b0b53;stop-opacity:1;"
         offset="0.84931505"
         id="stop8-8" /><stop
         style="stop-color:#16165e;stop-opacity:1;"
         offset="0.95088214"
         id="stop11-0" /><stop
         style="stop-color:#16165e;stop-opacity:1;"
         offset="0.99000001"
         id="stop13-6" /><stop
         style="stop-color:#42428a;stop-opacity:1;"
         offset="1"
         id="stop6-4" /></linearGradient><filter
       style="color-interpolation-filters:sRGB"
       id="filter24"
       x="-0.044968635"
       y="-0.060230324"
       width="1.0898325"
       height="1.1204923"><feGaussianBlur
         stdDeviation="1.0465474"
         id="feGaussianBlur24" /></filter><filter
       inkscape:collect="always"
       style="color-interpolation-filters:sRGB"
       id="filter3"
       x="-0.066500649"
       y="-0.080294727"
       width="1.1425835"
       height="1.1723196"><feGaussianBlur
         inkscape:collect="always"
         stdDeviation="3.749485"
         id="feGaussianBlur3" /></filter><linearGradient
       inkscape:collect="always"
       xlink:href="#linearGradient19"
       id="linearGradient20"
       x1="869.2345"
       y1="249.62349"
       x2="1130.2468"
       y2="249.62349"
       gradientUnits="userSpaceOnUse"
       gradientTransform="translate(-13.394947,-36.212654)" /><filter
       inkscape:collect="always"
       style="color-interpolation-filters:sRGB"
       id="filter1"
       x="-0.001683377"
       y="-0.013769913"
       width="1.0033668"
       height="1.0275398"><feGaussianBlur
         inkscape:collect="always"
         stdDeviation="0.25253998"
         id="feGaussianBlur1" /></filter></defs><rect
     style="display:inline;fill:#1e1e66;fill-opacity:1;stroke:#000000;stroke-width:0;stroke-linecap:square"
     id="rect1"
     width="560"
     height="420"
     x="0"
     y="0"
     ry="0"
     inkscape:label="BG" /><g
     id="g2"
     style="display:inline;opacity:1;mix-blend-mode:normal;filter:url(#filter3)"
     transform="matrix(2.0903405,0,0,2.0434846,-1772.5792,-249.21389)"
     inkscape:label="Jewel"><path
       d="m 902.74695,124.6595 170.71865,22.86609 c 14.8639,1.99068 35.5268,18.96168 32.311,41.02385 l -11.7659,80.70223 c -2.7279,18.72222 -18.0091,27.1738 -34.6613,27.91117 l -121.61845,5.39332 c -25.0475,1.10985 -41.5256,-16.90702 -45.7552,-35.64463 l -24.5227,-108.63392 c -2.4642,-10.91201 0.7131,-20.50678 6.0667,-25.79125 6.8834,-6.79378 17.3857,-9.41167 29.2272,-7.82686 z"
       stroke="#000"
       stroke-width=".216"
       stroke-miterlimit="2.613"
       id="path18"
       style="display:inline;opacity:1;mix-blend-mode:normal;fill:#2c2c74;fill-opacity:1;stroke:url(#linearGradient20);stroke-width:16.4789;stroke-linecap:butt;stroke-linejoin:round;stroke-dasharray:none;stroke-opacity:1;paint-order:markers stroke fill"
       inkscape:label="Inset" /><path
       d="m 916.1419,160.87215 170.7186,22.86609 c 14.8639,1.99068 35.5268,18.96168 32.311,41.02385 l -11.7659,80.70223 c -2.7279,18.72222 -18.0091,27.1738 -34.6613,27.91117 l -121.6184,5.39332 c -25.0475,1.10985 -41.5256,-16.90702 -45.7552,-35.64463 L 880.848,194.49026 c -2.4642,-10.91201 0.7131,-20.50678 6.0667,-25.79125 6.8834,-6.79378 17.3857,-9.41167 29.2272,-7.82686 z"
       stroke="#000"
       stroke-width=".216"
       stroke-miterlimit="2.613"
       id="path1-4"
       style="opacity:0.5;fill:#11103c;fill-opacity:1;stroke:#11103c;stroke-width:16.4789;stroke-linecap:butt;stroke-linejoin:round;stroke-dasharray:none;stroke-opacity:1;paint-order:markers stroke fill;filter:url(#filter24)"
       inkscape:label="Shadow" /><path
       d="m 896.1419,135.87216 170.7186,22.86608 c 14.8639,1.99068 35.5268,18.96168 32.311,41.02385 l -11.7659,80.70223 c -2.7279,18.72222 -18.0091,27.1738 -34.6614,27.91117 l -121.6183,5.39332 c -25.0475,1.10985 -41.5256,-16.90702 -45.7552,-35.64463 L 860.848,169.49026 c -2.4642,-10.91201 0.7131,-20.50678 6.0667,-25.79125 6.8834,-6.79378 17.3857,-9.41167 29.2272,-7.82685 z"
       stroke="#000"
       stroke-width=".216"
       stroke-miterlimit="2.613"
       id="path1-5"
       style="fill:url(#linearGradient14-1);stroke:url(#linearGradient6-6);stroke-width:16.4789;stroke-linecap:butt;stroke-linejoin:round;stroke-dasharray:none;paint-order:markers stroke fill"
       inkscape:label="Jewel" /></g><g
     inkscape:groupmode="layer"
     id="layer4"
     inkscape:label="Text"
     style="display:inline;fill:#ffffff"><path
       d="m 119.4,181.698 q 0,-0.096 0.048,-0.528 0,-0.336 0,-0.48 0,-2.448 -0.96,-4.224 -0.912,-1.776 -2.592,-2.88 -1.632,-1.152 -3.792,-1.68 -2.16,-0.528 -4.656,-0.528 -3.12,0 -5.904,0.912 -2.784,0.912 -5.04,2.688 -2.256,1.728 -3.744,4.272 -1.488,2.496 -2.064,5.664 -0.24,1.392 -0.24,2.688 0,4.944 3.36,7.68 3.408,2.688 8.928,2.688 2.736,0 5.184,-0.576 2.496,-0.576 4.512,-1.776 2.208,-1.296 3.744,-3.312 1.584,-2.016 2.4,-4.8 h -10.08 q -0.528,1.68 -1.632,2.736 -1.104,1.008 -2.928,1.008 -1.728,0 -2.592,-1.104 -0.864,-1.104 -0.864,-3.12 0,-0.912 0.192,-2.064 0.24,-1.248 0.624,-2.448 0.384,-1.2 1.008,-2.16 0.624,-1.008 1.632,-1.632 1.008,-0.624 2.304,-0.624 1.68,0 2.448,1.008 0.624,0.768 0.624,1.968 0,0.096 0,0.288 -0.048,0.288 -0.048,0.336 z m 19.05599,-3.6 q 1.632,0 2.448,1.2 0.864,1.152 0.864,3.168 0,0.912 -0.192,1.968 -0.624,3.456 -2.064,5.136 -1.392,1.68 -3.456,1.68 -1.584,0 -2.496,-1.056 -0.864,-1.104 -0.864,-3.264 0,-1.104 0.24,-2.496 0.432,-2.544 1.824,-4.416 1.392,-1.92 3.696,-1.92 z m -15.6,6.864 q -0.24,1.44 -0.24,2.736 0,4.944 3.36,7.632 3.36,2.64 8.88,2.64 3.072,0 5.808,-0.816 2.784,-0.864 4.992,-2.544 2.256,-1.68 3.792,-4.224 1.536,-2.544 2.112,-5.952 0.24,-1.392 0.24,-2.64 0,-4.8 -3.264,-7.584 -3.216,-2.832 -9.024,-2.832 -6.48,0 -10.992,3.6 -4.512,3.552 -5.664,9.984 z m 30.47999,12.288 h 9.984 l 2.256,-12.816 q 0.48,-2.592 1.536,-3.888 1.104,-1.296 3.264,-1.296 1.536,0 2.16,0.816 0.672,0.768 0.672,2.208 0,0.768 -0.144,1.68 l -2.352,13.296 h 9.984 l 2.64,-15.072 q 0.336,-1.728 0.336,-3.168 0,-3.744 -2.016,-5.664 -2.016,-1.968 -6.144,-1.968 -2.736,0 -4.944,1.152 -2.208,1.152 -4.368,3.504 l 0.672,-3.936 h -9.12 z m 32.01599,0 h 9.984 l 2.256,-12.816 q 0.48,-2.592 1.536,-3.888 1.104,-1.296 3.264,-1.296 1.536,0 2.16,0.816 0.672,0.768 0.672,2.208 0,0.768 -0.144,1.68 l -2.352,13.296 h 9.984 l 2.64,-15.072 q 0.336,-1.728 0.336,-3.168 0,-3.744 -2.016,-5.664 -2.016,-1.968 -6.144,-1.968 -2.736,0 -4.944,1.152 -2.208,1.152 -4.368,3.504 l 0.672,-3.936 h -9.12 z m 43.91999,-15.408 q 0.336,-2.016 1.776,-3.168 1.44,-1.2 3.648,-1.2 1.584,0 2.64,1.104 1.056,1.056 1.056,2.592 0,0.096 -0.048,0.336 0,0.24 0,0.336 z m 18.144,5.088 q 0.384,-1.968 0.384,-3.744 0,-5.424 -3.264,-8.592 -3.264,-3.216 -9.168,-3.216 -3.024,0 -5.808,0.96 -2.736,0.96 -4.992,2.736 -2.256,1.776 -3.792,4.32 -1.488,2.496 -2.064,5.52 -0.24,1.392 -0.24,2.688 0,4.944 3.36,7.68 3.36,2.688 8.88,2.688 2.352,0 4.608,-0.432 2.256,-0.432 4.32,-1.392 2.112,-1.008 3.792,-2.592 1.68,-1.632 2.688,-3.888 h -9.552 q -0.72,1.104 -1.824,1.68 -1.104,0.528 -2.304,0.528 -1.824,0 -3.024,-1.104 -1.152,-1.104 -1.152,-2.88 0,-0.48 0.096,-0.96 z m 32.064,-5.232 q 0,-0.096 0.048,-0.528 0,-0.336 0,-0.48 0,-2.448 -0.96,-4.224 -0.912,-1.776 -2.592,-2.88 -1.632,-1.152 -3.792,-1.68 -2.16,-0.528 -4.656,-0.528 -3.12,0 -5.904,0.912 -2.784,0.912 -5.04,2.688 -2.256,1.728 -3.744,4.272 -1.488,2.496 -2.064,5.664 -0.24,1.392 -0.24,2.688 0,4.944 3.36,7.68 3.408,2.688 8.928,2.688 2.736,0 5.184,-0.576 2.496,-0.576 4.512,-1.776 2.208,-1.296 3.744,-3.312 1.584,-2.016 2.4,-4.8 h -10.08 q -0.528,1.68 -1.632,2.736 -1.104,1.008 -2.928,1.008 -1.728,0 -2.592,-1.104 -0.864,-1.104 -0.864,-3.12 0,-0.912 0.192,-2.064 0.24,-1.248 0.624,-2.448 0.384,-1.2 1.008,-2.16 0.624,-1.008 1.632,-1.632 1.008,-0.624 2.304,-0.624 1.68,0 2.448,1.008 0.624,0.768 0.624,1.968 0,0.096 0,0.288 -0.048,0.288 -0.048,0.336 z m 19.77599,8.4 h -1.584 q -1.536,0 -2.16,-0.384 -0.576,-0.384 -0.576,-1.344 0,-0.48 0.192,-1.392 l 1.584,-9.12 h 4.8 l 1.008,-5.76 h -4.8 l 1.392,-7.824 h -9.84 l -1.392,7.824 h -3.696 l -1.008,5.76 h 3.552 l -1.824,10.512 q -0.528,2.784 -0.528,4.32 0,2.736 1.68,3.744 1.68,1.008 6.24,1.008 2.064,0 5.712,-0.192 z m 14.11201,7.152 4.416,-25.152 h -9.984 l -4.416,25.152 z m -4.992,-28.368 h 9.984 l 1.248,-7.104 h -9.984 z m 10.32001,28.368 h 9.984 l 2.256,-12.816 q 0.48,-2.592 1.536,-3.888 1.104,-1.296 3.264,-1.296 1.536,0 2.16,0.816 0.672,0.768 0.672,2.208 0,0.768 -0.144,1.68 l -2.352,13.296 h 9.984 l 2.64,-15.072 q 0.336,-1.728 0.336,-3.168 0,-3.744 -2.016,-5.664 -2.016,-1.968 -6.144,-1.968 -2.736,0 -4.944,1.152 -2.208,1.152 -4.368,3.504 l 0.672,-3.936 h -9.12 z m 48.57599,-18.72 q 1.776,0 2.592,1.056 0.816,1.008 0.816,2.736 0,0.768 -0.144,1.632 -0.384,2.208 -1.68,3.696 -1.296,1.488 -3.456,1.488 -1.584,-0.048 -2.4,-1.056 -0.768,-1.008 -0.768,-2.592 0,-0.624 0.096,-1.248 0.48,-2.64 1.632,-4.176 1.152,-1.536 3.312,-1.536 z m -16.176,20.016 q 0,1.488 0.624,2.784 0.672,1.344 2.112,2.352 1.44,1.008 3.696,1.536 2.256,0.576 5.424,0.576 4.464,0 7.344,-1.008 2.88,-0.96 4.464,-2.784 1.632,-1.776 2.4,-4.032 0.816,-2.256 1.392,-5.616 l 3.552,-20.256 h -8.784 l -0.576,3.312 q -1.008,-1.872 -2.832,-2.928 -1.824,-1.104 -4.08,-1.104 -2.976,0 -5.328,1.104 -2.352,1.056 -4.032,2.88 -1.632,1.824 -2.688,4.08 -1.008,2.256 -1.44,4.704 -0.24,1.296 -0.24,2.592 0,4.08 2.352,6.72 2.4,2.592 6.72,2.592 2.496,0 4.368,-0.72 1.872,-0.768 3.36,-2.016 l -0.384,2.064 q -0.48,2.688 -1.632,3.792 -1.104,1.104 -3.264,1.104 -1.44,0 -2.064,-0.624 -0.432,-0.48 -0.432,-1.104 z m 65.472,-8.448 h -1.584 q -1.536,0 -2.16,-0.384 -0.576,-0.384 -0.576,-1.344 0,-0.48 0.192,-1.392 l 1.584,-9.12 h 4.8 l 1.008,-5.76 h -4.8 l 1.392,-7.824 h -9.84 l -1.392,7.824 h -3.696 l -1.008,5.76 h 3.552 l -1.824,10.512 q -0.528,2.784 -0.528,4.32 0,2.736 1.68,3.744 1.68,1.008 6.24,1.008 2.064,0 5.712,-0.192 z m 20.59201,-12 q 1.632,0 2.448,1.2 0.864,1.152 0.864,3.168 0,0.912 -0.192,1.968 -0.624,3.456 -2.064,5.136 -1.392,1.68 -3.456,1.68 -1.584,0 -2.496,-1.056 -0.864,-1.104 -0.864,-3.264 0,-1.104 0.24,-2.496 0.432,-2.544 1.824,-4.416 1.392,-1.92 3.696,-1.92 z m -15.6,6.864 q -0.24,1.44 -0.24,2.736 0,4.944 3.36,7.632 3.36,2.64 8.88,2.64 3.072,0 5.808,-0.816 2.784,-0.864 4.992,-2.544 2.256,-1.68 3.792,-4.224 1.536,-2.544 2.112,-5.952 0.24,-1.392 0.24,-2.64 0,-4.8 -3.264,-7.584 -3.216,-2.832 -9.024,-2.832 -6.48,0 -10.992,3.6 -4.512,3.552 -5.664,9.984 z"
       id="text1"
       style="font-style:italic;font-weight:900;font-size:48px;font-family:Helvetica-Black;-inkscape-font-specification:'Helvetica-Black Heavy Italic';fill:#ecffff;fill-opacity:0.14;stroke:#000000;stroke-width:0;stroke-linecap:square;filter:url(#filter1)"
       inkscape:label="connecting to"
       transform="matrix(1.0220869,0,0,1.0220869,-1.9839774,-4.8148308)"
       aria-label="connecting to" /><path
       d="m 146.89273,223.93912 1.54884,-8.78876 0.54029,-4.03418 0.32418,-3.81807 h 0.072 l 1.76495,16.64101 h 5.9072 l 7.67216,-16.64101 h 0.072 l -1.26068,4.68253 -0.82845,4.03419 -1.40476,7.92429 h 7.63614 l 4.57447,-25.93404 h -10.26555 l -7.42002,16.17275 -1.72894,-16.17275 h -10.26555 l -4.57448,25.93404 z m 51.54392,-18.40597 q 0,-1.83699 -0.54029,-3.31379 -0.5403,-1.51282 -1.69292,-2.59341 -1.15263,-1.1166 -3.02564,-1.69291 -1.83699,-0.61233 -4.39438,-0.61233 -5.04273,0 -8.53662,2.16117 -3.45787,2.12515 -4.14224,6.12331 -0.14408,0.79243 -0.14408,1.4768 0,1.72894 0.75641,2.91758 0.75641,1.18864 1.98107,1.94505 1.26068,0.75641 2.55739,1.18865 1.2967,0.39621 3.31379,0.90048 2.34127,0.61234 3.42185,1.08059 1.08059,0.46825 1.08059,1.36874 0,0 0,0.10806 -0.036,0.072 -0.036,0.14408 -0.14408,0.90048 -1.18865,1.40476 -1.04456,0.50427 -2.66544,0.50427 -1.40476,0 -2.30525,-0.64835 -1.00854,-0.68437 -1.04456,-2.05311 h -8.14041 q -0.072,0.54029 -0.072,1.00854 0,1.62088 0.68437,3.02564 0.68437,1.36874 1.98108,2.41331 1.2967,1.04456 3.16971,1.62088 1.87302,0.61233 4.21428,0.61233 5.51099,0 9.22099,-2.26923 3.71001,-2.26923 4.46642,-6.66361 0.14408,-0.72039 0.14408,-1.36874 0,-1.62088 -0.75641,-2.7735 -0.75641,-1.18864 -1.98107,-1.90903 -1.22466,-0.75641 -2.52137,-1.15263 -1.26068,-0.43223 -3.27777,-0.97252 -2.41331,-0.61234 -3.52991,-1.08059 -1.08059,-0.50427 -1.08059,-1.40476 0,0 0.036,-0.14408 0,-0.036 0,-0.10806 0.25214,-1.4768 2.9536,-1.4768 1.33272,0 2.12515,0.46826 0.90049,0.54029 0.90049,1.76495 z m 13.68741,-7.52807 h -7.96031 l -4.57447,25.93404 h 8.1404 l 1.44078,-8.21245 0.72039,-5.9072 6.77167,14.11965 h 7.96031 l 4.57448,-25.93404 h -8.14041 l -1.44078,8.24846 -0.72039,5.9072 z m 31.48106,6.80768 h 7.63614 l -3.38584,19.12636 h 8.5006 l 3.38584,-19.12636 h 7.63613 l 1.18865,-6.80768 h -23.77287 z m 31.15687,19.12636 h 8.53662 l 13.57935,-25.93404 h -8.57264 l -7.74419,17.25334 -1.51282,-17.25334 h -8.57264 z m 32.59765,-5.87118 q 0,0.1801 -0.036,0.39621 0,0.28816 0,0.3602 0,1.58486 0.68437,2.70146 0.68437,1.11661 1.87302,1.76496 1.18864,0.64835 2.66544,0.90048 1.4768,0.28816 3.1337,0.28816 5.04273,0 7.92429,-1.76496 2.88156,-1.76495 3.42185,-4.82661 0.072,-0.50427 0.072,-0.97253 0,-1.26068 -0.61233,-2.12515 -0.61233,-0.90048 -1.62088,-1.44078 -1.00855,-0.57631 -2.05311,-0.86446 -1.04457,-0.32418 -2.70146,-0.72039 -1.87302,-0.43224 -2.7735,-0.79243 -0.86447,-0.3602 -0.86447,-1.00855 0.14408,-0.68437 0.75641,-1.00854 0.61233,-0.32418 1.62087,-0.32418 0.93651,0 1.44078,0.46825 0.46826,0.43224 0.46826,1.36874 h 6.80768 q 0,-0.072 0,-0.32417 0.036,-0.21612 0.036,-0.32418 0,-1.58485 -0.72039,-2.62942 -0.72039,-1.08059 -1.90903,-1.6569 -1.18864,-0.57631 -2.62942,-0.79243 -1.44078,-0.21611 -3.09768,-0.21611 -1.58486,0 -3.20574,0.32417 -1.62087,0.28816 -3.06165,1.00855 -1.44078,0.72039 -2.44933,1.94505 -1.00855,1.22466 -1.2967,2.9536 -0.10806,0.57631 -0.10806,1.04457 0,1.26068 0.57631,2.12515 0.57631,0.86446 1.54884,1.40476 0.97253,0.50427 1.94505,0.79243 0.97253,0.25213 2.59341,0.57631 1.90903,0.39621 2.73748,0.75641 0.86447,0.32417 0.86447,1.04456 0,0 0,0.072 0,0.10806 0,0.10806 -0.1801,0.90049 -0.93651,1.2967 -0.72039,0.39622 -1.72894,0.39622 -1.1166,0 -1.76495,-0.57632 -0.50427,-0.50427 -0.50427,-1.26068 0,-0.072 0,-0.21611 0.036,-0.1801 0.036,-0.25214 z m 30.43649,-5.69108 q 0.25213,-1.51282 1.33272,-2.37729 1.08058,-0.90049 2.73748,-0.90049 1.18864,0 1.98107,0.82845 0.79243,0.79243 0.79243,1.94505 0,0.072 -0.036,0.25214 0,0.1801 0,0.25214 z m 13.61537,3.81806 q 0.28815,-1.47679 0.28815,-2.80952 0,-4.0702 -2.44932,-6.44749 -2.44933,-2.4133 -6.87973,-2.4133 -2.26923,0 -4.35836,0.72039 -2.05311,0.72039 -3.74603,2.05311 -1.69291,1.33272 -2.84554,3.24175 -1.1166,1.87302 -1.54883,4.14225 -0.1801,1.04456 -0.1801,2.01709 0,3.71001 2.52136,5.76312 2.52137,2.01709 6.66361,2.01709 1.76496,0 3.45787,-0.32418 1.69292,-0.32417 3.24176,-1.04456 1.58486,-0.75641 2.84554,-1.94505 1.26068,-1.22467 2.01709,-2.91758 h -7.16788 q -0.54029,0.82844 -1.36874,1.26068 -0.82845,0.39621 -1.72894,0.39621 -1.36874,0 -2.26923,-0.82845 -0.86446,-0.82844 -0.86446,-2.16117 0,-0.36019 0.072,-0.72039 z m 1.62086,7.7442 h 7.49206 l 1.15262,-6.51953 q 0.50427,-2.98962 1.837,-4.2503 1.36874,-1.26069 3.74602,-1.26069 0.32418,0 1.04457,0.14408 0.25214,0.036 0.46825,0.072 l 1.33272,-7.49205 q 0,0 -0.32417,-0.036 -0.43223,-0.072 -0.64835,-0.072 -2.16117,0 -3.78205,1.08058 -1.58486,1.04457 -2.7735,3.27778 h -0.072 l 0.64835,-3.81807 h -6.80768 z m 21.68374,0 h 8.35652 l 9.68925,-18.87422 h -7.2039 l -5.36691,11.92245 -1.22466,-11.92245 h -7.49206 z m 24.81744,0 3.31379,-18.87422 h -7.49205 l -3.3138,18.87422 z m -3.74603,-21.28753 h 7.49206 l 0.9365,-5.33088 h -7.49205 z m 30.32842,9.61721 q 0,-0.072 0.036,-0.39622 0,-0.25213 0,-0.36019 0,-1.83699 -0.72039,-3.16972 -0.68437,-1.33272 -1.94506,-2.16117 -1.22466,-0.86446 -2.84554,-1.26068 -1.62087,-0.39621 -3.49389,-0.39621 -2.34127,0 -4.4304,0.68437 -2.08913,0.68437 -3.78204,2.01709 -1.69292,1.2967 -2.80953,3.20573 -1.1166,1.87302 -1.54883,4.25031 -0.1801,1.04456 -0.1801,2.01709 0,3.71001 2.52136,5.76312 2.55739,2.01709 6.69963,2.01709 2.05311,0 3.89011,-0.43223 1.87301,-0.43224 3.38583,-1.33273 1.6569,-0.97252 2.80952,-2.48534 1.18864,-1.51282 1.80098,-3.60195 h -7.5641 q -0.39621,1.26068 -1.22466,2.05311 -0.82845,0.75641 -2.19719,0.75641 -1.2967,0 -1.94505,-0.82845 -0.64836,-0.82845 -0.64836,-2.34127 0,-0.68437 0.14408,-1.54883 0.1801,-0.93651 0.46826,-1.837 0.28815,-0.90049 0.75641,-1.62088 0.46825,-0.75641 1.22466,-1.22466 0.75641,-0.46825 1.72893,-0.46825 1.26069,0 1.837,0.75641 0.46825,0.57631 0.46825,1.4768 0,0.072 0,0.21611 -0.036,0.21612 -0.036,0.25214 z m 10.3736,0.10806 q 0.25214,-1.51282 1.33272,-2.37729 1.08059,-0.90049 2.73748,-0.90049 1.18865,0 1.98108,0.82845 0.79243,0.79243 0.79243,1.94505 0,0.072 -0.036,0.25214 0,0.1801 0,0.25214 z m 13.61537,3.81806 q 0.28816,-1.47679 0.28816,-2.80952 0,-4.0702 -2.44933,-6.44749 -2.44932,-2.4133 -6.87972,-2.4133 -2.26923,0 -4.35836,0.72039 -2.05311,0.72039 -3.74603,2.05311 -1.69292,1.33272 -2.84554,3.24175 -1.11661,1.87302 -1.54884,4.14225 -0.1801,1.04456 -0.1801,2.01709 0,3.71001 2.52137,5.76312 2.52136,2.01709 6.66361,2.01709 1.76495,0 3.45787,-0.32418 1.69291,-0.32417 3.24175,-1.04456 1.58486,-0.75641 2.84554,-1.94505 1.26069,-1.22467 2.0171,-2.91758 h -7.16788 q -0.5403,0.82844 -1.36875,1.26068 -0.82844,0.39621 -1.72893,0.39621 -1.36874,0 -2.26923,-0.82845 -0.86447,-0.82844 -0.86447,-2.16117 0,-0.36019 0.072,-0.72039 z m 9.54519,7.7442 1.2967,-7.42002 h -7.63613 l -1.29671,7.42002 z m 11.99447,0 1.29671,-7.42002 h -7.63614 l -1.2967,7.42002 z m 11.99451,0 1.2967,-7.42002 h -7.63613 l -1.2967,7.42002 z"
       id="text2"
       style="font-style:italic;font-weight:900;font-size:36.0195px;font-family:Helvetica-Black;-inkscape-font-specification:'Helvetica-Black Heavy Italic';fill:#dcffff;fill-opacity:0.35;stroke:#000000;stroke-width:0;stroke-linecap:square"
       inkscape:label="MSN TV service"
       aria-label="MSN TV service..." /></g><metadata
     id="metadata2"><rdf:RDF><cc:Work
         rdf:about=""><dc:title>MSN TV Dialing</dc:title><dc:date>11/1/2023</dc:date><dc:creator><cc:Agent><dc:title>SKCro</dc:title></cc:Agent></dc:creator><dc:rights><cc:Agent><dc:title>Microsoft/WebTV Networks</dc:title></cc:Agent></dc:rights><dc:language>English</dc:language></cc:Work></rdf:RDF></metadata></svg>
