<?xml version="1.0" encoding="UTF-8"?>
<svg width="560" height="420" version="1.1" viewBox="0 0 560 420" xmlns="http://www.w3.org/2000/svg" xmlns:xlink="http://www.w3.org/1999/xlink"><title>MSN TV Dialing</title><defs><linearGradient id="c" x1="8.5921" x2="169.41" y1="46.946" y2="170.31" gradientTransform="matrix(1.2802 0 0 1.2802 856.37 80.959)" gradientUnits="userSpaceOnUse"><stop stop-color="#43438b" offset="0"/><stop stop-color="#32327a" offset=".19745"/><stop stop-color="#23236b" offset=".42025"/><stop stop-color="#14145c" offset=".60309"/></linearGradient><linearGradient id="a" x1="8.5921" x2="169.41" y1="46.946" y2="170.31" gradientTransform="matrix(1.2802 0 0 1.2802 856.37 80.959)" gradientUnits="userSpaceOnUse"><stop stop-color="#8080bf" offset="0"/><stop stop-color="#7777bf" offset=".02"/><stop stop-color="#5c5ca4" offset=".04"/><stop stop-color="#33337b" offset=".13406"/><stop stop-color="#1a1a62" offset=".38248"/><stop stop-color="#0b0b53" offset=".58057"/><stop stop-color="#0b0b53" offset=".84932"/><stop stop-color="#16165e" offset=".95088"/><stop stop-color="#16165e" offset=".99"/><stop stop-color="#42428a" offset="1"/></linearGradient><filter id="e" x="-.044969" y="-.06023" width="1.0898" height="1.1205" color-interpolation-filters="sRGB"><feGaussianBlur stdDeviation="1.0465474"/></filter><filter id="d" x="-.066501" y="-.080295" width="1.1426" height="1.1723" color-interpolation-filters="sRGB"><feGaussianBlur stdDeviation="3.749485"/></filter><linearGradient id="b" x1="869.23" x2="1130.2" y1="249.62" y2="249.62" gradientTransform="translate(-13.395 -36.213)" gradientUnits="userSpaceOnUse"><stop stop-color="#2c2c74" stop-opacity=".5" offset="0"/><stop stop-color="#2c2c74" offset="1"/></linearGradient><filter id="f" x="-.0016834" y="-.01377" width="1.0034" height="1.0275" color-interpolation-filters="sRGB"><feGaussianBlur stdDeviation="0.25253998"/></filter></defs><rect width="560" height="420" ry="0" fill="#1e1e66" stroke-width="0"/><g transform="matrix(2.0903 0 0 2.0435 -1772.6 -249.21)" filter="url(#d)" stroke-linejoin="round" stroke-miterlimit="2.613" stroke-width="16.479" style="mix-blend-mode:normal"><path d="m902.75 124.66 170.72 22.866c14.864 1.9907 35.527 18.962 32.311 41.024l-11.766 80.702c-2.7279 18.722-18.009 27.174-34.661 27.911l-121.62 5.3933c-25.048 1.1098-41.526-16.907-45.755-35.645l-24.523-108.63c-2.4642-10.912 0.7131-20.507 6.0667-25.791 6.8834-6.7938 17.386-9.4117 29.227-7.8269z" fill="#2c2c74" stroke="url(#b)" style="mix-blend-mode:normal;paint-order:markers stroke fill"/><path d="m916.14 160.87 170.72 22.866c14.864 1.9907 35.527 18.962 32.311 41.024l-11.766 80.702c-2.7279 18.722-18.009 27.174-34.661 27.911l-121.62 5.3933c-25.048 1.1098-41.526-16.907-45.755-35.645l-24.523-108.63c-2.4642-10.912 0.7131-20.507 6.0667-25.791 6.8834-6.7938 17.386-9.4117 29.227-7.8269z" fill="#11103c" filter="url(#e)" opacity=".5" stroke="#11103c" style="paint-order:markers stroke fill"/><path d="m896.14 135.87 170.72 22.866c14.864 1.9907 35.527 18.962 32.311 41.024l-11.766 80.702c-2.7279 18.722-18.009 27.174-34.661 27.911l-121.62 5.3933c-25.048 1.1098-41.526-16.907-45.755-35.645l-24.523-108.63c-2.4642-10.912 0.7131-20.507 6.0667-25.791 6.8834-6.7938 17.386-9.4117 29.227-7.8268z" fill="url(#c)" stroke="url(#a)" style="paint-order:markers stroke fill"/></g><g stroke-width="0"><path transform="matrix(1.0221 0 0 1.0221 -1.984 -4.8148)" d="m119.4 181.7q0-0.096 0.048-0.528 0-0.336 0-0.48 0-2.448-0.96-4.224-0.912-1.776-2.592-2.88-1.632-1.152-3.792-1.68t-4.656-0.528q-3.12 0-5.904 0.912t-5.04 2.688q-2.256 1.728-3.744 4.272-1.488 2.496-2.064 5.664-0.24 1.392-0.24 2.688 0 4.944 3.36 7.68 3.408 2.688 8.928 2.688 2.736 0 5.184-0.576 2.496-0.576 4.512-1.776 2.208-1.296 3.744-3.312 1.584-2.016 2.4-4.8h-10.08q-0.528 1.68-1.632 2.736-1.104 1.008-2.928 1.008-1.728 0-2.592-1.104t-0.864-3.12q0-0.912 0.192-2.064 0.24-1.248 0.624-2.448t1.008-2.16q0.624-1.008 1.632-1.632t2.304-0.624q1.68 0 2.448 1.008 0.624 0.768 0.624 1.968 0 0.096 0 0.288-0.048 0.288-0.048 0.336zm19.056-3.6q1.632 0 2.448 1.2 0.864 1.152 0.864 3.168 0 0.912-0.192 1.968-0.624 3.456-2.064 5.136-1.392 1.68-3.456 1.68-1.584 0-2.496-1.056-0.864-1.104-0.864-3.264 0-1.104 0.24-2.496 0.432-2.544 1.824-4.416 1.392-1.92 3.696-1.92zm-15.6 6.864q-0.24 1.44-0.24 2.736 0 4.944 3.36 7.632 3.36 2.64 8.88 2.64 3.072 0 5.808-0.816 2.784-0.864 4.992-2.544 2.256-1.68 3.792-4.224t2.112-5.952q0.24-1.392 0.24-2.64 0-4.8-3.264-7.584-3.216-2.832-9.024-2.832-6.48 0-10.992 3.6-4.512 3.552-5.664 9.984zm30.48 12.288h9.984l2.256-12.816q0.48-2.592 1.536-3.888 1.104-1.296 3.264-1.296 1.536 0 2.16 0.816 0.672 0.768 0.672 2.208 0 0.768-0.144 1.68l-2.352 13.296h9.984l2.64-15.072q0.336-1.728 0.336-3.168 0-3.744-2.016-5.664-2.016-1.968-6.144-1.968-2.736 0-4.944 1.152t-4.368 3.504l0.672-3.936h-9.12zm32.016 0h9.984l2.256-12.816q0.48-2.592 1.536-3.888 1.104-1.296 3.264-1.296 1.536 0 2.16 0.816 0.672 0.768 0.672 2.208 0 0.768-0.144 1.68l-2.352 13.296h9.984l2.64-15.072q0.336-1.728 0.336-3.168 0-3.744-2.016-5.664-2.016-1.968-6.144-1.968-2.736 0-4.944 1.152t-4.368 3.504l0.672-3.936h-9.12zm43.92-15.408q0.336-2.016 1.776-3.168 1.44-1.2 3.648-1.2 1.584 0 2.64 1.104 1.056 1.056 1.056 2.592 0 0.096-0.048 0.336 0 0.24 0 0.336zm18.144 5.088q0.384-1.968 0.384-3.744 0-5.424-3.264-8.592-3.264-3.216-9.168-3.216-3.024 0-5.808 0.96-2.736 0.96-4.992 2.736t-3.792 4.32q-1.488 2.496-2.064 5.52-0.24 1.392-0.24 2.688 0 4.944 3.36 7.68 3.36 2.688 8.88 2.688 2.352 0 4.608-0.432t4.32-1.392q2.112-1.008 3.792-2.592 1.68-1.632 2.688-3.888h-9.552q-0.72 1.104-1.824 1.68-1.104 0.528-2.304 0.528-1.824 0-3.024-1.104-1.152-1.104-1.152-2.88 0-0.48 0.096-0.96zm32.064-5.232q0-0.096 0.048-0.528 0-0.336 0-0.48 0-2.448-0.96-4.224-0.912-1.776-2.592-2.88-1.632-1.152-3.792-1.68t-4.656-0.528q-3.12 0-5.904 0.912t-5.04 2.688q-2.256 1.728-3.744 4.272-1.488 2.496-2.064 5.664-0.24 1.392-0.24 2.688 0 4.944 3.36 7.68 3.408 2.688 8.928 2.688 2.736 0 5.184-0.576 2.496-0.576 4.512-1.776 2.208-1.296 3.744-3.312 1.584-2.016 2.4-4.8h-10.08q-0.528 1.68-1.632 2.736-1.104 1.008-2.928 1.008-1.728 0-2.592-1.104t-0.864-3.12q0-0.912 0.192-2.064 0.24-1.248 0.624-2.448t1.008-2.16q0.624-1.008 1.632-1.632t2.304-0.624q1.68 0 2.448 1.008 0.624 0.768 0.624 1.968 0 0.096 0 0.288-0.048 0.288-0.048 0.336zm19.776 8.4h-1.584q-1.536 0-2.16-0.384-0.576-0.384-0.576-1.344 0-0.48 0.192-1.392l1.584-9.12h4.8l1.008-5.76h-4.8l1.392-7.824h-9.84l-1.392 7.824h-3.696l-1.008 5.76h3.552l-1.824 10.512q-0.528 2.784-0.528 4.32 0 2.736 1.68 3.744t6.24 1.008q2.064 0 5.712-0.192zm14.112 7.152 4.416-25.152h-9.984l-4.416 25.152zm-4.992-28.368h9.984l1.248-7.104h-9.984zm10.32 28.368h9.984l2.256-12.816q0.48-2.592 1.536-3.888 1.104-1.296 3.264-1.296 1.536 0 2.16 0.816 0.672 0.768 0.672 2.208 0 0.768-0.144 1.68l-2.352 13.296h9.984l2.64-15.072q0.336-1.728 0.336-3.168 0-3.744-2.016-5.664-2.016-1.968-6.144-1.968-2.736 0-4.944 1.152t-4.368 3.504l0.672-3.936h-9.12zm48.576-18.72q1.776 0 2.592 1.056 0.816 1.008 0.816 2.736 0 0.768-0.144 1.632-0.384 2.208-1.68 3.696t-3.456 1.488q-1.584-0.048-2.4-1.056-0.768-1.008-0.768-2.592 0-0.624 0.096-1.248 0.48-2.64 1.632-4.176t3.312-1.536zm-16.176 20.016q0 1.488 0.624 2.784 0.672 1.344 2.112 2.352t3.696 1.536q2.256 0.576 5.424 0.576 4.464 0 7.344-1.008 2.88-0.96 4.464-2.784 1.632-1.776 2.4-4.032 0.816-2.256 1.392-5.616l3.552-20.256h-8.784l-0.576 3.312q-1.008-1.872-2.832-2.928-1.824-1.104-4.08-1.104-2.976 0-5.328 1.104-2.352 1.056-4.032 2.88-1.632 1.824-2.688 4.08-1.008 2.256-1.44 4.704-0.24 1.296-0.24 2.592 0 4.08 2.352 6.72 2.4 2.592 6.72 2.592 2.496 0 4.368-0.72 1.872-0.768 3.36-2.016l-0.384 2.064q-0.48 2.688-1.632 3.792-1.104 1.104-3.264 1.104-1.44 0-2.064-0.624-0.432-0.48-0.432-1.104zm65.472-8.448h-1.584q-1.536 0-2.16-0.384-0.576-0.384-0.576-1.344 0-0.48 0.192-1.392l1.584-9.12h4.8l1.008-5.76h-4.8l1.392-7.824h-9.84l-1.392 7.824h-3.696l-1.008 5.76h3.552l-1.824 10.512q-0.528 2.784-0.528 4.32 0 2.736 1.68 3.744t6.24 1.008q2.064 0 5.712-0.192zm20.592-12q1.632 0 2.448 1.2 0.864 1.152 0.864 3.168 0 0.912-0.192 1.968-0.624 3.456-2.064 5.136-1.392 1.68-3.456 1.68-1.584 0-2.496-1.056-0.864-1.104-0.864-3.264 0-1.104 0.24-2.496 0.432-2.544 1.824-4.416 1.392-1.92 3.696-1.92zm-15.6 6.864q-0.24 1.44-0.24 2.736 0 4.944 3.36 7.632 3.36 2.64 8.88 2.64 3.072 0 5.808-0.816 2.784-0.864 4.992-2.544 2.256-1.68 3.792-4.224t2.112-5.952q0.24-1.392 0.24-2.64 0-4.8-3.264-7.584-3.216-2.832-9.024-2.832-6.48 0-10.992 3.6-4.512 3.552-5.664 9.984z" fill="#ecffff" fill-opacity=".14" filter="url(#f)" aria-label="connecting to"/><path d="m146.89 223.94 1.5488-8.7888 0.54029-4.0342 0.32418-3.8181h0.072l1.765 16.641h5.9072l7.6722-16.641h0.072l-1.2607 4.6825-0.82845 4.0342-1.4048 7.9243h7.6361l4.5745-25.934h-10.266l-7.42 16.173-1.7289-16.173h-10.266l-4.5745 25.934zm51.544-18.406q0-1.837-0.54029-3.3138-0.5403-1.5128-1.6929-2.5934-1.1526-1.1166-3.0256-1.6929-1.837-0.61233-4.3944-0.61233-5.0427 0-8.5366 2.1612-3.4579 2.1252-4.1422 6.1233-0.14408 0.79243-0.14408 1.4768 0 1.7289 0.75641 2.9176t1.9811 1.945q1.2607 0.75641 2.5574 1.1886 1.2967 0.39621 3.3138 0.90048 2.3413 0.61234 3.4218 1.0806 1.0806 0.46825 1.0806 1.3687 0 0 0 0.10806-0.036 0.072-0.036 0.14408-0.14408 0.90048-1.1886 1.4048-1.0446 0.50427-2.6654 0.50427-1.4048 0-2.3052-0.64835-1.0085-0.68437-1.0446-2.0531h-8.1404q-0.072 0.54029-0.072 1.0085 0 1.6209 0.68437 3.0256 0.68437 1.3687 1.9811 2.4133 1.2967 1.0446 3.1697 1.6209 1.873 0.61233 4.2143 0.61233 5.511 0 9.221-2.2692 3.71-2.2692 4.4664-6.6636 0.14408-0.72039 0.14408-1.3687 0-1.6209-0.75641-2.7735-0.75641-1.1886-1.9811-1.909-1.2247-0.75641-2.5214-1.1526-1.2607-0.43223-3.2778-0.97252-2.4133-0.61234-3.5299-1.0806-1.0806-0.50427-1.0806-1.4048 0 0 0.036-0.14408 0-0.036 0-0.10806 0.25214-1.4768 2.9536-1.4768 1.3327 0 2.1252 0.46826 0.90049 0.54029 0.90049 1.765zm13.687-7.5281h-7.9603l-4.5745 25.934h8.1404l1.4408-8.2124 0.72039-5.9072 6.7717 14.12h7.9603l4.5745-25.934h-8.1404l-1.4408 8.2485-0.72039 5.9072zm31.481 6.8077h7.6361l-3.3858 19.126h8.5006l3.3858-19.126h7.6361l1.1886-6.8077h-23.773zm31.157 19.126h8.5366l13.579-25.934h-8.5726l-7.7442 17.253-1.5128-17.253h-8.5726zm32.598-5.8712q0 0.1801-0.036 0.39621 0 0.28816 0 0.3602 0 1.5849 0.68437 2.7015 0.68437 1.1166 1.873 1.765 1.1886 0.64835 2.6654 0.90048 1.4768 0.28816 3.1337 0.28816 5.0427 0 7.9243-1.765 2.8816-1.765 3.4218-4.8266 0.072-0.50427 0.072-0.97253 0-1.2607-0.61233-2.1252-0.61233-0.90048-1.6209-1.4408-1.0086-0.57631-2.0531-0.86446-1.0446-0.32418-2.7015-0.72039-1.873-0.43224-2.7735-0.79243-0.86447-0.3602-0.86447-1.0086 0.14408-0.68437 0.75641-1.0085 0.61233-0.32418 1.6209-0.32418 0.93651 0 1.4408 0.46825 0.46826 0.43224 0.46826 1.3687h6.8077q0-0.072 0-0.32417 0.036-0.21612 0.036-0.32418 0-1.5848-0.72039-2.6294-0.72039-1.0806-1.909-1.6569t-2.6294-0.79243q-1.4408-0.21611-3.0977-0.21611-1.5849 0-3.2057 0.32417-1.6209 0.28816-3.0616 1.0086t-2.4493 1.945-1.2967 2.9536q-0.10806 0.57631-0.10806 1.0446 0 1.2607 0.57631 2.1252 0.57631 0.86446 1.5488 1.4048 0.97253 0.50427 1.945 0.79243 0.97253 0.25213 2.5934 0.57631 1.909 0.39621 2.7375 0.75641 0.86447 0.32417 0.86447 1.0446 0 0 0 0.072 0 0.10806 0 0.10806-0.1801 0.90049-0.93651 1.2967-0.72039 0.39622-1.7289 0.39622-1.1166 0-1.765-0.57632-0.50427-0.50427-0.50427-1.2607 0-0.072 0-0.21611 0.036-0.1801 0.036-0.25214zm30.436-5.6911q0.25213-1.5128 1.3327-2.3773 1.0806-0.90049 2.7375-0.90049 1.1886 0 1.9811 0.82845 0.79243 0.79243 0.79243 1.945 0 0.072-0.036 0.25214 0 0.1801 0 0.25214zm13.615 3.8181q0.28815-1.4768 0.28815-2.8095 0-4.0702-2.4493-6.4475-2.4493-2.4133-6.8797-2.4133-2.2692 0-4.3584 0.72039-2.0531 0.72039-3.746 2.0531-1.6929 1.3327-2.8455 3.2418-1.1166 1.873-1.5488 4.1422-0.1801 1.0446-0.1801 2.0171 0 3.71 2.5214 5.7631 2.5214 2.0171 6.6636 2.0171 1.765 0 3.4579-0.32418 1.6929-0.32417 3.2418-1.0446 1.5849-0.75641 2.8455-1.945 1.2607-1.2247 2.0171-2.9176h-7.1679q-0.54029 0.82844-1.3687 1.2607-0.82845 0.39621-1.7289 0.39621-1.3687 0-2.2692-0.82845-0.86446-0.82844-0.86446-2.1612 0-0.36019 0.072-0.72039zm1.6209 7.7442h7.4921l1.1526-6.5195q0.50427-2.9896 1.837-4.2503 1.3687-1.2607 3.746-1.2607 0.32418 0 1.0446 0.14408 0.25214 0.036 0.46825 0.072l1.3327-7.492t-0.32417-0.036q-0.43223-0.072-0.64835-0.072-2.1612 0-3.782 1.0806-1.5849 1.0446-2.7735 3.2778h-0.072l0.64835-3.8181h-6.8077zm21.684 0h8.3565l9.6892-18.874h-7.2039l-5.3669 11.922-1.2247-11.922h-7.4921zm24.817 0 3.3138-18.874h-7.492l-3.3138 18.874zm-3.746-21.288h7.4921l0.9365-5.3309h-7.492zm30.328 9.6172q0-0.072 0.036-0.39622 0-0.25213 0-0.36019 0-1.837-0.72039-3.1697-0.68437-1.3327-1.9451-2.1612-1.2247-0.86446-2.8455-1.2607-1.6209-0.39621-3.4939-0.39621-2.3413 0-4.4304 0.68437t-3.782 2.0171q-1.6929 1.2967-2.8095 3.2057-1.1166 1.873-1.5488 4.2503-0.1801 1.0446-0.1801 2.0171 0 3.71 2.5214 5.7631 2.5574 2.0171 6.6996 2.0171 2.0531 0 3.8901-0.43223 1.873-0.43224 3.3858-1.3327 1.6569-0.97252 2.8095-2.4853 1.1886-1.5128 1.801-3.602h-7.5641q-0.39621 1.2607-1.2247 2.0531-0.82845 0.75641-2.1972 0.75641-1.2967 0-1.945-0.82845-0.64836-0.82845-0.64836-2.3413 0-0.68437 0.14408-1.5488 0.1801-0.93651 0.46826-1.837 0.28815-0.90049 0.75641-1.6209 0.46825-0.75641 1.2247-1.2247t1.7289-0.46825q1.2607 0 1.837 0.75641 0.46825 0.57631 0.46825 1.4768 0 0.072 0 0.21611-0.036 0.21612-0.036 0.25214zm10.374 0.10806q0.25214-1.5128 1.3327-2.3773 1.0806-0.90049 2.7375-0.90049 1.1886 0 1.9811 0.82845 0.79243 0.79243 0.79243 1.945 0 0.072-0.036 0.25214 0 0.1801 0 0.25214zm13.615 3.8181q0.28816-1.4768 0.28816-2.8095 0-4.0702-2.4493-6.4475-2.4493-2.4133-6.8797-2.4133-2.2692 0-4.3584 0.72039-2.0531 0.72039-3.746 2.0531t-2.8455 3.2418q-1.1166 1.873-1.5488 4.1422-0.1801 1.0446-0.1801 2.0171 0 3.71 2.5214 5.7631 2.5214 2.0171 6.6636 2.0171 1.765 0 3.4579-0.32418 1.6929-0.32417 3.2418-1.0446 1.5849-0.75641 2.8455-1.945 1.2607-1.2247 2.0171-2.9176h-7.1679q-0.5403 0.82844-1.3688 1.2607-0.82844 0.39621-1.7289 0.39621-1.3687 0-2.2692-0.82845-0.86447-0.82844-0.86447-2.1612 0-0.36019 0.072-0.72039zm9.5452 7.7442 1.2967-7.42h-7.6361l-1.2967 7.42zm11.994 0 1.2967-7.42h-7.6361l-1.2967 7.42zm11.995 0 1.2967-7.42h-7.6361l-1.2967 7.42z" fill="#dcffff" fill-opacity=".35" aria-label="MSN TV service..."/></g></svg>
