<?xml version="1.0" encoding="UTF-8" standalone="no"?>
<svg width="89.999893" height="38.276161" viewBox="0 0 89.999893 38.276163" version="1.1" id="svg1" inkscape:version="1.3 (0e150ed6c4, 2023-07-21)" xml:space="preserve" sodipodi:docname="MSNLogo.svg" xmlns:inkscape="http://www.inkscape.org/namespaces/inkscape" xmlns:sodipodi="http://sodipodi.sourceforge.net/DTD/sodipodi-0.dtd" xmlns:xlink="http://www.w3.org/1999/xlink" xmlns="http://www.w3.org/2000/svg" xmlns:svg="http://www.w3.org/2000/svg" xmlns:rdf="http://www.w3.org/1999/02/22-rdf-syntax-ns#" xmlns:cc="http://creativecommons.org/ns#" xmlns:dc="http://purl.org/dc/elements/1.1/"><title id="title39">MSN Logo</title>
  <inkscape:grid id="grid1" units="px" originx="1.7757636" originy="-14.258084" spacingx="1" spacingy="1" empcolor="#0099e5" empopacity="0.30196078" color="#0099e5" opacity="0.05098039" empspacing="1" dotted="false" gridanglex="30" gridanglez="30" visible="true" snapvisiblegridlinesonly="false" />
  <defs id="defs1">
    <linearGradient id="linearGradient24" inkscape:collect="always">
      <stop style="stop-color:#d6dce1;stop-opacity:1;" offset="0" id="stop24" />
      <stop style="stop-color:#bfc4ca;stop-opacity:1;" offset="1" id="stop25" />
    </linearGradient><linearGradient id="SVGID_1_" gradientUnits="userSpaceOnUse" x1="236.5762" y1="169.89059" x2="252.4729" y2="141.1055" gradientTransform="translate(-21,-121.5)">
      <stop offset="0" style="stop-color:#FFFFFF" id="stop14" />
      <stop offset="0.0056" style="stop-color:#94CBEE" id="stop16" />
      <stop offset="0.2111" style="stop-color:#76B7E5" id="stop18" />
      <stop offset="0.6556" style="stop-color:#008ECF" id="stop20" />
      <stop offset="0.8539" style="stop-color:#007FC5" id="stop22" />
    </linearGradient><linearGradient id="SVGID_2_" gradientUnits="userSpaceOnUse" x1="254.3887" y1="160.92191" x2="274.77151" y2="181.3047" gradientTransform="translate(-21,-121.5)">
      <stop offset="0" style="stop-color:#007FC5" id="stop27" />
      <stop offset="0.0873" style="stop-color:#0088B2" id="stop29" />
      <stop offset="0.2517" style="stop-color:#00968D" id="stop31" />
      <stop offset="0.3859" style="stop-color:#009F6C" id="stop33" />
      <stop offset="0.4832" style="stop-color:#00A555" id="stop35" />
      <stop offset="0.5337" style="stop-color:#00A94F" id="stop37" />
    </linearGradient><linearGradient id="SVGID_3_" gradientUnits="userSpaceOnUse" x1="280.25391" y1="201.6445" x2="261.9498" y2="173.45869" gradientTransform="translate(-21,-121.5)">
      <stop offset="0.0955" style="stop-color:#00A94F" id="stop42" />
      <stop offset="0.2436" style="stop-color:#00B156" id="stop44" />
      <stop offset="0.4855" style="stop-color:#61BD65" id="stop46" />
      <stop offset="0.7009" style="stop-color:#86C772" id="stop48" />
      <stop offset="0.8798" style="stop-color:#9ACE7B" id="stop50" />
      <stop offset="1" style="stop-color:#A1D07E" id="stop52" />
    </linearGradient><linearGradient id="SVGID_4_" gradientUnits="userSpaceOnUse" x1="299.10159" y1="198.21291" x2="295.44531" y2="165.6161" gradientTransform="translate(-21,-121.5)">
      <stop offset="0" style="stop-color:#F4A656" id="stop57" />
      <stop offset="0.4719" style="stop-color:#FCCA25" id="stop59" />
      <stop offset="0.4944" style="stop-color:#FCCA25" id="stop61" />
    </linearGradient><linearGradient id="SVGID_5_" gradientUnits="userSpaceOnUse" x1="273.0928" y1="165.3398" x2="311.6514" y2="165.3398" gradientTransform="translate(-21.5659,-121.0361)">'
      <stop offset="0.2921" style="stop-color:#F4A656" id="stop66" />
      <stop offset="1" style="stop-color:#E95A2F" id="stop68" />
    </linearGradient><linearGradient id="SVGID_6_" gradientUnits="userSpaceOnUse" x1="271.26859" y1="143.9473" x2="315.61929" y2="143.9473" gradientTransform="translate(-21.5659,-121.0361)">
    <stop offset="0.0169" style="stop-color:#F4A656" id="stop73" />
    <stop offset="0.5393" style="stop-color:#E95A2F" id="stop75" />
    </linearGradient><linearGradient id="SVGID_7_" gradientUnits="userSpaceOnUse" x1="273.39651" y1="328.332" x2="262.50369" y2="332.733" gradientTransform="translate(-14.3418,-282.9668)">
      <stop offset="0.0449" style="stop-color:#3E5BA6" id="stop80" />
      <stop offset="0.4719" style="stop-color:#6D7CBC" id="stop82" />
      <stop offset="0.532" style="stop-color:#6373B6" id="stop84" />
      <stop offset="0.6585" style="stop-color:#4F66AD" id="stop86" />
      <stop offset="0.7748" style="stop-color:#435EA7" id="stop88" />
      <stop offset="0.8708" style="stop-color:#3E5BA6" id="stop90" />
      <stop offset="1" style="stop-color:#3E5BA6" id="stop92" />
    </linearGradient><linearGradient inkscape:collect="always" xlink:href="#linearGradient24" id="linearGradient25" x1="32.990303" y1="31.009109" x2="32.990303" y2="48.014107" gradientUnits="userSpaceOnUse" />
    <filter inkscape:collect="always" style="color-interpolation-filters:sRGB" id="filter39" x="-0.050940503" y="-0.13826234" width="1.1026953" height="1.277708">
      <feGaussianBlur inkscape:collect="always" stdDeviation="1.1157499" id="feGaussianBlur39" />
    </filter>
    <filter style="color-interpolation-filters:sRGB;" inkscape:label="Diffuse Light" id="filter41" x="-0.011688441" y="-0.0418117" width="1.0233769" height="1.0836234">
      <feGaussianBlur in="SourceGraphic" stdDeviation="0.3" result="blur" id="feGaussianBlur40" /><feDiffuseLighting diffuseConstant="1" surfaceScale="10" lighting-color="rgb(255,255,255)" result="diffuse" id="feDiffuseLighting40">
      <feDistantLight elevation="150" azimuth="35" id="feDistantLight40" /></feDiffuseLighting>
      <feComposite in="diffuse" in2="diffuse" operator="arithmetic" k1="1" result="composite1" id="feComposite40" />
      <feComposite in="composite1" in2="SourceGraphic" k1="0.501961" operator="arithmetic" k3="1" result="composite2" id="feComposite41" />
    </filter>
  </defs>
  <g inkscape:groupmode="layer" id="layer2" inkscape:label="Shadows" style="mix-blend-mode:normal;fill:#000000;fill-opacity:1;stroke:#000000;stroke-width:3;stroke-dasharray:none;stroke-opacity:1;filter:url(#filter39)" transform="translate(1.7757636,-14.258084)">
    <path style="fill:#000000;fill-opacity:1;stroke:#000000;stroke-width:3;stroke-dasharray:none;stroke-opacity:1" fill="#1b5ba1" d="m 81.272996,40.01632 h 0.23502 c 0.204662,0 0.268448,0.07008 0.268448,0.162558 0,0.190389 -0.183513,0.219555 -0.299147,0.219555 H 81.272655 V 40.01632 Z m 0,0.699212 h 0.248323 l 0.2473,0.564803 h 0.438317 l -0.288232,-0.677093 c 0.0788,-0.0335 0.288232,-0.121678 0.288232,-0.417991 0,-0.464585 -0.500057,-0.464585 -0.593177,-0.464585 h -0.756908 v 1.559342 h 0.416487 V 40.715532 Z M 80,40.504023 c 0,0.836977 0.651166,1.495975 1.501194,1.495975 C 82.348835,41.999998 83,41.341 83,40.504023 83,39.642238 82.334509,38.999998 81.501194,38.999998 80.656624,38.999998 80,39.642238 80,40.504023 Z m 0.346561,0 c 0,-0.629165 0.545764,-1.155089 1.154633,-1.155089 0.616715,0 1.151904,0.525924 1.151904,1.155089 0,0.615747 -0.535189,1.150059 -1.151904,1.150059 -0.617396,0 -1.154633,-0.534312 -1.154633,-1.150059 z" id="path99" inkscape:label="Registered" />
    <path d="m 5.1214958,31.637483 h 5.5778732 l -0.421584,2.529501 q 1.816052,-3.015943 5.042787,-3.015943 3.080802,0 4.150975,3.015943 1.589045,-2.93487 4.896853,-2.93487 2.172777,0 3.469956,1.232321 1.313395,1.216106 1.313395,3.291594 0,0.664805 -0.145933,1.60526 l -1.783622,10.653089 h -6.226463 l 1.63769,-9.712634 q 0.113503,-0.745878 0.113503,-1.151247 0,-1.426898 -1.313395,-1.426898 -0.794522,0 -1.329609,0.599946 -0.518872,0.599946 -0.810737,2.302494 l -1.572831,9.388339 h -6.0481 l 1.637689,-9.712634 q 0.145933,-0.891811 0.145933,-1.26475 0,-0.745878 -0.421584,-1.070173 -0.421583,-0.324295 -0.875596,-0.324295 -0.454013,0 -1.135032,0.389154 -0.68102,0.372939 -0.9891,2.270064 L 8.3968747,48.014378 H 2.3812035 Z m 40.8122682,3.794251 -4.81578,1.053958 q -0.551302,-1.589045 -3.032158,-1.589045 -1.734978,0 -1.734978,0.972885 0,0.859382 1.670119,1.151247 3.405097,0.583731 4.799565,1.280965 1.394468,0.697234 2.091703,1.783622 0.713448,1.070174 0.713448,2.432212 0,2.464642 -2.075487,4.16719 -2.059273,1.686334 -6.275107,1.686334 -3.129446,0 -5.46437,-1.216106 -2.318709,-1.232321 -2.90244,-3.680748 l 5.12386,-0.745878 q 0.599946,1.767407 3.437527,1.767407 1.102603,0 1.637689,-0.30808 0.535087,-0.324295 0.535087,-0.729663 0,-0.389154 -0.356725,-0.567516 -0.356724,-0.194577 -1.799836,-0.518872 -2.870011,-0.64859 -4.086117,-1.151247 -1.216106,-0.518872 -2.075487,-1.63769 -0.843167,-1.118817 -0.843167,-2.594359 0,-2.513286 1.994414,-4.134761 1.994414,-1.621475 5.39951,-1.621475 3.097017,0 5.286008,1.199892 2.188991,1.183676 2.772722,2.999728 z m 2.740039,-3.794251 h 5.707591 l -0.437798,2.659219 q 0.664804,-1.63769 2.172776,-2.383568 1.507971,-0.762093 3.17809,-0.762093 2.091703,0 3.388882,1.102603 1.29718,1.102602 1.29718,2.902439 0,0.697234 -0.162147,1.670119 l -1.880911,11.188176 h -6.226463 l 1.653904,-9.842352 q 0.162148,-0.940455 0.162148,-1.248535 0,-1.378254 -1.459327,-1.378254 -1.961985,0 -2.399783,2.626789 l -1.653904,9.842352 h -6.08053 z" id="text1" style="font-style:italic;font-size:33.2078px;line-height:1;font-family:'Franklin Gothic Heavy';-inkscape-font-specification:'Franklin Gothic Heavy,  Italic';letter-spacing:-1.02178px;word-spacing:0px;fill:#000000;fill-opacity:1;stroke:#000000;stroke-width:3;stroke-linecap:square;stroke-miterlimit:0.9;stroke-dasharray:none;stroke-opacity:1;paint-order:markers fill stroke" inkscape:label="MSN" transform="scale(1.0002939,0.99970617)" aria-label="msn" />
    <g id="g372" transform="matrix(0.24043148,0,0,0.24043148,83.331667,14.421697)" inkscape:label="Butterfly" style="fill:#000000;fill-opacity:1;stroke:#000000;stroke-width:12.4776;stroke-dasharray:none;stroke-opacity:1">
      <path fill="url(#SVGID_1_)" d="m 246.235,35.751 c -0.233,-1.233 -0.429,-2.459 -0.587,-3.661 -8.091,-7.538 -19.813,-13.804 -28.996,-16.517 -2.645,-0.78 -5.909,-1.285 -7.639,0.642 -1.397,1.557 -0.975,4.494 0.6,8.081 5.427,12.372 15.466,25.525 25.344,33.211 0,-0.002 0,-0.003 0,-0.003 -2.167,-10.255 1.542,-19.23 11.278,-21.753 z" id="path25" style="fill:#000000;fill-opacity:1;stroke:#000000;stroke-width:10.5237;stroke-dasharray:none;stroke-opacity:1" transform="matrix(1.2087815,0,0,1.1629781,-352.82717,14.147187)" />
      <path fill="url(#SVGID_2_)" d="m 253.156,55.715 c -3.012,-5.187 -5.569,-12.761 -6.921,-19.964 -9.736,2.523 -13.445,11.498 -11.278,21.753 0,0 0,0.001 0,0.003 0.003,0.006 0.003,0.003 0.002,0 1.292,1.006 2.733,1.988 3.864,2.576 5.238,2.723 8.701,2.186 11.688,0.499 1.192,-0.676 2.703,-2.399 3.468,-3.502 -0.283,-0.451 -0.557,-0.906 -0.823,-1.365 z" id="path40" style="fill:#000000;fill-opacity:1;stroke:#000000;stroke-width:10.5237;stroke-dasharray:none;stroke-opacity:1" transform="matrix(1.2087815,0,0,1.1629781,-352.82717,14.147187)" inkscape:label="RightWingCenter" />
      <path fill="url(#SVGID_3_)" d="m 250.511,60.582 c -2.986,1.687 -6.449,2.224 -11.688,-0.499 -1.131,-0.588 -2.572,-1.57 -3.864,-2.576 0,0.003 0.001,0.005 0,0.002 3.996,10.235 10.033,17.533 18.036,21.864 1.431,0.773 2.768,0.978 4.177,0.305 0.942,-0.449 1.471,-1.501 1.731,-2.117 1.263,-2.99 1.864,-6.584 2.155,-11.471 -2.702,-2.763 -5.078,-5.797 -7.08,-9.01 -0.764,1.103 -2.275,2.826 -3.467,3.502 z" id="path55" style="fill:#000000;fill-opacity:1;stroke:#000000;stroke-width:10.5237;stroke-dasharray:none;stroke-opacity:1" transform="matrix(1.2087815,0,0,1.1629781,-352.82717,14.147187)" inkscape:label="RightWingBottom" />
      <path fill="url(#SVGID_4_)" d="m 290.086,43.759 c -0.814,2.26 -1.568,3.901 -3.148,6.544 -2.378,3.978 -6.64,6.347 -11.544,6.886 -4.461,0.489 -10.494,-0.339 -15.355,-2.243 0.746,3.589 1.105,7.321 1.021,11.145 3.464,3.398 7.521,6.388 12.081,8.662 0.794,0.396 1.795,0.669 2.665,0.669 1.351,0 2.628,-0.512 3.769,-1.424 8.106,-6.481 13.182,-18.086 10.511,-30.239 z" id="path64" style="fill:#000000;fill-opacity:1;stroke:#000000;stroke-width:10.5237;stroke-dasharray:none;stroke-opacity:1" transform="matrix(1.2087815,0,0,1.1629781,-352.82717,14.147187)" inkscape:label="LeftWingBottom" />
      <path fill="url(#SVGID_5_)" d="m 251.527,33.93 c 3.61,6.164 6.591,13.283 8.02,18.891 0.179,0.702 0.344,1.411 0.491,2.125 4.861,1.904 10.895,2.732 15.355,2.243 4.904,-0.539 9.166,-2.908 11.544,-6.886 1.58,-2.643 2.334,-4.284 3.148,-6.544 -7.773,-14.397 -27.667,-14.284 -38.558,-9.829 z" id="path71" style="fill:#000000;fill-opacity:1;stroke:#000000;stroke-width:10.5237;stroke-dasharray:none;stroke-opacity:1" transform="matrix(1.2087815,0,0,1.1629781,-352.82717,14.147187)" inkscape:label="LeftWingCenter" />
      <path fill="url(#SVGID_6_)" d="M 291.098,7.777 C 290.32,6.133 288.986,4.25 287.472,3.33 c -2.935,-1.781 -6.637,-1.628 -10.271,0.106 -11.61,5.538 -23.772,15.465 -27.497,27.548 0.621,0.949 1.23,1.934 1.824,2.945 10.891,-4.455 30.784,-4.568 38.559,9.829 3.774,-10.479 6.466,-24.45 1.011,-35.981 z" id="path78" style="fill:#000000;fill-opacity:1;stroke:#000000;stroke-width:10.5237;stroke-dasharray:none;stroke-opacity:1" transform="matrix(1.2087815,0,0,1.1629781,-352.82717,14.147187)" inkscape:label="LeftWingTop" />
      <path fill-rule="evenodd" clip-rule="evenodd" fill="url(#SVGID_7_)" d="m 245.589,31.621 c -0.155,-1.278 0.161,-2.434 1.006,-2.757 0.802,-0.309 1.811,0.206 2.495,1.202 4.696,6.841 8.719,15.925 10.457,22.754 1.077,4.232 1.612,8.684 1.512,13.27 -3.081,-3.152 -5.74,-6.655 -7.902,-10.375 -3.595,-6.194 -6.546,-15.791 -7.568,-24.094 z" id="path95" style="fill:#000000;fill-opacity:1;stroke:#000000;stroke-width:10.5237;stroke-dasharray:none;stroke-opacity:1" transform="matrix(1.2087815,0,0,1.1629781,-352.82717,14.147187)" inkscape:label="Body" />
    </g>
    <path style="fill:#000000;fill-opacity:1;stroke:#000000;stroke-width:3;stroke-dasharray:none;stroke-opacity:1" fill="#1b5ba1" d="m 64.272996,46.01632 h 0.23502 c 0.204662,0 0.268448,0.07008 0.268448,0.162558 0,0.190389 -0.183513,0.219555 -0.299147,0.219555 H 64.272655 V 46.01632 Z m 0,0.699212 h 0.248323 l 0.2473,0.564803 h 0.438317 l -0.288232,-0.677093 c 0.0788,-0.0335 0.288232,-0.121678 0.288232,-0.417991 0,-0.464585 -0.500057,-0.464585 -0.593177,-0.464585 h -0.756908 v 1.559342 h 0.416487 V 46.715532 Z M 63,46.504023 c 0,0.836977 0.651166,1.495975 1.501194,1.495975 C 65.348835,47.999998 66,47.341 66,46.504023 66,45.642238 65.334509,44.999998 64.501194,44.999998 63.656624,44.999998 63,45.642238 63,46.504023 Z m 0.346561,0 c 0,-0.629165 0.545764,-1.155089 1.154633,-1.155089 0.616715,0 1.151904,0.525924 1.151904,1.155089 0,0.615747 -0.535189,1.150059 -1.151904,1.150059 -0.617396,0 -1.154633,-0.534312 -1.154633,-1.150059 z" id="path26" inkscape:label="Registered" />
  </g>
  <g inkscape:groupmode="layer" id="g37" inkscape:label="Main" transform="translate(1.7757636,-14.258084)">
    <path style="fill:#ffffff;fill-opacity:1;stroke-width:0.338136" fill="#1b5ba1" d="m 81.272996,40.01632 h 0.23502 c 0.204662,0 0.268448,0.07008 0.268448,0.162558 0,0.190389 -0.183513,0.219555 -0.299147,0.219555 H 81.272655 V 40.01632 Z m 0,0.699212 h 0.248323 l 0.2473,0.564803 h 0.438317 l -0.288232,-0.677093 c 0.0788,-0.0335 0.288232,-0.121678 0.288232,-0.417991 0,-0.464585 -0.500057,-0.464585 -0.593177,-0.464585 h -0.756908 v 1.559342 h 0.416487 V 40.715532 Z M 80,40.504023 c 0,0.836977 0.651166,1.495975 1.501194,1.495975 C 82.348835,41.999998 83,41.341 83,40.504023 83,39.642238 82.334509,38.999998 81.501194,38.999998 80.656624,38.999998 80,39.642238 80,40.504023 Z m 0.346561,0 c 0,-0.629165 0.545764,-1.155089 1.154633,-1.155089 0.616715,0 1.151904,0.525924 1.151904,1.155089 0,0.615747 -0.535189,1.150059 -1.151904,1.150059 -0.617396,0 -1.154633,-0.534312 -1.154633,-1.150059 z" id="path28" inkscape:label="Registered" />
    <path d="m 5.1214958,31.637483 h 5.5778732 l -0.421584,2.529501 q 1.816052,-3.015943 5.042787,-3.015943 3.080802,0 4.150975,3.015943 1.589045,-2.93487 4.896853,-2.93487 2.172777,0 3.469956,1.232321 1.313395,1.216106 1.313395,3.291594 0,0.664805 -0.145933,1.60526 l -1.783622,10.653089 h -6.226463 l 1.63769,-9.712634 q 0.113503,-0.745878 0.113503,-1.151247 0,-1.426898 -1.313395,-1.426898 -0.794522,0 -1.329609,0.599946 -0.518872,0.599946 -0.810737,2.302494 l -1.572831,9.388339 h -6.0481 l 1.637689,-9.712634 q 0.145933,-0.891811 0.145933,-1.26475 0,-0.745878 -0.421584,-1.070173 -0.421583,-0.324295 -0.875596,-0.324295 -0.454013,0 -1.135032,0.389154 -0.68102,0.372939 -0.9891,2.270064 L 8.3968747,48.014378 H 2.3812035 Z m 40.8122682,3.794251 -4.81578,1.053958 q -0.551302,-1.589045 -3.032158,-1.589045 -1.734978,0 -1.734978,0.972885 0,0.859382 1.670119,1.151247 3.405097,0.583731 4.799565,1.280965 1.394468,0.697234 2.091703,1.783622 0.713448,1.070174 0.713448,2.432212 0,2.464642 -2.075487,4.16719 -2.059273,1.686334 -6.275107,1.686334 -3.129446,0 -5.46437,-1.216106 -2.318709,-1.232321 -2.90244,-3.680748 l 5.12386,-0.745878 q 0.599946,1.767407 3.437527,1.767407 1.102603,0 1.637689,-0.30808 0.535087,-0.324295 0.535087,-0.729663 0,-0.389154 -0.356725,-0.567516 -0.356724,-0.194577 -1.799836,-0.518872 -2.870011,-0.64859 -4.086117,-1.151247 -1.216106,-0.518872 -2.075487,-1.63769 -0.843167,-1.118817 -0.843167,-2.594359 0,-2.513286 1.994414,-4.134761 1.994414,-1.621475 5.39951,-1.621475 3.097017,0 5.286008,1.199892 2.188991,1.183676 2.772722,2.999728 z m 2.740039,-3.794251 h 5.707591 l -0.437798,2.659219 q 0.664804,-1.63769 2.172776,-2.383568 1.507971,-0.762093 3.17809,-0.762093 2.091703,0 3.388882,1.102603 1.29718,1.102602 1.29718,2.902439 0,0.697234 -0.162147,1.670119 l -1.880911,11.188176 h -6.226463 l 1.653904,-9.842352 q 0.162148,-0.940455 0.162148,-1.248535 0,-1.378254 -1.459327,-1.378254 -1.961985,0 -2.399783,2.626789 l -1.653904,9.842352 h -6.08053 z" id="path29" style="font-style:italic;font-size:33.2078px;line-height:1;font-family:'Franklin Gothic Heavy';-inkscape-font-specification:'Franklin Gothic Heavy,  Italic';letter-spacing:-1.02178px;word-spacing:0px;fill:url(#linearGradient25);stroke-width:3.06534;stroke-linecap:square;stroke-miterlimit:0.9;paint-order:markers fill stroke;filter:url(#filter41)" inkscape:label="MSN" transform="scale(1.0002939,0.99970617)" aria-label="msn" />
    <g id="g36" transform="matrix(0.24043148,0,0,0.24043148,83.331667,14.421697)" inkscape:label="Butterfly" style="stroke:none">
      <path fill="url(#SVGID_1_)" d="m 246.235,35.751 c -0.233,-1.233 -0.429,-2.459 -0.587,-3.661 -8.091,-7.538 -19.813,-13.804 -28.996,-16.517 -2.645,-0.78 -5.909,-1.285 -7.639,0.642 -1.397,1.557 -0.975,4.494 0.6,8.081 5.427,12.372 15.466,25.525 25.344,33.211 0,-0.002 0,-0.003 0,-0.003 -2.167,-10.255 1.542,-19.23 11.278,-21.753 z" id="path30" style="fill:url(#SVGID_1_);stroke:none" transform="matrix(1.2087815,0,0,1.1629781,-352.82717,14.147187)" />
      <path fill="url(#SVGID_2_)" d="m 253.156,55.715 c -3.012,-5.187 -5.569,-12.761 -6.921,-19.964 -9.736,2.523 -13.445,11.498 -11.278,21.753 0,0 0,0.001 0,0.003 0.003,0.006 0.003,0.003 0.002,0 1.292,1.006 2.733,1.988 3.864,2.576 5.238,2.723 8.701,2.186 11.688,0.499 1.192,-0.676 2.703,-2.399 3.468,-3.502 -0.283,-0.451 -0.557,-0.906 -0.823,-1.365 z" id="path31" style="fill:url(#SVGID_2_);stroke:none" transform="matrix(1.2087815,0,0,1.1629781,-352.82717,14.147187)" inkscape:label="RightWingCenter" />
      <path fill="url(#SVGID_3_)" d="m 250.511,60.582 c -2.986,1.687 -6.449,2.224 -11.688,-0.499 -1.131,-0.588 -2.572,-1.57 -3.864,-2.576 0,0.003 0.001,0.005 0,0.002 3.996,10.235 10.033,17.533 18.036,21.864 1.431,0.773 2.768,0.978 4.177,0.305 0.942,-0.449 1.471,-1.501 1.731,-2.117 1.263,-2.99 1.864,-6.584 2.155,-11.471 -2.702,-2.763 -5.078,-5.797 -7.08,-9.01 -0.764,1.103 -2.275,2.826 -3.467,3.502 z" id="path32" style="fill:url(#SVGID_3_);stroke:none" transform="matrix(1.2087815,0,0,1.1629781,-352.82717,14.147187)" inkscape:label="RightWingBottom" />
      <path fill="url(#SVGID_4_)" d="m 290.086,43.759 c -0.814,2.26 -1.568,3.901 -3.148,6.544 -2.378,3.978 -6.64,6.347 -11.544,6.886 -4.461,0.489 -10.494,-0.339 -15.355,-2.243 0.746,3.589 1.105,7.321 1.021,11.145 3.464,3.398 7.521,6.388 12.081,8.662 0.794,0.396 1.795,0.669 2.665,0.669 1.351,0 2.628,-0.512 3.769,-1.424 8.106,-6.481 13.182,-18.086 10.511,-30.239 z" id="path33" style="fill:url(#SVGID_4_);stroke:none" transform="matrix(1.2087815,0,0,1.1629781,-352.82717,14.147187)" inkscape:label="LeftWingBottom" />
      <path fill="url(#SVGID_5_)" d="m 251.527,33.93 c 3.61,6.164 6.591,13.283 8.02,18.891 0.179,0.702 0.344,1.411 0.491,2.125 4.861,1.904 10.895,2.732 15.355,2.243 4.904,-0.539 9.166,-2.908 11.544,-6.886 1.58,-2.643 2.334,-4.284 3.148,-6.544 -7.773,-14.397 -27.667,-14.284 -38.558,-9.829 z" id="path34" style="fill:url(#SVGID_5_);stroke:none" transform="matrix(1.2087815,0,0,1.1629781,-352.82717,14.147187)" inkscape:label="LeftWingCenter" />
      <path fill="url(#SVGID_6_)" d="M 291.098,7.777 C 290.32,6.133 288.986,4.25 287.472,3.33 c -2.935,-1.781 -6.637,-1.628 -10.271,0.106 -11.61,5.538 -23.772,15.465 -27.497,27.548 0.621,0.949 1.23,1.934 1.824,2.945 10.891,-4.455 30.784,-4.568 38.559,9.829 3.774,-10.479 6.466,-24.45 1.011,-35.981 z" id="path35" style="fill:url(#SVGID_6_);stroke:none" transform="matrix(1.2087815,0,0,1.1629781,-352.82717,14.147187)" inkscape:label="LeftWingTop" />
      <path fill-rule="evenodd" clip-rule="evenodd" fill="url(#SVGID_7_)" d="m 245.589,31.621 c -0.155,-1.278 0.161,-2.434 1.006,-2.757 0.802,-0.309 1.811,0.206 2.495,1.202 4.696,6.841 8.719,15.925 10.457,22.754 1.077,4.232 1.612,8.684 1.512,13.27 -3.081,-3.152 -5.74,-6.655 -7.902,-10.375 -3.595,-6.194 -6.546,-15.791 -7.568,-24.094 z" id="path36" style="fill:url(#SVGID_7_);stroke:none" transform="matrix(1.2087815,0,0,1.1629781,-352.82717,14.147187)" inkscape:label="Body" />
    </g>
    <path style="fill:#ffffff;fill-opacity:1;stroke-width:0.338136" fill="#1b5ba1" d="m 64.272996,46.01632 h 0.23502 c 0.204662,0 0.268448,0.07008 0.268448,0.162558 0,0.190389 -0.183513,0.219555 -0.299147,0.219555 H 64.272655 V 46.01632 Z m 0,0.699212 h 0.248323 l 0.2473,0.564803 h 0.438317 l -0.288232,-0.677093 c 0.0788,-0.0335 0.288232,-0.121678 0.288232,-0.417991 0,-0.464585 -0.500057,-0.464585 -0.593177,-0.464585 h -0.756908 v 1.559342 h 0.416487 V 46.715532 Z M 63,46.504023 c 0,0.836977 0.651166,1.495975 1.501194,1.495975 C 65.348835,47.999998 66,47.341 66,46.504023 66,45.642238 65.334509,44.999998 64.501194,44.999998 63.656624,44.999998 63,45.642238 63,46.504023 Z m 0.346561,0 c 0,-0.629165 0.545764,-1.155089 1.154633,-1.155089 0.616715,0 1.151904,0.525924 1.151904,1.155089 0,0.615747 -0.535189,1.150059 -1.151904,1.150059 -0.617396,0 -1.154633,-0.534312 -1.154633,-1.150059 z" id="path37" inkscape:label="Registered" />
  </g>
  <metadata id="metadata39"><rdf:RDF><cc:Work rdf:about=""><dc:title>MSN Logo</dc:title><dc:date>12/21/2023</dc:date><dc:creator><cc:Agent><dc:title>SKCro</dc:title></cc:Agent></dc:creator><dc:rights><cc:Agent><dc:title>Microsoft</dc:title></cc:Agent></dc:rights><dc:source>Microsoft/WebTV</dc:source></cc:Work></rdf:RDF></metadata>
</svg>