<?xml version="1.0" encoding="UTF-8"?>
<svg width="77" height="75" version="1.1" viewBox="0 0 77 75" xmlns="http://www.w3.org/2000/svg" xmlns:xlink="http://www.w3.org/1999/xlink"><title>Page Builder Icon</title><defs><linearGradient id="c" x1="19" x2="60.5" y1="25" y2="66" gradientUnits="userSpaceOnUse"><stop stop-color="#318c42" offset="0"/><stop stop-color="#297b39" offset="1"/></linearGradient><filter id="l" x="-.03" y="-.034286" width="1.0868" height="1.0992" color-interpolation-filters="sRGB"><feGaussianBlur in="SourceGraphic" result="blur" stdDeviation="0.2"/><feDiffuseLighting lighting-color="#ffffff" result="diffuse" surfaceScale="10"><feDistantLight elevation="184"/></feDiffuseLighting><feComposite in="diffuse" in2="diffuse" k1="1" operator="arithmetic" result="composite1"/><feComposite in="composite1" in2="SourceGraphic" k1="1" k3="1" operator="arithmetic" result="fbSourceGraphic"/><feColorMatrix in="fbSourceGraphic" result="fbSourceGraphicAlpha" values="0 0 0 -1 0 0 0 0 -1 0 0 0 0 -1 0 0 0 0 1 0"/><feFlood flood-color="rgb(0,0,0)" flood-opacity=".50196" in="fbSourceGraphic" result="flood"/><feGaussianBlur in="fbSourceGraphic" result="blur" stdDeviation="0.500000"/><feOffset dx="1.500000" dy="1.500000" in="blur" result="offset"/><feComposite in="flood" in2="offset" operator="in" result="comp1"/><feComposite in="fbSourceGraphic" in2="comp1" result="comp2"/></filter><linearGradient id="h" x1="36" x2="38" y1="8" y2="6" gradientUnits="userSpaceOnUse"><stop stop-color="#636b73" offset="0"/><stop stop-color="#efefef" offset=".2472"/><stop stop-color="#adadb5" offset=".74583"/><stop stop-color="#848484" offset="1"/></linearGradient><linearGradient id="g" x1="50" x2="52" y1="22" y2="20" gradientUnits="userSpaceOnUse"><stop stop-color="#e78c52" offset="0"/><stop stop-color="#d67b39" offset=".5"/><stop stop-color="#a56331" offset=".75"/><stop stop-color="#633921" offset="1"/></linearGradient><linearGradient id="f" x1="63" x2="65" y1="35" y2="33" gradientUnits="userSpaceOnUse"><stop stop-color="#e7a594" offset="0"/><stop stop-color="#e7a594" offset=".5"/><stop stop-color="#bd7373" offset="1"/></linearGradient><linearGradient id="e" x1="68.423" x2="68.761" y1="38.337" y2="38" gradientTransform="matrix(1.3901 0 0 1.3901 -27.112 -15.214)" gradientUnits="userSpaceOnUse"><stop stop-color="#191919" offset="0"/><stop stop-color="#191919" offset=".5"/><stop offset="1"/></linearGradient><linearGradient id="d" x1="33" x2="35" y1="5" y2="3" gradientUnits="userSpaceOnUse"><stop stop-color="#a53131" offset="0"/><stop stop-color="#a53131" offset=".5"/><stop stop-color="#842929" offset="1"/></linearGradient><filter id="k" x="-.031996" y="-.032429" width="1.104" height="1.1054" color-interpolation-filters="sRGB"><feFlood flood-color="rgb(0,0,0)" flood-opacity=".50196" in="SourceGraphic" result="flood"/><feGaussianBlur in="SourceGraphic" result="blur" stdDeviation="0.500000"/><feOffset dx="1.500000" dy="1.500000" in="blur" result="offset"/><feComposite in="flood" in2="offset" operator="in" result="comp1"/><feComposite in="SourceGraphic" in2="comp1" result="comp2"/></filter><linearGradient id="b" x1=".5" x2="11.576" y1="12" y2="10.54" gradientUnits="userSpaceOnUse"><stop stop-color="#636b73" offset="0"/><stop stop-color="#7b8494" offset=".15104"/><stop stop-color="#7b8494" offset=".4"/><stop stop-color="#6b7384" offset=".59766"/><stop stop-color="#5a6373" offset=".85"/></linearGradient><linearGradient id="i" x1="-20" x2="-9" y1="20" y2="20" gradientTransform="matrix(4.7749 4.4303e-8 -1.1974e-8 5.4821 92.336 -64.511)" gradientUnits="userSpaceOnUse"><stop stop-color="#31394a" offset=".15"/><stop stop-color="#6b7ba5" offset="1"/></linearGradient><linearGradient id="a" x1="5.9995" x2="49" y1="38.9" y2="38.9" gradientTransform="rotate(-10.47 31.842 17.441)" gradientUnits="userSpaceOnUse"><stop stop-color="#fff" stop-opacity=".65068" offset=".08"/><stop stop-color="#fff" offset="1"/></linearGradient><filter id="j" x="-.045693" y="-.04151" width="1.1295" height="1.1176" color-interpolation-filters="sRGB"><feFlood flood-color="rgb(0,0,0)" flood-opacity=".50196" in="SourceGraphic" result="flood"/><feGaussianBlur in="SourceGraphic" result="blur" stdDeviation="1.000000"/><feOffset dx="2.000000" dy="2.000000" in="blur" result="offset"/><feComposite in="flood" in2="offset" operator="in" result="comp1"/><feComposite in="SourceGraphic" in2="comp1" result="comp2"/></filter></defs><g stroke-miterlimit=".8" stroke-width="0"><path transform="matrix(.98152 -.19138 .17514 .98454 0 0)" d="m-2.6275 14.725 51.99 2.9963v54.821h-52.524z" fill="url(#i)" filter="url(#j)" style="paint-order:stroke fill markers"/><path d="m45.756 14.827-1.4754 0.273 0.54421 2.9487-33.432 6.1816-0.546-2.9508-1.4733 0.27125 0.546 2.9508-2.9508 0.546 0.27121 1.4733 2.9508-0.546 6.1795 33.434-2.9508 0.546 0.273 1.4754 2.9488-0.54617 0.546 2.9508 1.4754-0.273-0.54617-2.9488 33.432-6.1797 0.546 2.9508 1.4754-0.273-0.54617-2.9488 2.9508-0.546-0.2711-1.4752-2.9508 0.546-6.1795-33.434 2.9508-0.546-0.273-1.4754-2.9488 0.54617zm-0.65818 4.6971 6.1794 33.436-33.432 6.1777-6.1815-33.434z" fill="url(#a)" style="paint-order:stroke fill markers"/><path transform="translate(0 -1.0003)" d="m0.5 12a9.422 9.422 169.7 0 1 11-2l8 57-1.3092-0.40284a10.265 10.265 169.22 0 0-9.4316 1.7955l-0.75914 0.60731z" display="none" fill="url(#b)" style="paint-order:stroke fill markers"/><path d="m19 25 27 49 29-16h-16l-9 5-11-18 20 13h16z" fill="url(#c)" filter="url(#l)" opacity=".8" style="paint-order:stroke fill markers"/></g><g filter="url(#k)" stroke-miterlimit=".8" stroke-width="0"><path d="m34 6 4 4 2-2-4-4z" fill="url(#h)" style="paint-order:stroke fill markers"/><path d="m38 10 25 25 2-2-25-25z" fill="url(#g)" style="paint-order:stroke fill markers"/><path d="m63 35 6.5 4-4.5-6z" fill="url(#f)" style="paint-order:stroke fill markers"/><path d="m69.5 39-1.5-2-0.66667 0.66667z" fill="url(#e)" style="paint-order:stroke fill markers"/><path d="m34 6 2-2-2-2s-1.1308-0.073657-1.6023 0.39775c-0.4714 0.4714-0.39775 1.6023-0.39775 1.6023z" fill="url(#d)" style="paint-order:stroke fill markers"/></g></svg>
