<?xml version="1.0" encoding="UTF-8"?>
<svg width="512pt" height="512pt" version="1.0" viewBox="0 0 512 512" xmlns="http://www.w3.org/2000/svg"><defs><filter id="a" x="-.028924" y="-.039072" width="1.0578" height="1.0781" color-interpolation-filters="sRGB"><feGaussianBlur stdDeviation="1.0223976"/></filter><filter id="e" x="0" y="0" width="1" height="1" color-interpolation-filters="sRGB"><feGaussianBlur/></filter><filter id="b" x="-.0080544" y="-.023523" width="1.0161" height="1.047" color-interpolation-filters="sRGB"><feGaussianBlur stdDeviation="0.32367987"/></filter></defs><g transform="matrix(1.9366 0 0 1.9366 -15.603 -8.8745)" stroke-width="0"><path d="m92.838 257.47h7.68v-14.208h24v14.208h7.744v-33.024h-7.744v12.8h-24v-12.8h-7.68zm56.32 0h19.264c5.888 0 10.368-0.576 13.568-2.56 4.608-2.816 7.296-7.936 7.296-14.144 0-10.24-6.528-16.32-18.88-16.32h-21.248zm7.68-6.208v-20.928h13.632c7.232 0 10.88 3.584 10.88 10.304 0 8.192-4.864 10.624-14.592 10.624z" filter="url(#b)" opacity=".75" aria-label="HD"/><path d="m91.028 255.66h7.68v-14.208h24v14.208h7.744v-33.024h-7.744v12.8h-24v-12.8h-7.68zm56.32 0h19.264c5.888 0 10.368-0.576 13.568-2.56 4.608-2.816 7.296-7.936 7.296-14.144 0-10.24-6.528-16.32-18.88-16.32h-21.248zm7.68-6.208v-20.928h13.632c7.232 0 10.88 3.584 10.88 10.304 0 8.192-4.864 10.624-14.592 10.624z" fill="#fff" aria-label="HD"/></g><g transform="matrix(5.2483 0 0 5.2483 -24.885 5.865)" fill-rule="evenodd"><path d="m89.911 20.982c2.1087 0.90034 3.9627 2.0376 5.562 3.4118l0.42648 0.37317c1.4216 1.2913 2.0512 2.544 3.1228 4.4174 0.47523 1.3381 0.81891 3.1289 0.82151 4.9493l-4.784 28.571c-0.43832 2.8669-1.54 5.1651-3.3052 6.8947l-1.3327 1.1017c-2.1798 1.5401-4.4742 2.8582-7.9571 3.0596l-42.032 1.6074c-2.1626 0.10794-5.0706 0.06246-7.0016-0.69572-1.8599-0.72264-2.9868-1.3921-4.6335-2.8137-0.6871-0.59233-1.6742-1.5169-2.2902-2.1922-0.8411-0.92403-1.1966-1.931-1.8719-3.0209-0.87278-2.1442-1.2231-3.9357-1.6996-6.0904l-7.7832-34.118s-0.42664-2.9251 0.1961-5.2492c0.31137-1.1621 0.69673-2.6456 1.5789-3.8691 0.8822-1.2234 1.9816-2.1923 2.6864-2.778 1.3921-1.1568 4.7711-2.2236 7.6042-1.8576l55.957 6.5038c2.3219 0.27247 4.5668 0.87072 6.7348 1.7948" fill-opacity=".74964" filter="url(#a)" stroke-width=".3554" style="mix-blend-mode:normal"/><path d="m82.478 14.045c2.1087 0.90034 3.9627 2.0376 5.562 3.4118l0.42648 0.37317c1.4216 1.2913 2.0512 2.544 3.1228 4.4174 0.47523 1.3381 0.81891 3.1289 0.82151 4.9493l-4.784 28.571c-0.43832 2.8669-1.54 5.1651-3.3052 6.8947l-1.3327 1.1017c-2.1798 1.5401-4.4742 2.8582-7.9571 3.0596l-42.032 1.6074c-2.1626 0.10794-5.0706 0.06246-7.0016-0.69572-1.8599-0.72264-2.9868-1.3921-4.6335-2.8137-0.6871-0.59233-1.6742-1.5169-2.2902-2.1922-0.8411-0.92403-1.1966-1.931-1.8719-3.0209-0.87278-2.1442-1.2231-3.9357-1.6996-6.0904l-7.7832-34.118s-0.42664-2.9251 0.1961-5.2492c0.31137-1.1621 0.69673-2.6456 1.5789-3.8691 0.8822-1.2234 1.9816-2.1923 2.6864-2.778 1.3921-1.1568 4.7711-2.2236 7.6042-1.8576l55.957 6.5038c2.3219 0.27247 4.5668 0.87072 6.7348 1.7948" filter="url(#e)" stroke-width=".3554"/><g transform="matrix(.96452 0 0 .96452 1.6096 1.4285)" fill="#fff" stroke-width=".36518"><path d="m52.711 25.027v12.033h0.05478c0.30432-0.79123 0.79732-1.4546 1.479-1.9902 0.77906-0.63298 1.6677-0.94948 2.6658-0.94948 1.692 0 3.1345 0.74254 4.3274 2.2276 1.0955 1.3634 1.6433 2.8423 1.6433 4.437 0 1.8137-0.55995 3.3658-1.6798 4.6561-1.1808 1.339-2.678 2.0085-4.4918 2.0085-0.96165 0-1.8381-0.28606-2.6293-0.85818-0.63298-0.46257-1.0712-0.986-1.3147-1.5703h-0.05478v2.0633h-4.583v-0.56603h2.0633v-20.158h-2.0633v-0.58429h2.0633c1.2416 0 2.0815-0.24954 2.5198-0.74862m1.1138 11.412c-0.70602 1.0103-1.0773 2.1728-1.1138 3.4875v2.3007c0 1.3634 0.41996 2.4954 1.2599 3.3962 0.77906 0.85209 1.692 1.266 2.7389 1.2416 1.3877-0.01217 2.3007-0.50517 2.7389-1.479 0.35301-0.77906 0.5356-2.3128 0.54777-4.6013 0.02435-2.0937-0.15216-3.5849-0.52952-4.4735-0.46256-1.0834-1.3147-1.619-2.5563-1.6068-1.2538 0-2.2824 0.57821-3.0858 1.7346m-38.929-1.0773v-0.58429h13.475v0.58429h-2.4102l3.9075 8.9652 2.7754-6.4272c0.4017-0.88861 0.60255-1.4668 0.60255-1.7346 0-0.5356-0.46865-0.8034-1.406-0.8034h-0.8034v-0.58429h5.2221v0.58429c-0.85209 0-1.4851 0.18868-1.899 0.56603-0.27997 0.25563-0.60864 0.82166-0.986 1.6981l-4.4187 10.189h-0.20085l-3.3414-7.4863-3.1771 7.4863h-0.20085l-5.5325-12.453h-1.6068m22.842 1.0043c1.1442-1.4973 2.4893-2.2459 4.0353-2.2459 1.5581 0 2.8971 0.71211 4.017 2.1363 0.42605 0.5356 0.76688 1.1138 1.0225 1.7346 0.23128 0.54778 0.34692 0.99817 0.34692 1.3512 0 0.19476-0.0913 0.29215-0.27389 0.29215h-7.8332v2.7937c-0.04869 2.9215 0.97991 4.3822 3.0858 4.3822 1.266 0.01217 2.325-0.37736 3.1771-1.1686 0.76688-0.71819 1.2538-1.6555 1.4607-2.8119h0.63907c-0.24346 1.3877-0.83992 2.5015-1.7894 3.3414-0.96165 0.85209-2.1241 1.2781-3.4875 1.2781-1.7529 0-3.1832-0.61472-4.2909-1.8442-1.1199-1.2416-1.6798-2.8484-1.6798-4.8204 0-1.5703 0.52343-3.0432 1.5703-4.4187m-18.296-1.0043 3.7614 8.7461 1.9172-4.4918-1.9172-4.2544h-3.7614m24.796 3.7066 0.03652-0.14607v-0.62081c0-2.4102-0.83384-3.6153-2.5015-3.6153-1.8137 0-2.7206 1.2051-2.7206 3.6153v0.76688h5.1856"/><path d="m63.78 35.43v-0.58429q2.2641 0.05478 3.3597-0.96774 1.0043-0.94948 1.406-3.2319h0.36518v4.1996h11.284v0.58429h-2.2276l3.7066 8.8557 2.7389-6.3177q0.62081-1.3694 0.62081-1.7346 0-0.8034-1.406-0.8034h-0.82166v-0.58429h5.2221v0.58429q-1.2781 0-1.8807 0.58429-0.38344 0.38344-0.96774 1.7164l-4.4187 10.152h-0.23737l-5.4595-12.453h-6.1533v9.8599q0 0.87644 0.38344 1.2599 0.32866 0.34692 1.0773 0.36518 0.85818 0.01826 1.5155-0.67559 0.52952-0.54778 0.67559-1.1321l0.60255 0.12781q-0.21911 0.78514-0.8947 1.406-0.94948 0.87644-2.4102 0.87644-3.4692 0-3.4692-2.6658v-9.4217h-2.6111"/></g></g></svg>
