<?xml version="1.0" encoding="UTF-8"?>
<svg width="30" height="30" version="1.1" xmlns="http://www.w3.org/2000/svg"><defs><filter id="b" x="-.016552" y="-.016552" width="1.0607" height="1.0607" color-interpolation-filters="sRGB"><feFlood flood-color="rgb(0,0,0)" flood-opacity=".8" in="SourceGraphic" result="flood"/><feGaussianBlur in="SourceGraphic" result="blur" stdDeviation="0.200000"/><feOffset dx="0.800000" dy="0.800000" in="blur" result="offset"/><feComposite in="flood" in2="offset" operator="in" result="comp1"/><feComposite in="SourceGraphic" in2="comp1" result="comp2"/></filter><filter id="c" x="-.075862" y="-.075862" width="1.1172" height="1.1172" color-interpolation-filters="sRGB"><feFlood flood-color="rgb(36,205,0)" in="SourceGraphic" result="flood"/><feGaussianBlur in="SourceGraphic" result="blur" stdDeviation="0.500000"/><feOffset dx="-1.000000" dy="-1.000000" in="blur" result="offset"/><feComposite in="flood" in2="offset" operator="out" result="comp1"/><feComposite in="comp1" in2="SourceGraphic" operator="in" result="comp2"/></filter><filter id="d" x="-.041379" y="-.041379" width="1.1517" height="1.1517" color-interpolation-filters="sRGB"><feFlood flood-color="rgb(92,253,71)" in="SourceGraphic" result="flood"/><feGaussianBlur in="SourceGraphic" result="blur" stdDeviation="0.5"/><feOffset dx="2.000000" dy="2.000000" in="blur" result="offset"/><feComposite in="flood" in2="offset" operator="out" result="comp1"/><feComposite in="comp1" in2="SourceGraphic" operator="in" result="comp2"/></filter><filter id="a" x="-.041379" y="-.041379" width="1.1172" height="1.1172" color-interpolation-filters="sRGB"><feFlood flood-color="rgb(255,255,255)" in="SourceGraphic" result="flood"/><feGaussianBlur in="SourceGraphic" result="blur" stdDeviation="0.500000"/><feOffset dx="1.000000" dy="1.000000" in="blur" result="offset"/><feComposite in="flood" in2="offset" operator="out" result="comp1"/><feComposite in="comp1" in2="SourceGraphic" operator="in" result="comp2"/></filter></defs><g opacity=".7"><path d="m5 0c-2.7354 0-5 2.2646-5 5v19c0 2.7354 2.2646 5 5 5h19c2.7354 0 5-2.2646 5-5v-19c0-2.7354-2.2646-5-5-5zm1 4h17c1 0 2 1 2 2v17c0 1-1 2-2 2h-17c-1 0-2-1-2-2v-17c0-1 1-2 2-2z" fill="#2dfd00" filter="url(#b)"/><path d="m5 9.2252e-8c-2.7354 0-5 2.2646-5 5v19c0 2.7354 2.2646 5 5 5h19c2.7354 0 5-2.2646 5-5v-19c0-2.7354-2.2646-5-5-5zm1 4h17c1 0 2 1 2 2v17c0 1-1 2-2 2h-17c-1 0-2-1-2-2v-17c0-1 1-2 2-2z" filter="url(#c)"/><path d="m5 0c-2.7354 0-5 2.2646-5 5v19c0 2.7354 2.2646 5 5 5h19c2.7354 0 5-2.2646 5-5v-19c0-2.7354-2.2646-5-5-5zm1 4h17c1 0 2-1 2 0v19c0 1-1 2-2 2h-19c-1 0 1e-7 -1.0088 1e-7 -2l-1e-7 -17c0-1 1-2 2-2z" filter="url(#d)"/><path d="m5 0c-2.7354 0-5 2.2646-5 5v19c0 2.7354 2.2646 5 5 5h19c2.7354 0 5-2.2646 5-5v-19c0-2.7354-2.2646-5-5-5zm1 4h17c1 0 2 1 2 2v17c0 1-1 2-2 2h-17c-1 0-2-1-2-2v-17c0-1 1-2 2-2z" filter="url(#a)"/></g></svg>