<?xml version="1.0" encoding="UTF-8" standalone="no"?>
<!-- Created with Inkscape (http://www.inkscape.org/) -->
<svg width="30" height="30" viewBox="0 0 30 30" version="1.1" id="svg1" xml:space="preserve" sodipodi:docname="SelectionBox.svg" xmlns:inkscape="http://www.inkscape.org/namespaces/inkscape" xmlns:sodipodi="http://sodipodi.sourceforge.net/DTD/sodipodi-0.dtd" xmlns="http://www.w3.org/2000/svg" xmlns:svg="http://www.w3.org/2000/svg">
  <sodipodi:namedview id="namedview1" pagecolor="#505050" bordercolor="#ffffff" borderopacity="1" inkscape:showpageshadow="0" inkscape:pageopacity="0" inkscape:pagecheckerboard="1" inkscape:deskcolor="#505050" inkscape:document-units="px" showgrid="true" inkscape:zoom="16" inkscape:cx="16.875" inkscape:cy="13.4375" inkscape:window-width="1287" inkscape:window-height="747" inkscape:window-x="-4" inkscape:window-y="-4" inkscape:window-maximized="1" inkscape:current-layer="layer1">
    <inkscape:grid id="grid1" units="px" originx="0" originy="0" spacingx="1" spacingy="1" empcolor="#0099e5" empopacity="0.30196078" color="#0099e5" opacity="0.05098039" empspacing="1" dotted="false" gridanglex="30" gridanglez="30" visible="true" snapvisiblegridlinesonly="false" />
  </sodipodi:namedview>
  <g inkscape:groupmode="layer" id="layer1" inkscape:label="Layer 1">
    <path id="rect185-4-9" style="opacity:0.7;vector-effect:none;fill:#ffffff;stroke-width:3;stroke-linecap:square;stroke-miterlimit:0.9;paint-order:markers fill stroke" d="m 27,0.99999994 h 2 V 1.9999999 H 27 Z M 1,26.999998 h 1 v 2 H 1 Z M 0,3.000001 h 1 v 25 H 0 Z M 0,2 H 2 V 2.9999999 H 0 Z M 1,1 H 3 V 1.9999999 H 1 Z M 2,0 H 28 V 0.99999994 H 2 Z" inkscape:label="OuterShine" />
    <path id="rect185-7-9" style="opacity:0.7;vector-effect:none;fill:#ffe347;fill-opacity:1;stroke-width:3.00001;stroke-linecap:square;stroke-miterlimit:0.9;paint-order:markers fill stroke" d="M 3,0.99999994 H 27 V 1.999998 H 3 Z M 2,2 H 3 V 2.9999981 H 2 Z M 1,2.999999 H 2 V 26.999997 H 1 Z" inkscape:label="LightYellowOuter" />
    <path id="rect185" style="opacity:0.7;vector-effect:none;fill:#ffcb00;stroke-width:3;stroke-linecap:square;stroke-miterlimit:0.9;paint-order:markers fill stroke" d="m 25,3.9999998 h 1 v 1 h -1 z m 1,-1.0000005 h 1 v 1.0000005 h -1 z m 1,1.07e-5 h 1 V 26.000012 H 27 Z M 26,26 h 2 v 1 H 26 Z M 2,27 h 25 v 1 H 2 Z m 2,-1 h 1 v 1 H 4 Z M 2,24.999998 H 4 V 27 H 2 Z M 4,2.9999993 H 5 V 3.9999998 H 4 Z M 3,1.9999999 H 28 V 2.9999998 H 3 Z M 2,2.9999998 H 4 V 5.0000002 H 2 Z M 2,5 H 3 V 25 H 2 Z" inkscape:label="Yellow" />
    <path id="rect185-8" style="opacity:0.7;vector-effect:none;fill:#ffe547;stroke-width:3;stroke-linecap:square;stroke-miterlimit:0.9;paint-order:markers fill stroke" d="m 5,26 h 21 v 1 H 5 Z M 26,3.999994 h 1 v 21 H 26 Z M 25,25 h 2 v 1 H 25 Z M 4,25 h 1 v 1 H 4 Z" inkscape:label="LightYellowInner" />
    <path id="rect185-5" style="opacity:0.7;vector-effect:none;fill:#cea500;stroke-width:3;stroke-linecap:square;stroke-miterlimit:0.9;paint-order:markers fill stroke" d="M 5,3 H 26 V 3.9999999 H 5 Z M 3,4.9999981 H 4 V 24.999996 H 3 Z M 4,3.9999998 H 5 V 4.9999997 H 4 Z" inkscape:label="DarkYellowOuter" />
    <path id="rect185-51" style="opacity:0.7;vector-effect:none;fill:#cea500;stroke-width:3;stroke-linecap:square;stroke-miterlimit:0.9;paint-order:markers fill stroke" d="m 2,28 h 25 v 1 H 2 Z m 25,-1 h 1 v 1 H 27 Z M 28,2 h 1 v 24.999998 h -1 z" inkscape:label="DarkYellowInner" />
    <path id="rect186-5-6" style="opacity:0.7;vector-effect:none;fill:#ffffff;stroke-width:3;stroke-linecap:square;stroke-miterlimit:0.9;paint-order:markers fill stroke" d="m 5,25 h 20 v 0.999998 H 5 Z m 19,-1 h 1 v 0.999998 H 24 Z M 25,4.999999 h 1 v 19.999998 h -1 z" inkscape:label="InnerShine" />
    <path id="rect186-7" style="opacity:0.7;vector-effect:none;stroke-width:3;stroke-linecap:square;stroke-miterlimit:0.9;paint-order:markers fill stroke" d="M 4,4.9999981 H 5 V 24.999996 H 4 Z M 5,4 H 25 V 4.9999999 H 5 Z" inkscape:label="InnerShadow" />
    <path id="rect186-83" style="opacity:0.7;vector-effect:none;stroke-width:3;stroke-linecap:square;stroke-miterlimit:0.9;paint-order:markers fill stroke" d="m 2,29 h 26 v 1 H 2 Z m 25,-1 h 2 v 1 h -2 z m 1,-1 h 2 v 1 H 28 Z M 29,2 h 1 v 24.999996 h -1 z" inkscape:label="OuterShadow" />
  </g>
</svg>