<?xml version="1.0" encoding="UTF-8"?>
<svg width="101.94" height="250.13" version="1.1" viewBox="0 0 101.94 250.13" xmlns="http://www.w3.org/2000/svg"><title>Setup text</title><defs><filter id="a" x="-.0053712" y="-.01347" width="1.0107" height="1.0269" color-interpolation-filters="sRGB"><feGaussianBlur stdDeviation="0.14297961"/></filter></defs><g transform="rotate(-90 14.677 33.376)" stroke-width="0"><path transform="matrix(3.8676 0 0 3.8676 -134.68 -57.511)" d="m-6.2217 20.263 0.080615 4.6757h-0.63149q-1.3436-4.2054-4.7429-4.2054-1.881 0-2.929 1.048-1.0346 1.0346-1.0346 2.1497 0 1.0346 0.8599 1.7601 0.87333 0.72554 3.1709 1.1286 2.2975 0.38964 3.4933 0.96738 1.2092 0.56431 2.0288 1.8945 0.83303 1.3302 0.83303 3.0499 0 2.6469-1.7332 4.407-1.7198 1.7601-4.2726 1.7601-2.0826 0-4.1517-1.5451l-1.263 1.1286h-0.47026v-5.0385h0.57774q0.79272 2.3782 2.2169 3.5739 1.4242 1.1958 3.1171 1.1958 1.6795 0 3.0768-1.1017 1.4108-1.1152 1.4108-2.8081 0-1.4242-0.98082-2.3916-0.96738-0.98082-3.1574-1.3436-2.1766-0.3762-3.3455-0.8599-1.1689-0.49713-2.0019-1.7064-0.83303-1.2227-0.83303-2.7006 0-2.0423 1.4511-3.6411 1.4511-1.6123 3.9367-1.6123 2.0826 0 3.883 1.3167 0.49713-0.47026 0.8599-1.1017zm13.369 12.133h-6.7986q-0.094051 3.977 0.44338 4.9041 0.53744 0.91364 1.9213 0.91364 2.8484 0 3.8561-3.3052h0.57774q-0.44338 2.0019-1.6795 2.9559-1.2361 0.95395-2.7544 0.95395-2.1632 0-3.762-1.5989-1.5989-1.6123-1.5989-4.0442 0-2.3647 1.5586-3.977 1.572-1.6123 3.6411-1.6123 1.8004 0 3.144 1.2764 1.357 1.2764 1.4511 3.5336zm-6.7986-0.60462h3.9098q0.10749-0.95395 0.10749-1.4511 0-2.1497-1.9482-2.1497-0.96738 0-1.5183 0.524-0.55087 0.51056-0.55087 1.3973zm13.369-6.9329v3.0634h3.1843v0.68523h-3.1843v6.6508q0 1.4645 0.1881 2.0019 0.20154 0.53744 1.048 0.53744 0.64492 0 1.2361-0.42995 0.60462-0.42995 0.91364-1.3302h0.57774q-0.61805 2.6066-3.7486 2.6066-1.3167 0-1.9348-0.47026-0.61805-0.48369-0.76585-1.1824-0.13436-0.69867-0.13436-1.8945v-6.4895h-2.3916v-0.68523h2.3916v-2.835q1.3302 0 2.62-0.22841zm17.01 3.0634v9.8754h1.8138v0.68523h-1.8138q-2.096 0-2.6469 0.16123v-2.4991h-0.05374q-1.2092 2.4991-3.8024 2.4991-1.4914 0-2.405-0.77928-0.9002-0.79272-0.9002-3.3187v-5.9387h-1.9482v-0.68523h4.5682v7.0941q0 1.666 0.20154 2.311 0.20154 0.63149 1.0346 0.63149 1.2361 0 2.2841-1.3167 1.048-1.3302 1.048-3.9905v-4.0442h-2.1497v-0.68523zm7.8869 8.8005v8.0347h2.1766v0.76585h-6.597v-0.76585h1.8138v-16.15h-1.9885v-0.68523h1.5183q1.666 0 3.0768-0.17467v2.1229h0.05374q1.1152-2.2841 3.4396-2.2841 1.9079 0 3.3455 1.5854 1.4511 1.572 1.4511 3.7486 0 2.3244-1.5854 4.0308-1.572 1.6929-3.5068 1.6929-2.0288 0-3.144-1.9213zm5.2937-3.4933q0-2.5125-0.1478-3.359-0.13436-0.8599-0.64492-1.263-0.49713-0.41651-1.1152-0.41651-1.3167 0-2.1094 0.87333-0.79272 0.87333-1.0346 1.7064t-0.24185 2.4588q0 1.7064 0.22841 2.6066 0.22841 0.9002 1.0883 1.5586 0.87333 0.64492 1.9348 0.64492 1.1017 0 1.572-0.92708 0.47026-0.94051 0.47026-3.883z" fill-opacity=".75385" filter="url(#a)" style="mix-blend-mode:normal;paint-order:stroke fill markers" aria-label="Setup"/><path d="m-160.45 22.941 0.31179 18.084h-2.4424q-5.1965-16.265-18.344-16.265-7.2751 0-11.328 4.0533-4.0013 4.0013-4.0013 8.3144 0 4.0013 3.3258 6.8074 3.3777 2.8061 12.264 4.365 8.886 1.507 13.511 3.7415 4.6768 2.1825 7.8467 7.327 3.2218 5.1445 3.2218 11.796 0 10.237-6.7035 17.044-6.6515 6.8074-16.525 6.8074-8.0546 0-16.057-5.976l-4.8847 4.365h-1.8188v-19.487h2.2345q3.0659 9.1978 8.5742 13.823 5.5083 4.6249 12.056 4.6249 6.4956 0 11.9-4.2611 5.4563-4.3131 5.4563-10.861 0-5.5083-3.7934-9.2497-3.7415-3.7934-12.212-5.1965-8.4183-1.455-12.939-3.3258-4.5209-1.9227-7.7428-6.5995-3.2218-4.7288-3.2218-10.445 0-7.8987 5.6122-14.082 5.6122-6.2358 15.226-6.2358 8.0546 0 15.018 5.0926 1.9227-1.8188 3.3258-4.2611zm51.705 46.924h-26.294q-0.36376 15.382 1.7148 18.967 2.0786 3.5336 7.431 3.5336 11.017 0 14.914-12.783h2.2345q-1.7148 7.7428-6.4956 11.432-4.7808 3.6895-10.653 3.6895-8.3663 0-14.55-6.1838-6.1838-6.2358-6.1838-15.641 0-9.1458 6.0279-15.382 6.0799-6.2358 14.082-6.2358 6.9633 0 12.16 4.9367 5.2484 4.9367 5.6122 13.667zm-26.294-2.3384h15.122q0.41571-3.6895 0.41571-5.6122 0-8.3144-7.5349-8.3144-3.7415 0-5.872 2.0266-2.1306 1.9747-2.1306 5.4043zm51.705-26.814v11.848h12.316v2.6502h-12.316v25.723q0 5.6642 0.72751 7.7428 0.77947 2.0786 4.0533 2.0786 2.4943 0 4.7808-1.6629 2.3384-1.6629 3.5336-5.1445h2.2345q-2.3904 10.081-14.498 10.081-5.0926 0-7.4829-1.8188-2.3904-1.8707-2.962-4.5729-0.51965-2.7022-0.51965-7.327v-25.099h-9.2497v-2.6502h9.2497v-10.965q5.1445 0 10.133-0.8834zm65.787 11.848v38.194h7.0153v2.6502h-7.0153q-8.1065 0-10.237 0.62358v-9.6655h-0.20786q-4.6768 9.6655-14.706 9.6655-5.7681 0-9.3017-3.014-3.4816-3.0659-3.4816-12.835v-22.968h-7.5349v-2.6502h17.668v27.437q0 6.4436 0.77947 8.938 0.77947 2.4423 4.0013 2.4423 4.7808 0 8.834-5.0926 4.0533-5.1445 4.0533-15.434v-15.641h-8.3144v-2.6502zm30.503 34.037v31.075h8.4183v2.962h-25.515v-2.962h7.0153v-62.462h-7.6908v-2.6502h5.872q6.4436 0 11.9-0.67554v8.2104h0.20786q4.3131-8.834 13.303-8.834 7.379 0 12.939 6.1319 5.6122 6.0799 5.6122 14.498 0 8.9899-6.1319 15.589-6.0799 6.5476-13.563 6.5476-7.8467 0-12.16-7.431zm20.474-13.511q0-9.7174-0.57161-12.991-0.51965-3.3258-2.4943-4.8847-1.9227-1.6109-4.3131-1.6109-5.0926 0-8.1585 3.3777t-4.0013 6.5995q-0.93537 3.2218-0.93537 9.5096 0 6.5995 0.8834 10.081 0.8834 3.4816 4.2092 6.0279 3.3777 2.4943 7.4829 2.4943 4.2611 0 6.0799-3.5856 1.8188-3.6375 1.8188-15.018z" fill="#6b4657" style="paint-order:stroke fill markers" aria-label="Setup"/></g></svg>
