<?xml version="1.0" encoding="UTF-8" standalone="no"?>
<!-- Created with Inkscape (http://www.inkscape.org/) -->

<svg
   width="101.93629"
   height="250.12579"
   viewBox="0 0 101.9363 250.12579"
   version="1.1"
   id="svg1"
   xml:space="preserve"
   sodipodi:docname="Setup.svg"
   inkscape:version="1.3 (0e150ed6c4, 2023-07-21)"
   xmlns:inkscape="http://www.inkscape.org/namespaces/inkscape"
   xmlns:sodipodi="http://sodipodi.sourceforge.net/DTD/sodipodi-0.dtd"
   xmlns="http://www.w3.org/2000/svg"
   xmlns:svg="http://www.w3.org/2000/svg"
   xmlns:rdf="http://www.w3.org/1999/02/22-rdf-syntax-ns#"
   xmlns:cc="http://creativecommons.org/ns#"
   xmlns:dc="http://purl.org/dc/elements/1.1/"><title
     id="title1">Setup text</title><sodipodi:namedview
     id="namedview1"
     pagecolor="#505050"
     bordercolor="#ffffff"
     borderopacity="1"
     inkscape:showpageshadow="0"
     inkscape:pageopacity="0"
     inkscape:pagecheckerboard="1"
     inkscape:deskcolor="#505050"
     inkscape:document-units="mm"
     showgrid="true"
     inkscape:zoom="1"
     inkscape:cx="-1.5"
     inkscape:cy="95"
     inkscape:window-width="1287"
     inkscape:window-height="747"
     inkscape:window-x="-4"
     inkscape:window-y="-4"
     inkscape:window-maximized="1"
     inkscape:current-layer="layer1"><inkscape:grid
       id="grid2"
       units="px"
       originx="1.1429045"
       originy="0.94289543"
       spacingx="0.26458333"
       spacingy="0.26458333"
       empcolor="#0099e5"
       empopacity="0.30196078"
       color="#0099e5"
       opacity="0.14901961"
       empspacing="5"
       dotted="false"
       gridanglex="30"
       gridanglez="30"
       visible="true" /></sodipodi:namedview><defs
     id="defs1"><filter
       inkscape:collect="always"
       style="color-interpolation-filters:sRGB"
       id="filter1"
       x="-0.0053711642"
       y="-0.013470404"
       width="1.0107423"
       height="1.0269408"><feGaussianBlur
         inkscape:collect="always"
         stdDeviation="0.14297961"
         id="feGaussianBlur1" /></filter></defs><g
     inkscape:label="Text"
     inkscape:groupmode="layer"
     id="layer1"
     transform="rotate(-90,14.677105,33.375938)"
     style="opacity:1"><path
       d="m -6.2217428,20.263101 0.080615,4.675689 h -0.6314868 q -1.3435889,-4.205433 -4.7428684,-4.205433 -1.881025,0 -2.929024,1.047999 -1.034563,1.034564 -1.034563,2.149742 0,1.034564 0.859897,1.760102 0.873332,0.725538 3.170869,1.128615 2.2975371,0.38964 3.4933312,0.967384 1.20923,0.564307 2.0288193,1.89446 0.8330251,1.330153 0.8330251,3.049947 0,2.64687 -1.7332297,4.406971 -1.7197938,1.760102 -4.2726129,1.760102 -2.082562,0 -4.151689,-1.545127 l -1.262974,1.128614 h -0.470256 v -5.038458 h 0.577743 q 0.792718,2.378152 2.216922,3.573946 1.424204,1.195795 3.117126,1.195795 1.6794861,0 3.0768185,-1.101743 1.4107684,-1.115179 1.4107684,-2.808101 0,-1.424204 -0.9808199,-2.391588 -0.967384,-0.98082 -3.157434,-1.343589 -2.176614,-0.376205 -3.345536,-0.859897 -1.168922,-0.497128 -2.001947,-1.706358 -0.833026,-1.222666 -0.833026,-2.700614 0,-2.042255 1.451076,-3.641126 1.451076,-1.612306 3.936716,-1.612306 2.0825624,0 3.8829715,1.316717 0.4971279,-0.470256 0.8598969,-1.101743 z M 7.1469664,32.395709 H 0.34840659 q -0.0940512,3.977023 0.44338433,4.904099 0.53743558,0.913641 1.92133218,0.913641 2.8484084,0 3.8561001,-3.305229 h 0.5777432 q -0.4433843,2.001947 -1.6794861,2.955895 -1.2361018,0.953949 -2.7543572,0.953949 -2.16317818,0 -3.762049,-1.598871 -1.5988708,-1.612307 -1.5988708,-4.044203 0,-2.364716 1.5585632,-3.977023 1.57199898,-1.612307 3.6411259,-1.612307 1.8004091,0 3.143998,1.27641 1.3570248,1.276409 1.451076,3.533639 z M 0.34840659,31.791094 H 4.2582503 q 0.1074871,-0.953949 0.1074871,-1.451076 0,-2.149743 -1.9482039,-2.149743 -0.967384,0 -1.51825546,0.524 -0.55087145,0.510564 -0.55087145,1.397332 z M 13.717116,24.858175 v 3.063383 h 3.184306 v 0.68523 h -3.184306 v 6.650765 q 0,1.464512 0.188102,2.001947 0.201539,0.537436 1.048,0.537436 0.644922,0 1.236101,-0.429948 0.604615,-0.429949 0.913641,-1.330154 h 0.577743 q -0.618051,2.606563 -3.748613,2.606563 -1.316717,0 -1.934768,-0.470256 -0.618051,-0.483692 -0.765846,-1.182358 -0.134359,-0.698667 -0.134359,-1.894461 V 28.606788 H 8.7055292 v -0.68523 h 2.3915878 v -2.834973 q 1.330153,0 2.619999,-0.22841 z m 17.009836,3.063383 v 9.875378 h 1.813845 v 0.68523 h -1.813845 q -2.095998,0 -2.64687,0.161231 v -2.499075 h -0.05374 q -1.20923,2.499075 -3.802357,2.499075 -1.491384,0 -2.405024,-0.779282 -0.900205,-0.792717 -0.900205,-3.318664 v -5.938663 h -1.948204 v -0.68523 h 4.568203 v 7.094149 q 0,1.66605 0.201538,2.310973 0.201538,0.631487 1.034563,0.631487 1.236102,0 2.284102,-1.316718 1.047999,-1.330153 1.047999,-3.990459 v -4.044202 h -2.149742 v -0.68523 z m 7.886868,8.800507 v 8.034661 h 2.176614 v 0.765846 h -6.597022 v -0.765846 h 1.813845 V 28.606788 h -1.988511 v -0.68523 h 1.518255 q 1.66605,0 3.076819,-0.174667 v 2.12287 h 0.05374 q 1.115179,-2.284101 3.439588,-2.284101 1.907896,0 3.345536,1.585435 1.451076,1.571999 1.451076,3.748613 0,2.324409 -1.585435,4.030767 -1.571999,1.692922 -3.506767,1.692922 -2.028819,0 -3.143998,-1.921332 z m 5.29374,-3.493331 q 0,-2.512512 -0.147795,-3.358973 -0.134359,-0.859896 -0.644922,-1.262973 -0.497128,-0.416513 -1.115179,-0.416513 -1.316717,0 -2.109435,0.873333 -0.792717,0.873333 -1.034563,1.706358 -0.241846,0.833025 -0.241846,2.458768 0,1.706358 0.22841,2.606562 0.22841,0.900205 1.088307,1.558563 0.873333,0.644923 1.934768,0.644923 1.101743,0 1.571999,-0.927076 0.470256,-0.940513 0.470256,-3.882972 z"
       id="text2"
       style="font-size:27.5167px;font-family:'Bodoni MT';-inkscape-font-specification:'Bodoni MT';mix-blend-mode:normal;fill-opacity:0.753846;stroke-width:0;stroke-linejoin:bevel;paint-order:stroke fill markers;filter:url(#filter1)"
       inkscape:label="Shadow"
       transform="matrix(3.8675982,0,0,3.8675654,-134.67902,-57.51145)"
       aria-label="Setup" /><path
       d="m -160.44893,22.941225 0.31179,18.083766 h -2.44235 q -5.19649,-16.264996 -18.34359,-16.264996 -7.27508,0 -11.32834,4.053258 -4.00129,4.001293 -4.00129,8.314375 0,4.001293 3.32575,6.807395 3.37771,2.806101 12.2637,4.365047 8.88599,1.50698 13.51086,3.741469 4.67684,2.182523 7.84669,7.327043 3.22183,5.14452 3.22183,11.79602 0,10.237074 -6.70347,17.044469 -6.6515,6.807395 -16.52482,6.807395 -8.05455,0 -16.05714,-5.975957 l -4.88469,4.365047 h -1.81877 V 73.918739 h 2.23449 q 3.06592,9.197777 8.57419,13.822649 5.50828,4.624871 12.05585,4.624871 6.4956,0 11.89995,-4.261118 5.45631,-4.313082 5.45631,-10.860652 0,-5.508274 -3.79344,-9.249743 -3.74147,-3.793433 -12.21174,-5.196484 -8.4183,-1.455016 -12.93924,-3.32575 -4.52094,-1.9227 -7.74276,-6.599536 -3.22182,-4.728801 -3.22182,-10.444934 0,-7.898656 5.6122,-14.082473 5.6122,-6.235781 15.2257,-6.235781 8.05455,0 15.01784,5.092555 1.9227,-1.81877 3.32575,-4.261118 z m 51.70502,46.924256 h -26.29421 q -0.36376,15.381594 1.71484,18.967168 2.07859,3.53361 7.43097,3.53361 11.01655,0 14.91391,-12.783352 h 2.23449 q -1.71484,7.742762 -6.49561,11.432266 -4.78076,3.689504 -10.65279,3.689504 -8.36634,0 -14.55016,-6.183817 -6.18381,-6.235781 -6.18381,-15.641418 0,-9.145813 6.02792,-15.381595 6.07988,-6.235781 14.08247,-6.235781 6.96329,0 12.15977,4.93666 5.24845,4.936661 5.61221,13.666755 z m -26.29421,-2.338418 h 15.12177 q 0.41571,-3.689504 0.41571,-5.612204 0,-8.314375 -7.5349,-8.314375 -3.74147,0 -5.87203,2.026629 -2.13055,1.974664 -2.13055,5.404344 z m 51.705017,-26.813861 v 11.847985 h 12.315668 v 2.650207 h -12.315668 v 25.722599 q 0,5.664168 0.727508,7.742762 0.779472,2.078594 4.053258,2.078594 2.494312,0 4.780765,-1.662875 2.338418,-1.662876 3.53361,-5.14452 h 2.234488 q -2.390383,10.08118 -14.498192,10.08118 -5.092555,0 -7.482937,-1.81877 -2.390383,-1.870734 -2.961997,-4.572906 -0.519648,-2.702172 -0.519648,-7.327043 V 55.211394 h -9.249742 v -2.650207 h 9.249742 V 41.596605 q 5.14452,0 10.133145,-0.883403 z m 65.787489,11.847985 v 38.194162 h 7.015255 v 2.650207 h -7.015255 q -8.106516,0 -10.237074,0.623578 v -9.665461 h -0.20786 q -4.676836,9.665461 -14.706051,9.665461 -5.768098,0 -9.301707,-3.013961 -3.481645,-3.065926 -3.481645,-12.835317 V 55.211394 h -7.534902 v -2.650207 h 17.668047 v 27.437439 q 0,6.44364 0.779473,8.937953 0.779472,2.442348 4.001293,2.442348 4.780766,0 8.834024,-5.092555 4.053258,-5.14452 4.053258,-15.433559 V 55.211394 h -8.314376 v -2.650207 z m 30.503371,34.036974 v 31.074979 h 8.418305 v 2.96199 H -4.1386775 v -2.96199 H 2.8765767 V 55.211394 h -7.6907972 v -2.650207 h 5.8720276 q 6.4436408,0 11.8999499,-0.675543 v 8.210446 h 0.207859 q 4.313082,-8.834024 13.303001,-8.834024 7.379008,0 12.939246,6.131852 5.612203,6.079887 5.612203,14.498192 0,8.989918 -6.131851,15.589453 -6.079887,6.547571 -13.562825,6.547571 -7.846692,0 -12.159774,-7.430973 z m 20.474149,-13.51086 q 0,-9.717426 -0.571613,-12.991211 -0.519649,-3.32575 -2.494313,-4.884696 -1.922699,-1.61091 -4.313082,-1.61091 -5.092555,0 -8.158481,3.377715 -3.065926,3.377715 -4.001293,6.599535 -0.935367,3.221821 -0.935367,9.509567 0,6.599536 0.883402,10.08118 0.883402,3.481645 4.209153,6.027922 3.377714,2.494313 7.482937,2.494313 4.261118,0 6.079887,-3.585575 1.81877,-3.637539 1.81877,-15.01784 z"
       id="text1"
       style="font-size:106.424px;font-family:'Bodoni MT';-inkscape-font-specification:'Bodoni MT';fill:#6b4657;stroke-width:0;stroke-linejoin:bevel;paint-order:stroke fill markers"
       inkscape:label="Setup"
       aria-label="Setup" /></g><metadata
     id="metadata1"><rdf:RDF><cc:Work
         rdf:about=""><dc:title>Setup text</dc:title></cc:Work></rdf:RDF></metadata></svg>
