<?xml version="1.0" encoding="UTF-8"?>
<svg width="99.514" height="25" version="1.1" viewBox="0 0 99.514 25" xmlns="http://www.w3.org/2000/svg" xmlns:cc="http://creativecommons.org/ns#" xmlns:dc="http://purl.org/dc/elements/1.1/" xmlns:rdf="http://www.w3.org/1999/02/22-rdf-syntax-ns#"><title>SurfWatch Alert Logo</title><defs><filter id="b" x="-.043478" y="-.043478" width="1.087" height="1.087" color-interpolation-filters="sRGB"><feFlood flood-color="rgb(0,0,0)" flood-opacity=".93726" in="SourceGraphic" result="flood"/><feGaussianBlur in="SourceGraphic" result="blur" stdDeviation="0.000000"/><feOffset dx="-1.000000" dy="-1.000000" in="blur" result="offset"/><feComposite in="flood" in2="offset" operator="in" result="comp1"/><feComposite in="SourceGraphic" in2="comp1" result="fbSourceGraphic"/><feColorMatrix in="fbSourceGraphic" result="fbSourceGraphicAlpha" values="0 0 0 -1 0 0 0 0 -1 0 0 0 0 -1 0 0 0 0 1 0"/><feFlood flood-color="rgb(240,240,240)" flood-opacity=".50196" in="fbSourceGraphic" result="flood"/><feGaussianBlur in="fbSourceGraphic" result="blur" stdDeviation="0.000000"/><feOffset dx="1.000000" dy="1.000000" in="blur" result="offset"/><feComposite in="flood" in2="offset" operator="in" result="comp1"/><feComposite in="fbSourceGraphic" in2="comp1" result="comp2"/></filter><filter id="a" x="0" y="0" width="1.0102" height="1.112" color-interpolation-filters="sRGB"><feFlood flood-color="rgb(240,240,240)" flood-opacity=".50196" in="SourceGraphic" result="flood"/><feGaussianBlur in="SourceGraphic" result="blur" stdDeviation="0.000000"/><feOffset dx="1.000000" dy="1.000000" in="blur" result="offset"/><feComposite in="flood" in2="offset" operator="in" result="comp1"/><feComposite in="SourceGraphic" in2="comp1" result="comp2"/></filter></defs><g stroke-width="0"><circle cx="45.641" cy="12.5" r="11.5" fill="#701616" filter="url(#b)" style="paint-order:stroke fill markers"/><rect x="36.891" y="9.25" width="17.5" height="6.5" fill="#e7e3e3" style="paint-order:stroke fill markers"/><path d="m4.0449 8c-1.1637 0-2.0576 0.27083-2.6797 0.8125-0.61784 0.54167-0.92578 1.2204-0.92578 2.0371 1e-8 0.63476 0.21484 1.1885 0.64648 1.6582 0.43164 0.46973 1.4066 0.84863 2.9258 1.1406 0.39779 0.0804 0.67383 0.17546 0.82617 0.28125 0.15658 0.10156 0.23438 0.24544 0.23438 0.43164 0 0.35547-0.33333 0.5332-1.002 0.5332-0.85905 0-1.3923-0.35059-1.5996-1.0488l-2.4707 0.44531c0.49512 1.7604 1.7985 2.6406 3.9102 2.6406 1.1553 0 2.0898-0.27083 2.8008-0.8125 0.71094-0.5459 1.0664-1.2568 1.0664-2.1328 0-0.55436-0.14551-1.0352-0.4375-1.4414-0.29199-0.41048-0.65788-0.69987-1.0938-0.86914-0.43587-0.16927-1.1722-0.36393-2.209-0.58398-0.37663-0.0804-0.62858-0.16504-0.75977-0.25391-0.13118-0.08887-0.19727-0.21419-0.19727-0.375 0-0.3597 0.28939-0.53906 0.86914-0.53906 0.69824 0 1.1621 0.28939 1.3906 0.86914l2.2031-0.66602c-0.56706-1.4176-1.7334-2.127-3.498-2.127zm82.461 0c-1.2272 0-2.1855 0.41634-2.8711 1.25-0.68555 0.83366-1.0273 1.9307-1.0273 3.2891 0 1.3711 0.3623 2.446 1.0859 3.2246 0.72363 0.77864 1.6732 1.168 2.8496 1.168 0.97754 0 1.8001-0.28451 2.4688-0.85156 0.67285-0.56706 1.0674-1.3812 1.1816-2.4434l-2.4316-0.14648c-0.08464 0.95638-0.47721 1.4355-1.1797 1.4355-0.39355 0-0.70182-0.16927-0.92188-0.50781-0.21582-0.33854-0.32422-0.98014-0.32422-1.9238 0-1.6842 0.41992-2.5273 1.2578-2.5273 0.30046 0 0.5612 0.13053 0.78125 0.38867 0.22428 0.25814 0.33594 0.67611 0.33594 1.2559l2.4824-0.13281c-0.080403-1.0495-0.42904-1.8926-1.0469-2.5273-0.61361-0.63476-1.4938-0.95117-2.6406-0.95117zm-77.803 0.13281v5.8789c0 1.0326 0.33008 1.7773 0.99023 2.2344 0.66439 0.45703 1.543 0.68555 2.6348 0.68555 1.0368 0 1.8763-0.23698 2.5195-0.71094 0.64746-0.47819 0.97266-1.262 0.97266-2.3496v-5.7383h-2.0898v5.0723c0 0.50358-0.02018 0.84212-0.0625 1.0156-0.03809 0.1735-0.16178 0.33106-0.36914 0.4707-0.20312 0.13542-0.4655 0.20312-0.78711 0.20312-0.38509 0-0.66602-0.09668-0.84375-0.28711-0.1735-0.19043-0.25977-0.49349-0.25977-0.9082v-5.5664zm8.5391 0v8.666h2.6582v-3.3145h0.83789l1.2637 3.3145h2.9512l-1.5684-3.7773c0.61784-0.29199 1.0293-0.62891 1.2324-1.0098 0.20313-0.38509 0.30469-0.82682 0.30469-1.3262 0-0.76595-0.27767-1.3822-0.83203-1.8477-0.55013-0.46973-1.3236-0.70508-2.3223-0.70508zm8.9688 0v8.666h2.5898v-3.2441h2.8242v-1.9492h-2.8242v-1.4102h3.6758v-2.0625zm30.93 0 2.3047 8.666h2.3281l1.1426-4.7812 1.2129 4.7812h2.2344l2.2988-8.666h-2.0391l-1.2109 4.9961-1.2832-4.9961h-2.0938l-1.1816 4.9961-1.2109-4.9961zm13.914 0-2.6777 8.666h2.1582l0.51953-1.709h2.3242l0.48828 1.709h2.709l-2.709-8.666zm5.0723 0v2.0762h1.7969v6.5898h2.5195v-6.5898h1.7969v-2.0762zm15.037 0v8.666h2.6602v-3.3711h2.0312v3.3711h2.6582v-8.666h-2.6582v3.1875h-2.0312v-3.1875zm-71.264 1.8418h1.2266c0.68131 0 1.0215 0.27572 1.0215 0.83008 0 0.27083-0.10156 0.47754-0.30469 0.61719-0.20312 0.13965-0.47233 0.20898-0.80664 0.20898h-1.1367zm52.311 0.71094 0.70313 2.5137h-1.4082z" fill="#101010" filter="url(#a)" style="paint-order:stroke fill markers"/></g><metadata><rdf:RDF><cc:Work rdf:about=""><dc:title>SurfWatch Alert Logo</dc:title></cc:Work></rdf:RDF></metadata></svg>
