<?xml version="1.0" encoding="UTF-8" standalone="no"?>
<svg
   viewBox="0 0 274.75677 218.63633"
   version="1.1"
   id="svg3"
   width="274.75677"
   height="218.63635"
   sodipodi:docname="WebTVJewel.svg"
   inkscape:version="1.3 (0e150ed6c4, 2023-07-21)"
   inkscape:export-filename="WebTVJewel.png"
   inkscape:export-xdpi="148.94"
   inkscape:export-ydpi="148.94"
   xmlns:inkscape="http://www.inkscape.org/namespaces/inkscape"
   xmlns:sodipodi="http://sodipodi.sourceforge.net/DTD/sodipodi-0.dtd"
   xmlns:xlink="http://www.w3.org/1999/xlink"
   xmlns="http://www.w3.org/2000/svg"
   xmlns:svg="http://www.w3.org/2000/svg"
   xmlns:rdf="http://www.w3.org/1999/02/22-rdf-syntax-ns#"
   xmlns:cc="http://creativecommons.org/ns#"
   xmlns:dc="http://purl.org/dc/elements/1.1/">
  <sodipodi:namedview
     id="namedview1"
     pagecolor="#505050"
     bordercolor="#ffffff"
     borderopacity="1"
     inkscape:showpageshadow="0"
     inkscape:pageopacity="0"
     inkscape:pagecheckerboard="1"
     inkscape:deskcolor="#505050"
     inkscape:zoom="1.5439583"
     inkscape:cx="114.31656"
     inkscape:cy="92.619082"
     inkscape:window-width="1287"
     inkscape:window-height="747"
     inkscape:window-x="-4"
     inkscape:window-y="-4"
     inkscape:window-maximized="1"
     inkscape:current-layer="svg3" />
  <title
     id="title14">WebTV Logo Jewel</title>
  <defs
     id="defs3">
    <linearGradient
       id="linearGradient5">
      <stop
         style="stop-color:#dedee2;stop-opacity:1;"
         offset="0"
         id="stop5" />
      <stop
         style="stop-color:#848491;stop-opacity:1;"
         offset="0.04"
         id="stop14" />
      <stop
         style="stop-color:#40405b;stop-opacity:1;"
         offset="0.1"
         id="stop9" />
      <stop
         style="stop-color:#0f0e13;stop-opacity:1;"
         offset="0.31999999"
         id="stop10" />
      <stop
         style="stop-color:#0d0b0f;stop-opacity:1;"
         offset="0.44999999"
         id="stop7" />
      <stop
         style="stop-color:#0d0b0f;stop-opacity:1;"
         offset="0.75"
         id="stop8" />
      <stop
         style="stop-color:#121217;stop-opacity:1;"
         offset="0.89999998"
         id="stop11" />
      <stop
         style="stop-color:#2f2f3f;stop-opacity:1;"
         offset="0.94"
         id="stop13" />
      <stop
         style="stop-color:#848491;stop-opacity:1;"
         offset="1"
         id="stop6" />
    </linearGradient>
    <linearGradient
       id="linearGradient3">
      <stop
         style="stop-color:#4a4b67;stop-opacity:1;"
         offset="0"
         id="stop3" />
      <stop
         style="stop-color:#211d26;stop-opacity:1;"
         offset="0.50160772"
         id="stop4" />
    </linearGradient>
    <linearGradient
       xlink:href="#linearGradient5"
       id="linearGradient6"
       x1="8.5921335"
       y1="46.94643"
       x2="135.90642"
       y2="198.59917"
       gradientUnits="userSpaceOnUse"
       spreadMethod="pad"
       gradientTransform="matrix(1.2801527,0,0,1.2801541,0.88386774,-49.96863)" />
    <linearGradient
       xlink:href="#linearGradient3"
       id="linearGradient14"
       x1="8.5921335"
       y1="46.94643"
       x2="169.41133"
       y2="170.30881"
       gradientUnits="userSpaceOnUse"
       gradientTransform="matrix(1.2801527,0,0,1.2801541,0.88386774,-49.96863)" />
    <filter
       style="color-interpolation-filters:sRGB"
       id="filter24"
       x="-0.010469052"
       y="-0.0140554"
       width="1.0209381"
       height="1.0281108">
      <feGaussianBlur
         stdDeviation="1.0447485"
         id="feGaussianBlur24" />
    </filter>
  </defs>
  <path
     d="M 60.651818,29.944859 231.37042,52.810947 c 14.86387,1.990673 35.5268,18.961675 32.31105,41.023847 l -11.76589,80.702236 c -2.72794,18.72222 -18.00919,27.1738 -34.66139,27.91117 l -121.618362,5.39332 c -25.04748,1.10985 -41.52562,-16.90702 -45.7552,-35.64463 L 25.357978,63.562966 c -2.46427,-10.912014 0.71305,-20.506783 6.06664,-25.791247 6.88338,-6.793785 17.38577,-9.411678 29.2272,-7.82686 z"
     stroke="#000"
     stroke-width=".216"
     stroke-miterlimit="2.613"
     id="path1-4"
     style="opacity:1;fill:#000000;fill-opacity:0.5;stroke:#000000;stroke-width:0;stroke-linecap:butt;stroke-linejoin:round;stroke-miterlimit:0;stroke-dasharray:none;stroke-opacity:0.75;paint-order:normal;filter:url(#filter24)"
     inkscape:label="shadow"
     transform="matrix(1.0336717,0,0,1.0449198,-0.74087697,-1.2123447)" />
  <path
     d="M 40.651818,4.94486 211.37042,27.810947 c 14.86387,1.990673 35.5268,18.961675 32.31105,41.023845 l -11.76589,80.702238 c -2.72794,18.72222 -18.00919,27.1738 -34.66139,27.91117 l -121.618362,5.39332 c -25.04748,1.10985 -41.52562,-16.90702 -45.7552,-35.64463 L 5.3579777,38.562966 c -2.46427,-10.912014 0.71305,-20.506783 6.0666403,-25.791247 6.88338,-6.7937843 17.38577,-9.411677 29.2272,-7.826859 z"
     stroke="#000"
     stroke-width=".216"
     stroke-miterlimit="2.613"
     id="path1"
     style="fill:url(#linearGradient14);stroke:url(#linearGradient6);stroke-width:9;stroke-linecap:butt;stroke-linejoin:round;stroke-dasharray:none;paint-order:normal"
     inkscape:export-filename="..\..\..\..\Downloads\ath1.png"
     inkscape:export-xdpi="148.94"
     inkscape:export-ydpi="148.94"
     inkscape:label="jewel" />
  <path
     d="m 194.04998,87.973109 h -3.8059 v -1.282745 h 16.85191 v 1.282745 h -5.17821 l 10.79682,25.417471 8.32099,-20.380082 c 0.27268,-0.587583 0.45316,-1.114996 0.57223,-1.568168 0.12296,-0.453206 0.18304,-0.860241 0.18304,-1.222575 0,-0.815451 -0.33288,-1.387692 -0.99724,-1.689762 -0.66569,-0.314945 -2.26589,-0.512109 -4.80059,-0.602983 v -1.237898 h 12.56085 v 1.28271 h -0.52739 c -1.20722,0 -2.23516,0.453188 -3.05063,1.342881 -0.82951,0.905052 -1.85749,2.820157 -3.09543,5.778613 l -11.59687,28.236384 -0.75533,0.48263 z m -15.68444,28.418111 c 0,2.00729 0.29957,3.42572 0.8897,4.27061 0.59015,0.82695 1.58482,1.25075 3.00577,1.25075 1.49526,0 2.80739,-0.43787 3.92497,-1.29811 1.13294,-0.87561 1.96247,-2.1097 2.52321,-3.69578 h 1.32748 c -0.67719,2.20314 -1.8127,3.90827 -3.38086,5.09754 -1.57329,1.19311 -3.50506,1.7948 -5.77094,1.7948 a 11.833732,11.833745 0 0 1 -4.09009,-0.70795 c -1.28527,-0.46722 -2.38748,-1.14573 -3.29258,-2.03799 a 5.8566994,5.8567054 0 0 1 -1.52463,-2.30812 c -0.31746,-0.87305 -0.46728,-2.12509 -0.46728,-3.74062 V 87.970532 h -6.283 v -1.282746 c 3.56271,0 6.31372,-0.949844 8.23139,-2.864931 1.91769,-1.91514 3.20042,-4.978543 3.85073,-9.155688 h 1.05741 v 12.021945 h 10.04151 v 1.28271 h -10.04151 v 28.419398 z"
     fill="#e7be39"
     id="path2"
     style="stroke-width:1.28016"
     inkscape:label="tv" />
  <path
     d="m 121.72517,121.42993 h 5.27167 V 64.064922 h -5.27167 v -1.281421 h 12.8822 V 93.94758 c 1.20715,-2.685763 2.85344,-4.75066 4.95288,-6.183143 2.09814,-1.450405 4.45368,-2.172421 7.08053,-2.172421 4.42548,0 8.26083,1.870293 11.52394,5.595541 3.26051,3.725266 4.89017,8.190427 4.89017,13.412183 0,5.71587 -1.60017,10.34622 -4.80059,13.89221 -3.20291,3.54604 -7.33781,5.32293 -12.41362,5.32293 -2.32473,0 -4.43831,-0.60296 -6.32523,-1.7948 -1.89082,-1.19055 -3.54989,-2.9405 -5.00028,-5.2627 v 5.95783 h -12.79 z m 12.8822,-24.256376 v 16.306626 c 1.26732,2.96996 2.88287,5.20251 4.84534,6.71311 1.96248,1.49267 4.24246,2.24797 6.84116,2.24797 3.00578,0 5.18077,-0.98316 6.52622,-2.95846 1.34286,-1.97523 2.00728,-5.21787 2.00728,-9.71378 V 99.375434 c 0,-4.087553 -0.72457,-7.148375 -2.19036,-9.1864 -1.46576,-2.035446 -3.64075,-3.048004 -6.52364,-3.048004 -2.4784,0 -4.72761,0.875585 -6.73621,2.625571 -1.99191,1.751243 -3.59204,4.2245 -4.76979,7.406953 z m -37.354891,3.923666 v 10.48317 c 0,3.75601 0.72456,6.50065 2.17368,8.20584 1.433791,1.70255 3.745741,2.56283 6.901311,2.56283 3.1556,0 5.87335,-1.02537 8.18403,-3.09281 2.29535,-2.0649 3.92625,-4.91583 4.86202,-8.56554 h 1.37489 c -1.08813,4.14771 -2.93027,7.39033 -5.52769,9.7292 -2.59745,2.32218 -5.6775,3.48585 -9.2568,3.48585 -4.65079,0 -8.652581,-1.84217 -11.960452,-5.50596 -3.32204,-3.66506 -4.98366,-8.13154 -4.98366,-13.41216 0,-5.505986 1.4952,-10.1209 4.48568,-13.832111 3.004511,-3.709867 6.659352,-5.566054 11.009292,-5.566054 4.18354,0 7.74622,1.463204 10.70594,4.372983 2.94563,2.912357 4.59061,6.623506 4.90808,11.133472 H 97.252479 Z m 0,-1.282696 h 13.983081 v -4.238569 c 0,-2.972528 -0.57348,-5.175724 -1.72177,-6.578738 -1.14702,-1.417142 -2.94435,-2.125087 -5.36128,-2.125087 -2.29404,0 -4.0312,0.829594 -5.179491,2.473311 -1.14703,1.644952 -1.72054,4.133588 -1.72054,7.465823 z M 28.486488,87.973109 v -1.282745 h 16.85322 v 1.282745 h -5.17948 l 10.79679,25.417471 6.23694,-15.114796 -4.49975,-10.303962 h -5.7991 v -1.28271 h 19.90252 v 1.28271 h -6.14602 l 10.70592,25.417478 8.32103,-20.335299 c 0.31749,-0.800088 0.54405,-1.387655 0.66439,-1.794726 0.12182,-0.390477 0.18176,-0.737377 0.18176,-1.03952 0,-0.815451 -0.34696,-1.387692 -1.02671,-1.689762 -0.67974,-0.314945 -2.29532,-0.498018 -4.86201,-0.558171 v -1.28271 h 12.56339 v 1.28271 h -0.52868 c -1.17776,0 -2.15964,0.407089 -2.94437,1.222574 -0.78469,0.800054 -1.82804,2.775349 -3.11077,5.89763 l -11.68778,28.236374 -0.75528,0.48263 -10.1324,-23.47038 -9.51411,22.98775 -0.73993,0.48263 -15.58458,-35.839208 h -3.71503 z"
     fill="#ffffff"
     id="path3"
     style="stroke-width:1.28016"
     inkscape:label="web" />
  <metadata
     id="metadata14">
    <rdf:RDF>
      <cc:Work
         rdf:about="">
        <dc:title>WebTV Logo Jewel</dc:title>
        <dc:date>9/16/2023</dc:date>
        <dc:creator>
          <cc:Agent>
            <dc:title>SKCro</dc:title>
          </cc:Agent>
        </dc:creator>
        <dc:source>WebTV Networks</dc:source>
        <dc:contributor>
          <cc:Agent>
            <dc:title>WebTV Networks</dc:title>
          </cc:Agent>
        </dc:contributor>
      </cc:Work>
    </rdf:RDF>
  </metadata>
</svg>
