<?xml version="1.0" encoding="UTF-8"?>
<svg width="274.76" height="218.64" version="1.1" viewBox="0 0 274.76 218.64" xmlns="http://www.w3.org/2000/svg" xmlns:cc="http://creativecommons.org/ns#" xmlns:dc="http://purl.org/dc/elements/1.1/" xmlns:rdf="http://www.w3.org/1999/02/22-rdf-syntax-ns#" xmlns:xlink="http://www.w3.org/1999/xlink">
  <title>WebTV Logo Jewel</title>
  <defs>
    <linearGradient id="a" x1="8.5921" x2="135.91" y1="46.946" y2="198.6" gradientTransform="matrix(1.2802 0 0 1.2802 .88387 -49.969)" gradientUnits="userSpaceOnUse">
      <stop stop-color="#dedee2" offset="0"/>
      <stop stop-color="#848491" offset=".04"/>
      <stop stop-color="#40405b" offset=".1"/>
      <stop stop-color="#0f0e13" offset=".32"/>
      <stop stop-color="#0d0b0f" offset=".45"/>
      <stop stop-color="#0d0b0f" offset=".75"/>
      <stop stop-color="#121217" offset=".9"/>
      <stop stop-color="#2f2f3f" offset=".94"/>
      <stop stop-color="#848491" offset="1"/>
    </linearGradient>
    <linearGradient id="b" x1="8.5921" x2="169.41" y1="46.946" y2="170.31" gradientTransform="matrix(1.2802 0 0 1.2802 .88387 -49.969)" gradientUnits="userSpaceOnUse">
      <stop stop-color="#4a4b67" offset="0"/>
      <stop stop-color="#211d26" offset=".50161"/>
    </linearGradient>
    <filter id="c" x="-.010469" y="-.014055" width="1.0209" height="1.0281" color-interpolation-filters="sRGB">
      <feGaussianBlur stdDeviation="1.0447485"/>
    </filter>
  </defs>
  <path transform="matrix(1.0337 0 0 1.0449 -.74088 -1.2123)" d="m60.652 29.945 170.72 22.866c14.864 1.9907 35.527 18.962 32.311 41.024l-11.766 80.702c-2.7279 18.722-18.009 27.174-34.661 27.911l-121.62 5.3933c-25.047 1.1098-41.526-16.907-45.755-35.645l-24.523-108.63c-2.4643-10.912 0.71305-20.507 6.0666-25.791 6.8834-6.7938 17.386-9.4117 29.227-7.8269z" fill-opacity=".5" filter="url(#c)" stroke="#000" stroke-miterlimit="0" stroke-width="0" style="paint-order:normal"/>
  <path d="m40.652 4.9449 170.72 22.866c14.864 1.9907 35.527 18.962 32.311 41.024l-11.766 80.702c-2.7279 18.722-18.009 27.174-34.661 27.911l-121.62 5.3933c-25.047 1.1098-41.526-16.907-45.755-35.645l-24.523-108.63c-2.4643-10.912 0.71305-20.507 6.0666-25.791 6.8834-6.7938 17.386-9.4117 29.227-7.8269z" fill="url(#b)" stroke="url(#a)" stroke-linejoin="round" stroke-miterlimit="2.613" stroke-width="9" style="paint-order:normal"/>
  <path d="m194.05 87.973h-3.8059v-1.2827h16.852v1.2827h-5.1782l10.797 25.417 8.321-20.38c0.27268-0.58758 0.45316-1.115 0.57223-1.5682 0.12296-0.45321 0.18304-0.86024 0.18304-1.2226 0-0.81545-0.33288-1.3877-0.99724-1.6898-0.66569-0.31494-2.2659-0.51211-4.8006-0.60298v-1.2379h12.561v1.2827h-0.52739c-1.2072 0-2.2352 0.45319-3.0506 1.3429-0.82951 0.90505-1.8575 2.8202-3.0954 5.7786l-11.597 28.236-0.75533 0.48263zm-15.684 28.418c0 2.0073 0.29957 3.4257 0.8897 4.2706 0.59015 0.82695 1.5848 1.2508 3.0058 1.2508 1.4953 0 2.8074-0.43787 3.925-1.2981 1.1329-0.87561 1.9625-2.1097 2.5232-3.6958h1.3275c-0.67719 2.2031-1.8127 3.9083-3.3809 5.0975-1.5733 1.1931-3.5051 1.7948-5.7709 1.7948a11.834 11.834 0 0 1-4.0901-0.70795c-1.2853-0.46722-2.3875-1.1457-3.2926-2.038a5.8567 5.8567 0 0 1-1.5246-2.3081c-0.31746-0.87305-0.46728-2.1251-0.46728-3.7406v-27.046h-6.283v-1.2827c3.5627 0 6.3137-0.94984 8.2314-2.8649 1.9177-1.9151 3.2004-4.9785 3.8507-9.1557h1.0574v12.022h10.042v1.2827h-10.042v28.419z" fill="#e7be39" stroke-width="1.2802"/>
  <path d="m121.73 121.43h5.2717v-57.365h-5.2717v-1.2814h12.882v31.164c1.2072-2.6858 2.8534-4.7507 4.9529-6.1831 2.0981-1.4504 4.4537-2.1724 7.0805-2.1724 4.4255 0 8.2608 1.8703 11.524 5.5955 3.2605 3.7253 4.8902 8.1904 4.8902 13.412 0 5.7159-1.6002 10.346-4.8006 13.892-3.2029 3.546-7.3378 5.3229-12.414 5.3229-2.3247 0-4.4383-0.60296-6.3252-1.7948-1.8908-1.1906-3.5499-2.9405-5.0003-5.2627v5.9578h-12.79zm12.882-24.256v16.307c1.2673 2.97 2.8829 5.2025 4.8453 6.7131 1.9625 1.4927 4.2425 2.248 6.8412 2.248 3.0058 0 5.1808-0.98316 6.5262-2.9585 1.3429-1.9752 2.0073-5.2179 2.0073-9.7138v-10.394c0-4.0876-0.72457-7.1484-2.1904-9.1864-1.4658-2.0354-3.6408-3.048-6.5236-3.048-2.4784 0-4.7276 0.87558-6.7362 2.6256-1.9919 1.7512-3.592 4.2245-4.7698 7.407zm-37.355 3.9237v10.483c0 3.756 0.72456 6.5006 2.1737 8.2058 1.4338 1.7026 3.7457 2.5628 6.9013 2.5628 3.1556 0 5.8734-1.0254 8.184-3.0928 2.2954-2.0649 3.9262-4.9158 4.862-8.5655h1.3749c-1.0881 4.1477-2.9303 7.3903-5.5277 9.7292-2.5974 2.3222-5.6775 3.4858-9.2568 3.4858-4.6508 0-8.6526-1.8422-11.96-5.506-3.322-3.6651-4.9837-8.1315-4.9837-13.412 0-5.506 1.4952-10.121 4.4857-13.832 3.0045-3.7099 6.6594-5.5661 11.009-5.5661 4.1835 0 7.7462 1.4632 10.706 4.373 2.9456 2.9124 4.5906 6.6235 4.9081 11.133h-22.876zm0-1.2827h13.983v-4.2386c0-2.9725-0.57348-5.1757-1.7218-6.5787-1.147-1.4171-2.9444-2.1251-5.3613-2.1251-2.294 0-4.0312 0.82959-5.1795 2.4733-1.147 1.645-1.7205 4.1336-1.7205 7.4658zm-68.766-11.841v-1.2827h16.853v1.2827h-5.1795l10.797 25.417 6.2369-15.115-4.4998-10.304h-5.7991v-1.2827h19.903v1.2827h-6.146l10.706 25.417 8.321-20.335c0.31749-0.80009 0.54405-1.3877 0.66439-1.7947 0.12182-0.39048 0.18176-0.73738 0.18176-1.0395 0-0.81545-0.34696-1.3877-1.0267-1.6898-0.67974-0.31494-2.2953-0.49802-4.862-0.55817v-1.2827h12.563v1.2827h-0.52868c-1.1778 0-2.1596 0.40709-2.9444 1.2226-0.78469 0.80005-1.828 2.7753-3.1108 5.8976l-11.688 28.236-0.75528 0.48263-10.132-23.47-9.5141 22.988-0.73993 0.48263-15.585-35.839h-3.715z" fill="#fff" stroke-width="1.2802"/>
  <metadata><rdf:RDF>
    <cc:Work rdf:about="">
      <dc:title>WebTV Logo Jewel</dc:title>
      <dc:date>9/16/2023</dc:date>
      <dc:creator><cc:Agent><dc:title>SKCro</dc:title></cc:Agent></dc:creator>
      <dc:source>WebTV Networks</dc:source>
      <dc:contributor><cc:Agent><dc:title>WebTV Networks</dc:title></cc:Agent></dc:contributor>
      </cc:Work>
  </rdf:RDF></metadata>
</svg>