<?xml version="1.0" encoding="UTF-8" standalone="no"?>
<svg
   viewBox="120.886 117.9681 256 190.75434"
   version="1.1"
   id="svg3"
   sodipodi:docname="WebTVShadow.svg"
   width="256"
   height="190.75435"
   inkscape:version="1.3 (0e150ed6c4, 2023-07-21)"
   xmlns:inkscape="http://www.inkscape.org/namespaces/inkscape"
   xmlns:sodipodi="http://sodipodi.sourceforge.net/DTD/sodipodi-0.dtd"
   xmlns="http://www.w3.org/2000/svg"
   xmlns:svg="http://www.w3.org/2000/svg">
  <defs
     id="defs3" />
  <sodipodi:namedview
     id="namedview3"
     pagecolor="#505050"
     bordercolor="#ffffff"
     borderopacity="1"
     inkscape:showpageshadow="0"
     inkscape:pageopacity="0"
     inkscape:pagecheckerboard="1"
     inkscape:deskcolor="#505050"
     inkscape:zoom="1.4142136"
     inkscape:cx="120.56171"
     inkscape:cy="127.27922"
     inkscape:window-width="1287"
     inkscape:window-height="747"
     inkscape:window-x="-4"
     inkscape:window-y="-4"
     inkscape:window-maximized="1"
     inkscape:current-layer="svg3" />
  <g
     id="g2"
     inkscape:label="Logo">
    <path
       d="m 159.61981,118.59432 182.26518,24.41264 c 15.86917,2.12528 37.92965,20.2441 34.49641,43.79842 l -12.56167,86.16041 c -2.91251,19.98851 -19.22724,29.0117 -37.00574,29.79894 l -129.84402,5.75806 c -26.74156,1.18496 -44.33419,-18.05048 -48.84988,-38.05539 l -26.1812,-115.98122 c -2.63096,-11.65006 0.76128,-21.89375 6.47697,-27.53563 7.34894,-7.25327 18.56164,-10.04825 31.20395,-8.35623 z"
       stroke="#000000"
       stroke-width="0.295215"
       stroke-miterlimit="2.613"
       id="path1"
       inkscape:label="Jewel" />
    <g
       id="g1"
       inkscape:label="Text">
      <path
         d="m 323.39305,207.23809 h -4.06331 v -1.36947 h 17.99171 v 1.36947 h -5.52844 l 11.52705,27.13654 8.88378,-21.75844 c 0.29112,-0.62733 0.48383,-1.19042 0.61093,-1.67425 0.13121,-0.48382 0.19545,-0.91844 0.19545,-1.30523 0,-0.87061 -0.35535,-1.48154 -1.06469,-1.80409 -0.7107,-0.33622 -2.41912,-0.5467 -5.12526,-0.64374 v -1.32163 h 13.41041 v 1.36947 h -0.56309 c -1.28883,0 -2.38632,0.48383 -3.25693,1.43371 -0.88565,0.96628 -1.98314,3.01092 -3.30477,6.16944 l -12.38126,30.1461 -0.80638,0.51526 z m -16.74525,30.34017 c 0,2.14304 0.31981,3.65739 0.94988,4.55943 0.63007,0.88291 1.69202,1.3353 3.2091,1.3353 1.59634,0 2.99725,-0.46742 4.19041,-1.38587 1.20956,-0.93485 2.0952,-2.25238 2.69384,-3.94576 h 1.4173 c -0.723,2.35215 -1.9353,4.17264 -3.60955,5.44234 -1.67972,1.2738 -3.74212,1.91616 -6.16125,1.91616 a 12.634108,12.634108 0 0 1 -4.36672,-0.7558 c -1.3722,-0.49886 -2.54896,-1.22323 -3.51524,-2.17585 a 6.2528172,6.2528172 0 0 1 -1.62778,-2.46422 c -0.33895,-0.93212 -0.49886,-2.26878 -0.49886,-3.9936 v -28.87504 h -6.70794 v -1.36947 c 3.80362,0 6.74074,-1.01411 8.78811,-3.05875 2.04737,-2.04464 3.41684,-5.31524 4.11114,-9.7749 h 1.12893 v 12.83502 h 10.72067 v 1.36947 h -10.72067 v 30.34154 z"
         fill="#e7be39"
         id="path2"
         style="stroke-width:1.36674" />
      <path
         d="m 246.17656,242.95773 h 5.62822 v -61.2448 h -5.62822 v -1.36811 h 13.75347 v 33.27182 c 1.28883,-2.86741 3.04645,-5.07195 5.2879,-6.60133 2.24008,-1.54851 4.75487,-2.31935 7.55942,-2.31935 4.7248,0 8.81954,1.9968 12.30335,5.974 3.48108,3.9772 5.22094,8.74438 5.22094,14.31929 0,6.10248 -1.70842,11.04597 -5.12526,14.83182 -3.41958,3.78586 -7.83414,5.68289 -13.25324,5.68289 -2.482,0 -4.73848,-0.64373 -6.75305,-1.91616 -2.01867,-1.27107 -3.78995,-3.13939 -5.33847,-5.61865 v 6.36079 h -13.65506 z m 13.75347,-25.89691 v 17.40948 c 1.35307,3.17083 3.07789,5.55442 5.17309,7.16717 2.09521,1.59361 4.52937,2.39998 7.30384,2.39998 3.2091,0 5.53118,-1.04965 6.96762,-3.15852 1.43371,-2.10888 2.14304,-5.57082 2.14304,-10.3708 v -11.09652 c 0,-4.36399 -0.77357,-7.63186 -2.33848,-9.8077 -1.56491,-2.17311 -3.887,-3.2542 -6.96489,-3.2542 -2.646,0 -5.04735,0.93485 -7.19176,2.80317 -2.12664,1.8697 -3.83506,4.51023 -5.09246,7.90794 z m -39.88136,4.18904 v 11.19221 c 0,4.01 0.77357,6.94028 2.32072,8.76077 1.53074,1.81776 3.99907,2.73621 7.36807,2.73621 3.36901,0 6.27059,-1.09476 8.73755,-3.30203 2.45055,-2.20455 4.19178,-5.24827 5.19086,-9.14484 h 1.46787 c -1.16172,4.42823 -3.12845,7.89017 -5.90156,10.3872 -2.77311,2.47926 -6.06148,3.72162 -9.88287,3.72162 -4.96535,0 -9.23777,-1.96673 -12.76941,-5.87833 -3.54668,-3.91297 -5.32071,-8.68151 -5.32071,-14.31929 0,-5.87834 1.59635,-10.80542 4.78905,-14.76759 3.20772,-3.9608 7.10976,-5.94257 11.75392,-5.94257 4.4665,0 8.27012,1.56218 11.43002,4.66878 3.14486,3.10932 4.90111,7.07149 5.24006,11.8865 h -24.42357 z m 0,-1.36946 h 14.92886 v -4.52527 c 0,-3.17356 -0.6123,-5.52571 -1.83826,-7.02365 -1.2246,-1.51298 -3.14349,-2.26879 -5.72389,-2.26879 -2.44919,0 -4.30385,0.88565 -5.52982,2.64054 -1.22459,1.75625 -1.83689,4.41319 -1.83689,7.9708 z m -73.41696,-12.64231 v -1.36947 h 17.99308 v 1.36947 h -5.52981 l 11.52705,27.13654 6.65874,-16.13705 -4.80408,-11.00086 h -6.19131 v -1.36947 h 21.24864 v 1.36947 h -6.5617 l 11.43002,27.13654 8.88378,-21.7106 c 0.33895,-0.85421 0.58086,-1.48154 0.70934,-1.91616 0.12984,-0.41686 0.19407,-0.78724 0.19407,-1.10979 0,-0.87061 -0.37038,-1.48154 -1.09612,-1.80409 -0.72574,-0.33622 -2.45056,-0.53166 -5.19086,-0.5959 v -1.36947 h 13.41314 v 1.36947 h -0.56446 c -1.2574,0 -2.30568,0.43462 -3.14349,1.30523 -0.83781,0.85421 -1.9517,2.96309 -3.32117,6.29656 l -12.4783,30.14609 -0.80637,0.51526 -10.81772,-25.05774 -10.15758,24.54248 -0.78997,0.51526 -16.63865,-38.26314 h -3.96627 z"
         fill="#ffffff"
         id="path3"
         style="stroke-width:1.36674" />
    </g>
  </g>
</svg>
