<?xml version="1.0" encoding="UTF-8" standalone="no"?>
<svg xmlns:ffdec="https://www.free-decompiler.com/flash" xmlns:xlink="http://www.w3.org/1999/xlink" ffdec:objectType="shape" height="177.95px" width="240.75px" xmlns="http://www.w3.org/2000/svg">
  <g transform="matrix(1.0, 0.0, 0.0, 1.0, 120.35, 88.95)">
    <path d="M10.55 -2.25 Q13.85 -7.0 19.0 -7.0 24.1 -7.05 26.0 -2.6 27.55 1.05 27.45 9.65 27.4 19.05 25.95 22.25 24.15 26.25 18.45 26.3 14.15 26.4 10.95 22.9 7.5 19.2 7.5 13.6 L7.5 7.3 Q7.65 1.9 10.55 -2.25 M7.5 -33.5 Q5.7 -31.45 0.6 -31.45 L-5.05 -31.45 -5.05 -29.85 0.6 -29.85 0.6 25.35 -5.05 25.35 -5.05 26.9 7.5 26.9 7.5 21.25 7.65 21.25 Q8.65 23.65 11.25 25.55 14.5 27.9 18.45 27.9 25.9 27.9 30.75 22.4 35.35 17.1 35.35 9.65 35.35 3.1 30.85 -2.5 25.95 -8.6 19.0 -8.6 14.9 -8.6 11.7 -6.0 8.9 -3.8 7.65 -0.55 L7.5 -0.55 7.5 -33.5 M37.35 -5.2 L44.5 -5.2 44.5 20.6 Q44.5 27.9 54.0 27.9 58.0 27.9 60.6 25.5 62.45 23.8 63.05 21.65 L61.4 21.3 Q61.0 22.9 59.55 24.4 57.75 26.3 55.4 26.25 53.35 26.2 52.45 25.25 51.4 24.2 51.4 21.8 L51.4 -5.2 68.25 -5.2 83.2 28.9 83.85 28.9 95.95 1.1 Q97.55 -2.55 98.6 -3.6 100.25 -5.2 103.75 -5.2 L103.75 -6.8 89.45 -6.8 89.45 -5.2 91.7 -5.2 Q95.55 -5.2 95.55 -3.0 95.55 -2.0 93.85 1.75 L86.35 19.05 76.2 -5.2 82.3 -5.2 82.3 -6.8 51.4 -6.8 51.4 -18.3 50.4 -18.3 Q49.3 -12.05 46.55 -9.45 43.55 -6.65 37.35 -6.8 L37.35 -5.2 M91.25 -65.2 Q100.15 -61.4 106.9 -55.6 L108.1 -54.55 Q114.1 -49.1 117.3 -42.75 120.95 -35.5 120.3 -28.1 L107.5 52.45 Q105.65 64.55 98.2 71.85 L94.45 74.95 Q85.25 81.45 70.55 82.3 L-47.15 88.9 Q-55.05 89.45 -63.2 86.25 -71.05 83.2 -78.0 77.2 -80.9 74.7 -83.5 71.85 -87.05 67.95 -89.9 63.35 -95.0 55.15 -97.2 46.15 L-119.1 -49.85 -119.9 -54.55 Q-122.1 -70.75 -114.1 -80.05 -104.85 -90.85 -85.15 -88.55 L72.3 -70.25 Q82.1 -69.1 91.25 -65.2 M-96.05 -5.2 L-91.65 -5.2 -76.5 28.9 -75.95 28.9 -67.25 8.4 -58.1 28.9 -57.55 28.9 -45.45 1.0 Q-43.9 -2.6 -42.75 -3.65 -41.05 -5.2 -37.55 -5.2 L-37.55 -6.8 -51.85 -6.8 -51.85 -5.2 -49.65 -5.2 Q-45.8 -5.2 -45.8 -3.0 -45.8 -1.9 -47.45 1.75 L-55.05 19.35 -65.75 -5.2 -59.15 -5.2 -59.15 -6.8 -96.05 -6.8 -96.05 -5.2 M91.25 24.35 L91.25 24.0 88.9 24.0 88.9 24.35 89.85 24.35 89.85 26.9 90.25 26.9 90.25 24.35 91.25 24.35 M94.8 24.0 L94.25 24.0 93.45 26.45 92.6 24.0 92.05 24.0 92.05 26.9 92.4 26.9 92.4 24.45 93.25 26.9 93.6 26.9 94.45 24.45 94.45 26.9 94.8 26.9 94.8 24.0 M-33.5 -2.45 Q-37.8 3.2 -37.8 9.65 -37.8 17.75 -33.2 22.85 -28.65 27.9 -21.45 27.9 -15.85 27.9 -11.9 24.4 -8.0 20.95 -7.0 15.25 L-8.75 15.25 Q-9.6 20.0 -12.75 22.95 -16.25 26.2 -21.45 26.15 -30.1 26.15 -29.9 14.15 L-29.9 6.5 -8.45 6.5 Q-7.7 6.5 -7.7 5.7 -7.7 4.25 -8.65 2.0 -9.7 -0.55 -11.45 -2.75 -16.05 -8.6 -22.45 -8.6 -28.8 -8.6 -33.5 -2.45 M-83.6 -5.2 L-73.3 -5.2 -68.05 6.45 -73.3 18.75 -83.6 -5.2 M-15.7 4.95 L-29.9 4.95 -29.9 2.85 Q-29.9 -7.05 -22.45 -7.05 -15.6 -7.05 -15.6 2.85 L-15.6 4.55 -15.7 4.95" fill="#000000" fill-rule="evenodd" stroke="none"/>
    <path d="M7.5 -33.5 L7.5 -0.55 7.65 -0.55 Q8.9 -3.8 11.7 -6.0 14.9 -8.6 19.0 -8.6 25.95 -8.6 30.85 -2.5 35.35 3.1 35.35 9.65 35.35 17.1 30.75 22.4 25.9 27.9 18.45 27.9 14.5 27.9 11.25 25.55 8.65 23.65 7.65 21.25 L7.5 21.25 7.5 26.9 -5.05 26.9 -5.05 25.35 0.6 25.35 0.6 -29.85 -5.05 -29.85 -5.05 -31.45 0.6 -31.45 Q5.7 -31.45 7.5 -33.5 M10.55 -2.25 Q7.65 1.9 7.5 7.3 L7.5 13.6 Q7.5 19.2 10.95 22.9 14.15 26.4 18.45 26.3 24.15 26.25 25.95 22.25 27.4 19.05 27.45 9.65 27.55 1.05 26.0 -2.6 24.1 -7.05 19.0 -7.0 13.85 -7.0 10.55 -2.25 M94.8 24.0 L94.8 26.9 94.45 26.9 94.45 24.45 93.6 26.9 93.25 26.9 92.4 24.45 92.4 26.9 92.05 26.9 92.05 24.0 92.6 24.0 93.45 26.45 94.25 24.0 94.8 24.0 M91.25 24.35 L90.25 24.35 90.25 26.9 89.85 26.9 89.85 24.35 88.9 24.35 88.9 24.0 91.25 24.0 91.25 24.35 M-96.05 -5.2 L-96.05 -6.8 -59.15 -6.8 -59.15 -5.2 -65.75 -5.2 -55.05 19.35 -47.45 1.75 Q-45.8 -1.9 -45.8 -3.0 -45.8 -5.2 -49.65 -5.2 L-51.85 -5.2 -51.85 -6.8 -37.55 -6.8 -37.55 -5.2 Q-41.05 -5.2 -42.75 -3.65 -43.9 -2.6 -45.45 1.0 L-57.55 28.9 -58.1 28.9 -67.25 8.4 -75.95 28.9 -76.5 28.9 -91.65 -5.2 -96.05 -5.2 M-33.5 -2.45 Q-28.8 -8.6 -22.45 -8.6 -16.05 -8.6 -11.45 -2.75 -9.7 -0.55 -8.65 2.0 -7.7 4.25 -7.7 5.7 -7.7 6.5 -8.45 6.5 L-29.9 6.5 -29.9 14.15 Q-30.1 26.15 -21.45 26.15 -16.25 26.2 -12.75 22.95 -9.6 20.0 -8.75 15.25 L-7.0 15.25 Q-8.0 20.95 -11.9 24.4 -15.85 27.9 -21.45 27.9 -28.65 27.9 -33.2 22.85 -37.8 17.75 -37.8 9.65 -37.8 3.2 -33.5 -2.45 M-83.6 -5.2 L-73.3 18.75 -68.05 6.45 -73.3 -5.2 -83.6 -5.2 M-15.7 4.95 L-15.6 4.55 -15.6 2.85 Q-15.6 -7.05 -22.45 -7.05 -29.9 -7.05 -29.9 2.85 L-29.9 4.95 -15.7 4.95" fill="#ffffff" fill-rule="evenodd" stroke="none"/>
    <path d="M37.35 -5.2 L37.35 -6.8 Q43.55 -6.65 46.55 -9.45 49.3 -12.05 50.4 -18.3 L51.4 -18.3 51.4 -6.8 82.3 -6.8 82.3 -5.2 76.2 -5.2 86.35 19.05 93.85 1.75 Q95.55 -2.0 95.55 -3.0 95.55 -5.2 91.7 -5.2 L89.45 -5.2 89.45 -6.8 103.75 -6.8 103.75 -5.2 Q100.25 -5.2 98.6 -3.6 97.55 -2.55 95.95 1.1 L83.85 28.9 83.2 28.9 68.25 -5.2 51.4 -5.2 51.4 21.8 Q51.4 24.2 52.45 25.25 53.35 26.2 55.4 26.25 57.75 26.3 59.55 24.4 61.0 22.9 61.4 21.3 L63.05 21.65 Q62.45 23.8 60.6 25.5 58.0 27.9 54.0 27.9 44.5 27.9 44.5 20.6 L44.5 -5.2 37.35 -5.2" fill="#ffb500" fill-rule="evenodd" stroke="none"/>
  </g>
</svg>
