<?xml version="1.0" encoding="UTF-8"?>
<svg width="131" height="99" version="1.1" viewBox="0 0 131 99" xmlns="http://www.w3.org/2000/svg" xmlns:cc="http://creativecommons.org/ns#" xmlns:dc="http://purl.org/dc/elements/1.1/" xmlns:rdf="http://www.w3.org/1999/02/22-rdf-syntax-ns#"><title>WebTV Logo Jewel</title><defs><radialGradient id="a" cx="9.0463" cy="-2.3097" r="45.297" gradientTransform="matrix(1 0 0 .7403 0 9.5932)" gradientUnits="userSpaceOnUse"><stop stop-color="#a3a3af" offset="0"/><stop stop-color="#4a4b67" offset=".24805"/><stop stop-color="#0a0a0d" offset=".96165"/></radialGradient><radialGradient id="b" cx="83.5" cy="67.292" r="37.469" gradientTransform="matrix(1 0 0 .81905 0 7.1904)" gradientUnits="userSpaceOnUse"><stop stop-color="#aaafa8" offset="0"/><stop stop-color="#0a0a0d" offset=".73177"/></radialGradient><radialGradient id="c" cx="19.722" cy="15.768" r="44.673" gradientTransform="matrix(2.2807,0,0,2.1874,-33.591,-23.478)" gradientUnits="userSpaceOnUse"><stop stop-color="#4a4b67" offset=".17778"/><stop stop-color="#1e1b21" offset=".58889"/></radialGradient><filter id="e" x="-.033426" y="-.045152" width="1.0669" height="1.0903" color-interpolation-filters="sRGB"><feGaussianBlur stdDeviation="1.1815083"/></filter></defs><g transform="matrix(1.4446 0 0 1.4458 -6.8495 -4.1025)" fill-rule="evenodd" opacity=".80"><path d="m84.819 12.346c2.2519 0.96148 4.2318 2.176 5.9397 3.6435l0.45544 0.39851c1.5181 1.379 2.1904 2.7167 3.3349 4.7174 0.5075 1.429 0.87453 3.3414 0.8773 5.2854l-5.1088 30.512c-0.46809 3.0616-1.6446 5.5159-3.5296 7.3629l-1.4232 1.1765c-2.3278 1.6446-4.778 3.0523-8.4974 3.2674l-44.886 1.7165c-2.3094 0.11527-5.415 0.0667-7.4771-0.74297-1.9862-0.77171-3.1897-1.4866-4.9481-3.0047-0.73376-0.63255-1.7879-1.62-2.4458-2.3411-0.89822-0.98678-1.2779-2.0621-1.999-3.226-0.93206-2.2898-1.3061-4.203-1.815-6.5041l-8.3117-36.435s-0.45562-3.1237 0.20942-5.6057c0.33252-1.241 0.74404-2.8253 1.6861-4.1318 0.94211-1.3065 2.1162-2.3412 2.8688-2.9667 1.4866-1.2353 5.0951-2.3746 8.1206-1.9837l59.757 6.9454c2.4796 0.29098 4.877 0.92985 7.1921 1.9166" fill="url(#a)" stroke-width=".37953"/><path d="m84.819 12.346c2.2519 0.96148 4.2318 2.176 5.9397 3.6435l0.45544 0.39851c1.5181 1.379 2.1904 2.7167 3.3349 4.7174 0.5075 1.429 0.87453 3.3414 0.8773 5.2854l-5.1088 30.512c-0.46809 3.0616-1.6446 5.5159-3.5296 7.3629l-1.4232 1.1765c-2.3278 1.6446-4.778 3.0523-8.4974 3.2674l-44.886 1.7165c-1.5894-18.785-44.247-70.444 45.646-59.996 2.4796 0.29098 4.877 0.92985 7.1921 1.9166" fill="url(#b)" stroke-width=".37953"/><path d="m82.478 14.045c2.1087 0.90034 3.9627 2.0376 5.562 3.4118l0.42648 0.37317c1.4216 1.2913 2.0512 2.544 3.1228 4.4174 0.47523 1.3381 0.81891 3.1289 0.82151 4.9493l-4.784 28.571c-0.43832 2.8669-1.54 5.1651-3.3052 6.8947l-1.3327 1.1017c-2.1798 1.5401-4.4742 2.8582-7.9571 3.0596l-42.032 1.6074c-2.1626 0.10794-5.0706 0.06246-7.0016-0.69572-1.8599-0.72264-2.9868-1.3921-4.6335-2.8137-0.6871-0.59233-1.6742-1.5169-2.2902-2.1922-0.8411-0.92403-1.1966-1.931-1.8719-3.0209-0.87278-2.1442-1.2231-3.9357-1.6996-6.0904l-7.7832-34.118s-0.42664-2.9251 0.1961-5.2492c0.31137-1.1621 0.69673-2.6456 1.5789-3.8691 0.8822-1.2234 1.9816-2.1923 2.6864-2.778 1.3921-1.1568 4.7711-2.2236 7.6042-1.8576l55.957 6.5038c2.3219 0.27247 4.5668 0.87072 6.7348 1.7948" fill="url(#c)" filter="url(#e)" stroke-width=".3554"/><g transform="matrix(.96452 0 0 .96452 1.6096 1.4285)" stroke-width=".36518"><path d="m52.711 25.027v12.033h0.05478c0.30432-0.79123 0.79732-1.4546 1.479-1.9902 0.77906-0.63298 1.6677-0.94948 2.6658-0.94948 1.692 0 3.1345 0.74254 4.3274 2.2276 1.0955 1.3634 1.6433 2.8423 1.6433 4.437 0 1.8137-0.55995 3.3658-1.6798 4.6561-1.1808 1.339-2.678 2.0085-4.4918 2.0085-0.96165 0-1.8381-0.28606-2.6293-0.85818-0.63298-0.46257-1.0712-0.986-1.3147-1.5703h-0.05478v2.0633h-4.583v-0.56603h2.0633v-20.158h-2.0633v-0.58429h2.0633c1.2416 0 2.0815-0.24954 2.5198-0.74862m1.1138 11.412c-0.70602 1.0103-1.0773 2.1728-1.1138 3.4875v2.3007c0 1.3634 0.41996 2.4954 1.2599 3.3962 0.77906 0.85209 1.692 1.266 2.7389 1.2416 1.3877-0.01217 2.3007-0.50517 2.7389-1.479 0.35301-0.77906 0.5356-2.3128 0.54777-4.6013 0.02435-2.0937-0.15216-3.5849-0.52952-4.4735-0.46256-1.0834-1.3147-1.619-2.5563-1.6068-1.2538 0-2.2824 0.57821-3.0858 1.7346m-38.929-1.0773v-0.58429h13.475v0.58429h-2.4102l3.9075 8.9652 2.7754-6.4272c0.4017-0.88861 0.60255-1.4668 0.60255-1.7346 0-0.5356-0.46865-0.8034-1.406-0.8034h-0.8034v-0.58429h5.2221v0.58429c-0.85209 0-1.4851 0.18868-1.899 0.56603-0.27997 0.25563-0.60864 0.82166-0.986 1.6981l-4.4187 10.189h-0.20085l-3.3414-7.4863-3.1771 7.4863h-0.20085l-5.5325-12.453h-1.6068m22.842 1.0043c1.1442-1.4973 2.4893-2.2459 4.0353-2.2459 1.5581 0 2.8971 0.71211 4.017 2.1363 0.42605 0.5356 0.76688 1.1138 1.0225 1.7346 0.23128 0.54778 0.34692 0.99817 0.34692 1.3512 0 0.19476-0.0913 0.29215-0.27389 0.29215h-7.8332v2.7937c-0.04869 2.9215 0.97991 4.3822 3.0858 4.3822 1.266 0.01217 2.325-0.37736 3.1771-1.1686 0.76688-0.71819 1.2538-1.6555 1.4607-2.8119h0.63907c-0.24346 1.3877-0.83992 2.5015-1.7894 3.3414-0.96165 0.85209-2.1241 1.2781-3.4875 1.2781-1.7529 0-3.1832-0.61472-4.2909-1.8442-1.1199-1.2416-1.6798-2.8484-1.6798-4.8204 0-1.5703 0.52343-3.0432 1.5703-4.4187m-18.296-1.0043 3.7614 8.7461 1.9172-4.4918-1.9172-4.2544h-3.7614m24.796 3.7066 0.03652-0.14607v-0.62081c0-2.4102-0.83384-3.6153-2.5015-3.6153-1.8137 0-2.7206 1.2051-2.7206 3.6153v0.76688h5.1856" fill="#fff"/><path d="m63.78 35.43v-0.58429q2.2641 0.05478 3.3597-0.96774 1.0043-0.94948 1.406-3.2319h0.36518v4.1996h11.284v0.58429h-2.2276l3.7066 8.8557 2.7389-6.3177q0.62081-1.3694 0.62081-1.7346 0-0.8034-1.406-0.8034h-0.82166v-0.58429h5.2221v0.58429q-1.2781 0-1.8807 0.58429-0.38344 0.38344-0.96774 1.7164l-4.4187 10.152h-0.23737l-5.4595-12.453h-6.1533v9.8599q0 0.87644 0.38344 1.2599 0.32866 0.34692 1.0773 0.36518 0.85818 0.01826 1.5155-0.67559 0.52952-0.54778 0.67559-1.1321l0.60255 0.12781q-0.21911 0.78514-0.8947 1.406-0.94948 0.87644-2.4102 0.87644-3.4692 0-3.4692-2.6658v-9.4217h-2.6111" fill="#ffb500"/></g></g><metadata><rdf:RDF><cc:Work rdf:about=""><dc:title>WebTV Logo Jewel</dc:title><dc:creator><cc:Agent><dc:title>avegee24</dc:title></cc:Agent></dc:creator><dc:description>A vector remake of the WebTV jewel logo by avegee24. Based on the logo found on the WebTV Dreamcast Connection Kit and the WebTV service. This version has no shadow and is intended for the screen saver.</dc:description></cc:Work></rdf:RDF></metadata></svg>
