<?xml version="1.0" encoding="UTF-8"?>
<svg width="260" height="193.38" version="1.1" viewBox="120.89 117.97 260 193.38" xmlns="http://www.w3.org/2000/svg"><path d="m163.77 121.36 182.27 24.413c15.869 2.1253 37.93 20.244 34.496 43.798l-12.562 86.16c-2.9125 19.989-19.227 29.012-37.006 29.799l-129.84 5.7581c-26.742 1.185-44.334-18.05-48.85-38.055l-26.181-115.98c-2.631-11.65 0.76128-21.894 6.477-27.536 7.3489-7.2533 18.562-10.048 31.204-8.3562z" fill="#aeaeae" stroke="#000" stroke-miterlimit="2.613" stroke-width=".29522"/><path d="m159.62 118.59 182.27 24.413c15.869 2.1253 37.93 20.244 34.496 43.798l-12.562 86.16c-2.9125 19.989-19.227 29.012-37.006 29.799l-129.84 5.7581c-26.742 1.185-44.334-18.05-48.85-38.055l-26.181-115.98c-2.631-11.65 0.76128-21.894 6.477-27.536 7.3489-7.2533 18.562-10.048 31.204-8.3562z" stroke="#000" stroke-miterlimit="2.613" stroke-width=".29522"/><g stroke-width="1.3667"><path d="m323.39 207.24h-4.0633v-1.3695h17.992v1.3695h-5.5284l11.527 27.137 8.8838-21.758c0.29112-0.62733 0.48383-1.1904 0.61093-1.6742 0.13121-0.48382 0.19545-0.91844 0.19545-1.3052 0-0.87061-0.35535-1.4815-1.0647-1.8041-0.7107-0.33622-2.4191-0.5467-5.1253-0.64374v-1.3216h13.41v1.3695h-0.56309c-1.2888 0-2.3863 0.48383-3.2569 1.4337-0.88565 0.96628-1.9831 3.0109-3.3048 6.1694l-12.381 30.146-0.80638 0.51526zm-16.745 30.34c0 2.143 0.31981 3.6574 0.94988 4.5594 0.63007 0.88291 1.692 1.3353 3.2091 1.3353 1.5963 0 2.9972-0.46742 4.1904-1.3859 1.2096-0.93485 2.0952-2.2524 2.6938-3.9458h1.4173c-0.723 2.3522-1.9353 4.1726-3.6096 5.4423-1.6797 1.2738-3.7421 1.9162-6.1612 1.9162a12.634 12.634 0 0 1-4.3667-0.7558c-1.3722-0.49886-2.549-1.2232-3.5152-2.1758a6.2528 6.2528 0 0 1-1.6278-2.4642c-0.33895-0.93212-0.49886-2.2688-0.49886-3.9936v-28.875h-6.7079v-1.3695c3.8036 0 6.7407-1.0141 8.7881-3.0588s3.4168-5.3152 4.1111-9.7749h1.1289v12.835h10.721v1.3695h-10.721v30.342z" fill="#e7be39"/><path d="m246.18 242.96h5.6282v-61.245h-5.6282v-1.3681h13.753v33.272c1.2888-2.8674 3.0464-5.072 5.2879-6.6013 2.2401-1.5485 4.7549-2.3194 7.5594-2.3194 4.7248 0 8.8195 1.9968 12.303 5.974 3.4811 3.9772 5.2209 8.7444 5.2209 14.319 0 6.1025-1.7084 11.046-5.1253 14.832-3.4196 3.7859-7.8341 5.6829-13.253 5.6829-2.482 0-4.7385-0.64373-6.753-1.9162-2.0187-1.2711-3.79-3.1394-5.3385-5.6186v6.3608h-13.655zm13.753-25.897v17.409c1.3531 3.1708 3.0779 5.5544 5.1731 7.1672 2.0952 1.5936 4.5294 2.4 7.3038 2.4 3.2091 0 5.5312-1.0496 6.9676-3.1585 1.4337-2.1089 2.143-5.5708 2.143-10.371v-11.097c0-4.364-0.77357-7.6319-2.3385-9.8077-1.5649-2.1731-3.887-3.2542-6.9649-3.2542-2.646 0-5.0474 0.93485-7.1918 2.8032-2.1266 1.8697-3.8351 4.5102-5.0925 7.9079zm-39.881 4.189v11.192c0 4.01 0.77357 6.9403 2.3207 8.7608 1.5307 1.8178 3.9991 2.7362 7.3681 2.7362 3.369 0 6.2706-1.0948 8.7376-3.302 2.4506-2.2046 4.1918-5.2483 5.1909-9.1448h1.4679c-1.1617 4.4282-3.1284 7.8902-5.9016 10.387-2.7731 2.4793-6.0615 3.7216-9.8829 3.7216-4.9654 0-9.2378-1.9667-12.769-5.8783-3.5467-3.913-5.3207-8.6815-5.3207-14.319 0-5.8783 1.5964-10.805 4.789-14.768 3.2077-3.9608 7.1098-5.9426 11.754-5.9426 4.4665 0 8.2701 1.5622 11.43 4.6688 3.1449 3.1093 4.9011 7.0715 5.2401 11.886h-24.424zm0-1.3695h14.929v-4.5253c0-3.1736-0.6123-5.5257-1.8383-7.0236-1.2246-1.513-3.1435-2.2688-5.7239-2.2688-2.4492 0-4.3038 0.88565-5.5298 2.6405-1.2246 1.7562-1.8369 4.4132-1.8369 7.9708zm-73.417-12.642v-1.3695h17.993v1.3695h-5.5298l11.527 27.137 6.6587-16.137-4.8041-11.001h-6.1913v-1.3695h21.249v1.3695h-6.5617l11.43 27.137 8.8838-21.711c0.33895-0.85421 0.58086-1.4815 0.70934-1.9162 0.12984-0.41686 0.19407-0.78724 0.19407-1.1098 0-0.87061-0.37038-1.4815-1.0961-1.8041-0.72574-0.33622-2.4506-0.53166-5.1909-0.5959v-1.3695h13.413v1.3695h-0.56446c-1.2574 0-2.3057 0.43462-3.1435 1.3052-0.83781 0.85421-1.9517 2.9631-3.3212 6.2966l-12.478 30.146-0.80637 0.51526-10.818-25.058-10.158 24.542-0.78997 0.51526-16.639-38.263h-3.9663z" fill="#c4c4c4"/></g></svg>
