<?xml version="1.0" encoding="UTF-8"?>
<svg width="141" height="108.44" version="1.1" viewBox="0 0 141 108.44" xmlns="http://www.w3.org/2000/svg" xmlns:cc="http://creativecommons.org/ns#" xmlns:dc="http://purl.org/dc/elements/1.1/" xmlns:rdf="http://www.w3.org/1999/02/22-rdf-syntax-ns#"><title>weezer</title><defs><filter id="d" x="-.028924" y="-.039072" width="1.0578" height="1.0781" color-interpolation-filters="sRGB"><feGaussianBlur stdDeviation="1.0223976"/></filter><radialGradient id="a" cx="9.0463" cy="-2.3097" r="45.297" gradientTransform="matrix(1 0 0 .7403 0 9.5932)" gradientUnits="userSpaceOnUse"><stop stop-color="#a3a3af" offset="0"/><stop stop-color="#4a4b67" offset=".24805"/><stop stop-color="#0a0a0d" offset=".96165"/></radialGradient><radialGradient id="b" cx="83.5" cy="67.292" r="37.469" gradientTransform="matrix(1 0 0 .81905 0 7.1904)" gradientUnits="userSpaceOnUse"><stop stop-color="#aaafa8" offset="0"/><stop stop-color="#0a0a0d" offset=".73177"/></radialGradient><radialGradient id="c" cx="19.722" cy="15.768" r="44.673" gradientTransform="matrix(2.2807,0,0,2.1874,-33.591,-23.478)" gradientUnits="userSpaceOnUse"><stop stop-color="#4a4b67" offset=".17778"/><stop stop-color="#1e1b21" offset=".58889"/></radialGradient><filter id="e" x="-.033426" y="-.045152" width="1.0669" height="1.0903" color-interpolation-filters="sRGB"><feGaussianBlur stdDeviation="1.1815083"/></filter></defs><g transform="matrix(1.4453 0 0 1.4453 -6.8531 -4.101)" fill-rule="evenodd"><path d="m89.911 20.982c2.1087 0.90034 3.9627 2.0376 5.562 3.4118l0.42648 0.37317c1.4216 1.2913 2.0512 2.544 3.1228 4.4174 0.47523 1.3381 0.81891 3.1289 0.82151 4.9493l-4.784 28.571c-0.43832 2.8669-1.54 5.1651-3.3052 6.8947l-1.3327 1.1017c-2.1798 1.5401-4.4742 2.8582-7.9571 3.0596l-42.032 1.6074c-2.1626 0.10794-5.0706 0.06246-7.0016-0.69572-1.8599-0.72264-2.9868-1.3921-4.6335-2.8137-0.6871-0.59233-1.6742-1.5169-2.2902-2.1922-0.8411-0.92403-1.1966-1.931-1.8719-3.0209-0.87278-2.1442-1.2231-3.9357-1.6996-6.0904l-7.7832-34.118s-0.42664-2.9251 0.1961-5.2492c0.31137-1.1621 0.69673-2.6456 1.5789-3.8691 0.8822-1.2234 1.9816-2.1923 2.6864-2.778 1.3921-1.1568 4.7711-2.2236 7.6042-1.8576l55.957 6.5038c2.3219 0.27247 4.5668 0.87072 6.7348 1.7948" fill-opacity=".74964" filter="url(#d)" stroke-width=".3554" style="mix-blend-mode:normal"/><path d="m84.819 12.346c2.2519 0.96148 4.2318 2.176 5.9397 3.6435l0.45544 0.39851c1.5181 1.379 2.1904 2.7167 3.3349 4.7174 0.5075 1.429 0.87453 3.3414 0.8773 5.2854l-5.1088 30.512c-0.46809 3.0616-1.6446 5.5159-3.5296 7.3629l-1.4232 1.1765c-2.3278 1.6446-4.778 3.0523-8.4974 3.2674l-44.886 1.7165c-2.3094 0.11527-5.415 0.0667-7.4771-0.74297-1.9862-0.77171-3.1897-1.4866-4.9481-3.0047-0.73376-0.63255-1.7879-1.62-2.4458-2.3411-0.89822-0.98678-1.2779-2.0621-1.999-3.226-0.93206-2.2898-1.3061-4.203-1.815-6.5041l-8.3117-36.435s-0.45562-3.1237 0.20942-5.6057c0.33252-1.241 0.74404-2.8253 1.6861-4.1318 0.94211-1.3065 2.1162-2.3412 2.8688-2.9667 1.4866-1.2353 5.0951-2.3746 8.1206-1.9837l59.757 6.9454c2.4796 0.29098 4.877 0.92985 7.1921 1.9166" fill="url(#a)" stroke-width=".37953"/><path d="m84.819 12.346c2.2519 0.96148 4.2318 2.176 5.9397 3.6435l0.45544 0.39851c1.5181 1.379 2.1904 2.7167 3.3349 4.7174 0.5075 1.429 0.87453 3.3414 0.8773 5.2854l-5.1088 30.512c-0.46809 3.0616-1.6446 5.5159-3.5296 7.3629l-1.4232 1.1765c-2.3278 1.6446-4.778 3.0523-8.4974 3.2674l-44.886 1.7165c-1.5894-18.785-44.247-70.444 45.646-59.996 2.4796 0.29098 4.877 0.92985 7.1921 1.9166" fill="url(#b)" stroke-width=".37953"/><path d="m82.478 14.045c2.1087 0.90034 3.9627 2.0376 5.562 3.4118l0.42648 0.37317c1.4216 1.2913 2.0512 2.544 3.1228 4.4174 0.47523 1.3381 0.81891 3.1289 0.82151 4.9493l-4.784 28.571c-0.43832 2.8669-1.54 5.1651-3.3052 6.8947l-1.3327 1.1017c-2.1798 1.5401-4.4742 2.8582-7.9571 3.0596l-42.032 1.6074c-2.1626 0.10794-5.0706 0.06246-7.0016-0.69572-1.8599-0.72264-2.9868-1.3921-4.6335-2.8137-0.6871-0.59233-1.6742-1.5169-2.2902-2.1922-0.8411-0.92403-1.1966-1.931-1.8719-3.0209-0.87278-2.1442-1.2231-3.9357-1.6996-6.0904l-7.7832-34.118s-0.42664-2.9251 0.1961-5.2492c0.31137-1.1621 0.69673-2.6456 1.5789-3.8691 0.8822-1.2234 1.9816-2.1923 2.6864-2.778 1.3921-1.1568 4.7711-2.2236 7.6042-1.8576l55.957 6.5038c2.3219 0.27247 4.5668 0.87072 6.7348 1.7948" fill="url(#c)" filter="url(#e)" stroke-width=".3554"/></g><metadata><rdf:RDF><cc:Work rdf:about=""><dc:title>weezer</dc:title><dc:creator><cc:Agent><dc:title>avegee24</dc:title></cc:Agent></dc:creator><dc:description>A vector remake of the WebTV jewel logo by avegee24. Based on the logo found on the WebTV Dreamcast Connection Kit and the WebTV service.</dc:description></cc:Work></rdf:RDF></metadata><g transform="matrix(.53239 0 0 .53239 -.021508 2.263)" stroke-linecap="square" stroke-linejoin="round" stroke-width="5"><path d="m140.92 90.707h-1.152l-0.072-10.512h25.416l-19.872 26.64h6.48q5.76 0 7.992-1.8 2.304-1.872 2.304-7.344h1.224v10.368h-26.136l20.16-26.64h-5.472q-3.168 0-4.896 0.288-1.728 0.216-3.312 1.152-1.512 0.864-2.088 2.808-0.576 1.872-0.576 5.04zm54.432 7.56 1.152 0.216q-1.152 4.824-4.752 7.704-3.6 2.808-8.568 2.808-6.192 0-10.656-4.32-4.392-4.392-4.392-10.44 0-6.12 4.32-10.872 4.392-4.752 9.936-4.752 3.816 0 7.128 2.304t5.184 6.192q1.224 2.88 1.224 3.672 0 0.432-0.864 0.432h-20.232q0 0.864-0.072 2.664t-0.072 2.664q0 5.472 1.584 8.424 1.656 2.88 6.696 2.88 9.144 0 12.384-9.576zm-20.52-8.28h13.104q0.72 0 0.864-0.072 0.216-0.144 0.216-0.648 0-2.088-0.288-3.6-0.216-1.512-0.864-2.952-0.648-1.512-2.088-2.304t-3.528-0.792q-1.944 0-3.312 0.576t-2.088 1.44q-0.72 0.792-1.224 2.376-0.432 1.512-0.576 2.736t-0.216 3.24zm35.424-2.808q1.008-3.816 3.312-5.976 2.376-2.232 5.472-2.232 2.16 0 3.456 1.152 1.368 1.08 1.368 2.88 0 1.44-0.864 2.376-0.864 0.864-2.232 0.864-1.224 0-2.088-0.864-0.864-0.936-0.864-2.304 0-1.728 1.656-2.736l-1.08-0.144q-0.072-0.072-0.288-0.072-1.728 0-3.6 1.872-1.872 1.8-3.024 4.68-0.792 1.944-1.008 3.384-0.216 1.368-0.216 4.464v12.312h6.264v1.224h-17.64v-1.224h5.544v-25.416h-5.544v-1.224h7.128q2.808 0 4.248-1.8z" fill="#ffb500" aria-label="       zer"/><path d="m23.42 81.419v-1.152h32.112v1.152h-5.688l8.928 20.52 6.048-13.896q1.368-3.096 1.368-4.608 0-2.016-2.808-2.016h-2.592v-1.152h12.672v1.152h-1.656q-1.944 0-2.952 1.224-1.008 1.152-2.952 5.76l-9.216 21.6h-0.648l-7.632-17.136-6.984 17.136h-0.72l-12.6-28.584zm20.016 0h-8.856l8.856 20.52 4.392-10.512zm58.176 16.848 1.152 0.216q-1.152 4.824-4.752 7.704-3.6 2.808-8.568 2.808-6.192 0-10.656-4.32-4.392-4.392-4.392-10.44 0-6.12 4.32-10.872 4.392-4.752 9.936-4.752 3.816 0 7.128 2.304t5.184 6.192q1.224 2.88 1.224 3.672 0 0.432-0.864 0.432h-20.232q0 0.864-0.072 2.664t-0.072 2.664q0 5.472 1.584 8.424 1.656 2.88 6.696 2.88 9.144 0 12.384-9.576zm-20.52-8.28h13.104q0.72 0 0.864-0.072 0.216-0.144 0.216-0.648 0-2.088-0.288-3.6-0.216-1.512-0.864-2.952-0.648-1.512-2.088-2.304t-3.528-0.792q-1.944 0-3.312 0.576t-2.088 1.44q-0.72 0.792-1.224 2.376-0.432 1.512-0.576 2.736t-0.216 3.24zm52.2 8.28 1.152 0.216q-1.152 4.824-4.752 7.704-3.6 2.808-8.568 2.808-6.192 0-10.656-4.32-4.392-4.392-4.392-10.44 0-6.12 4.32-10.872 4.392-4.752 9.936-4.752 3.816 0 7.128 2.304t5.184 6.192q1.224 2.88 1.224 3.672 0 0.432-0.864 0.432h-20.232q0 0.864-0.072 2.664t-0.072 2.664q0 5.472 1.584 8.424 1.656 2.88 6.696 2.88 9.144 0 12.384-9.576zm-20.52-8.28h13.104q0.72 0 0.864-0.072 0.216-0.144 0.216-0.648 0-2.088-0.288-3.6-0.216-1.512-0.864-2.952-0.648-1.512-2.088-2.304t-3.528-0.792q-1.944 0-3.312 0.576t-2.088 1.44q-0.72 0.792-1.224 2.376-0.432 1.512-0.576 2.736t-0.216 3.24z" fill="#fff" aria-label="wee"/></g></svg>
