<?xml version="1.0" encoding="UTF-8"?>
<svg width="74.802" height="196.36" version="1.1" viewBox="0 0 74.802 196.36" xml:space="preserve" xmlns="http://www.w3.org/2000/svg" xmlns:cc="http://creativecommons.org/ns#" xmlns:dc="http://purl.org/dc/elements/1.1/" xmlns:rdf="http://www.w3.org/1999/02/22-rdf-syntax-ns#"><title>Mail Sidebar Text</title><defs><filter id="a" x="-.007428" y="-.019982" width="1.0149" height="1.04" color-interpolation-filters="sRGB"><feGaussianBlur stdDeviation="0.59884823"/></filter></defs><g transform="rotate(-90 -14.703 5.6848)" stroke-width="0"><path d="m-203.95 22.607h25.052l14.948 49.375h0.20833l15.052-49.375h24.427v2.6563h-10.365v64.531h10.365v2.6563h-32.865v-2.6563h10.677v-65.729h-0.20833l-20.781 68.386h-2.3958l-20.781-68.386h-0.20833v65.729h10.677v2.6563h-23.802v-2.6563h10.469v-64.531h-10.469zm116.77 46.458v-5.3125q0-6.5104-1.0938-8.5417-1.0417-2.0313-5.7292-2.0313-8.4375 0-8.4375 3.2292 0 0.9375 0.67709 2.0833 0.72917 1.0938 0.72917 2.6042 0 2.1354-1.4063 3.2813-1.4062 1.0938-3.1771 1.0938-2.2917 0-3.5417-1.4063-1.25-1.4583-1.25-3.3854 0-4.1667 4.8438-6.9792 4.8958-2.8646 13.594-2.8646 6.9792 0 10.208 1.6146 3.2292 1.6146 3.9583 4.0104 0.78125 2.3958 0.78125 6.7709v19.167q0 4.2188 0.57292 5.2604 0.625 1.0417 1.875 1.0417 1.875 0 3.6458-2.5521h1.25q-1.3542 7.6042-8.8542 7.6042-7.2396 0-8.6459-8.3334-6.0938 8.3334-14.271 8.3334-5.4167 0-8.6459-2.9167-3.2292-2.9688-3.2292-7.2396 0-13.281 26.146-14.531zm0 8.0209v-5.625q-9.6354 0.36458-12.708 2.9167-3.0729 2.5-3.0729 7.2917 0 3.4896 1.8229 5.4167 1.875 1.9271 4.2708 1.9271 3.0729 0 5.5208-2.0313 2.5-2.0833 3.3333-4.1667 0.83334-2.0833 0.83334-5.7292zm30.521-46.406q0-2.2917 1.6667-3.9583 1.7188-1.6667 4.0104-1.6667 2.2917 0 3.9583 1.6667 1.7188 1.6146 1.7188 3.9583 0 2.4479-1.6667 4.0625-1.6667 1.6146-4.0104 1.6146-2.3438 0-4.0104-1.6146-1.6667-1.6667-1.6667-4.0625zm10.469 20.052v39.063h6.8229v2.6563h-24.219v-2.6563h7.2917v-35.625h-7.2917v-2.6563h7.3959q5.3125 0 10-0.78125zm18.229 39.063v-64.531h-7.4479v-2.6563h7.1354q7.1875 0 10.469-0.78125v67.969h7.3438v2.6563h-24.948v-2.6563z" filter="url(#a)" style="paint-order:stroke fill markers" aria-label="Mail"/><path d="m-204.87 24.035h25.052l14.948 49.375h0.20833l15.052-49.375h24.427v2.6563h-10.365v64.531h10.365v2.6563h-32.865v-2.6563h10.677v-65.729h-0.20833l-20.781 68.386h-2.3958l-20.781-68.386h-0.20834v65.729h10.677v2.6563h-23.802v-2.6563h10.469v-64.531h-10.469zm116.77 46.458v-5.3125q0-6.5104-1.0938-8.5417-1.0417-2.0313-5.7292-2.0313-8.4375 0-8.4375 3.2292 0 0.9375 0.67709 2.0833 0.72917 1.0938 0.72917 2.6042 0 2.1354-1.4063 3.2813-1.4062 1.0938-3.1771 1.0938-2.2917 0-3.5417-1.4063-1.25-1.4583-1.25-3.3854 0-4.1667 4.8438-6.9792 4.8958-2.8646 13.594-2.8646 6.9792 0 10.208 1.6146 3.2292 1.6146 3.9583 4.0104 0.78125 2.3958 0.78125 6.7709v19.167q0 4.2188 0.57292 5.2604 0.625 1.0417 1.875 1.0417 1.875 0 3.6458-2.5521h1.25q-1.3542 7.6042-8.8542 7.6042-7.2396 0-8.6459-8.3334-6.0938 8.3334-14.271 8.3334-5.4167 0-8.6459-2.9167-3.2292-2.9688-3.2292-7.2396 0-13.281 26.146-14.531zm0 8.0209v-5.625q-9.6354 0.36458-12.708 2.9167-3.0729 2.5-3.0729 7.2917 0 3.4896 1.8229 5.4167 1.875 1.9271 4.2708 1.9271 3.0729 0 5.5208-2.0313 2.5-2.0833 3.3333-4.1667t0.83334-5.7292zm30.521-46.406q0-2.2917 1.6667-3.9583 1.7188-1.6667 4.0104-1.6667 2.2917 0 3.9583 1.6667 1.7188 1.6146 1.7188 3.9583 0 2.4479-1.6667 4.0625-1.6667 1.6146-4.0104 1.6146-2.3438 0-4.0104-1.6146-1.6667-1.6667-1.6667-4.0625zm10.469 20.052v39.063h6.8229v2.6563h-24.219v-2.6563h7.2917v-35.625h-7.2917v-2.6563h7.3959q5.3125 0 10-0.78125zm18.229 39.063v-64.531h-7.4479v-2.6563h7.1354q7.1875 0 10.469-0.78125v67.969h7.3438v2.6563h-24.948v-2.6563z" fill="#515b84" style="paint-order:stroke fill markers" aria-label="Mail"/></g><metadata><rdf:RDF><cc:Work rdf:about=""><dc:title>Mail Sidebar Text</dc:title><dc:date>10/20/2023</dc:date><dc:creator><cc:Agent><dc:title>SKCro</dc:title></cc:Agent></dc:creator><dc:rights><cc:Agent><dc:title>WebTV Networks</dc:title></cc:Agent></dc:rights></cc:Work></rdf:RDF></metadata></svg>
