<?xml version="1.0" encoding="UTF-8"?>
<svg width="425" height="60" version="1.1" viewBox="0 0 425 60" xmlns="http://www.w3.org/2000/svg"><title>TV Home text</title><defs><filter id="a" x="-.0043319" y="-.033815" width="1.0087" height="1.0676" color-interpolation-filters="sRGB"><feGaussianBlur stdDeviation="0.61549591"/></filter></defs><path transform="matrix(1.1818 0 0 1.1818 -52.212 -7.9895)" d="m61.313-3.1612h35.576v5.4263h-14.846v37.222h-6.1275v-37.222h-14.602zm83.548 0.06098h6.0665l-17.986 42.77h-1.3718l-18.352-42.77h6.1275l12.804 29.906zm71.315 0h6.097v42.587h-6.097v-18.535h-23.931v18.535h-6.097v-42.587h6.097v18.413h23.931zm51.66-0.6097q9.8771 0 16.431 6.2494 6.5848 6.2494 6.5848 15.669 0 9.4199-6.6457 15.608-6.6152 6.158-16.706 6.158-9.6332 0-16.066-6.158-6.4018-6.1884-6.4018-15.486 0-9.5418 6.4628-15.791 6.4628-6.2494 16.34-6.2494zm0.24389 5.7921q-7.3164 0-12.042 4.5727-4.6947 4.5727-4.6947 11.676 0 6.8896 4.7252 11.462 4.7252 4.5727 11.828 4.5727 7.1335 0 11.889-4.6642 4.7861-4.6642 4.7861-11.615 0-6.7677-4.7861-11.371-4.7557-4.6337-11.706-4.6337zm79.402-5.1824h5.6702v42.587h-6.1275v-33.137l-13.109 16.462h-1.1279l-13.23-16.462v33.137h-6.097v-42.587h5.7312l14.175 17.498zm30.108 0h24.144v5.4263h-18.047v12.987h17.437v5.4568h-17.437v13.23h18.626v5.4263h-24.723z" fill="#fff" fill-opacity=".1" filter="url(#a)" aria-label="TV HOME"/><path d="m1 20.316h20.514v3.1289h-8.5605v21.463h-3.5332v-21.463h-8.4199zm48.175 0.03516h3.498l-10.371 24.662h-0.79102l-10.582-24.662h3.5332l7.3828 17.244zm41.121 0h3.5156v24.557h-3.5156v-10.688h-13.799v10.688h-3.5156v-24.557h3.5156v10.617h13.799zm29.788-0.35157q5.6953 0 9.4746 3.6035 3.7969 3.6035 3.7969 9.0352 0 5.4316-3.832 9-3.8145 3.5508-9.6328 3.5508-5.5547 0-9.2637-3.5508-3.6914-3.5684-3.6914-8.9297 0-5.502 3.7266-9.1055t9.4219-3.6035zm0.14063 3.3398q-4.2188 0-6.9434 2.6367-2.707 2.6367-2.707 6.7324 0 3.9727 2.7246 6.6094t6.8203 2.6367q4.1133 0 6.8555-2.6895 2.7598-2.6895 2.7598-6.6973 0-3.9023-2.7598-6.5566-2.7422-2.6719-6.75-2.6719zm45.784-2.9883h3.2695v24.557h-3.5332v-19.107l-7.5586 9.4922h-0.65039l-7.6289-9.4922v19.107h-3.5156v-24.557h3.3047l8.1738 10.09zm17.361 0h13.922v3.1289h-10.406v7.4883h10.055v3.1465h-10.055v7.6289h10.74v3.1289h-14.256z" fill="#f0f0f0" fill-opacity=".1"  aria-label="TV HOME"/><path d="m2 21.316h20.514v3.1289h-8.5605v21.463h-3.5332v-21.463h-8.4199zm48.175 0.03516h3.498l-10.371 24.662h-0.79102l-10.582-24.662h3.5332l7.3828 17.244zm41.121 0h3.5156v24.557h-3.5156v-10.688h-13.799v10.688h-3.5156v-24.557h3.5156v10.617h13.799zm29.788-0.35157q5.6953 0 9.4746 3.6035 3.7969 3.6035 3.7969 9.0352 0 5.4316-3.832 9-3.8145 3.5508-9.6328 3.5508-5.5547 0-9.2637-3.5508-3.6914-3.5684-3.6914-8.9297 0-5.502 3.7266-9.1055t9.4219-3.6035zm0.14063 3.3398q-4.2188 0-6.9434 2.6367-2.707 2.6367-2.707 6.7324 0 3.9727 2.7246 6.6094t6.8203 2.6367q4.1133 0 6.8555-2.6895 2.7598-2.6895 2.7598-6.6973 0-3.9023-2.7598-6.5566-2.7422-2.6719-6.75-2.6719zm45.784-2.9883h3.2695v24.557h-3.5332v-19.107l-7.5586 9.4922h-0.65039l-7.6289-9.4922v19.107h-3.5156v-24.557h3.3047l8.1738 10.09zm17.361 0h13.922v3.1289h-10.406v7.4883h10.055v3.1465h-10.055v7.6289h10.74v3.1289h-14.256z" aria-label="TV HOME"/></svg>