<?xml version="1.0" encoding="UTF-8"?>
<svg width="106" height="53" version="1.1" viewBox="0 0 106 53" xmlns="http://www.w3.org/2000/svg"><title>Spotlight/Specials Icons</title><g stroke-miterlimit=".8" stroke-width="0"><circle cx="19" cy="13" r="13" fill="#cbcbff" style="paint-order:markers fill stroke"/><circle cx="7.5" cy="13" r="7.5" fill="#6565ff" style="paint-order:markers fill stroke"/><path d="m10.686 11.212q-0.024-0.468-0.144-0.912t-0.468-0.864q-0.336-0.42-1.02-0.696-0.672-0.276-1.728-0.276-0.756 0-1.332 0.216-0.564 0.216-0.924 0.6-0.36 0.372-0.54 0.852-0.168 0.48-0.168 0.996 0 0.528 0.192 0.9t0.48 0.6 0.576 0.348q0.3 0.108 0.588 0.18l1.764 0.408q0.564 0.132 0.9 0.264 0.348 0.12 0.552 0.288t0.288 0.396q0.096 0.228 0.096 0.576 0 0.432-0.228 0.732-0.216 0.288-0.564 0.444-0.336 0.156-0.72 0.216-0.372 0.06-0.744 0.06-0.444 0-0.864-0.096-0.408-0.108-0.756-0.336-0.348-0.24-0.552-0.636t-0.204-0.948h-1.092q0 0.684 0.18 1.212 0.18 0.516 0.696 0.972 0.192 0.168 0.384 0.3 0.204 0.132 0.492 0.252 0.3 0.12 0.732 0.192 0.432 0.084 0.996 0.084 0.612 0 1.188-0.132 0.588-0.132 1.08-0.42 0.504-0.3 0.804-0.816t0.3-1.236q0-0.972-0.528-1.524-0.528-0.564-1.428-0.78l-2.46-0.564q-0.456-0.108-0.744-0.348-0.276-0.252-0.276-0.744 0-0.468 0.192-0.768t0.492-0.456q0.3-0.168 0.624-0.228t0.66-0.06q0.384 0 0.744 0.096 0.372 0.084 0.672 0.288 0.312 0.204 0.504 0.552 0.192 0.336 0.216 0.816z" fill="#fefeff" style="paint-order:markers fill stroke" aria-label="S"/><path d="m18.261 9.412h2.561q0.858 0 1.352 0.364t0.494 1.196q0 0.897-0.494 1.287t-1.404 0.39h-2.509zm0 4.316h2.938q0.728 0 1.261-0.234 0.533-0.247 0.858-0.637 0.338-0.403 0.494-0.884 0.156-0.494 0.156-1.014 0-1.157-0.754-1.885-0.741-0.741-2.015-0.741h-4.199v9.334h1.261zm18.279-0.728q0 0.819-0.221 1.521-0.221 0.689-0.65 1.209-0.416 0.507-1.027 0.793-0.598 0.273-1.352 0.273t-1.365-0.273q-0.598-0.286-1.027-0.793-0.416-0.507-0.637-1.209t-0.221-1.521q0-0.832 0.221-1.521t0.637-1.196q0.429-0.52 1.027-0.793 0.611-0.286 1.365-0.286t1.352 0.286q0.611 0.273 1.027 0.78 0.429 0.507 0.65 1.209 0.221 0.689 0.221 1.521zm1.3 0q0-0.819-0.234-1.664-0.234-0.858-0.767-1.599t-1.43-1.196q-0.884-0.455-2.119-0.455t-2.132 0.455q-0.884 0.455-1.417 1.196-0.52 0.741-0.767 1.599-0.234 0.845-0.234 1.664t0.234 1.677q0.234 0.845 0.767 1.586t1.417 1.196q0.897 0.455 2.132 0.455t2.119-0.455q0.897-0.455 1.43-1.196t0.767-1.586q0.234-0.858 0.234-1.677zm3.849-3.549h3.159v8.216h1.261v-8.216h3.159v-1.118h-7.579zm13.69-1.118h-1.261v9.334h5.993v-1.118h-4.732zm11.103 0h-1.261v9.334h1.261zm9.907 5.421h2.912q0 0.819-0.234 1.43-0.221 0.598-0.793 1.053-0.455 0.364-0.949 0.481-0.481 0.117-0.962 0.117-0.884 0-1.508-0.312-0.611-0.325-0.962-0.871-0.338-0.546-0.494-1.222-0.143-0.676-0.143-1.443 0-0.897 0.234-1.599 0.234-0.715 0.65-1.196 0.429-0.494 0.975-0.741 0.559-0.247 1.196-0.247 0.429 0 0.845 0.091 0.429 0.078 0.819 0.299 0.39 0.208 0.689 0.598t0.442 0.975h1.222q-0.091-0.754-0.468-1.339t-0.936-0.975-1.222-0.572q-0.663-0.195-1.326-0.195-1.092 0-1.937 0.416t-1.391 1.118q-0.546 0.702-0.819 1.56t-0.273 1.742q0 0.507 0.039 0.949 0.039 0.429 0.169 0.936 0.143 0.507 0.442 1.04 0.312 0.533 0.819 1.014 0.468 0.455 1.131 0.754t1.729 0.299q0.949 0 1.768-0.39 0.832-0.403 1.313-1.066l0.299 1.209h0.819v-4.992h-4.095zm15.874-1.56h-4.875v-3.861h-1.261v9.334h1.261v-4.355h4.875v4.355h1.261v-9.334h-1.261zm6.111-2.743h3.159v8.216h1.261v-8.216h3.159v-1.118h-7.579z" fill="#6565ff" style="paint-order:markers fill stroke" aria-label="POTLIGHT"/><path d="m9.9565 26.813 24.592 3.2687c2.141 0.28456 5.1177 2.7105 4.6542 5.8641l-1.6949 11.536c-0.39295 2.6764-2.5941 3.8844-4.9928 3.9898l-17.518 0.77098c-3.608 0.15866-5.9814-2.4167-6.5906-5.0952l-3.5323-15.529c-0.35497-1.5598 0.10273-2.9314 0.87386-3.6868 0.9915-0.97116 2.5044-1.3453 4.21-1.1188z" fill="none" stroke="#fc9" stroke-width="1.5" style="paint-order:markers fill stroke"/><circle cx="7.5" cy="41.5" r="7.5" fill="#f63" style="paint-order:markers fill stroke"/><path d="m10.952 39.563q-0.026-0.507-0.156-0.988t-0.507-0.936q-0.364-0.455-1.105-0.754-0.728-0.299-1.872-0.299-0.819 0-1.443 0.234-0.611 0.234-1.001 0.65-0.39 0.403-0.585 0.923-0.182 0.52-0.182 1.079 0 0.572 0.208 0.975t0.52 0.65 0.624 0.377q0.325 0.117 0.637 0.195l1.911 0.442q0.611 0.143 0.975 0.286 0.377 0.13 0.598 0.312t0.312 0.429q0.104 0.247 0.104 0.624 0 0.468-0.247 0.793-0.234 0.312-0.611 0.481-0.364 0.169-0.78 0.234-0.403 0.065-0.806 0.065-0.481 0-0.936-0.104-0.442-0.117-0.819-0.364-0.377-0.26-0.598-0.689t-0.221-1.027h-1.183q0 0.741 0.195 1.313 0.195 0.559 0.754 1.053 0.208 0.182 0.416 0.325 0.221 0.143 0.533 0.273 0.325 0.13 0.793 0.208 0.468 0.091 1.079 0.091 0.663 0 1.287-0.143 0.637-0.143 1.17-0.455 0.546-0.325 0.871-0.884t0.325-1.339q0-1.053-0.572-1.651-0.572-0.611-1.547-0.845l-2.665-0.611q-0.494-0.117-0.806-0.377-0.299-0.273-0.299-0.806 0-0.507 0.208-0.832t0.533-0.494q0.325-0.182 0.676-0.247t0.715-0.065q0.416 0 0.806 0.104 0.403 0.091 0.728 0.312 0.338 0.221 0.546 0.598 0.208 0.364 0.234 0.884z" fill="#fffaf8" stroke-linecap="square" style="paint-order:markers fill stroke" aria-label="S"/><path d="m18.261 37.912h2.561q0.858 0 1.352 0.364t0.494 1.196q0 0.897-0.494 1.287t-1.404 0.39h-2.509zm0 4.316h2.938q0.728 0 1.261-0.234 0.533-0.247 0.858-0.637 0.338-0.403 0.494-0.884 0.156-0.494 0.156-1.014 0-1.157-0.754-1.885-0.741-0.741-2.015-0.741h-4.199v9.334h1.261zm17.98 2.821h-5.629v-3.12h5.109v-1.118h-5.109v-2.86h5.538v-1.118h-6.799v9.334h6.89zm13.105-5.408q-0.065-0.598-0.351-1.144-0.273-0.559-0.754-0.988t-1.17-0.676-1.56-0.247q-1.001 0-1.82 0.351-0.806 0.351-1.378 1.001-0.559 0.637-0.858 1.534t-0.299 1.976q0 1.3 0.338 2.262 0.351 0.949 0.936 1.547 0.598 0.585 1.339 0.871 0.754 0.286 1.586 0.286 0.442 0 0.988-0.104 0.559-0.104 1.209-0.455 0.65-0.364 1.17-1.131 0.533-0.767 0.715-1.989h-1.222q-0.143 0.767-0.455 1.287-0.312 0.507-0.702 0.793-0.377 0.273-0.767 0.377-0.377 0.104-0.741 0.104-0.845 0-1.443-0.286-0.598-0.299-0.962-0.819t-0.533-1.222q-0.156-0.702-0.156-1.56 0-1.768 0.858-2.73 0.871-0.975 2.197-0.975 0.39 0 0.78 0.078t0.754 0.299q0.377 0.208 0.663 0.598 0.286 0.377 0.416 0.962zm6.748-2.808h-1.261v9.334h1.261zm11.051 6.617 0.923 2.717h1.378l-3.38-9.334h-1.43l-3.51 9.334h1.3l0.975-2.717zm-3.354-1.118 1.495-4.108h0.026l1.378 4.108zm11.753-5.499h-1.261v9.334h5.993v-1.118h-4.732zm16.459 2.73q-0.026-0.507-0.156-0.988t-0.507-0.936q-0.364-0.455-1.105-0.754-0.728-0.299-1.872-0.299-0.819 0-1.443 0.234-0.611 0.234-1.001 0.65-0.39 0.403-0.585 0.923-0.182 0.52-0.182 1.079 0 0.572 0.208 0.975t0.52 0.65 0.624 0.377q0.325 0.117 0.637 0.195l1.911 0.442q0.611 0.143 0.975 0.286 0.377 0.13 0.598 0.312t0.312 0.429q0.104 0.247 0.104 0.624 0 0.468-0.247 0.793-0.234 0.312-0.611 0.481-0.364 0.169-0.78 0.234-0.403 0.065-0.806 0.065-0.481 0-0.936-0.104-0.442-0.117-0.819-0.364-0.377-0.26-0.598-0.689t-0.221-1.027h-1.183q0 0.741 0.195 1.313 0.195 0.559 0.754 1.053 0.208 0.182 0.416 0.325 0.221 0.143 0.533 0.273 0.325 0.13 0.793 0.208 0.468 0.091 1.079 0.091 0.663 0 1.287-0.143 0.637-0.143 1.17-0.455 0.546-0.325 0.871-0.884t0.325-1.339q0-1.053-0.572-1.651-0.572-0.611-1.547-0.845l-2.665-0.611q-0.494-0.117-0.806-0.377-0.299-0.273-0.299-0.806 0-0.507 0.208-0.832t0.533-0.494q0.325-0.182 0.676-0.247t0.715-0.065q0.416 0 0.806 0.104 0.403 0.091 0.728 0.312 0.338 0.221 0.546 0.598 0.208 0.364 0.234 0.884z" fill="#f63" stroke-linecap="square" style="paint-order:markers fill stroke" aria-label="PECIALS"/></g></svg>
