<?xml version="1.0" encoding="UTF-8"?>
<svg width="14" height="14" version="1.1" viewBox="0 0 14 14" xmlns="http://www.w3.org/2000/svg"><ellipse cx="7" cy="7" rx="6.5" ry="6.5" fill="none" stroke="#000" stroke-miterlimit=".8"/><path d="m5.7793 6.4541c0.49219-0.58984 1.084-0.88477 1.7754-0.88477 0.8125 0 1.4414 0.28906 1.8867 0.86719 0.44531 0.57422 0.66797 1.3516 0.66797 2.332 0 1.0195-0.25 1.8262-0.75 2.4199-0.49609 0.58984-1.123 0.88477-1.8809 0.88477-0.67188 0-1.2383-0.20898-1.6992-0.62695v0.48047h-1.1074v-8.4266l-0.78125-3e-7v-1l0.78125 2e-7v-0.57336h1.1074v0.57304l2.1113 3.203e-4v1l-2.1113-4.271e-4zm0 3.9961c0.47266 0.50391 1.0156 0.75586 1.6289 0.75586 0.47656 0 0.85547-0.20312 1.1367-0.60938 0.28125-0.41016 0.42188-1.0195 0.42188-1.8281 0-0.76562-0.13281-1.3457-0.39844-1.7402-0.26562-0.39844-0.63672-0.59766-1.1133-0.59766-0.61328 0-1.1719 0.35547-1.6758 1.0664zm-1.1074-5.4499-0.78125-3e-7v-1l0.78125 2e-7 1.1074-3.205e-4 2.1113 3.203e-4v1l-2.1113-4.27e-4z" aria-label="b"/></svg>
