<?xml version="1.0" encoding="UTF-8"?>
<svg width="230" height="46" version="1.1" viewBox="0 0 230 46" xmlns="http://www.w3.org/2000/svg"><defs><filter id="a" x="-.04187" y="-.074419" width="1.0837" height="1.1488" color-interpolation-filters="sRGB"><feGaussianBlur in="SourceGraphic" result="blur" stdDeviation="4"/><feDiffuseLighting lighting-color="#ffffff" result="diffuse" surfaceScale="10"><feDistantLight azimuth="45" elevation="165"/></feDiffuseLighting><feComposite in="diffuse" in2="diffuse" k1="1" operator="arithmetic" result="composite1"/><feComposite in="composite1" in2="SourceGraphic" k1="1" k3="1" operator="arithmetic" result="composite2"/></filter></defs><rect width="230" height="46" fill="#09f"/><path transform="matrix(.20578 0 0 .20229 98.05 9.8018)" d="m-89.411-85.4c22.998 0 36.511 18 76.011 18s53-18 76-18 44 21.002 44 50c0 52.002-71.971 78.909-120 79-48.029 0.09138-121-27.003-121-79 0-29 21.991-50 44.989-50z" fill="#e31f13" filter="url(#a)"/><path d="m73.069 0v0.21295c0 0.20229 0.20578 0.20229 0.20578 0.20229h0.93164v0.40617l-0.93164-0.001592s-0.20578 0-0.20578 0.20229v0.60688c0 0.20229 0.20578 0.20229 0.20578 0.20229h0.93164v4.4683c0 2.1993 1.8816 4.0491 4.1188 4.0491s4.1192-1.8497 4.1192-4.0491c0-2.1993-1.882-4.0491-4.1192-4.0491-0.87416 0-1.7332 0.27688-2.4296 0.78666v-1.2078l1.9063 0.00201s0.20578-8e-7 0.20578-0.20229v-0.60689c0-0.20229-0.20578-0.20229-0.20578-0.20229h-1.9063v-0.4066l1.9063 0.002005s0.20578-6.2e-7 0.20578-0.20229v-0.21299zm31.698 2.1047c-2.2372 0-4.1192 1.8497-4.1192 4.0491v3.8017h1.6892v-3.8017c0-1.34 1.0669-2.3884 2.43-2.3884 1.3483 0 2.4445 1.063 2.4445 2.3884v3.8017h1.6744v-3.8017c0-2.1993-1.8816-4.0491-4.1188-4.0491zm-17.628 0.14579c-2.2373 0-4.1188 1.8497-4.1188 4.0491 0 2.1993 1.8816 4.0491 4.1188 4.0491 1.1408 0 2.2227-0.46608 3.0079-1.2817l-1.0816-1.2817c-0.47412 0.56804-1.2004 0.90322-1.9264 0.90322-1.0371 0-1.9409-0.62652-2.2817-1.5587h6.2675c0.13335-0.3787 0.13344-0.65534 0.13344-0.83012 0-2.1993-1.882-4.0491-4.1192-4.0491zm8.814 0c-2.2373 0-4.1188 1.8497-4.1188 4.0491 0 2.1993 1.8816 4.0491 4.1188 4.0491 1.1409 0 2.2227-0.46608 3.0079-1.2817l-1.0816-1.2817c-0.47412 0.56804-1.2004 0.90322-1.9264 0.90322-1.0371 0-1.9409-0.62652-2.2817-1.5587h6.2675c0.13334-0.3787 0.13344-0.65534 0.13344-0.83012 0-2.1993-1.882-4.0491-4.1193-4.0491zm13.509 0.058082v1.646h4.1486l-4.1486 4.6899v1.311h6.712v-1.6606h-4.1486l4.1486-4.6899v-1.2963zm-31.137 1.6022c1.3483 0 2.4449 1.0634 2.4449 2.3888s-1.0966 2.3888-2.4449 2.3888c-1.3631 0-2.4296-1.0488-2.4296-2.3888s1.0665-2.3888 2.4296-2.3888zm8.814 0c1.0371 0 1.9413 0.62653 2.2672 1.5587h-4.5489c0.35559-0.93217 1.2594-1.5587 2.2817-1.5587zm8.814 0c1.0371 0 1.9413 0.62653 2.2672 1.5587h-4.5489c0.35559-0.93217 1.2594-1.5587 2.2817-1.5587z" fill="#f0f0f0"/><path transform="matrix(.29739 0 0 .29235 52.808 27.778)" d="m-89.411-85.4c22.998 0 36.511 18 76.011 18s53-18 76-18 44 21.002 44 50c0 52.002-71.971 78.909-120 79-48.029 0.09138-121-27.003-121-79 0-29 21.991-50 44.989-50z" fill="#e31f13" filter="url(#a)"/><path d="m18.348 11.581v1.1717l-1.3464-0.0023s-0.29739 1e-6 -0.29739 0.29236v0.87706c0 0.29235 0.29739 0.29235 0.29739 0.29235h1.3464v0.58699l-1.3464-0.0023s-0.29739 0-0.29739 0.29235v0.87706c0 0.29235 0.29739 0.29235 0.29739 0.29235h1.3464v6.4575c0 3.1785 2.7193 5.8517 5.9525 5.8517s5.9531-2.6732 5.9531-5.8517-2.7198-5.8517-5.9531-5.8517c-1.2633 0-2.5048 0.40014-3.5112 1.1369v-1.7455l2.755 0.0029s0.29739-1e-6 0.29739-0.29235v-0.87706c0-0.29235-0.29739-0.29235-0.29739-0.29235h-2.755v-0.58761l2.755 0.0029s0.29739-1e-6 0.29739-0.29235v-0.87706c0-0.29235-0.29739-0.29236-0.29739-0.29236h-2.755v-1.1694zm44.167 5.0728c-3.2333 0-5.9531 2.6732-5.9531 5.8517v5.4942h2.4413v-5.4942c0-1.9366 1.5419-3.4517 3.5118-3.4517 1.9485 0 3.5327 1.5362 3.5327 3.4517v5.4942h2.4198v-5.4942c0-3.1785-2.7193-5.8517-5.9525-5.8517zm-25.476 0.2107c-3.2333 0-5.9525 2.6732-5.9525 5.8517s2.7193 5.8517 5.9525 5.8517c1.6487 0 3.2122-0.67357 4.347-1.8523l-1.5631-1.8523c-0.68519 0.82093-1.7348 1.3053-2.784 1.3053-1.4989 0-2.805-0.90545-3.2975-2.2526h9.0577c0.19271-0.54729 0.19284-0.94709 0.19284-1.1997 0-3.1785-2.7198-5.8517-5.9531-5.8517zm12.738 0c-3.2333 0-5.9525 2.6732-5.9525 5.8517s2.7193 5.8517 5.9525 5.8517c1.6487 0 3.2122-0.67357 4.347-1.8523l-1.5631-1.8523c-0.68519 0.82093-1.7348 1.3053-2.784 1.3053-1.4989 0-2.805-0.90545-3.2975-2.2526h9.0577c0.19271-0.54729 0.19284-0.94709 0.19284-1.1997 0-3.1785-2.7198-5.8517-5.9531-5.8517zm19.523 0.08394v2.3788h5.9955l-5.9955 6.7778v1.8946h9.7001v-2.3999h-5.9955l5.9955-6.7778v-1.8735zm-44.999 2.3154c1.9485 0 3.5333 1.5368 3.5333 3.4523s-1.5848 3.4523-3.5333 3.4523c-1.9699 0-3.5112-1.5157-3.5112-3.4523s1.5413-3.4523 3.5112-3.4523zm12.738 0c1.4989 0 2.8055 0.90545 3.2766 2.2526h-6.574c0.51389-1.3472 1.82-2.2526 3.2975-2.2526zm12.738 0c1.4989 0 2.8055 0.90545 3.2766 2.2526h-6.574c0.5139-1.3472 1.82-2.2526 3.2975-2.2526z" fill="#f0f0f0"/><path transform="matrix(.10881 0 0 .10697 135.6 13.322)" d="m-89.411-85.4c22.998 0 36.511 18 76.011 18 150.74-69.03 171.12 101.55 0 111-48.029 0.09138-121-27.003-121-79 0-29 21.991-50 44.989-50z" fill="#e31f13" filter="url(#a)"/><path d="m122.99 7.3954v0.42871l-0.49263-8.442e-4s-0.10881 0-0.10881 0.10696v0.32091c0 0.10696 0.10881 0.10696 0.10881 0.10696h0.49263v0.21478l-0.49263-8.443e-4s-0.10881 0-0.10881 0.10696v0.32091c0 0.10696 0.10881 0.10696 0.10881 0.10696h0.49263v2.3627c0 1.163 0.99496 2.1411 2.178 2.1411 1.183 0 2.1782-0.97809 2.1782-2.1411 0-1.163-0.99516-2.1411-2.1782-2.1411-0.46223 0-0.91649 0.14641-1.2847 0.41597v-0.63867l1.008 0.00109s0.10881 0 0.10881-0.10696v-0.32091c0-0.10696-0.10881-0.10696-0.10881-0.10696h-1.008v-0.21502l1.008 0.00109s0.10881 0 0.10881-0.10696v-0.32091c0-0.10696-0.10881-0.10696-0.10881-0.10696h-1.008v-0.42788zm6.8387 1.9332c-1.183 0-2.178 0.97809-2.178 2.1411 0 1.163 0.99495 2.1411 2.178 2.1411 0.60326 0 1.1753-0.24645 1.5905-0.67775l-0.5719-0.67775c-0.2507 0.30037-0.63474 0.4776-1.0186 0.4776-0.54842 0-1.0263-0.3313-1.2065-0.82421h3.3141c0.0705-0.20025 0.0705-0.34653 0.0705-0.43895 0-1.163-0.99517-2.1411-2.1782-2.1411zm-4.6607 0.8779c0.71294 0 1.2928 0.5623 1.2928 1.2632 0 0.70086-0.57985 1.2632-1.2928 1.2632-0.72078 0-1.2847-0.5546-1.2847-1.2632 0-0.70857 0.56394-1.2632 1.2847-1.2632zm4.6607 0c0.54841 0 1.0265 0.33129 1.1989 0.82421h-2.4054c0.18809-0.49292 0.66594-0.82421 1.2065-0.82421z" fill="#f0f0f0"/><path transform="matrix(.18045 0 0 .17739 156.48 17.852)" d="m-89.411-85.4c22.998 0 36.511 18 76.011 18s53-18 76-18 44 21.002 44 50c0 52.002-71.971 78.909-120 79-48.029 0.09138-121-27.003-121-79 0-29 21.991-50 44.989-50z" fill="#e31f13" filter="url(#a)"/><path d="m135.58 8.0247v0.71095l-0.81695-0.0014s-0.18045 1e-6 -0.18045 0.17739v0.53218c0 0.17739 0.18045 0.17739 0.18045 0.17739h0.81695v0.35617l-0.81695-0.0014s-0.18045 0-0.18045 0.17739v0.53218c0 0.17739 0.18045 0.17739 0.18045 0.17739h0.81695v3.9182c0 1.9286 1.65 3.5506 3.6118 3.5506s3.6122-1.622 3.6122-3.5506-1.6503-3.5506-3.6122-3.5506c-0.76655 0-1.5199 0.24279-2.1305 0.68982v-1.0591l1.6716 0.0018s0.18045 0 0.18045-0.17739v-0.53218c0-0.17739-0.18045-0.17739-0.18045-0.17739h-1.6716v-0.35658l1.6716 0.0018s0.18045 0 0.18045-0.17739v-0.53218c0-0.17739-0.18045-0.17739-0.18045-0.17739h-1.6716v-0.70957zm26.799 3.078c-1.9618 0-3.6122 1.622-3.6122 3.5506v3.3337h1.4813v-3.3337c0-1.175 0.93555-2.0944 2.1308-2.0944 1.1823 0 2.1435 0.93213 2.1435 2.0944v3.3337h1.4683v-3.3337c0-1.9286-1.65-3.5506-3.6118-3.5506zm-15.458 0.12785c-1.9618 0-3.6118 1.622-3.6118 3.5506s1.65 3.5506 3.6118 3.5506c1.0004 0 1.9491-0.4087 2.6377-1.1239l-0.94842-1.1239c-0.41576 0.49812-1.0526 0.79203-1.6892 0.79203-0.90947 0-1.702-0.5494-2.0008-1.3668h5.496c0.11693-0.33208 0.11701-0.57466 0.11701-0.72793 0-1.9286-1.6503-3.5506-3.6122-3.5506zm7.729 0c-1.9618 0-3.6118 1.622-3.6118 3.5506s1.65 3.5506 3.6118 3.5506c1.0004 0 1.9491-0.4087 2.6377-1.1239l-0.94841-1.1239c-0.41576 0.49812-1.0526 0.79203-1.6892 0.79203-0.90946 0-1.702-0.5494-2.0008-1.3668h5.496c0.11693-0.33208 0.11701-0.57466 0.11701-0.72793 0-1.9286-1.6503-3.5506-3.6122-3.5506zm11.846 0.05093v1.4434h3.6379l-3.6379 4.1126v1.1496h5.8858v-1.4562h-3.6379l3.6379-4.1126v-1.1368zm-27.304 1.4049c1.1823 0 2.1439 0.93248 2.1439 2.0947s-0.9616 2.0947-2.1439 2.0947c-1.1953 0-2.1305-0.91971-2.1305-2.0947 0-1.175 0.9352-2.0947 2.1305-2.0947zm7.729 0c0.90945 0 1.7023 0.5494 1.9881 1.3668h-3.9889c0.31182-0.81742 1.1043-1.3668 2.0008-1.3668zm7.729 0c0.90947 0 1.7023 0.5494 1.9881 1.3668h-3.9889c0.31182-0.81742 1.1043-1.3668 2.0008-1.3668z" fill="#f0f0f0"/><path transform="matrix(.07712 0 0 .07712 4.556 32.831)" d="m4.589 14.6c22.998 0 36.511 18 76.011 18s53-18 76-18 44 21.002 44 50c0 52.002-71.971 78.909-120 79-48.029 0.0914-121-27.003-121-79 0-29 21.991-50 44.989-50z" fill="#e31f13" filter="url(#a)"/><path d="m2.8692 39.208s0.70516 1.5436 1.5436 1.5436 1.5437-0.70516 1.5437-1.5436zm11.453-1.5994c-0.83844 0-1.5437 0.70515-1.5437 1.5436v1.4493h0.63307v-1.4493c0-0.51084 0.39983-0.91052 0.91068-0.91052 0.50529 0 0.9161 0.40524 0.9161 0.91052v1.4493h0.6275v-1.4493c0-0.83845-0.70516-1.5436-1.5436-1.5436zm-6.6065 0.05558c-0.83844 0-1.5436 0.70516-1.5436 1.5436s0.70515 1.5436 1.5436 1.5436c0.42755 0 0.83298-0.17768 1.1273-0.48862l-0.40533-0.48863c-0.17768 0.21655-0.44987 0.34433-0.72194 0.34433-0.38868 0-0.72738-0.23884-0.85509-0.59421h2.3488c0.04997-0.14436 0.05001-0.24983 0.05001-0.31646 0-0.83844-0.70531-1.5436-1.5438-1.5436zm3.3032 0c-0.83844 0-1.5436 0.70516-1.5436 1.5436s0.70515 1.5436 1.5436 1.5436c0.42755 0 0.83298-0.17768 1.1273-0.48862l-0.40533-0.48863c-0.17768 0.21655-0.44986 0.34433-0.72194 0.34433-0.38868 0-0.72738-0.23884-0.8551-0.59421h2.3488c0.04997-0.14436 0.05001-0.24983 0.05001-0.31646 0-0.83844-0.70531-1.5436-1.5438-1.5436zm5.0628 0.02212v0.6275h1.5547l-1.5547 1.7879v0.49977h2.5154v-0.63308h-1.5547l1.5547-1.7879v-0.4942zm-8.366 0.61078c0.38868 0 0.72751 0.23885 0.84967 0.59421h-1.7048c0.13326-0.35536 0.47196-0.59421 0.85509-0.59421zm3.3032 0c0.38868 0 0.72752 0.23885 0.84967 0.59421h-1.7048c0.13326-0.35536 0.47197-0.59421 0.8551-0.59421z" fill="#f0f0f0"/><path transform="matrix(.17643 0 0 .17643 -18.101 29.717)" d="m43.6-26.4c39.5 0 53-18 76-18s44 21.002 44 50c0 52.002-71.971 78.909-120 79-157.16-49.557-133.79-117.07 0-111z" fill="#e31f13" filter="url(#a)"/><path d="m-2.2857 30.238v1.4483c1.156 0 2.0958 0.92708 2.0958 2.0831v3.3157h1.4356v-3.3157c0-1.9182-1.6132-3.5314-3.5314-3.5314zm4.0252 0.17781v1.4356h3.5569l-3.5569 4.0903v1.1434h5.7547v-1.4483h-3.5569l3.5569-4.0903v-1.1306z" fill="#f0f0f0"/><path transform="matrix(.071545 0 0 .070333 111.5 28.682)" d="m-89.411-85.4c22.998 0 36.511 18 76.011 18s53-18 76-18 44 21.002 44 50c0 52.002-71.971 78.909-120 79-48.029 0.09138-121-27.003-121-79 0-29 21.991-50 44.989-50z" fill="#e31f13" filter="url(#a)"/><path d="m103.21 24.785v0.28188l-0.32391-5.55e-4s-0.0715 1e-6 -0.0715 0.07033v0.211c0 0.07033 0.0715 0.07033 0.0715 0.07033h0.32391v0.14122l-0.32391-5.55e-4s-0.0715 0-0.0715 0.07034v0.211c0 0.07033 0.0715 0.07033 0.0715 0.07033h0.32391v1.5535c0 0.76466 0.65418 1.4078 1.432 1.4078s1.4322-0.6431 1.4322-1.4078c0-0.76466-0.65432-1.4078-1.4322-1.4078-0.30393 0-0.6026 0.09626-0.84471 0.2735v-0.41993l0.66277 7.14e-4s0.0715 0 0.0715-0.07034v-0.21099c0-0.07034-0.0715-0.07034-0.0715-0.07034h-0.66277v-0.14138l0.66277 7.14e-4s0.0715 0 0.0715-0.07034v-0.211c0-0.07033-0.0715-0.07033-0.0715-0.07033h-0.66277v-0.28133zm10.625 1.2204c-0.77785 0-1.4322 0.6431-1.4322 1.4078v1.3218h0.5873v-1.3218c0-0.46588 0.37093-0.8304 0.84486-0.8304 0.46875 0 0.84986 0.36958 0.84986 0.8304v1.3218h0.58215v-1.3218c0-0.76466-0.65418-1.4078-1.432-1.4078zm-6.129 0.05069c-0.77783 0-1.432 0.6431-1.432 1.4078 0 0.76466 0.65418 1.4078 1.432 1.4078 0.39665 0 0.77278-0.16204 1.0458-0.44563l-0.37604-0.44562c-0.16484 0.1975-0.41733 0.31403-0.66975 0.31403-0.36059 0-0.6748-0.21783-0.79328-0.54192h2.179c0.0463-0.13166 0.0464-0.22784 0.0464-0.28861 0-0.76466-0.65432-1.4078-1.4322-1.4078zm3.0644 0c-0.77785 0-1.432 0.6431-1.432 1.4078 0 0.76466 0.65418 1.4078 1.432 1.4078 0.39664 0 0.77276-0.16204 1.0458-0.44563l-0.37602-0.44562c-0.16484 0.1975-0.41734 0.31403-0.66975 0.31403-0.3606 0-0.67481-0.21783-0.79329-0.54192h2.1791c0.0463-0.13166 0.0464-0.22784 0.0464-0.28861 0-0.76466-0.65433-1.4078-1.4322-1.4078zm4.6968 0.02019v0.57228h1.4424l-1.4424 1.6306v0.45579h2.3336v-0.57736h-1.4424l1.4424-1.6306v-0.45071zm-10.826 0.55703c0.46876 0 0.85001 0.36971 0.85001 0.83053s-0.38125 0.83053-0.85001 0.83053c-0.47393 0-0.84471-0.36465-0.84471-0.83053s0.37078-0.83053 0.84471-0.83053zm3.0644 0c0.36059 0 0.67493 0.21783 0.78826 0.54192h-1.5815c0.12363-0.32409 0.43785-0.54192 0.79328-0.54192zm3.0644 0c0.36058 0 0.67492 0.21783 0.78825 0.54192h-1.5815c0.12363-0.32409 0.43785-0.54192 0.79329-0.54192z" fill="#f0f0f0"/><path transform="matrix(.098847 0 0 .097173 197.88 23.081)" d="m-89.411-85.4c22.998 0 36.511 18 76.011 18s53-18 76-18 44 21.002 44 50c0 52.002-71.971 78.909-120 79-48.029 0.09138-121-27.003-121-79 0-29 21.991-50 44.989-50z" fill="#e31f13" filter="url(#a)"/><path d="m186.43 17.698v0.38945l-0.44752-7.66e-4s-0.0988 1e-6 -0.0988 0.09717v0.29152c0 0.09717 0.0988 0.09717 0.0988 0.09717h0.44752v0.1951l-0.44752-7.67e-4s-0.0988 0-0.0988 0.09717v0.29152c0 0.09717 0.0988 0.09717 0.0988 0.09717h0.44752v2.1463c0 1.0565 0.90382 1.945 1.9785 1.945 1.0747 0 1.9787-0.88851 1.9787-1.945 0-1.0565-0.90402-1.945-1.9787-1.945-0.4199 0-0.83256 0.133-1.167 0.37787v-0.58018l0.91568 1e-3s0.0988 0 0.0988-0.09717v-0.29152c0-0.09717-0.0988-0.09717-0.0988-0.09717h-0.91568v-0.19533l0.91568 1e-3s0.0988 0 0.0988-0.09717v-0.29152c0-0.09717-0.0988-0.09717-0.0988-0.09717h-0.91568v-0.38869zm14.68 1.6861c-1.0747 0-1.9787 0.88851-1.9787 1.945v1.8262h0.81143v-1.8262c0-0.64367 0.51248-1.1473 1.1672-1.1473 0.64765 0 1.1742 0.51061 1.1742 1.1473v1.8262h0.80428v-1.8262c0-1.0565-0.90382-1.945-1.9785-1.945zm-8.4678 0.07003c-1.0747 0-1.9785 0.88851-1.9785 1.945 0 1.0565 0.90382 1.945 1.9785 1.945 0.54801 0 1.0677-0.22388 1.4449-0.61568l-0.51952-0.61568c-0.22775 0.27286-0.57661 0.43386-0.92534 0.43386-0.4982 0-0.93232-0.30095-1.096-0.74872h3.0106c0.0641-0.18191 0.0641-0.31479 0.0641-0.39875 0-1.0565-0.90402-1.945-1.9787-1.945zm4.2338 0c-1.0747 0-1.9785 0.88851-1.9785 1.945 0 1.0565 0.90382 1.945 1.9785 1.945 0.54801 0 1.0677-0.22388 1.4449-0.61568l-0.51953-0.61568c-0.22775 0.27286-0.57661 0.43386-0.92534 0.43386-0.4982 0-0.93231-0.30095-1.096-0.74872h3.0106c0.0641-0.18191 0.0641-0.31479 0.0641-0.39875 0-1.0565-0.90401-1.945-1.9787-1.945zm6.4892 0.0279v0.79067h1.9928l-1.9928 2.2528v0.62972h3.2241v-0.79769h-1.9928l1.9928-2.2528v-0.6227zm-14.957 0.7696c0.64765 0 1.1744 0.5108 1.1744 1.1475s-0.52674 1.1475-1.1744 1.1475c-0.65476 0-1.167-0.5038-1.167-1.1475 0-0.64367 0.51228-1.1475 1.167-1.1475zm4.2338 0c0.49818 0 0.93248 0.30095 1.089 0.74872h-2.1851c0.17081-0.44777 0.60493-0.74872 1.096-0.74872zm4.2338 0c0.49819 0 0.93249 0.30095 1.089 0.74872h-2.1851c0.17081-0.44777 0.60494-0.74872 1.096-0.74872z" fill="#f0f0f0"/><path transform="matrix(.05556 0 0 .054619 218.25 12.589)" d="m-89.411-85.4c22.998 0 36.511 18 76.011 18s53-18 76-18 44 21.002 44 50c0 52.002-71.971 78.909-120 79-48.029 0.09138-121-27.003-121-79 0-29 21.991-50 44.989-50z" fill="#e31f13" filter="url(#a)"/><path d="m211.81 9.5629v0.2189l-0.25152-4.301e-4s-0.0555 0-0.0555 0.054626v0.16386c0 0.05463 0.0555 0.05463 0.0555 0.05463h0.25152v0.10966l-0.25152-4.32e-4s-0.0555 0-0.0555 0.05462v0.16386c0 0.05463 0.0555 0.05463 0.0555 0.05463h0.25152v1.2064c0 0.59382 0.50804 1.0932 1.1121 1.0932 0.60407 0 1.1122-0.49942 1.1122-1.0932 0-0.59382-0.50812-1.0932-1.1122-1.0932-0.23602 0-0.46795 0.07476-0.65599 0.21239v-0.3261l0.5147 5.53e-4s0.0555 0 0.0555-0.05463v-0.16386c0-0.05463-0.0555-0.05463-0.0555-0.05463h-0.5147v-0.10979l0.5147 5.55e-4s0.0555 0 0.0555-0.05463v-0.16385c0-0.054626-0.0555-0.054626-0.0555-0.054626h-0.5147v-0.21848zm8.2515 0.94773c-0.60405 0-1.1122 0.49942-1.1122 1.0932v1.0265h0.45608v-1.0265c0-0.3618 0.28805-0.64487 0.65608-0.64487 0.36403 0 0.66 0.287 0.66 0.64487v1.0265h0.45208v-1.0265c0-0.59382-0.50802-1.0932-1.1121-1.0932zm-4.7596 0.03937c-0.60406 0-1.1121 0.49942-1.1121 1.0932 0 0.59382 0.50802 1.0932 1.1121 1.0932 0.30801 0 0.60011-0.12584 0.81214-0.34606l-0.29204-0.34606c-0.12801 0.15337-0.32408 0.24387-0.5201 0.24387-0.28003 0-0.52404-0.16916-0.61605-0.42084h1.6922c0.0361-0.10225 0.0361-0.17695 0.0361-0.22413 0-0.59382-0.50814-1.0932-1.1122-1.0932zm2.3798 0c-0.60404 0-1.1121 0.49942-1.1121 1.0932 0 0.59382 0.50803 1.0932 1.1121 1.0932 0.30803 0 0.60013-0.12584 0.81214-0.34606l-0.29202-0.34606c-0.12801 0.15337-0.32409 0.24387-0.52012 0.24387-0.28002 0-0.52404-0.16916-0.61605-0.42084h1.6922c0.0361-0.10225 0.0361-0.17695 0.0361-0.22413 0-0.59382-0.50812-1.0932-1.1122-1.0932zm3.6475 0.01577v0.44442h1.1201l-1.1201 1.2663v0.35396h1.8122v-0.44837h-1.1201l1.1201-1.2663v-0.35001zm-8.407 0.43258c0.36403 0 0.6601 0.28711 0.6601 0.64497s-0.29607 0.64497-0.6601 0.64497c-0.36802 0-0.65599-0.28318-0.65599-0.64497s0.28797-0.64497 0.65599-0.64497zm2.3798 0c0.28001 0 0.52412 0.16916 0.61213 0.42084h-1.2282c0.0961-0.25168 0.34001-0.42084 0.61605-0.42084zm2.3798 0c0.28003 0 0.52414 0.16916 0.61215 0.42084h-1.2282c0.0961-0.25168 0.34003-0.42084 0.61605-0.42084z" fill="#f0f0f0"/><path transform="matrix(.18045 0 0 .17739 -8.5018 14.199)" d="m62.6-85.4c23 0 44 21.002 44 50 0 52.002-71.971 78.909-120 79-224.4 0.42694-114.36-129 76-129z" fill="#e31f13" filter="url(#a)"/><path d="m-2.6118 7.4494v1.4562c1.1823 0 2.1435 0.93213 2.1435 2.0944v3.3337h1.4683v-3.3337c0-1.9286-1.65-3.5506-3.6118-3.5506zm4.1168 0.17878v1.4434h3.6379l-3.6379 4.1126v1.1496h5.8858v-1.4562h-3.6379l3.6379-4.1126v-1.1368z" fill="#f0f0f0"/><path transform="matrix(.18045 0 0 .17739 7.2323 -.13485)" d="m-89.411-85.4c22.998 0 36.511 18 76.011 18s53-18 76-18 44 21.002 44 50c0 52.002-71.971 78.909-120 79-48.029 0.09138-121-27.003-121-79 0-29 21.991-50 44.989-50z" fill="#e31f13" filter="url(#a)"/><path d="m1.7812-3.2059c0 1.9286 1.65 3.5506 3.6118 3.5506 1.0004 0 1.9491-0.4087 2.6377-1.1239l-0.94841-1.1239c-0.41576 0.49812-1.0526 0.79203-1.6892 0.79203-0.90946 0-1.702-0.5494-2.0008-1.3668h5.496c0.11693-0.33208 0.11701-0.57466 0.11701-0.72793-0.54547-4.6793-6.4752-4.4371-7.224 0z" fill="#f0f0f0"/></svg>
