<?xml version="1.0" encoding="UTF-8"?>
<svg width="36" height="24" version="1.1" viewBox="0 0 36 24" xml:space="preserve" xmlns="http://www.w3.org/2000/svg" xmlns:cc="http://creativecommons.org/ns#" xmlns:dc="http://purl.org/dc/elements/1.1/" xmlns:rdf="http://www.w3.org/1999/02/22-rdf-syntax-ns#"><title>Go Button</title><defs><filter id="b" x="-.046667" y="-.07" width="1.0933" height="1.14" color-interpolation-filters="sRGB"><feGaussianBlur in="SourceGraphic" result="blur" stdDeviation="0.7"/><feDiffuseLighting lighting-color="#ffffcd" result="diffuse" surfaceScale="10"><feDistantLight azimuth="55" elevation="160"/></feDiffuseLighting><feComposite in="diffuse" in2="diffuse" k1="1" operator="arithmetic" result="composite1"/><feComposite in="composite1" in2="SourceGraphic" k1="1" k3="1" operator="arithmetic" result="composite2"/></filter><filter id="a" x="-.047241" y="-.084005" width="1.0472" height="1.084" color-interpolation-filters="sRGB"><feFlood flood-color="rgb(0,0,0)" flood-opacity=".50196" in="SourceGraphic" result="flood"/><feGaussianBlur in="SourceGraphic" result="blur" stdDeviation="0.000000"/><feOffset dx="-1.000000" dy="-1.000000" in="blur" result="offset"/><feComposite in="flood" in2="offset" operator="in" result="comp1"/><feComposite in="SourceGraphic" in2="comp1" result="comp2"/></filter></defs><g stroke-linecap="square" stroke-linejoin="round" stroke-miterlimit=".8"><path d="m0 0h27c4.986 0 9 4.014 9 9v6c0 4.986-4.014 9-9 9l-27 2e-6z" fill="#626ca3" filter="url(#b)" stroke-width="7.5895" style="paint-order:stroke fill markers"/><path d="m13.512 13.208v-2.112h5.248v6.352h-1.888l-0.32-1.504q-1.152 1.76-3.696 1.76-2.48 0-3.968-1.632-1.488-1.6-1.488-4.32 0-2.752 1.552-4.352 1.536-1.6 4.224-1.6 2.224 0 3.696 1.104 1.488 1.12 1.744 2.992h-2.768q-0.24-0.832-0.928-1.296t-1.728-0.464q-1.392 0-2.192 0.96-0.784 0.96-0.784 2.656t0.816 2.656q0.832 0.96 2.288 0.96 1.056 0 1.808-0.592 0.768-0.608 0.912-1.568zm13.888 3.248q-1.184 1.184-3.152 1.184t-3.152-1.184-1.184-3.136q0-1.968 1.184-3.152 1.168-1.168 3.152-1.168t3.152 1.168 1.168 3.152q0 1.968-1.168 3.136zm-3.152-0.816q0.864 0 1.328-0.592t0.464-1.728-0.464-1.728-1.328-0.592q-0.88 0-1.344 0.592t-0.464 1.728 0.464 1.728 1.344 0.592z" fill="#f9f9f9" filter="url(#a)" style="paint-order:stroke fill markers" aria-label="Go"/></g><metadata><rdf:RDF><cc:Work rdf:about=""><dc:title>Go Button</dc:title></cc:Work></rdf:RDF></metadata></svg>
