<?xml version="1.0" encoding="UTF-8"?>
<svg width="74.347" height="265.25" version="1.1" viewBox="0 0 74.347 265.25" xmlns="http://www.w3.org/2000/svg"><title>Home text</title><defs><filter id="a" x="-.0048793" y="-.018028" width="1.0098" height="1.0361" color-interpolation-filters="sRGB"><feGaussianBlur stdDeviation="0.13786331"/></filter></defs><g transform="rotate(-90 20.709 41.067)" stroke-width="0"><path transform="matrix(3.8676 0 0 3.8676 -134.68 -57.511)" d="m-14.512 37.797v-16.647h-2.835v-0.68523h8.8946v0.68523h-2.8618v7.6988h7.7794v-7.6988h-2.8081v-0.68523h8.8408v0.68523h-2.835v16.647h2.835v0.68523h-8.8408v-0.68523h2.8081v-8.2631h-7.7794v8.2631h2.8618v0.68523h-8.8946v-0.68523zm19.482-4.6219q0-2.3244 1.5989-3.9502 1.5989-1.6392 3.9636-1.6392 2.311 0 3.9098 1.572 1.6123 1.5586 1.6123 3.9098 0 2.405-1.666 4.0845-1.666 1.6661-3.9367 1.6661-2.2304 0-3.8561-1.6257-1.6257-1.6392-1.6257-4.0173zm8.0615 0q0-2.4722-0.17467-3.2649-0.16123-0.79272-0.75241-1.2495-0.57774-0.47026-1.5989-0.47026-0.96738 0-1.5989 0.48369-0.61805 0.47026-0.76585 1.263-0.14779 0.79272-0.14779 3.2649 0 2.4856 0.17467 3.2918 0.1881 0.80615 0.79272 1.263 0.61805 0.45682 1.5451 0.45682 0.94051 0 1.5586-0.45682 0.63149-0.47026 0.79272-1.2898 0.17467-0.83302 0.17467-3.2918zm7.1076 4.6219v-9.1901h-1.8945v-0.68523h1.1824q2.096 0 3.3321-0.17467v2.5931h0.05374q1.0614-2.5931 3.7889-2.5931 2.9693 0 3.2784 2.7544h0.05374q1.1689-2.7544 3.883-2.7544 1.2092 0 2.0288 0.60462 0.83302 0.60462 1.0211 1.3973 0.20154 0.79272 0.20154 2.62v5.4281h1.8676v0.68523h-6.2477v-0.68523h1.7601v-6.6373q0-1.572-0.1881-2.1632-0.17467-0.59118-0.96738-0.59118-1.0883 0-2.2438 1.2361-1.142 1.2227-1.142 4.6623v3.4933h1.7332v0.68523h-6.0865v-0.68523h1.7467v-5.1997q0-3.0365-0.22841-3.6143-0.21497-0.57774-1.048-0.57774-1.1421 0-2.0019 1.0077-0.84646 1.0077-1.0614 1.9616-0.20154 0.95395-0.20154 3.0365v3.3858h1.7332v0.68523h-6.2477v-0.68523zm30.325-5.4012h-6.7986q-0.09405 3.977 0.44338 4.9041 0.53744 0.91364 1.9213 0.91364 2.8484 0 3.8561-3.3052h0.57774q-0.44338 2.0019-1.6795 2.9559-1.2361 0.95395-2.7544 0.95395-2.1632 0-3.762-1.5989-1.5989-1.6123-1.5989-4.0442 0-2.3647 1.5586-3.977 1.572-1.6123 3.6411-1.6123 1.8004 0 3.144 1.2764 1.357 1.2764 1.4511 3.5336zm-6.7986-0.60462h3.9098q0.10749-0.95395 0.10749-1.4511 0-2.1497-1.9482-2.1497-0.96738 0-1.5183 0.524-0.55087 0.51056-0.55087 1.3973z" fill-opacity=".75385" filter="url(#a)" style="paint-order:stroke fill markers" aria-label="Home"/><path d="m-192.51 90.755v-64.384h-10.965v-2.6502h34.401v2.6502h-11.069v29.776h30.088v-29.776h-10.861v-2.6502h34.193v2.6502h-10.965v64.384h10.965v2.6502h-34.193v-2.6502h10.861v-31.958h-30.088v31.958h11.069v2.6502h-34.401v-2.6502zm75.349-17.876q0-8.9899 6.1838-15.278 6.1838-6.3397 15.33-6.3397 8.938 0 15.122 6.0799 6.2358 6.0279 6.2358 15.122 0 9.3017-6.4436 15.797-6.4436 6.4436-15.226 6.4436-8.6262 0-14.914-6.2877-6.2877-6.3397-6.2877-15.537zm31.179 0q0-9.5615-0.67554-12.627-0.62358-3.0659-2.91-4.8327-2.2345-1.8188-6.1838-1.8188-3.7415 0-6.1838 1.8707-2.3904 1.8188-2.962 4.8847t-0.57161 12.627q0 9.6135 0.67554 12.731 0.72751 3.1179 3.0659 4.8847 2.3904 1.7668 5.976 1.7668 3.6375 0 6.0279-1.7668 2.4423-1.8188 3.0659-4.9886 0.67554-3.2218 0.67554-12.731zm27.489 17.876v-35.544h-7.327v-2.6502h4.5729q8.1065 0 12.887-0.67554v10.029h0.20786q4.1052-10.029 14.654-10.029 11.484 0 12.679 10.653h0.20786q4.5209-10.653 15.018-10.653 4.6768 0 7.8467 2.3384 3.2218 2.3384 3.9493 5.4043 0.77947 3.0659 0.77947 10.133v20.994h7.2231v2.6502h-24.164v-2.6502h6.8074v-25.671q0-6.0799-0.72751-8.3663-0.67554-2.2865-3.7415-2.2865-4.2092 0-8.6781 4.7808-4.417 4.7288-4.417 18.032v13.511h6.7035v2.6502h-23.54v-2.6502h6.7554v-20.11q0-11.744-0.8834-13.979-0.83144-2.2345-4.0533-2.2345-4.417 0-7.7428 3.8974-3.2738 3.8974-4.1052 7.5869-0.77947 3.6895-0.77947 11.744v13.095h6.7035v2.6502h-24.164v-2.6502zm117.28-20.89h-26.294q-0.36375 15.382 1.7148 18.967 2.0786 3.5336 7.431 3.5336 11.017 0 14.914-12.783h2.2345q-1.7148 7.7428-6.4956 11.432-4.7808 3.6895-10.653 3.6895-8.3663 0-14.55-6.1838-6.1838-6.2358-6.1838-15.641 0-9.1458 6.0279-15.382 6.0799-6.2358 14.082-6.2358 6.9633 0 12.16 4.9367 5.2484 4.9367 5.6122 13.667zm-26.294-2.3384h15.122q0.41572-3.6895 0.41572-5.6122 0-8.3144-7.5349-8.3144-3.7415 0-5.872 2.0266-2.1306 1.9747-2.1306 5.4043z" fill="#565677" style="paint-order:stroke fill markers" aria-label="Home"/></g></svg>