<?xml version="1.0" encoding="UTF-8"?>
<svg width="185px" height="185px" version="1.1" xmlns="http://www.w3.org/2000/svg"><path transform="translate(46.2 -.7)" d="m22.8 137.05v-88l72 43.8-72 44.2" fill="url(#b)" fill-rule="evenodd"/><path transform="translate(46.2 -.7)" d="m111.7 27.8q27.05 27.05 27.1 65.4-0.05 38.3-27.1 65.4-27.1 27.05-65.4 27.1-22.3 0-40.8-9.15-13.3-6.65-24.6-17.95-27.1-27.1-27.1-65.4 0-38.35 27.1-65.4 27.05-27.1 65.4-27.1 25.95 0 46.75 12.45 9.9 5.9 18.65 14.65m5.1 65.45q-0.05-29-20.5-49.45-10.7-10.7-23.7-15.85-11.95-4.75-25.85-4.7-28.95-0.05-49.4 20.55-20.6 20.45-20.6 49.45 0 28.95 20.6 49.5l2.55 2.5q19.7 17.95 46.85 18 29-0.05 49.55-20.5 20.45-20.55 20.5-49.5" fill="url(#a)" fill-rule="evenodd"/><defs><linearGradient id="b" x1="-819.2" x2="819.2" gradientTransform="matrix(.0439 0 0 .0537 58.8 93.05)" gradientUnits="userSpaceOnUse"><stop stop-color="#9c9c8c" stop-opacity="0" offset=".066667"/><stop stop-color="#764842" offset="1"/></linearGradient><linearGradient id="a" x1="-819.2" x2="819.2" gradientTransform="matrix(.1129 0 0 .1129 46.3 93.2)" gradientUnits="userSpaceOnUse"><stop stop-color="#949484" offset=".047059"/><stop stop-color="#9c9484" offset="1"/></linearGradient></defs></svg>