<?xml version="1.0" encoding="UTF-8" standalone="no"?>
<svg xmlns:ffdec="https://www.free-decompiler.com/flash" xmlns:xlink="http://www.w3.org/1999/xlink" ffdec:objectType="text" height="36.1px" width="184.55px" xmlns="http://www.w3.org/2000/svg">
  <g transform="matrix(1.0, 0.0, 0.0, 1.0, -0.2, -12.4)">
    <g transform="matrix(1.0, 0.0, 0.0, 1.0, 0.0, 0.0)">
      <use fill="#bdbfac" height="36.1" transform="matrix(0.8398, 0.0, 0.0, 0.8398, 0.0, 43.0)" width="184.55" xlink:href="#font_HelveCompressed_w0"/>
      <use fill="#bdbfac" height="36.1" transform="matrix(0.8398, 0.0, 0.0, 0.8398, 28.7, 43.0)" width="184.55" xlink:href="#font_HelveCompressed_e0"/>
      <use fill="#bdbfac" height="36.1" transform="matrix(0.8398, 0.0, 0.0, 0.8398, 47.0, 43.0)" width="184.55" xlink:href="#font_HelveCompressed_b0"/>
      <use fill="#bdbfac" height="36.1" transform="matrix(0.8398, 0.0, 0.0, 0.8398, 65.3, 43.0)" width="184.55" xlink:href="#font_HelveCompressed_t0"/>
    </g>
    <g transform="matrix(1.0, 0.0, 0.0, 1.0, 0.0, 0.0)">
      <use fill="#bdbfac" height="36.1" transform="matrix(0.8398, 0.0, 0.0, 0.8398, 78.05, 43.0)" width="184.55" xlink:href="#font_HelveCompressed_v0"/>
    </g>
    <g transform="matrix(1.0, 0.0, 0.0, 1.0, 0.0, 0.0)">
      <use fill="#000000" height="36.1" transform="matrix(0.8398, 0.0, 0.0, 0.8398, 100.55, 43.0)" width="184.55" xlink:href="#font_HelveCompressed_t0"/>
      <use fill="#000000" height="36.1" transform="matrix(0.8398, 0.0, 0.0, 0.8398, 113.3, 43.0)" width="184.55" xlink:href="#font_HelveCompressed_o0"/>
      <use fill="#000000" height="36.1" transform="matrix(0.8398, 0.0, 0.0, 0.8398, 131.6, 43.0)" width="184.55" xlink:href="#font_HelveCompressed_d0"/>
    </g>
    <g transform="matrix(1.0, 0.0, 0.0, 1.0, 0.0, 0.0)">
      <use fill="#000000" height="36.1" transform="matrix(0.8398, 0.0, 0.0, 0.8398, 149.9, 43.0)" width="184.55" xlink:href="#font_HelveCompressed_a0"/>
    </g>
    <g transform="matrix(1.0, 0.0, 0.0, 1.0, 0.0, 0.0)">
      <use fill="#000000" height="36.1" transform="matrix(0.8398, 0.0, 0.0, 0.8398, 167.0, 43.0)" width="184.55" xlink:href="#font_HelveCompressed_y0"/>
    </g>
  </g>
  <defs>
    <g id="font_HelveCompressed_w0">
      <path d="M26.75 -29.25 L33.85 -29.25 29.65 0.0 19.8 0.0 17.1 -23.35 17.0 -23.35 14.35 0.0 4.75 0.0 0.25 -29.25 8.35 -29.25 10.5 -6.65 10.6 -6.65 13.15 -29.25 22.15 -29.25 24.85 -6.65 24.95 -6.65 26.75 -29.25" fill-rule="evenodd" stroke="none"/>
    </g>
    <g id="font_HelveCompressed_e0">
      <path d="M12.6 -18.55 L12.6 -22.55 Q12.6 -24.3 10.9 -24.3 9.25 -24.3 9.25 -22.55 L9.25 -18.55 12.6 -18.55 M3.65 -27.5 Q6.2 -29.65 10.9 -29.65 20.7 -29.65 20.7 -21.4 L20.7 -13.7 9.25 -13.7 9.25 -7.75 Q9.25 -4.95 10.9 -4.95 12.6 -4.95 12.6 -7.75 L12.6 -11.55 20.7 -11.55 20.7 -7.25 Q20.7 0.35 10.9 0.35 6.7 0.35 4.1 -1.5 1.15 -3.55 1.15 -7.4 L1.15 -21.4 Q1.15 -25.35 3.65 -27.5" fill-rule="evenodd" stroke="none"/>
    </g>
    <g id="font_HelveCompressed_b0">
      <path d="M10.9 -23.0 Q9.25 -23.0 9.25 -21.0 L9.25 -8.3 Q9.25 -6.3 10.9 -6.3 12.6 -6.3 12.6 -8.3 L12.6 -21.0 Q12.6 -23.0 10.9 -23.0 M1.15 -36.45 L9.25 -36.45 9.25 -25.3 9.35 -25.3 Q10.5 -29.65 15.05 -29.65 20.7 -29.65 20.7 -23.15 L20.7 -6.95 Q20.7 -3.85 19.45 -1.95 18.0 0.35 14.9 0.35 9.9 0.35 9.35 -3.65 L9.25 -3.65 9.25 0.0 1.15 0.0 1.15 -36.45" fill-rule="evenodd" stroke="none"/>
    </g>
    <g id="font_HelveCompressed_t0">
      <path d="M0.4 -29.25 L3.15 -29.25 3.15 -34.55 11.25 -34.55 11.25 -29.25 14.75 -29.25 14.75 -23.95 11.25 -23.95 11.25 -7.95 Q11.25 -6.45 11.5 -6.0 11.85 -5.3 13.15 -5.3 L14.75 -5.3 14.75 0.0 8.15 0.0 Q5.3 0.0 4.15 -1.6 3.15 -3.0 3.15 -6.1 L3.15 -23.95 0.4 -23.95 0.4 -29.25" fill-rule="evenodd" stroke="none"/>
    </g>
    <g id="font_HelveCompressed_v0">
      <path d="M0.6 -29.25 L8.75 -29.25 11.5 -6.55 11.6 -6.55 14.3 -29.25 21.25 -29.25 16.0 0.0 6.15 0.0 0.6 -29.25" fill-rule="evenodd" stroke="none"/>
    </g>
    <g id="font_HelveCompressed_o0">
      <path d="M10.9 -24.3 Q9.25 -24.3 9.25 -22.25 L9.25 -7.0 Q9.25 -4.95 10.9 -4.95 12.6 -4.95 12.6 -7.0 L12.6 -22.25 Q12.6 -24.3 10.9 -24.3 M10.9 -29.65 Q15.65 -29.65 18.15 -27.5 20.7 -25.35 20.7 -21.4 L20.7 -7.4 Q20.7 -3.55 17.75 -1.5 15.1 0.35 10.9 0.35 6.7 0.35 4.1 -1.5 1.15 -3.55 1.15 -7.4 L1.15 -21.4 Q1.15 -25.35 3.65 -27.5 6.2 -29.65 10.9 -29.65" fill-rule="evenodd" stroke="none"/>
    </g>
    <g id="font_HelveCompressed_d0">
      <path d="M12.6 -21.0 Q12.6 -23.0 10.9 -23.0 9.25 -23.0 9.25 -21.0 L9.25 -8.3 Q9.25 -6.3 10.9 -6.3 12.6 -6.3 12.6 -8.3 L12.6 -21.0 M6.75 -29.65 Q11.35 -29.65 12.5 -25.3 L12.6 -25.3 12.6 -36.45 20.7 -36.45 20.7 0.0 12.6 0.0 12.6 -3.65 12.5 -3.65 Q11.95 0.35 6.9 0.35 3.85 0.35 2.35 -1.95 1.15 -3.85 1.15 -6.95 L1.15 -23.15 Q1.15 -29.65 6.75 -29.65" fill-rule="evenodd" stroke="none"/>
    </g>
    <g id="font_HelveCompressed_a0">
      <path d="M12.6 -14.8 L10.3 -13.2 Q9.25 -12.15 9.25 -10.7 L9.25 -7.5 Q9.25 -6.0 10.7 -6.0 11.9 -6.0 12.3 -6.85 12.6 -7.6 12.6 -9.7 L12.6 -14.8 M4.2 -27.85 Q6.8 -29.65 10.9 -29.65 15.05 -29.65 17.65 -27.85 20.7 -25.75 20.7 -21.65 L20.7 0.0 12.6 0.0 12.6 -3.4 12.5 -3.4 Q10.75 0.35 6.8 0.35 4.15 0.35 2.65 -1.2 1.15 -2.75 1.15 -5.6 L1.15 -9.95 Q1.15 -12.55 2.95 -14.35 4.15 -15.55 6.85 -16.9 L10.8 -19.05 Q12.6 -20.35 12.6 -22.15 12.6 -24.3 10.9 -24.3 9.25 -24.3 9.25 -22.15 L9.25 -18.95 1.15 -18.95 1.15 -21.65 Q1.15 -25.75 4.2 -27.85" fill-rule="evenodd" stroke="none"/>
    </g>
    <g id="font_HelveCompressed_y0">
      <path d="M0.65 -29.25 L8.8 -29.25 11.55 -9.05 11.65 -9.05 14.35 -29.25 21.15 -29.25 14.6 1.6 Q13.6 6.55 8.05 6.55 L1.55 6.55 1.55 1.25 5.75 1.25 Q7.2 1.25 7.2 0.4 L0.65 -29.25" fill-rule="evenodd" stroke="none"/>
    </g>
  </defs>
</svg>
