<?xml version="1.0" encoding="UTF-8"?>
<svg width="241" height="129" version="1.1" viewBox="0 0 241 129" xmlns="http://www.w3.org/2000/svg"><defs><filter id="a" x="-.039834" y="-.074418" width="1.0797" height="1.1488" color-interpolation-filters="sRGB"><feGaussianBlur in="SourceGraphic" result="blur" stdDeviation="4"/><feDiffuseLighting lighting-color="rgb(255,255,255)" result="diffuse" surfaceScale="10"><feDistantLight azimuth="45" elevation="165"/></feDiffuseLighting><feComposite in="diffuse" in2="diffuse" k1="1" operator="arithmetic" result="composite1"/><feComposite in="composite1" in2="SourceGraphic" k1="1" k3="1" operator="arithmetic" result="composite2"/></filter></defs><path d="m44.989 0c22.998 0 36.511 18 76.011 18s53-18 76-18 44 21.002 44 50c0 52.002-71.971 78.909-120 79-48.029 0.09138-121-27.003-121-79 0-29 21.991-50 44.989-50z" fill="#e31f13" filter="url(#a)"/><path d="m18.527 30v4.0078l-4.5273-0.007812s-1 1e-6 -1 1v3c0 1 1 1 1 1h4.5273v2.0078l-4.5273-0.007812s-1 1e-6 -1 1v3c0 1 1 1 1 1h4.5273v22.088c0 10.872 9.1436 20.016 20.016 20.016s20.018-9.1436 20.018-20.016c0-10.872-9.1456-20.016-20.018-20.016-4.248 0-8.4226 1.3687-11.807 3.8887v-5.9707l9.2637 0.009766s1-2e-6 1-1v-3c0-1-1-1-1-1h-9.2637v-2.0098l9.2637 0.009766s1-2e-6 1-1v-3c0-1-1-1-1-1h-9.2637v-4h-8.209zm148.51 17.352c-10.872 0-20.018 9.1436-20.018 20.016v18.793h8.209v-18.793c0-6.624 5.1846-11.807 11.809-11.807 6.552 0 11.879 5.2547 11.879 11.807v18.793h8.1367v-18.793c0-10.872-9.1437-20.016-20.016-20.016zm-85.666 0.7207c-10.872 0-20.016 9.1436-20.016 20.016 0 10.872 9.1436 20.016 20.016 20.016 5.544 0 10.801-2.3039 14.617-6.3359l-5.2559-6.3359c-2.304 2.808-5.8333 4.4648-9.3613 4.4648-5.04 0-9.4319-3.0971-11.088-7.7051h30.457c0.648-1.872 0.64844-3.2395 0.64844-4.1035 0-10.872-9.1456-20.016-20.018-20.016zm42.832 0c-10.872 0-20.016 9.1436-20.016 20.016 0 10.872 9.1436 20.016 20.016 20.016 5.544 0 10.801-2.3039 14.617-6.3359l-5.2559-6.3359c-2.304 2.808-5.8333 4.4648-9.3613 4.4648-5.04 0-9.4319-3.0971-11.088-7.7051h30.457c0.648-1.872 0.64844-3.2395 0.64844-4.1035 0-10.872-9.1456-20.016-20.018-20.016zm65.648 0.28711v8.1367h20.16l-20.16 23.184v6.4805h32.617v-8.209h-20.16l20.16-23.184v-6.4082h-32.617zm-151.31 7.9199c6.552 0 11.881 5.2566 11.881 11.809 0 6.552-5.3289 11.809-11.881 11.809-6.624 0-11.807-5.1846-11.807-11.809 0-6.624 5.1827-11.809 11.807-11.809zm42.832 0c5.04 0 9.4336 3.0971 11.018 7.7051h-22.105c1.728-4.608 6.1199-7.7051 11.088-7.7051zm42.832 0c5.04 0 9.4336 3.0971 11.018 7.7051h-22.105c1.728-4.608 6.1199-7.7051 11.088-7.7051z" fill="#f0f0f0"/></svg>
