<?xml version="1.0" encoding="UTF-8"?>
<svg width="75.223" height="402.52" version="1.1" viewBox="0 0 75.223 402.52" xml:space="preserve" xmlns="http://www.w3.org/2000/svg" xmlns:cc="http://creativecommons.org/ns#" xmlns:dc="http://purl.org/dc/elements/1.1/" xmlns:rdf="http://www.w3.org/1999/02/22-rdf-syntax-ns#"><title>Favorites Sidebar Text</title><defs><filter id="a" x="-.0045279" y="-.025276" width="1.0091" height="1.0506" color-interpolation-filters="sRGB"><feGaussianBlur stdDeviation="0.75258566"/></filter></defs><g transform="rotate(-90 88.023 108.5)" stroke-width="0"><path d="m-193.2 89.47v-64.531h-10.99v-2.6563h58.959l0.88542 21.094h-2.3438q0-0.98959-1.8229-7.1354-1.8229-6.1979-5.3646-8.75-3.4896-2.5521-11.823-2.5521h-15.156v30.261h2.8646q4.5834 0 7.2396-0.625 2.6563-0.625 4.5834-3.4896 1.9792-2.8646 2.3958-9.0104h2.6563v29.583h-2.6563q-0.41667-6.6667-2.1354-9.6354-1.6667-3.0208-4.2708-3.6979-2.6042-0.67708-7.8125-0.67708h-2.8646v31.823h12.292v2.6563h-35.625v-2.6563zm75.677-20.729v-5.3125q0-6.5104-1.0938-8.5417-1.0417-2.0313-5.7292-2.0313-8.4375 0-8.4375 3.2292 0 0.9375 0.67708 2.0833 0.72917 1.0938 0.72917 2.6042 0 2.1354-1.4062 3.2813-1.4063 1.0938-3.1771 1.0938-2.2917 0-3.5417-1.4063-1.25-1.4583-1.25-3.3854 0-4.1667 4.8438-6.9792 4.8958-2.8646 13.594-2.8646 6.9792 0 10.208 1.6146 3.2292 1.6146 3.9583 4.0104 0.78125 2.3958 0.78125 6.7709v19.167q0 4.2188 0.57292 5.2604 0.625 1.0417 1.875 1.0417 1.875 0 3.6458-2.5521h1.25q-1.3542 7.6042-8.8542 7.6042-7.2396 0-8.6459-8.3334-6.0938 8.3334-14.271 8.3334-5.4167 0-8.6459-2.9167-3.2292-2.9688-3.2292-7.2396 0-13.281 26.146-14.531zm0 8.0209v-5.625q-9.6354 0.36458-12.708 2.9167-3.0729 2.5-3.0729 7.2917 0 3.4896 1.8229 5.4167 1.875 1.9271 4.2708 1.9271 3.0729 0 5.5208-2.0313 2.5-2.0833 3.3334-4.1667 0.83333-2.0833 0.83333-5.7292zm65.313-22.917-19.74 39.896h-1.3542l-20.052-39.896h-6.3021v-2.6563h25.573v2.6563h-7.8646l13.646 27.708 13.438-27.708h-7.8646v-2.6563h16.927v2.6563zm9.0625 17.708q0-9.0104 6.1979-15.313 6.1979-6.3542 15.365-6.3542 8.9584 0 15.156 6.0938 6.25 6.0417 6.25 15.156 0 9.3229-6.4584 15.833-6.4584 6.4584-15.26 6.4584-8.6459 0-14.948-6.3021-6.3021-6.3542-6.3021-15.573zm31.25 0q0-9.5834-0.67708-12.656-0.625-3.0729-2.9167-4.8438-2.2396-1.8229-6.1979-1.8229-3.75 0-6.1979 1.875-2.3958 1.8229-2.9688 4.8958-0.57292 3.0729-0.57292 12.656 0 9.6354 0.67709 12.76 0.72917 3.125 3.0729 4.8958 2.3958 1.7708 5.9896 1.7708 3.6458 0 6.0417-1.7708 2.4479-1.8229 3.0729-5 0.67708-3.2292 0.67708-12.76zm26.823 17.917v-35.625h-8.4375v-2.6563h8.5417q6.5625 0 10-0.67708v9.8438h0.20833q3.6458-9.8438 10.781-9.8438 3.125 0 5 1.9271 1.9271 1.875 1.9271 4.5833 0 2.5-1.5625 4.0625-1.5104 1.5104-3.9583 1.5104-4.4792 0-4.4792-4.4792l0.20833-2.2396q0-1.1979-1.0938-1.1979-1.7188 0-4.375 4.6354-2.6563 4.6354-2.6563 14.167v15.99h8.6459v2.6563h-27.188v-2.6563zm39.323-59.115q0-2.2917 1.6667-3.9583 1.7188-1.6667 4.0104-1.6667t3.9583 1.6667q1.7188 1.6146 1.7188 3.9583 0 2.4479-1.6667 4.0625t-4.0104 1.6146-4.0104-1.6146q-1.6667-1.6667-1.6667-4.0625zm10.469 20.052v39.063h6.8229v2.6563h-24.219v-2.6563h7.2917v-35.625h-7.2917v-2.6563h7.3959q5.3125 0 10-0.78125zm30.625-11.094v11.875h12.344v2.6563h-12.344v25.781q0 5.6771 0.72917 7.7604 0.78125 2.0833 4.0625 2.0833 2.5 0 4.7917-1.6667 2.3438-1.6667 3.5417-5.1563h2.2396q-2.3958 10.104-14.531 10.104-5.1042 0-7.5-1.8229-2.3958-1.875-2.9688-4.5833-0.52084-2.7083-0.52084-7.3438v-25.156h-9.2709v-2.6563h9.2709v-10.99q5.1563 0 10.156-0.88542zm60.052 29.219h-26.354q-0.36458 15.417 1.7188 19.01 2.0833 3.5417 7.4479 3.5417 11.042 0 14.948-12.813h2.2396q-1.7188 7.7604-6.5104 11.458-4.7917 3.6979-10.677 3.6979-8.3854 0-14.583-6.1979-6.1979-6.25-6.1979-15.677 0-9.1667 6.0417-15.417 6.0938-6.25 14.115-6.25 6.9792 0 12.188 4.9479 5.2604 4.9479 5.625 13.698zm-26.354-2.3438h15.156q0.41666-3.6979 0.41666-5.625 0-8.3334-7.5521-8.3334-3.75 0-5.8854 2.0313-2.1354 1.9792-2.1354 5.4167zm62.396-15.469v11.667h-2.1354q-2.3958-10.156-11.667-10.156-4.0104 0-6.7188 2.1354-2.6563 2.0833-2.6563 4.7917 0 2.2917 1.875 3.6458 1.9271 1.3021 9.0104 2.2396 15.573 1.9271 15.573 14.167 0 6.0938-4.0625 10.156-4.0104 4.0625-10 4.0625-5.8854 0-11.406-4.8438l-3.6458 3.125h-1.8229v-15.365h1.8229q4.4792 14.74 15.052 14.74 4.0104 0 7.2917-2.5521t3.2813-5.9896q0-2.8646-1.9792-4.3229-1.9271-1.4583-10.521-2.7083-14.635-2.1354-14.635-13.021 0-5.3646 3.9063-8.9584 3.9584-3.6458 9.6354-3.6458 5.9896 0 10.052 3.9583 1.0417-1.0938 2.1354-3.125z" filter="url(#a)" style="paint-order:stroke fill markers" aria-label="Favorites"/><path d="m-194.65 91.428v-64.531h-10.99v-2.6563h58.959l0.88542 21.094h-2.3438q0-0.98959-1.8229-7.1354-1.8229-6.1979-5.3646-8.75-3.4896-2.5521-11.823-2.5521h-15.156v30.261h2.8646q4.5834 0 7.2396-0.625t4.5834-3.4896q1.9792-2.8646 2.3958-9.0104h2.6563v29.583h-2.6563q-0.41667-6.6667-2.1354-9.6354-1.6667-3.0208-4.2708-3.6979-2.6042-0.67709-7.8125-0.67709h-2.8646v31.823h12.292v2.6563h-35.625v-2.6563zm75.677-20.729v-5.3125q0-6.5104-1.0938-8.5417-1.0417-2.0313-5.7292-2.0313-8.4375 0-8.4375 3.2292 0 0.9375 0.67708 2.0833 0.72917 1.0938 0.72917 2.6042 0 2.1354-1.4062 3.2813-1.4063 1.0938-3.1771 1.0938-2.2917 0-3.5417-1.4063-1.25-1.4583-1.25-3.3854 0-4.1667 4.8438-6.9792 4.8958-2.8646 13.594-2.8646 6.9792 0 10.208 1.6146 3.2292 1.6146 3.9584 4.0104 0.78125 2.3958 0.78125 6.7709v19.167q0 4.2188 0.57292 5.2604 0.625 1.0417 1.875 1.0417 1.875 0 3.6458-2.5521h1.25q-1.3542 7.6042-8.8542 7.6042-7.2396 0-8.6459-8.3334-6.0938 8.3334-14.271 8.3334-5.4167 0-8.6459-2.9167-3.2292-2.9688-3.2292-7.2396 0-13.281 26.146-14.531zm0 8.0209v-5.625q-9.6354 0.36458-12.708 2.9167-3.0729 2.5-3.0729 7.2917 0 3.4896 1.8229 5.4167 1.875 1.9271 4.2708 1.9271 3.0729 0 5.5208-2.0313 2.5-2.0833 3.3333-4.1667 0.83334-2.0833 0.83334-5.7292zm65.313-22.917-19.74 39.896h-1.3542l-20.052-39.896h-6.3021v-2.6563h25.573v2.6563h-7.8646l13.646 27.708 13.438-27.708h-7.8646v-2.6563h16.927v2.6563zm9.0625 17.708q0-9.0104 6.1979-15.313 6.1979-6.3542 15.365-6.3542 8.9584 0 15.156 6.0938 6.25 6.0417 6.25 15.156 0 9.3229-6.4584 15.833-6.4584 6.4584-15.26 6.4584-8.6459 0-14.948-6.3021-6.3021-6.3542-6.3021-15.573zm31.25 0q0-9.5834-0.67708-12.656-0.625-3.0729-2.9167-4.8438-2.2396-1.8229-6.1979-1.8229-3.75 0-6.1979 1.875-2.3958 1.8229-2.9688 4.8958-0.57292 3.0729-0.57292 12.656 0 9.6354 0.67709 12.76 0.72917 3.125 3.0729 4.8958 2.3958 1.7708 5.9896 1.7708 3.6458 0 6.0417-1.7708 2.4479-1.8229 3.0729-5 0.67708-3.2292 0.67708-12.76zm26.823 17.917v-35.625h-8.4375v-2.6563h8.5417q6.5625 0 10-0.67709v9.8438h0.20833q3.6458-9.8438 10.781-9.8438 3.125 0 5 1.9271 1.9271 1.875 1.9271 4.5833 0 2.5-1.5625 4.0625-1.5104 1.5104-3.9583 1.5104-4.4792 0-4.4792-4.4792l0.20833-2.2396q0-1.1979-1.0938-1.1979-1.7188 0-4.375 4.6354-2.6563 4.6354-2.6563 14.167v15.99h8.6459v2.6563h-27.188v-2.6563zm39.323-59.115q0-2.2917 1.6667-3.9583 1.7188-1.6667 4.0104-1.6667 2.2917 0 3.9583 1.6667 1.7188 1.6146 1.7188 3.9583 0 2.4479-1.6667 4.0625t-4.0104 1.6146q-2.3438 0-4.0104-1.6146-1.6667-1.6667-1.6667-4.0625zm10.469 20.052v39.063h6.8229v2.6563h-24.219v-2.6563h7.2917v-35.625h-7.2917v-2.6563h7.3959q5.3125 0 10-0.78125zm30.625-11.094v11.875h12.344v2.6563h-12.344v25.781q0 5.6771 0.72917 7.7604 0.78125 2.0833 4.0625 2.0833 2.5 0 4.7917-1.6667 2.3438-1.6667 3.5417-5.1563h2.2396q-2.3958 10.104-14.531 10.104-5.1042 0-7.5-1.8229-2.3958-1.875-2.9688-4.5833-0.52084-2.7083-0.52084-7.3438v-25.156h-9.2709v-2.6563h9.2709v-10.99q5.1563 0 10.156-0.88542zm60.052 29.219h-26.354q-0.36459 15.417 1.7188 19.01 2.0833 3.5417 7.4479 3.5417 11.042 0 14.948-12.813h2.2396q-1.7188 7.7604-6.5104 11.458t-10.677 3.6979q-8.3854 0-14.583-6.1979-6.1979-6.25-6.1979-15.677 0-9.1667 6.0417-15.417 6.0938-6.25 14.115-6.25 6.9792 0 12.188 4.9479 5.2604 4.9479 5.625 13.698zm-26.354-2.3438h15.156q0.41666-3.6979 0.41666-5.625 0-8.3334-7.5521-8.3334-3.75 0-5.8854 2.0313-2.1354 1.9792-2.1354 5.4167zm62.396-15.469v11.667h-2.1354q-2.3958-10.156-11.667-10.156-4.0104 0-6.7188 2.1354-2.6563 2.0833-2.6563 4.7917 0 2.2917 1.875 3.6458 1.9271 1.3021 9.0104 2.2396 15.573 1.9271 15.573 14.167 0 6.0938-4.0625 10.156-4.0104 4.0625-10 4.0625-5.8854 0-11.406-4.8438l-3.6458 3.125h-1.8229v-15.365h1.8229q4.4792 14.74 15.052 14.74 4.0104 0 7.2917-2.5521t3.2813-5.9896q0-2.8646-1.9792-4.3229-1.9271-1.4583-10.521-2.7083-14.635-2.1354-14.635-13.021 0-5.3646 3.9063-8.9584 3.9584-3.6458 9.6354-3.6458 5.9896 0 10.052 3.9583 1.0417-1.0938 2.1354-3.125z" fill="#436f79" style="paint-order:stroke fill markers" aria-label="Favorites"/></g><metadata><rdf:RDF><cc:Work rdf:about=""><dc:title>Favorites Sidebar Text</dc:title></cc:Work></rdf:RDF></metadata></svg>
