<?xml version="1.0" encoding="UTF-8"?>
<svg width="78" height="39" version="1.1" viewBox="0 0 78 39" xmlns="http://www.w3.org/2000/svg"><title>Yahoo! Favicon</title><g><path d="m58.226 9.1063c-1.0057 0.09935-5.1921 1.0373-6.5992 1.3389-1.5067 0.40095-15.272 11.036-16.177 13.648-0.20047 0.90377-0.30097 2.2943-0.30097 3.6011l-0.10088 2.1107c0 1.506 0.41841 3.9348 0.61875 5.2405 0.90504 0.20174 7.4549 0.02561 8.6603 0.22582l-0.14828 2.7013c-1.1778-0.0858-9.4951-0.0657-14.247-0.0657-2.4121 0-10.166 0.26596-12.549 0.1942l0.45038-2.5688c1.3064-0.10137 6.7153 0.23334 7.9043-1.0217 0.59063-0.62277 0.40247-1.2902 0.40247-4.9068v-1.7077c0-0.80393 0-2.3119-0.20161-3.719-0.50208-1.5075-12.627-16.646-15.741-19.057-0.90506-0.30109-6.5724-0.86789-7.9788-1.17l-0.07-2.3141c0.70167-0.35179 7.0037 0.08555 13.119-0.14077 4.0194-0.14854 13.19 0 14.322 0.13474l-0.28991 2.0394c-1.2054 0.30185-7.0123 0.41351-8.5198 0.81495 3.919 5.8277 10.115 13.33 12.125 16.244 1.1059-1.6073 10.819-8.2901 11.121-10.601-1.5078-0.3026-6.4982-1.0207-7.3024-1.0207l-0.47736-2.631c1.3681-0.21403 8.5617 0 12.138 0 3.0864 0 9.6816 0 11.556 0.15355l-1.7137 2.4775" fill="#761912"/><path d="m56.077 7.6737c-1.0056 0.09936-5.1921 1.0373-6.5992 1.3389-1.5067 0.40096-15.272 11.036-16.177 13.648-0.20049 0.90377-0.30098 2.2943-0.30098 3.6011l-0.10089 2.1107c0 1.506 0.41841 3.9348 0.61877 5.2405 0.90502 0.20174 7.4549 0.02561 8.6603 0.22583l-0.14829 2.7013c-1.1778-0.08583-9.4951-0.06569-14.247-0.06569-2.4121 0-10.166 0.26596-12.549 0.1942l0.45038-2.5688c1.3064-0.10138 6.7152 0.23334 7.9043-1.0217 0.59064-0.62277 0.40248-1.2902 0.40248-4.9068v-1.7077c0-0.80392 0-2.3119-0.20161-3.719-0.50208-1.5075-12.627-16.646-15.741-19.057-0.90504-0.30109-6.5724-0.86789-7.9788-1.17l-0.06999-2.3141c0.70167-0.35178 7.0037 0.08555 13.119-0.14077 4.0193-0.14854 13.19 0 14.322 0.13474l-0.28992 2.0394c-1.2054 0.30185-7.0123 0.41351-8.5198 0.81496 3.919 5.8276 10.115 13.33 12.125 16.244 1.1059-1.6073 10.819-8.2901 11.12-10.601-1.5077-0.3026-6.4982-1.0207-7.3024-1.0207l-0.47737-2.631c1.3681-0.21403 8.5617 0 12.138 0 3.0864 0 9.6816 0 11.556 0.15355l-1.7137 2.4775" fill="#f00"/><path d="m64.505 35.214-2.3315-0.19998-0.0248-5.0498 2.9517 0.36784 2.6454 0.1227-0.73418 4.9447-2.5066-0.18542m3.0031-8.9201-4.3508-0.42228c0.45642-2.2 0.0592-19.089 0.0238-20.891l-0.22407-3.5479c1.2122 0.23887 1.0285 0.11342 6.143 0.65136 3.1123 0.3267 3.5185 0.4662 4.5428 0.50659l-1.3368 4.2073c-1.1406 3.365-4.4469 18.372-4.7979 19.496z" fill="#761912"/><path d="m62.356 33.781-2.3315-0.19997-0.0248-5.0498 2.9517 0.36783 2.6454 0.1227-0.73417 4.9447-2.5066-0.18543m3.0031-8.9201-4.3508-0.42228c0.4564-2.2 0.0592-19.089 0.0238-20.891l-0.22406-3.5479c1.2122 0.23888 1.0285 0.11342 6.1431 0.65137 3.1123 0.32669 3.5185 0.46619 4.5427 0.50658l-1.3368 4.2073c-1.1406 3.365-4.4469 18.372-4.7979 19.496z" fill="#f00"/></g><path d="m74.15 29.255q1.4334 0 2.4631 1.0298 1.0298 1.0251 1.0298 2.4678t-1.0252 2.4724-2.4678 1.0298q-1.4473 0-2.477-1.0251-1.0298-1.0298-1.0298-2.477 0-1.4473 1.0298-2.4724 1.0344-1.0251 2.477-1.0251zm-9e-3 6.4246q1.2014 0 2.0596-0.85816 0.86279-0.86279 0.86279-2.0688 0-1.2061-0.85815-2.0596-0.85816-0.85815-2.0642-0.85815-1.2061 0-2.0642 0.85815-0.85352 0.85352-0.85352 2.0596 0 1.2061 0.85352 2.0688 0.85815 0.85816 2.0642 0.85816zm1.5772-0.98804h-0.6958l-0.29224-0.82104q-0.2644-0.73755-0.99731-0.73755h-0.47779v1.5586h-0.60766v-3.762h1.4148q1.4936 0 1.4936 1.0344 0 0.99732-0.97876 1.0715 0.50098 0.15308 0.74219 0.71436zm-2.4631-2.0828h0.76074q0.89527 0 0.89527-0.58911 0-0.57983-0.9231-0.57983h-0.73291z" fill="#761912" stroke-miterlimit=".8" stroke-width="0" style="paint-order:markers fill stroke" aria-label="®"/><path d="m73.15 28.255q1.4334 0 2.4631 1.0298 1.0298 1.0251 1.0298 2.4678t-1.0252 2.4724-2.4678 1.0298q-1.4473 0-2.477-1.0251-1.0298-1.0298-1.0298-2.477 0-1.4473 1.0298-2.4724 1.0344-1.0251 2.477-1.0251zm-9e-3 6.4246q1.2014 0 2.0596-0.85816 0.86279-0.86279 0.86279-2.0688 0-1.2061-0.85815-2.0596-0.85816-0.85815-2.0642-0.85815-1.2061 0-2.0642 0.85815-0.85352 0.85352-0.85352 2.0596 0 1.2061 0.85352 2.0688 0.85815 0.85816 2.0642 0.85816zm1.5772-0.98804h-0.6958l-0.29224-0.82104q-0.2644-0.73755-0.99731-0.73755h-0.47779v1.5586h-0.60766v-3.762h1.4148q1.4936 0 1.4936 1.0344 0 0.99732-0.97876 1.0715 0.50098 0.15308 0.74219 0.71436zm-2.4631-2.0828h0.76074q0.89527 0 0.89527-0.58911 0-0.57983-0.9231-0.57983h-0.73291z" fill="#f00" stroke-miterlimit=".8" stroke-width="0" style="paint-order:markers fill stroke" aria-label="®"/></svg>
